  0
SECTION
  2
ENTITIES
  0
POLYLINE
  8
GRID
 62
     2
 66
     1
 10
        0.00
 20
        0.00
  0
VERTEX
  8
GRID
 62
     2
 10
       -6.69
 20
        3.00
  0
VERTEX
  8
GRID
 62
     2
 10
        6.69
 20
        3.00
  0
SEQEND
  0
POLYLINE
  8
EDGES
 62
   253
 66
     1
 10
        0.00
 20
        0.00
  0
VERTEX
  8
EDGES
 62
   253
 10
       -0.00
 20
        3.04
  0
VERTEX
  8
EDGES
 62
   253
 10
       -0.00
 20
        2.89
  0
VERTEX
  8
EDGES
 62
   253
 10
       -0.00
 20
        2.58
  0
VERTEX
  8
EDGES
 62
   253
 10
       -0.00
 20
        2.20
  0
VERTEX
  8
EDGES
 62
   253
 10
       -0.00
 20
        1.82
  0
VERTEX
  8
EDGES
 62
   253
 10
       -0.00
 20
        1.48
  0
VERTEX
  8
EDGES
 62
   253
 10
       -0.00
 20
        1.18
  0
VERTEX
  8
EDGES
 62
   253
 10
       -0.00
 20
        0.92
  0
VERTEX
  8
EDGES
 62
   253
 10
       -0.00
 20
        0.69
  0
VERTEX
  8
EDGES
 62
   253
 10
       -0.00
 20
        0.49
  0
VERTEX
  8
EDGES
 62
   253
 10
       -0.00
 20
        0.31
  0
VERTEX
  8
EDGES
 62
   253
 10
       -0.00
 20
        0.18
  0
VERTEX
  8
EDGES
 62
   253
 10
       -0.00
 20
        0.11
  0
VERTEX
  8
EDGES
 62
   253
 10
       -0.00
 20
        0.08
  0
VERTEX
  8
EDGES
 62
   253
 10
       -0.00
 20
        0.07
  0
VERTEX
  8
EDGES
 62
   253
 10
       -0.00
 20
        0.08
  0
VERTEX
  8
EDGES
 62
   253
 10
       -0.00
 20
        0.09
  0
VERTEX
  8
EDGES
 62
   253
 10
       -0.00
 20
        0.09
  0
VERTEX
  8
EDGES
 62
   253
 10
       -0.00
 20
        0.09
  0
VERTEX
  8
EDGES
 62
   253
 10
       -0.00
 20
        0.09
  0
VERTEX
  8
EDGES
 62
   253
 10
       -0.00
 20
        0.09
  0
VERTEX
  8
EDGES
 62
   253
 10
       -0.00
 20
        0.09
  0
VERTEX
  8
EDGES
 62
   253
 10
       -0.00
 20
        0.09
  0
VERTEX
  8
EDGES
 62
   253
 10
       -0.00
 20
        0.09
  0
VERTEX
  8
EDGES
 62
   253
 10
       -0.00
 20
        0.09
  0
VERTEX
  8
EDGES
 62
   253
 10
       -0.00
 20
        0.09
  0
VERTEX
  8
EDGES
 62
   253
 10
       -0.00
 20
        0.09
  0
VERTEX
  8
EDGES
 62
   253
 10
       -0.00
 20
        0.09
  0
VERTEX
  8
EDGES
 62
   253
 10
       -0.00
 20
        0.10
  0
VERTEX
  8
EDGES
 62
   253
 10
       -0.00
 20
        0.12
  0
VERTEX
  8
EDGES
 62
   253
 10
       -0.00
 20
        0.18
  0
VERTEX
  8
EDGES
 62
   253
 10
       -0.00
 20
        0.26
  0
VERTEX
  8
EDGES
 62
   253
 10
       -0.00
 20
        0.30
  0
SEQEND
  0
POLYLINE
  8
EDGES
 62
   253
 66
     1
 10
        0.00
 20
        0.00
  0
VERTEX
  8
EDGES
 62
   253
 10
       -0.00
 20
        0.30
  0
VERTEX
  8
EDGES
 62
   253
 10
       -0.00
 20
        0.45
  0
VERTEX
  8
EDGES
 62
   253
 10
       -0.00
 20
        0.67
  0
VERTEX
  8
EDGES
 62
   253
 10
       -0.00
 20
        0.94
  0
VERTEX
  8
EDGES
 62
   253
 10
       -0.00
 20
        1.24
  0
VERTEX
  8
EDGES
 62
   253
 10
       -0.00
 20
        1.55
  0
VERTEX
  8
EDGES
 62
   253
 10
       -0.00
 20
        1.85
  0
VERTEX
  8
EDGES
 62
   253
 10
       -0.00
 20
        2.14
  0
VERTEX
  8
EDGES
 62
   253
 10
       -0.00
 20
        2.42
  0
VERTEX
  8
EDGES
 62
   253
 10
       -0.00
 20
        2.68
  0
VERTEX
  8
EDGES
 62
   253
 10
       -0.00
 20
        2.93
  0
VERTEX
  8
EDGES
 62
   253
 10
       -0.00
 20
        3.16
  0
VERTEX
  8
EDGES
 62
   253
 10
       -0.00
 20
        3.38
  0
VERTEX
  8
EDGES
 62
   253
 10
       -0.00
 20
        3.60
  0
VERTEX
  8
EDGES
 62
   253
 10
       -0.00
 20
        3.81
  0
VERTEX
  8
EDGES
 62
   253
 10
       -0.00
 20
        4.02
  0
VERTEX
  8
EDGES
 62
   253
 10
       -0.00
 20
        4.22
  0
VERTEX
  8
EDGES
 62
   253
 10
       -0.00
 20
        4.43
  0
VERTEX
  8
EDGES
 62
   253
 10
       -0.00
 20
        4.63
  0
VERTEX
  8
EDGES
 62
   253
 10
       -0.00
 20
        4.84
  0
VERTEX
  8
EDGES
 62
   253
 10
       -0.00
 20
        5.04
  0
VERTEX
  8
EDGES
 62
   253
 10
       -0.00
 20
        5.26
  0
VERTEX
  8
EDGES
 62
   253
 10
       -0.00
 20
        5.47
  0
VERTEX
  8
EDGES
 62
   253
 10
       -0.00
 20
        5.68
  0
VERTEX
  8
EDGES
 62
   253
 10
       -0.00
 20
        5.89
  0
VERTEX
  8
EDGES
 62
   253
 10
       -0.00
 20
        6.10
  0
VERTEX
  8
EDGES
 62
   253
 10
       -0.00
 20
        6.31
  0
VERTEX
  8
EDGES
 62
   253
 10
       -0.00
 20
        6.51
  0
VERTEX
  8
EDGES
 62
   253
 10
       -0.00
 20
        6.71
  0
VERTEX
  8
EDGES
 62
   253
 10
       -0.00
 20
        6.90
  0
VERTEX
  8
EDGES
 62
   253
 10
       -0.00
 20
        7.08
  0
VERTEX
  8
EDGES
 62
   253
 10
       -0.00
 20
        7.26
  0
VERTEX
  8
EDGES
 62
   253
 10
       -0.00
 20
        7.44
  0
SEQEND
  0
POLYLINE
  8
EDGES
 62
   253
 66
     1
 10
        0.00
 20
        0.00
  0
VERTEX
  8
EDGES
 62
   253
 10
       -0.00
 20
        7.44
  0
VERTEX
  8
EDGES
 62
   253
 10
        0.68
 20
        7.39
  0
VERTEX
  8
EDGES
 62
   253
 10
        1.41
 20
        7.33
  0
VERTEX
  8
EDGES
 62
   253
 10
        2.09
 20
        7.27
  0
VERTEX
  8
EDGES
 62
   253
 10
        2.69
 20
        7.22
  0
VERTEX
  8
EDGES
 62
   253
 10
        3.25
 20
        7.17
  0
VERTEX
  8
EDGES
 62
   253
 10
        3.78
 20
        7.11
  0
VERTEX
  8
EDGES
 62
   253
 10
        4.27
 20
        7.06
  0
VERTEX
  8
EDGES
 62
   253
 10
        4.71
 20
        7.02
  0
VERTEX
  8
EDGES
 62
   253
 10
        5.08
 20
        6.98
  0
VERTEX
  8
EDGES
 62
   253
 10
        5.39
 20
        6.95
  0
VERTEX
  8
EDGES
 62
   253
 10
        5.65
 20
        6.92
  0
VERTEX
  8
EDGES
 62
   253
 10
        5.87
 20
        6.89
  0
VERTEX
  8
EDGES
 62
   253
 10
        6.08
 20
        6.86
  0
VERTEX
  8
EDGES
 62
   253
 10
        6.25
 20
        6.84
  0
VERTEX
  8
EDGES
 62
   253
 10
        6.40
 20
        6.81
  0
VERTEX
  8
EDGES
 62
   253
 10
        6.50
 20
        6.78
  0
VERTEX
  8
EDGES
 62
   253
 10
        6.58
 20
        6.76
  0
VERTEX
  8
EDGES
 62
   253
 10
        6.61
 20
        6.74
  0
VERTEX
  8
EDGES
 62
   253
 10
        6.61
 20
        6.73
  0
VERTEX
  8
EDGES
 62
   253
 10
        6.59
 20
        6.73
  0
VERTEX
  8
EDGES
 62
   253
 10
        6.54
 20
        6.73
  0
VERTEX
  8
EDGES
 62
   253
 10
        6.48
 20
        6.73
  0
VERTEX
  8
EDGES
 62
   253
 10
        6.42
 20
        6.73
  0
VERTEX
  8
EDGES
 62
   253
 10
        6.35
 20
        6.73
  0
VERTEX
  8
EDGES
 62
   253
 10
        6.29
 20
        6.73
  0
VERTEX
  8
EDGES
 62
   253
 10
        6.22
 20
        6.73
  0
VERTEX
  8
EDGES
 62
   253
 10
        6.14
 20
        6.73
  0
VERTEX
  8
EDGES
 62
   253
 10
        6.05
 20
        6.73
  0
VERTEX
  8
EDGES
 62
   253
 10
        5.94
 20
        6.73
  0
VERTEX
  8
EDGES
 62
   253
 10
        5.83
 20
        6.73
  0
VERTEX
  8
EDGES
 62
   253
 10
        5.70
 20
        6.72
  0
VERTEX
  8
EDGES
 62
   253
 10
        5.52
 20
        6.72
  0
SEQEND
  0
POLYLINE
  8
EDGES
 62
   253
 66
     1
 10
        0.00
 20
        0.00
  0
VERTEX
  8
EDGES
 62
   253
 10
        5.52
 20
        6.72
  0
VERTEX
  8
EDGES
 62
   253
 10
        5.37
 20
        6.10
  0
VERTEX
  8
EDGES
 62
   253
 10
        5.25
 20
        5.67
  0
VERTEX
  8
EDGES
 62
   253
 10
        5.14
 20
        5.36
  0
VERTEX
  8
EDGES
 62
   253
 10
        5.05
 20
        5.15
  0
VERTEX
  8
EDGES
 62
   253
 10
        4.96
 20
        5.00
  0
VERTEX
  8
EDGES
 62
   253
 10
        4.88
 20
        4.88
  0
VERTEX
  8
EDGES
 62
   253
 10
        4.80
 20
        4.77
  0
VERTEX
  8
EDGES
 62
   253
 10
        4.72
 20
        4.67
  0
VERTEX
  8
EDGES
 62
   253
 10
        4.63
 20
        4.57
  0
VERTEX
  8
EDGES
 62
   253
 10
        4.55
 20
        4.47
  0
VERTEX
  8
EDGES
 62
   253
 10
        4.45
 20
        4.37
  0
VERTEX
  8
EDGES
 62
   253
 10
        4.35
 20
        4.27
  0
VERTEX
  8
EDGES
 62
   253
 10
        4.24
 20
        4.18
  0
VERTEX
  8
EDGES
 62
   253
 10
        4.13
 20
        4.08
  0
VERTEX
  8
EDGES
 62
   253
 10
        4.00
 20
        3.99
  0
VERTEX
  8
EDGES
 62
   253
 10
        3.87
 20
        3.90
  0
VERTEX
  8
EDGES
 62
   253
 10
        3.72
 20
        3.81
  0
VERTEX
  8
EDGES
 62
   253
 10
        3.56
 20
        3.73
  0
VERTEX
  8
EDGES
 62
   253
 10
        3.39
 20
        3.65
  0
VERTEX
  8
EDGES
 62
   253
 10
        3.21
 20
        3.58
  0
VERTEX
  8
EDGES
 62
   253
 10
        3.02
 20
        3.51
  0
VERTEX
  8
EDGES
 62
   253
 10
        2.81
 20
        3.45
  0
VERTEX
  8
EDGES
 62
   253
 10
        2.59
 20
        3.39
  0
VERTEX
  8
EDGES
 62
   253
 10
        2.36
 20
        3.33
  0
VERTEX
  8
EDGES
 62
   253
 10
        2.11
 20
        3.28
  0
VERTEX
  8
EDGES
 62
   253
 10
        1.85
 20
        3.24
  0
VERTEX
  8
EDGES
 62
   253
 10
        1.57
 20
        3.20
  0
VERTEX
  8
EDGES
 62
   253
 10
        1.28
 20
        3.16
  0
VERTEX
  8
EDGES
 62
   253
 10
        0.98
 20
        3.13
  0
VERTEX
  8
EDGES
 62
   253
 10
        0.67
 20
        3.10
  0
VERTEX
  8
EDGES
 62
   253
 10
        0.34
 20
        3.07
  0
VERTEX
  8
EDGES
 62
   253
 10
       -0.00
 20
        3.04
  0
SEQEND
  0
POLYLINE
  8
ST35
 62
    80
 66
     1
 10
        0.00
 20
        0.00
  0
VERTEX
  8
ST35
 62
    80
 10
        1.61
 20
        7.31
  0
VERTEX
  8
ST35
 62
    80
 10
        1.46
 20
        7.09
  0
VERTEX
  8
ST35
 62
    80
 10
        1.34
 20
        6.88
  0
VERTEX
  8
ST35
 62
    80
 10
        1.24
 20
        6.68
  0
VERTEX
  8
ST35
 62
    80
 10
        1.14
 20
        6.48
  0
VERTEX
  8
ST35
 62
    80
 10
        1.05
 20
        6.29
  0
VERTEX
  8
ST35
 62
    80
 10
        0.97
 20
        6.09
  0
VERTEX
  8
ST35
 62
    80
 10
        0.96
 20
        6.07
  0
VERTEX
  8
ST35
 62
    80
 10
        0.89
 20
        5.89
  0
VERTEX
  8
ST35
 62
    80
 10
        0.81
 20
        5.69
  0
VERTEX
  8
ST35
 62
    80
 10
        0.73
 20
        5.49
  0
VERTEX
  8
ST35
 62
    80
 10
        0.66
 20
        5.29
  0
VERTEX
  8
ST35
 62
    80
 10
        0.59
 20
        5.10
  0
VERTEX
  8
ST35
 62
    80
 10
        0.52
 20
        4.90
  0
VERTEX
  8
ST35
 62
    80
 10
        0.46
 20
        4.71
  0
VERTEX
  8
ST35
 62
    80
 10
        0.40
 20
        4.52
  0
VERTEX
  8
ST35
 62
    80
 10
        0.35
 20
        4.33
  0
VERTEX
  8
ST35
 62
    80
 10
        0.30
 20
        4.14
  0
VERTEX
  8
ST35
 62
    80
 10
        0.25
 20
        3.95
  0
VERTEX
  8
ST35
 62
    80
 10
        0.21
 20
        3.76
  0
VERTEX
  8
ST35
 62
    80
 10
        0.20
 20
        3.72
  0
VERTEX
  8
ST35
 62
    80
 10
        0.16
 20
        3.56
  0
VERTEX
  8
ST35
 62
    80
 10
        0.10
 20
        3.36
  0
VERTEX
  8
ST35
 62
    80
 10
        0.04
 20
        3.15
  0
VERTEX
  8
ST35
 62
    80
 10
       -0.00
 20
        3.00
  0
SEQEND
  0
POLYLINE
  8
ST2
 62
    80
 66
     1
 10
        0.00
 20
        0.00
  0
VERTEX
  8
ST2
 62
    80
 10
        2.10
 20
        7.27
  0
VERTEX
  8
ST2
 62
    80
 10
        1.94
 20
        7.03
  0
VERTEX
  8
ST2
 62
    80
 10
        1.92
 20
        6.99
  0
VERTEX
  8
ST2
 62
    80
 10
        1.81
 20
        6.80
  0
VERTEX
  8
ST2
 62
    80
 10
        1.70
 20
        6.59
  0
VERTEX
  8
ST2
 62
    80
 10
        1.59
 20
        6.38
  0
VERTEX
  8
ST2
 62
    80
 10
        1.50
 20
        6.17
  0
VERTEX
  8
ST2
 62
    80
 10
        1.41
 20
        5.96
  0
VERTEX
  8
ST2
 62
    80
 10
        1.32
 20
        5.76
  0
VERTEX
  8
ST2
 62
    80
 10
        1.24
 20
        5.56
  0
VERTEX
  8
ST2
 62
    80
 10
        1.16
 20
        5.36
  0
VERTEX
  8
ST2
 62
    80
 10
        1.08
 20
        5.15
  0
VERTEX
  8
ST2
 62
    80
 10
        1.00
 20
        4.96
  0
VERTEX
  8
ST2
 62
    80
 10
        0.93
 20
        4.76
  0
VERTEX
  8
ST2
 62
    80
 10
        0.86
 20
        4.57
  0
VERTEX
  8
ST2
 62
    80
 10
        0.80
 20
        4.38
  0
VERTEX
  8
ST2
 62
    80
 10
        0.74
 20
        4.19
  0
VERTEX
  8
ST2
 62
    80
 10
        0.68
 20
        4.00
  0
VERTEX
  8
ST2
 62
    80
 10
        0.63
 20
        3.82
  0
VERTEX
  8
ST2
 62
    80
 10
        0.57
 20
        3.63
  0
VERTEX
  8
ST2
 62
    80
 10
        0.52
 20
        3.43
  0
VERTEX
  8
ST2
 62
    80
 10
        0.48
 20
        3.24
  0
VERTEX
  8
ST2
 62
    80
 10
        0.43
 20
        3.03
  0
VERTEX
  8
ST2
 62
    80
 10
        0.38
 20
        2.81
  0
VERTEX
  8
ST2
 62
    80
 10
        0.37
 20
        2.78
  0
VERTEX
  8
ST2
 62
    80
 10
        0.33
 20
        2.59
  0
VERTEX
  8
ST2
 62
    80
 10
        0.28
 20
        2.34
  0
VERTEX
  8
ST2
 62
    80
 10
        0.23
 20
        2.08
  0
VERTEX
  8
ST2
 62
    80
 10
        0.18
 20
        1.80
  0
VERTEX
  8
ST2
 62
    80
 10
        0.12
 20
        1.51
  0
VERTEX
  8
ST2
 62
    80
 10
        0.08
 20
        1.27
  0
VERTEX
  8
ST2
 62
    80
 10
        0.06
 20
        1.21
  0
VERTEX
  8
ST2
 62
    80
 10
       -0.00
 20
        1.11
  0
SEQEND
  0
POLYLINE
  8
ST3
 62
    80
 66
     1
 10
        0.00
 20
        0.00
  0
VERTEX
  8
ST3
 62
    80
 10
        2.57
 20
        7.23
  0
VERTEX
  8
ST3
 62
    80
 10
        2.40
 20
        6.97
  0
VERTEX
  8
ST3
 62
    80
 10
        2.26
 20
        6.72
  0
VERTEX
  8
ST3
 62
    80
 10
        2.14
 20
        6.49
  0
VERTEX
  8
ST3
 62
    80
 10
        2.03
 20
        6.27
  0
VERTEX
  8
ST3
 62
    80
 10
        1.92
 20
        6.06
  0
VERTEX
  8
ST3
 62
    80
 10
        1.83
 20
        5.85
  0
VERTEX
  8
ST3
 62
    80
 10
        1.73
 20
        5.64
  0
VERTEX
  8
ST3
 62
    80
 10
        1.64
 20
        5.43
  0
VERTEX
  8
ST3
 62
    80
 10
        1.55
 20
        5.23
  0
VERTEX
  8
ST3
 62
    80
 10
        1.47
 20
        5.03
  0
VERTEX
  8
ST3
 62
    80
 10
        1.39
 20
        4.83
  0
VERTEX
  8
ST3
 62
    80
 10
        1.31
 20
        4.63
  0
VERTEX
  8
ST3
 62
    80
 10
        1.23
 20
        4.44
  0
VERTEX
  8
ST3
 62
    80
 10
        1.16
 20
        4.25
  0
VERTEX
  8
ST3
 62
    80
 10
        1.09
 20
        4.07
  0
VERTEX
  8
ST3
 62
    80
 10
        1.02
 20
        3.88
  0
VERTEX
  8
ST3
 62
    80
 10
        0.96
 20
        3.69
  0
VERTEX
  8
ST3
 62
    80
 10
        0.90
 20
        3.51
  0
VERTEX
  8
ST3
 62
    80
 10
        0.84
 20
        3.32
  0
VERTEX
  8
ST3
 62
    80
 10
        0.78
 20
        3.12
  0
VERTEX
  8
ST3
 62
    80
 10
        0.72
 20
        2.92
  0
VERTEX
  8
ST3
 62
    80
 10
        0.66
 20
        2.71
  0
VERTEX
  8
ST3
 62
    80
 10
        0.60
 20
        2.48
  0
VERTEX
  8
ST3
 62
    80
 10
        0.53
 20
        2.24
  0
VERTEX
  8
ST3
 62
    80
 10
        0.47
 20
        1.99
  0
VERTEX
  8
ST3
 62
    80
 10
        0.40
 20
        1.71
  0
VERTEX
  8
ST3
 62
    80
 10
        0.36
 20
        1.56
  0
VERTEX
  8
ST3
 62
    80
 10
        0.33
 20
        1.42
  0
VERTEX
  8
ST3
 62
    80
 10
        0.25
 20
        1.12
  0
VERTEX
  8
ST3
 62
    80
 10
        0.18
 20
        0.83
  0
VERTEX
  8
ST3
 62
    80
 10
        0.11
 20
        0.56
  0
VERTEX
  8
ST3
 62
    80
 10
        0.05
 20
        0.39
  0
VERTEX
  8
ST3
 62
    80
 10
        0.04
 20
        0.35
  0
VERTEX
  8
ST3
 62
    80
 10
        0.00
 20
        0.27
  0
VERTEX
  8
ST3
 62
    80
 10
       -0.00
 20
        0.27
  0
SEQEND
  0
POLYLINE
  8
ST4
 62
    80
 66
     1
 10
        0.00
 20
        0.00
  0
VERTEX
  8
ST4
 62
    80
 10
        3.01
 20
        7.19
  0
VERTEX
  8
ST4
 62
    80
 10
        2.84
 20
        6.91
  0
VERTEX
  8
ST4
 62
    80
 10
        2.69
 20
        6.65
  0
VERTEX
  8
ST4
 62
    80
 10
        2.56
 20
        6.40
  0
VERTEX
  8
ST4
 62
    80
 10
        2.44
 20
        6.17
  0
VERTEX
  8
ST4
 62
    80
 10
        2.34
 20
        5.95
  0
VERTEX
  8
ST4
 62
    80
 10
        2.23
 20
        5.74
  0
VERTEX
  8
ST4
 62
    80
 10
        2.13
 20
        5.53
  0
VERTEX
  8
ST4
 62
    80
 10
        2.03
 20
        5.32
  0
VERTEX
  8
ST4
 62
    80
 10
        1.94
 20
        5.11
  0
VERTEX
  8
ST4
 62
    80
 10
        1.84
 20
        4.91
  0
VERTEX
  8
ST4
 62
    80
 10
        1.75
 20
        4.72
  0
VERTEX
  8
ST4
 62
    80
 10
        1.67
 20
        4.52
  0
VERTEX
  8
ST4
 62
    80
 10
        1.58
 20
        4.33
  0
VERTEX
  8
ST4
 62
    80
 10
        1.50
 20
        4.14
  0
VERTEX
  8
ST4
 62
    80
 10
        1.43
 20
        3.95
  0
VERTEX
  8
ST4
 62
    80
 10
        1.35
 20
        3.77
  0
VERTEX
  8
ST4
 62
    80
 10
        1.28
 20
        3.58
  0
VERTEX
  8
ST4
 62
    80
 10
        1.21
 20
        3.40
  0
VERTEX
  8
ST4
 62
    80
 10
        1.14
 20
        3.21
  0
VERTEX
  8
ST4
 62
    80
 10
        1.07
 20
        3.01
  0
VERTEX
  8
ST4
 62
    80
 10
        0.99
 20
        2.81
  0
VERTEX
  8
ST4
 62
    80
 10
        0.92
 20
        2.60
  0
VERTEX
  8
ST4
 62
    80
 10
        0.84
 20
        2.38
  0
VERTEX
  8
ST4
 62
    80
 10
        0.76
 20
        2.15
  0
VERTEX
  8
ST4
 62
    80
 10
        0.68
 20
        1.90
  0
VERTEX
  8
ST4
 62
    80
 10
        0.59
 20
        1.63
  0
VERTEX
  8
ST4
 62
    80
 10
        0.50
 20
        1.34
  0
VERTEX
  8
ST4
 62
    80
 10
        0.40
 20
        1.05
  0
VERTEX
  8
ST4
 62
    80
 10
        0.29
 20
        0.76
  0
VERTEX
  8
ST4
 62
    80
 10
        0.19
 20
        0.49
  0
VERTEX
  8
ST4
 62
    80
 10
        0.09
 20
        0.26
  0
VERTEX
  8
ST4
 62
    80
 10
        0.07
 20
        0.23
  0
VERTEX
  8
ST4
 62
    80
 10
       -0.00
 20
        0.10
  0
SEQEND
  0
POLYLINE
  8
ST5
 62
    80
 66
     1
 10
        0.00
 20
        0.00
  0
VERTEX
  8
ST5
 62
    80
 10
        3.42
 20
        7.15
  0
VERTEX
  8
ST5
 62
    80
 10
        3.25
 20
        6.85
  0
VERTEX
  8
ST5
 62
    80
 10
        3.10
 20
        6.57
  0
VERTEX
  8
ST5
 62
    80
 10
        2.96
 20
        6.32
  0
VERTEX
  8
ST5
 62
    80
 10
        2.84
 20
        6.08
  0
VERTEX
  8
ST5
 62
    80
 10
        2.73
 20
        5.85
  0
VERTEX
  8
ST5
 62
    80
 10
        2.62
 20
        5.64
  0
VERTEX
  8
ST5
 62
    80
 10
        2.51
 20
        5.42
  0
VERTEX
  8
ST5
 62
    80
 10
        2.41
 20
        5.21
  0
VERTEX
  8
ST5
 62
    80
 10
        2.31
 20
        5.01
  0
VERTEX
  8
ST5
 62
    80
 10
        2.21
 20
        4.81
  0
VERTEX
  8
ST5
 62
    80
 10
        2.11
 20
        4.61
  0
VERTEX
  8
ST5
 62
    80
 10
        2.02
 20
        4.42
  0
VERTEX
  8
ST5
 62
    80
 10
        1.92
 20
        4.23
  0
VERTEX
  8
ST5
 62
    80
 10
        1.84
 20
        4.04
  0
VERTEX
  8
ST5
 62
    80
 10
        1.75
 20
        3.85
  0
VERTEX
  8
ST5
 62
    80
 10
        1.67
 20
        3.67
  0
VERTEX
  8
ST5
 62
    80
 10
        1.59
 20
        3.48
  0
VERTEX
  8
ST5
 62
    80
 10
        1.51
 20
        3.30
  0
VERTEX
  8
ST5
 62
    80
 10
        1.43
 20
        3.11
  0
VERTEX
  8
ST5
 62
    80
 10
        1.35
 20
        2.92
  0
VERTEX
  8
ST5
 62
    80
 10
        1.26
 20
        2.72
  0
VERTEX
  8
ST5
 62
    80
 10
        1.17
 20
        2.51
  0
VERTEX
  8
ST5
 62
    80
 10
        1.08
 20
        2.29
  0
VERTEX
  8
ST5
 62
    80
 10
        0.99
 20
        2.06
  0
VERTEX
  8
ST5
 62
    80
 10
        0.88
 20
        1.81
  0
VERTEX
  8
ST5
 62
    80
 10
        0.77
 20
        1.55
  0
VERTEX
  8
ST5
 62
    80
 10
        0.65
 20
        1.27
  0
VERTEX
  8
ST5
 62
    80
 10
        0.53
 20
        0.99
  0
VERTEX
  8
ST5
 62
    80
 10
        0.40
 20
        0.71
  0
VERTEX
  8
ST5
 62
    80
 10
        0.26
 20
        0.46
  0
VERTEX
  8
ST5
 62
    80
 10
        0.13
 20
        0.24
  0
VERTEX
  8
ST5
 62
    80
 10
       -0.00
 20
        0.09
  0
SEQEND
  0
POLYLINE
  8
ST6
 62
    80
 66
     1
 10
        0.00
 20
        0.00
  0
VERTEX
  8
ST6
 62
    80
 10
        3.81
 20
        7.11
  0
VERTEX
  8
ST6
 62
    80
 10
        3.63
 20
        6.80
  0
VERTEX
  8
ST6
 62
    80
 10
        3.48
 20
        6.51
  0
VERTEX
  8
ST6
 62
    80
 10
        3.34
 20
        6.24
  0
VERTEX
  8
ST6
 62
    80
 10
        3.22
 20
        6.00
  0
VERTEX
  8
ST6
 62
    80
 10
        3.10
 20
        5.77
  0
VERTEX
  8
ST6
 62
    80
 10
        2.99
 20
        5.54
  0
VERTEX
  8
ST6
 62
    80
 10
        2.88
 20
        5.33
  0
VERTEX
  8
ST6
 62
    80
 10
        2.77
 20
        5.12
  0
VERTEX
  8
ST6
 62
    80
 10
        2.66
 20
        4.91
  0
VERTEX
  8
ST6
 62
    80
 10
        2.55
 20
        4.71
  0
VERTEX
  8
ST6
 62
    80
 10
        2.45
 20
        4.51
  0
VERTEX
  8
ST6
 62
    80
 10
        2.35
 20
        4.32
  0
VERTEX
  8
ST6
 62
    80
 10
        2.26
 20
        4.13
  0
VERTEX
  8
ST6
 62
    80
 10
        2.16
 20
        3.94
  0
VERTEX
  8
ST6
 62
    80
 10
        2.07
 20
        3.76
  0
VERTEX
  8
ST6
 62
    80
 10
        1.98
 20
        3.57
  0
VERTEX
  8
ST6
 62
    80
 10
        1.89
 20
        3.39
  0
VERTEX
  8
ST6
 62
    80
 10
        1.80
 20
        3.20
  0
VERTEX
  8
ST6
 62
    80
 10
        1.71
 20
        3.02
  0
VERTEX
  8
ST6
 62
    80
 10
        1.62
 20
        2.82
  0
VERTEX
  8
ST6
 62
    80
 10
        1.52
 20
        2.63
  0
VERTEX
  8
ST6
 62
    80
 10
        1.42
 20
        2.42
  0
VERTEX
  8
ST6
 62
    80
 10
        1.32
 20
        2.21
  0
VERTEX
  8
ST6
 62
    80
 10
        1.20
 20
        1.98
  0
VERTEX
  8
ST6
 62
    80
 10
        1.08
 20
        1.74
  0
VERTEX
  8
ST6
 62
    80
 10
        0.95
 20
        1.48
  0
VERTEX
  8
ST6
 62
    80
 10
        0.81
 20
        1.21
  0
VERTEX
  8
ST6
 62
    80
 10
        0.66
 20
        0.94
  0
VERTEX
  8
ST6
 62
    80
 10
        0.50
 20
        0.67
  0
VERTEX
  8
ST6
 62
    80
 10
        0.33
 20
        0.43
  0
VERTEX
  8
ST6
 62
    80
 10
        0.17
 20
        0.23
  0
VERTEX
  8
ST6
 62
    80
 10
       -0.00
 20
        0.09
  0
SEQEND
  0
POLYLINE
  8
ST34
 62
    80
 66
     1
 10
        0.00
 20
        0.00
  0
VERTEX
  8
ST34
 62
    80
 10
        4.15
 20
        7.08
  0
VERTEX
  8
ST34
 62
    80
 10
        3.98
 20
        6.75
  0
VERTEX
  8
ST34
 62
    80
 10
        3.83
 20
        6.45
  0
VERTEX
  8
ST34
 62
    80
 10
        3.69
 20
        6.18
  0
VERTEX
  8
ST34
 62
    80
 10
        3.57
 20
        5.93
  0
VERTEX
  8
ST34
 62
    80
 10
        3.45
 20
        5.69
  0
VERTEX
  8
ST34
 62
    80
 10
        3.33
 20
        5.46
  0
VERTEX
  8
ST34
 62
    80
 10
        3.22
 20
        5.24
  0
VERTEX
  8
ST34
 62
    80
 10
        3.11
 20
        5.03
  0
VERTEX
  8
ST34
 62
    80
 10
        3.00
 20
        4.82
  0
VERTEX
  8
ST34
 62
    80
 10
        2.89
 20
        4.62
  0
VERTEX
  8
ST34
 62
    80
 10
        2.78
 20
        4.43
  0
VERTEX
  8
ST34
 62
    80
 10
        2.67
 20
        4.23
  0
VERTEX
  8
ST34
 62
    80
 10
        2.57
 20
        4.04
  0
VERTEX
  8
ST34
 62
    80
 10
        2.47
 20
        3.86
  0
VERTEX
  8
ST34
 62
    80
 10
        2.38
 20
        3.67
  0
VERTEX
  8
ST34
 62
    80
 10
        2.28
 20
        3.49
  0
VERTEX
  8
ST34
 62
    80
 10
        2.18
 20
        3.30
  0
VERTEX
  8
ST34
 62
    80
 10
        2.09
 20
        3.12
  0
VERTEX
  8
ST34
 62
    80
 10
        1.99
 20
        2.93
  0
VERTEX
  8
ST34
 62
    80
 10
        1.88
 20
        2.74
  0
VERTEX
  8
ST34
 62
    80
 10
        1.78
 20
        2.54
  0
VERTEX
  8
ST34
 62
    80
 10
        1.66
 20
        2.34
  0
VERTEX
  8
ST34
 62
    80
 10
        1.54
 20
        2.13
  0
VERTEX
  8
ST34
 62
    80
 10
        1.41
 20
        1.90
  0
VERTEX
  8
ST34
 62
    80
 10
        1.27
 20
        1.67
  0
VERTEX
  8
ST34
 62
    80
 10
        1.12
 20
        1.42
  0
VERTEX
  8
ST34
 62
    80
 10
        0.95
 20
        1.16
  0
VERTEX
  8
ST34
 62
    80
 10
        0.78
 20
        0.89
  0
VERTEX
  8
ST34
 62
    80
 10
        0.59
 20
        0.64
  0
VERTEX
  8
ST34
 62
    80
 10
        0.40
 20
        0.40
  0
VERTEX
  8
ST34
 62
    80
 10
        0.20
 20
        0.21
  0
VERTEX
  8
ST34
 62
    80
 10
       -0.00
 20
        0.09
  0
SEQEND
  0
POLYLINE
  8
ST33
 62
    80
 66
     1
 10
        0.00
 20
        0.00
  0
VERTEX
  8
ST33
 62
    80
 10
        4.46
 20
        7.04
  0
VERTEX
  8
ST33
 62
    80
 10
        4.29
 20
        6.71
  0
VERTEX
  8
ST33
 62
    80
 10
        4.14
 20
        6.40
  0
VERTEX
  8
ST33
 62
    80
 10
        4.00
 20
        6.12
  0
VERTEX
  8
ST33
 62
    80
 10
        3.88
 20
        5.86
  0
VERTEX
  8
ST33
 62
    80
 10
        3.76
 20
        5.62
  0
VERTEX
  8
ST33
 62
    80
 10
        3.64
 20
        5.39
  0
VERTEX
  8
ST33
 62
    80
 10
        3.53
 20
        5.17
  0
VERTEX
  8
ST33
 62
    80
 10
        3.41
 20
        4.95
  0
VERTEX
  8
ST33
 62
    80
 10
        3.30
 20
        4.75
  0
VERTEX
  8
ST33
 62
    80
 10
        3.19
 20
        4.54
  0
VERTEX
  8
ST33
 62
    80
 10
        3.08
 20
        4.35
  0
VERTEX
  8
ST33
 62
    80
 10
        2.97
 20
        4.16
  0
VERTEX
  8
ST33
 62
    80
 10
        2.87
 20
        3.97
  0
VERTEX
  8
ST33
 62
    80
 10
        2.76
 20
        3.78
  0
VERTEX
  8
ST33
 62
    80
 10
        2.66
 20
        3.60
  0
VERTEX
  8
ST33
 62
    80
 10
        2.56
 20
        3.41
  0
VERTEX
  8
ST33
 62
    80
 10
        2.46
 20
        3.23
  0
VERTEX
  8
ST33
 62
    80
 10
        2.35
 20
        3.05
  0
VERTEX
  8
ST33
 62
    80
 10
        2.24
 20
        2.86
  0
VERTEX
  8
ST33
 62
    80
 10
        2.13
 20
        2.67
  0
VERTEX
  8
ST33
 62
    80
 10
        2.01
 20
        2.47
  0
VERTEX
  8
ST33
 62
    80
 10
        1.89
 20
        2.27
  0
VERTEX
  8
ST33
 62
    80
 10
        1.75
 20
        2.06
  0
VERTEX
  8
ST33
 62
    80
 10
        1.61
 20
        1.84
  0
VERTEX
  8
ST33
 62
    80
 10
        1.45
 20
        1.61
  0
VERTEX
  8
ST33
 62
    80
 10
        1.27
 20
        1.36
  0
VERTEX
  8
ST33
 62
    80
 10
        1.09
 20
        1.11
  0
VERTEX
  8
ST33
 62
    80
 10
        0.89
 20
        0.85
  0
VERTEX
  8
ST33
 62
    80
 10
        0.68
 20
        0.61
  0
VERTEX
  8
ST33
 62
    80
 10
        0.45
 20
        0.38
  0
VERTEX
  8
ST33
 62
    80
 10
        0.23
 20
        0.20
  0
VERTEX
  8
ST33
 62
    80
 10
       -0.00
 20
        0.09
  0
SEQEND
  0
POLYLINE
  8
ST38
 62
    80
 66
     1
 10
        0.00
 20
        0.00
  0
VERTEX
  8
ST38
 62
    80
 10
        4.74
 20
        7.02
  0
VERTEX
  8
ST38
 62
    80
 10
        4.57
 20
        6.67
  0
VERTEX
  8
ST38
 62
    80
 10
        4.42
 20
        6.36
  0
VERTEX
  8
ST38
 62
    80
 10
        4.29
 20
        6.08
  0
VERTEX
  8
ST38
 62
    80
 10
        4.17
 20
        5.81
  0
VERTEX
  8
ST38
 62
    80
 10
        4.05
 20
        5.56
  0
VERTEX
  8
ST38
 62
    80
 10
        3.93
 20
        5.33
  0
VERTEX
  8
ST38
 62
    80
 10
        3.82
 20
        5.10
  0
VERTEX
  8
ST38
 62
    80
 10
        3.71
 20
        4.88
  0
VERTEX
  8
ST38
 62
    80
 10
        3.59
 20
        4.68
  0
VERTEX
  8
ST38
 62
    80
 10
        3.48
 20
        4.47
  0
VERTEX
  8
ST38
 62
    80
 10
        3.37
 20
        4.28
  0
VERTEX
  8
ST38
 62
    80
 10
        3.26
 20
        4.09
  0
VERTEX
  8
ST38
 62
    80
 10
        3.15
 20
        3.90
  0
VERTEX
  8
ST38
 62
    80
 10
        3.04
 20
        3.71
  0
VERTEX
  8
ST38
 62
    80
 10
        2.93
 20
        3.53
  0
VERTEX
  8
ST38
 62
    80
 10
        2.83
 20
        3.35
  0
VERTEX
  8
ST38
 62
    80
 10
        2.72
 20
        3.16
  0
VERTEX
  8
ST38
 62
    80
 10
        2.60
 20
        2.98
  0
VERTEX
  8
ST38
 62
    80
 10
        2.49
 20
        2.79
  0
VERTEX
  8
ST38
 62
    80
 10
        2.37
 20
        2.60
  0
VERTEX
  8
ST38
 62
    80
 10
        2.24
 20
        2.41
  0
VERTEX
  8
ST38
 62
    80
 10
        2.10
 20
        2.21
  0
VERTEX
  8
ST38
 62
    80
 10
        1.95
 20
        2.00
  0
VERTEX
  8
ST38
 62
    80
 10
        1.79
 20
        1.79
  0
VERTEX
  8
ST38
 62
    80
 10
        1.61
 20
        1.56
  0
VERTEX
  8
ST38
 62
    80
 10
        1.42
 20
        1.32
  0
VERTEX
  8
ST38
 62
    80
 10
        1.22
 20
        1.07
  0
VERTEX
  8
ST38
 62
    80
 10
        0.99
 20
        0.82
  0
VERTEX
  8
ST38
 62
    80
 10
        0.76
 20
        0.58
  0
VERTEX
  8
ST38
 62
    80
 10
        0.51
 20
        0.36
  0
VERTEX
  8
ST38
 62
    80
 10
        0.26
 20
        0.19
  0
VERTEX
  8
ST38
 62
    80
 10
       -0.00
 20
        0.09
  0
SEQEND
  0
POLYLINE
  8
ST37
 62
    80
 66
     1
 10
        0.00
 20
        0.00
  0
VERTEX
  8
ST37
 62
    80
 10
        4.97
 20
        6.99
  0
VERTEX
  8
ST37
 62
    80
 10
        4.81
 20
        6.65
  0
VERTEX
  8
ST37
 62
    80
 10
        4.67
 20
        6.33
  0
VERTEX
  8
ST37
 62
    80
 10
        4.54
 20
        6.04
  0
VERTEX
  8
ST37
 62
    80
 10
        4.42
 20
        5.77
  0
VERTEX
  8
ST37
 62
    80
 10
        4.31
 20
        5.51
  0
VERTEX
  8
ST37
 62
    80
 10
        4.19
 20
        5.27
  0
VERTEX
  8
ST37
 62
    80
 10
        4.08
 20
        5.04
  0
VERTEX
  8
ST37
 62
    80
 10
        3.97
 20
        4.83
  0
VERTEX
  8
ST37
 62
    80
 10
        3.86
 20
        4.62
  0
VERTEX
  8
ST37
 62
    80
 10
        3.74
 20
        4.41
  0
VERTEX
  8
ST37
 62
    80
 10
        3.63
 20
        4.22
  0
VERTEX
  8
ST37
 62
    80
 10
        3.52
 20
        4.02
  0
VERTEX
  8
ST37
 62
    80
 10
        3.41
 20
        3.84
  0
VERTEX
  8
ST37
 62
    80
 10
        3.30
 20
        3.65
  0
VERTEX
  8
ST37
 62
    80
 10
        3.19
 20
        3.47
  0
VERTEX
  8
ST37
 62
    80
 10
        3.08
 20
        3.29
  0
VERTEX
  8
ST37
 62
    80
 10
        2.96
 20
        3.10
  0
VERTEX
  8
ST37
 62
    80
 10
        2.84
 20
        2.92
  0
VERTEX
  8
ST37
 62
    80
 10
        2.72
 20
        2.74
  0
VERTEX
  8
ST37
 62
    80
 10
        2.59
 20
        2.55
  0
VERTEX
  8
ST37
 62
    80
 10
        2.45
 20
        2.36
  0
VERTEX
  8
ST37
 62
    80
 10
        2.30
 20
        2.16
  0
VERTEX
  8
ST37
 62
    80
 10
        2.14
 20
        1.95
  0
VERTEX
  8
ST37
 62
    80
 10
        1.96
 20
        1.74
  0
VERTEX
  8
ST37
 62
    80
 10
        1.77
 20
        1.51
  0
VERTEX
  8
ST37
 62
    80
 10
        1.56
 20
        1.27
  0
VERTEX
  8
ST37
 62
    80
 10
        1.34
 20
        1.03
  0
VERTEX
  8
ST37
 62
    80
 10
        1.09
 20
        0.79
  0
VERTEX
  8
ST37
 62
    80
 10
        0.83
 20
        0.55
  0
VERTEX
  8
ST37
 62
    80
 10
        0.56
 20
        0.35
  0
VERTEX
  8
ST37
 62
    80
 10
        0.28
 20
        0.18
  0
VERTEX
  8
ST37
 62
    80
 10
       -0.00
 20
        0.09
  0
SEQEND
  0
POLYLINE
  8
ST36
 62
    80
 66
     1
 10
        0.00
 20
        0.00
  0
VERTEX
  8
ST36
 62
    80
 10
        5.18
 20
        6.97
  0
VERTEX
  8
ST36
 62
    80
 10
        5.02
 20
        6.62
  0
VERTEX
  8
ST36
 62
    80
 10
        4.89
 20
        6.30
  0
VERTEX
  8
ST36
 62
    80
 10
        4.76
 20
        6.01
  0
VERTEX
  8
ST36
 62
    80
 10
        4.65
 20
        5.73
  0
VERTEX
  8
ST36
 62
    80
 10
        4.54
 20
        5.47
  0
VERTEX
  8
ST36
 62
    80
 10
        4.43
 20
        5.23
  0
VERTEX
  8
ST36
 62
    80
 10
        4.32
 20
        5.00
  0
VERTEX
  8
ST36
 62
    80
 10
        4.21
 20
        4.77
  0
VERTEX
  8
ST36
 62
    80
 10
        4.10
 20
        4.56
  0
VERTEX
  8
ST36
 62
    80
 10
        3.99
 20
        4.36
  0
VERTEX
  8
ST36
 62
    80
 10
        3.88
 20
        4.16
  0
VERTEX
  8
ST36
 62
    80
 10
        3.77
 20
        3.97
  0
VERTEX
  8
ST36
 62
    80
 10
        3.65
 20
        3.78
  0
VERTEX
  8
ST36
 62
    80
 10
        3.54
 20
        3.60
  0
VERTEX
  8
ST36
 62
    80
 10
        3.43
 20
        3.42
  0
VERTEX
  8
ST36
 62
    80
 10
        3.31
 20
        3.23
  0
VERTEX
  8
ST36
 62
    80
 10
        3.19
 20
        3.05
  0
VERTEX
  8
ST36
 62
    80
 10
        3.07
 20
        2.87
  0
VERTEX
  8
ST36
 62
    80
 10
        2.94
 20
        2.69
  0
VERTEX
  8
ST36
 62
    80
 10
        2.80
 20
        2.50
  0
VERTEX
  8
ST36
 62
    80
 10
        2.65
 20
        2.31
  0
VERTEX
  8
ST36
 62
    80
 10
        2.49
 20
        2.11
  0
VERTEX
  8
ST36
 62
    80
 10
        2.31
 20
        1.91
  0
VERTEX
  8
ST36
 62
    80
 10
        2.12
 20
        1.69
  0
VERTEX
  8
ST36
 62
    80
 10
        1.92
 20
        1.47
  0
VERTEX
  8
ST36
 62
    80
 10
        1.69
 20
        1.24
  0
VERTEX
  8
ST36
 62
    80
 10
        1.45
 20
        1.00
  0
VERTEX
  8
ST36
 62
    80
 10
        1.18
 20
        0.76
  0
VERTEX
  8
ST36
 62
    80
 10
        0.90
 20
        0.53
  0
VERTEX
  8
ST36
 62
    80
 10
        0.61
 20
        0.33
  0
VERTEX
  8
ST36
 62
    80
 10
        0.31
 20
        0.18
  0
VERTEX
  8
ST36
 62
    80
 10
       -0.00
 20
        0.09
  0
SEQEND
  0
POLYLINE
  8
ST29
 62
    80
 66
     1
 10
        0.00
 20
        0.00
  0
VERTEX
  8
ST29
 62
    80
 10
       -0.00
 20
        0.09
  0
VERTEX
  8
ST29
 62
    80
 10
        0.33
 20
        0.17
  0
VERTEX
  8
ST29
 62
    80
 10
        0.66
 20
        0.32
  0
VERTEX
  8
ST29
 62
    80
 10
        0.97
 20
        0.51
  0
VERTEX
  8
ST29
 62
    80
 10
        1.27
 20
        0.73
  0
VERTEX
  8
ST29
 62
    80
 10
        1.56
 20
        0.97
  0
VERTEX
  8
ST29
 62
    80
 10
        1.82
 20
        1.20
  0
VERTEX
  8
ST29
 62
    80
 10
        2.06
 20
        1.43
  0
VERTEX
  8
ST29
 62
    80
 10
        2.28
 20
        1.65
  0
VERTEX
  8
ST29
 62
    80
 10
        2.48
 20
        1.87
  0
VERTEX
  8
ST29
 62
    80
 10
        2.67
 20
        2.07
  0
VERTEX
  8
ST29
 62
    80
 10
        2.84
 20
        2.26
  0
VERTEX
  8
ST29
 62
    80
 10
        3.00
 20
        2.45
  0
VERTEX
  8
ST29
 62
    80
 10
        3.15
 20
        2.64
  0
VERTEX
  8
ST29
 62
    80
 10
        3.23
 20
        2.75
  0
VERTEX
  8
ST29
 62
    80
 10
        3.28
 20
        2.82
  0
VERTEX
  8
ST29
 62
    80
 10
        3.41
 20
        3.00
  0
VERTEX
  8
ST29
 62
    80
 10
        3.54
 20
        3.19
  0
VERTEX
  8
ST29
 62
    80
 10
        3.66
 20
        3.37
  0
VERTEX
  8
ST29
 62
    80
 10
        3.77
 20
        3.55
  0
VERTEX
  8
ST29
 62
    80
 10
        3.89
 20
        3.73
  0
VERTEX
  8
ST29
 62
    80
 10
        4.00
 20
        3.92
  0
VERTEX
  8
ST29
 62
    80
 10
        4.11
 20
        4.11
  0
VERTEX
  8
ST29
 62
    80
 10
        4.22
 20
        4.31
  0
VERTEX
  8
ST29
 62
    80
 10
        4.33
 20
        4.51
  0
VERTEX
  8
ST29
 62
    80
 10
        4.44
 20
        4.73
  0
VERTEX
  8
ST29
 62
    80
 10
        4.55
 20
        4.95
  0
VERTEX
  8
ST29
 62
    80
 10
        4.65
 20
        5.19
  0
VERTEX
  8
ST29
 62
    80
 10
        4.76
 20
        5.43
  0
VERTEX
  8
ST29
 62
    80
 10
        4.86
 20
        5.70
  0
VERTEX
  8
ST29
 62
    80
 10
        4.97
 20
        5.98
  0
VERTEX
  8
ST29
 62
    80
 10
        5.09
 20
        6.28
  0
VERTEX
  8
ST29
 62
    80
 10
        5.21
 20
        6.60
  0
VERTEX
  8
ST29
 62
    80
 10
        5.36
 20
        6.95
  0
SEQEND
  0
POLYLINE
  8
ST28
 62
    80
 66
     1
 10
        0.00
 20
        0.00
  0
VERTEX
  8
ST28
 62
    80
 10
        5.51
 20
        6.93
  0
VERTEX
  8
ST28
 62
    80
 10
        5.38
 20
        6.58
  0
VERTEX
  8
ST28
 62
    80
 10
        5.26
 20
        6.26
  0
VERTEX
  8
ST28
 62
    80
 10
        5.15
 20
        5.95
  0
VERTEX
  8
ST28
 62
    80
 10
        5.05
 20
        5.67
  0
VERTEX
  8
ST28
 62
    80
 10
        4.95
 20
        5.40
  0
VERTEX
  8
ST28
 62
    80
 10
        4.85
 20
        5.15
  0
VERTEX
  8
ST28
 62
    80
 10
        4.75
 20
        4.91
  0
VERTEX
  8
ST28
 62
    80
 10
        4.65
 20
        4.69
  0
VERTEX
  8
ST28
 62
    80
 10
        4.54
 20
        4.47
  0
VERTEX
  8
ST28
 62
    80
 10
        4.44
 20
        4.27
  0
VERTEX
  8
ST28
 62
    80
 10
        4.33
 20
        4.07
  0
VERTEX
  8
ST28
 62
    80
 10
        4.22
 20
        3.88
  0
VERTEX
  8
ST28
 62
    80
 10
        4.10
 20
        3.69
  0
VERTEX
  8
ST28
 62
    80
 10
        3.99
 20
        3.50
  0
VERTEX
  8
ST28
 62
    80
 10
        3.87
 20
        3.32
  0
VERTEX
  8
ST28
 62
    80
 10
        3.75
 20
        3.14
  0
VERTEX
  8
ST28
 62
    80
 10
        3.62
 20
        2.96
  0
VERTEX
  8
ST28
 62
    80
 10
        3.48
 20
        2.78
  0
VERTEX
  8
ST28
 62
    80
 10
        3.34
 20
        2.60
  0
VERTEX
  8
ST28
 62
    80
 10
        3.19
 20
        2.41
  0
VERTEX
  8
ST28
 62
    80
 10
        3.02
 20
        2.22
  0
VERTEX
  8
ST28
 62
    80
 10
        2.84
 20
        2.03
  0
VERTEX
  8
ST28
 62
    80
 10
        2.64
 20
        1.83
  0
VERTEX
  8
ST28
 62
    80
 10
        2.43
 20
        1.62
  0
VERTEX
  8
ST28
 62
    80
 10
        2.20
 20
        1.40
  0
VERTEX
  8
ST28
 62
    80
 10
        1.94
 20
        1.17
  0
VERTEX
  8
ST28
 62
    80
 10
        1.66
 20
        0.94
  0
VERTEX
  8
ST28
 62
    80
 10
        1.36
 20
        0.71
  0
VERTEX
  8
ST28
 62
    80
 10
        1.04
 20
        0.49
  0
VERTEX
  8
ST28
 62
    80
 10
        0.70
 20
        0.30
  0
VERTEX
  8
ST28
 62
    80
 10
        0.35
 20
        0.16
  0
VERTEX
  8
ST28
 62
    80
 10
       -0.00
 20
        0.09
  0
SEQEND
  0
POLYLINE
  8
ST27
 62
    80
 66
     1
 10
        0.00
 20
        0.00
  0
VERTEX
  8
ST27
 62
    80
 10
        5.66
 20
        6.92
  0
VERTEX
  8
ST27
 62
    80
 10
        5.54
 20
        6.57
  0
VERTEX
  8
ST27
 62
    80
 10
        5.43
 20
        6.24
  0
VERTEX
  8
ST27
 62
    80
 10
        5.33
 20
        5.93
  0
VERTEX
  8
ST27
 62
    80
 10
        5.23
 20
        5.64
  0
VERTEX
  8
ST27
 62
    80
 10
        5.14
 20
        5.37
  0
VERTEX
  8
ST27
 62
    80
 10
        5.05
 20
        5.12
  0
VERTEX
  8
ST27
 62
    80
 10
        4.95
 20
        4.87
  0
VERTEX
  8
ST27
 62
    80
 10
        4.85
 20
        4.65
  0
VERTEX
  8
ST27
 62
    80
 10
        4.75
 20
        4.43
  0
VERTEX
  8
ST27
 62
    80
 10
        4.64
 20
        4.22
  0
VERTEX
  8
ST27
 62
    80
 10
        4.54
 20
        4.02
  0
VERTEX
  8
ST27
 62
    80
 10
        4.43
 20
        3.83
  0
VERTEX
  8
ST27
 62
    80
 10
        4.32
 20
        3.64
  0
VERTEX
  8
ST27
 62
    80
 10
        4.20
 20
        3.46
  0
VERTEX
  8
ST27
 62
    80
 10
        4.08
 20
        3.28
  0
VERTEX
  8
ST27
 62
    80
 10
        3.95
 20
        3.10
  0
VERTEX
  8
ST27
 62
    80
 10
        3.82
 20
        2.92
  0
VERTEX
  8
ST27
 62
    80
 10
        3.68
 20
        2.74
  0
VERTEX
  8
ST27
 62
    80
 10
        3.53
 20
        2.56
  0
VERTEX
  8
ST27
 62
    80
 10
        3.37
 20
        2.37
  0
VERTEX
  8
ST27
 62
    80
 10
        3.20
 20
        2.19
  0
VERTEX
  8
ST27
 62
    80
 10
        3.01
 20
        1.99
  0
VERTEX
  8
ST27
 62
    80
 10
        2.80
 20
        1.79
  0
VERTEX
  8
ST27
 62
    80
 10
        2.58
 20
        1.58
  0
VERTEX
  8
ST27
 62
    80
 10
        2.33
 20
        1.37
  0
VERTEX
  8
ST27
 62
    80
 10
        2.06
 20
        1.14
  0
VERTEX
  8
ST27
 62
    80
 10
        1.76
 20
        0.91
  0
VERTEX
  8
ST27
 62
    80
 10
        1.44
 20
        0.69
  0
VERTEX
  8
ST27
 62
    80
 10
        1.10
 20
        0.47
  0
VERTEX
  8
ST27
 62
    80
 10
        0.74
 20
        0.29
  0
VERTEX
  8
ST27
 62
    80
 10
        0.37
 20
        0.16
  0
VERTEX
  8
ST27
 62
    80
 10
       -0.00
 20
        0.09
  0
SEQEND
  0
POLYLINE
  8
ST32
 62
    80
 66
     1
 10
        0.00
 20
        0.00
  0
VERTEX
  8
ST32
 62
    80
 10
        5.78
 20
        6.90
  0
VERTEX
  8
ST32
 62
    80
 10
        5.67
 20
        6.55
  0
VERTEX
  8
ST32
 62
    80
 10
        5.57
 20
        6.22
  0
VERTEX
  8
ST32
 62
    80
 10
        5.48
 20
        5.91
  0
VERTEX
  8
ST32
 62
    80
 10
        5.39
 20
        5.62
  0
VERTEX
  8
ST32
 62
    80
 10
        5.31
 20
        5.34
  0
VERTEX
  8
ST32
 62
    80
 10
        5.22
 20
        5.08
  0
VERTEX
  8
ST32
 62
    80
 10
        5.13
 20
        4.84
  0
VERTEX
  8
ST32
 62
    80
 10
        5.03
 20
        4.61
  0
VERTEX
  8
ST32
 62
    80
 10
        4.94
 20
        4.39
  0
VERTEX
  8
ST32
 62
    80
 10
        4.84
 20
        4.18
  0
VERTEX
  8
ST32
 62
    80
 10
        4.73
 20
        3.99
  0
VERTEX
  8
ST32
 62
    80
 10
        4.62
 20
        3.79
  0
VERTEX
  8
ST32
 62
    80
 10
        4.51
 20
        3.60
  0
VERTEX
  8
ST32
 62
    80
 10
        4.39
 20
        3.42
  0
VERTEX
  8
ST32
 62
    80
 10
        4.27
 20
        3.24
  0
VERTEX
  8
ST32
 62
    80
 10
        4.15
 20
        3.06
  0
VERTEX
  8
ST32
 62
    80
 10
        4.01
 20
        2.88
  0
VERTEX
  8
ST32
 62
    80
 10
        3.87
 20
        2.70
  0
VERTEX
  8
ST32
 62
    80
 10
        3.71
 20
        2.52
  0
VERTEX
  8
ST32
 62
    80
 10
        3.54
 20
        2.34
  0
VERTEX
  8
ST32
 62
    80
 10
        3.36
 20
        2.15
  0
VERTEX
  8
ST32
 62
    80
 10
        3.17
 20
        1.96
  0
VERTEX
  8
ST32
 62
    80
 10
        2.95
 20
        1.76
  0
VERTEX
  8
ST32
 62
    80
 10
        2.71
 20
        1.55
  0
VERTEX
  8
ST32
 62
    80
 10
        2.45
 20
        1.34
  0
VERTEX
  8
ST32
 62
    80
 10
        2.17
 20
        1.11
  0
VERTEX
  8
ST32
 62
    80
 10
        1.86
 20
        0.89
  0
VERTEX
  8
ST32
 62
    80
 10
        1.52
 20
        0.67
  0
VERTEX
  8
ST32
 62
    80
 10
        1.16
 20
        0.46
  0
VERTEX
  8
ST32
 62
    80
 10
        0.78
 20
        0.28
  0
VERTEX
  8
ST32
 62
    80
 10
        0.39
 20
        0.15
  0
VERTEX
  8
ST32
 62
    80
 10
       -0.00
 20
        0.09
  0
SEQEND
  0
POLYLINE
  8
ST31
 62
    80
 66
     1
 10
        0.00
 20
        0.00
  0
VERTEX
  8
ST31
 62
    80
 10
        5.90
 20
        6.89
  0
VERTEX
  8
ST31
 62
    80
 10
        5.80
 20
        6.54
  0
VERTEX
  8
ST31
 62
    80
 10
        5.71
 20
        6.20
  0
VERTEX
  8
ST31
 62
    80
 10
        5.63
 20
        5.89
  0
VERTEX
  8
ST31
 62
    80
 10
        5.55
 20
        5.59
  0
VERTEX
  8
ST31
 62
    80
 10
        5.47
 20
        5.31
  0
VERTEX
  8
ST31
 62
    80
 10
        5.39
 20
        5.05
  0
VERTEX
  8
ST31
 62
    80
 10
        5.30
 20
        4.81
  0
VERTEX
  8
ST31
 62
    80
 10
        5.21
 20
        4.58
  0
VERTEX
  8
ST31
 62
    80
 10
        5.12
 20
        4.36
  0
VERTEX
  8
ST31
 62
    80
 10
        5.02
 20
        4.15
  0
VERTEX
  8
ST31
 62
    80
 10
        4.92
 20
        3.95
  0
VERTEX
  8
ST31
 62
    80
 10
        4.81
 20
        3.75
  0
VERTEX
  8
ST31
 62
    80
 10
        4.70
 20
        3.57
  0
VERTEX
  8
ST31
 62
    80
 10
        4.58
 20
        3.38
  0
VERTEX
  8
ST31
 62
    80
 10
        4.46
 20
        3.20
  0
VERTEX
  8
ST31
 62
    80
 10
        4.33
 20
        3.02
  0
VERTEX
  8
ST31
 62
    80
 10
        4.19
 20
        2.84
  0
VERTEX
  8
ST31
 62
    80
 10
        4.05
 20
        2.66
  0
VERTEX
  8
ST31
 62
    80
 10
        3.89
 20
        2.48
  0
VERTEX
  8
ST31
 62
    80
 10
        3.71
 20
        2.30
  0
VERTEX
  8
ST31
 62
    80
 10
        3.53
 20
        2.11
  0
VERTEX
  8
ST31
 62
    80
 10
        3.32
 20
        1.92
  0
VERTEX
  8
ST31
 62
    80
 10
        3.10
 20
        1.72
  0
VERTEX
  8
ST31
 62
    80
 10
        2.85
 20
        1.52
  0
VERTEX
  8
ST31
 62
    80
 10
        2.58
 20
        1.30
  0
VERTEX
  8
ST31
 62
    80
 10
        2.28
 20
        1.09
  0
VERTEX
  8
ST31
 62
    80
 10
        1.95
 20
        0.86
  0
VERTEX
  8
ST31
 62
    80
 10
        1.60
 20
        0.65
  0
VERTEX
  8
ST31
 62
    80
 10
        1.22
 20
        0.44
  0
VERTEX
  8
ST31
 62
    80
 10
        0.82
 20
        0.27
  0
VERTEX
  8
ST31
 62
    80
 10
        0.41
 20
        0.15
  0
VERTEX
  8
ST31
 62
    80
 10
       -0.00
 20
        0.09
  0
SEQEND
  0
POLYLINE
  8
ST30
 62
    80
 66
     1
 10
        0.00
 20
        0.00
  0
VERTEX
  8
ST30
 62
    80
 10
        6.01
 20
        6.87
  0
VERTEX
  8
ST30
 62
    80
 10
        5.92
 20
        6.52
  0
VERTEX
  8
ST30
 62
    80
 10
        5.84
 20
        6.19
  0
VERTEX
  8
ST30
 62
    80
 10
        5.76
 20
        5.87
  0
VERTEX
  8
ST30
 62
    80
 10
        5.69
 20
        5.57
  0
VERTEX
  8
ST30
 62
    80
 10
        5.62
 20
        5.29
  0
VERTEX
  8
ST30
 62
    80
 10
        5.54
 20
        5.03
  0
VERTEX
  8
ST30
 62
    80
 10
        5.46
 20
        4.78
  0
VERTEX
  8
ST30
 62
    80
 10
        5.37
 20
        4.54
  0
VERTEX
  8
ST30
 62
    80
 10
        5.28
 20
        4.32
  0
VERTEX
  8
ST30
 62
    80
 10
        5.19
 20
        4.11
  0
VERTEX
  8
ST30
 62
    80
 10
        5.09
 20
        3.91
  0
VERTEX
  8
ST30
 62
    80
 10
        4.98
 20
        3.72
  0
VERTEX
  8
ST30
 62
    80
 10
        4.87
 20
        3.53
  0
VERTEX
  8
ST30
 62
    80
 10
        4.76
 20
        3.35
  0
VERTEX
  8
ST30
 62
    80
 10
        4.64
 20
        3.17
  0
VERTEX
  8
ST30
 62
    80
 10
        4.50
 20
        2.99
  0
VERTEX
  8
ST30
 62
    80
 10
        4.36
 20
        2.81
  0
VERTEX
  8
ST30
 62
    80
 10
        4.21
 20
        2.63
  0
VERTEX
  8
ST30
 62
    80
 10
        4.05
 20
        2.44
  0
VERTEX
  8
ST30
 62
    80
 10
        3.87
 20
        2.26
  0
VERTEX
  8
ST30
 62
    80
 10
        3.68
 20
        2.07
  0
VERTEX
  8
ST30
 62
    80
 10
        3.47
 20
        1.88
  0
VERTEX
  8
ST30
 62
    80
 10
        3.24
 20
        1.69
  0
VERTEX
  8
ST30
 62
    80
 10
        2.98
 20
        1.48
  0
VERTEX
  8
ST30
 62
    80
 10
        2.70
 20
        1.27
  0
VERTEX
  8
ST30
 62
    80
 10
        2.38
 20
        1.06
  0
VERTEX
  8
ST30
 62
    80
 10
        2.04
 20
        0.84
  0
VERTEX
  8
ST30
 62
    80
 10
        1.67
 20
        0.63
  0
VERTEX
  8
ST30
 62
    80
 10
        1.28
 20
        0.43
  0
VERTEX
  8
ST30
 62
    80
 10
        0.86
 20
        0.26
  0
VERTEX
  8
ST30
 62
    80
 10
        0.43
 20
        0.14
  0
VERTEX
  8
ST30
 62
    80
 10
       -0.00
 20
        0.09
  0
SEQEND
  0
POLYLINE
  8
ST39
 62
    80
 66
     1
 10
        0.00
 20
        0.00
  0
VERTEX
  8
ST39
 62
    80
 10
        6.10
 20
        6.86
  0
VERTEX
  8
ST39
 62
    80
 10
        6.03
 20
        6.51
  0
VERTEX
  8
ST39
 62
    80
 10
        5.95
 20
        6.17
  0
VERTEX
  8
ST39
 62
    80
 10
        5.89
 20
        5.85
  0
VERTEX
  8
ST39
 62
    80
 10
        5.82
 20
        5.55
  0
VERTEX
  8
ST39
 62
    80
 10
        5.75
 20
        5.26
  0
VERTEX
  8
ST39
 62
    80
 10
        5.68
 20
        5.00
  0
VERTEX
  8
ST39
 62
    80
 10
        5.61
 20
        4.75
  0
VERTEX
  8
ST39
 62
    80
 10
        5.53
 20
        4.51
  0
VERTEX
  8
ST39
 62
    80
 10
        5.44
 20
        4.29
  0
VERTEX
  8
ST39
 62
    80
 10
        5.35
 20
        4.08
  0
VERTEX
  8
ST39
 62
    80
 10
        5.25
 20
        3.88
  0
VERTEX
  8
ST39
 62
    80
 10
        5.15
 20
        3.69
  0
VERTEX
  8
ST39
 62
    80
 10
        5.04
 20
        3.50
  0
VERTEX
  8
ST39
 62
    80
 10
        4.92
 20
        3.31
  0
VERTEX
  8
ST39
 62
    80
 10
        4.80
 20
        3.13
  0
VERTEX
  8
ST39
 62
    80
 10
        4.67
 20
        2.95
  0
VERTEX
  8
ST39
 62
    80
 10
        4.53
 20
        2.77
  0
VERTEX
  8
ST39
 62
    80
 10
        4.37
 20
        2.59
  0
VERTEX
  8
ST39
 62
    80
 10
        4.21
 20
        2.41
  0
VERTEX
  8
ST39
 62
    80
 10
        4.03
 20
        2.23
  0
VERTEX
  8
ST39
 62
    80
 10
        3.83
 20
        2.04
  0
VERTEX
  8
ST39
 62
    80
 10
        3.61
 20
        1.85
  0
VERTEX
  8
ST39
 62
    80
 10
        3.37
 20
        1.65
  0
VERTEX
  8
ST39
 62
    80
 10
        3.10
 20
        1.45
  0
VERTEX
  8
ST39
 62
    80
 10
        2.81
 20
        1.24
  0
VERTEX
  8
ST39
 62
    80
 10
        2.49
 20
        1.03
  0
VERTEX
  8
ST39
 62
    80
 10
        2.13
 20
        0.82
  0
VERTEX
  8
ST39
 62
    80
 10
        1.75
 20
        0.61
  0
VERTEX
  8
ST39
 62
    80
 10
        1.33
 20
        0.42
  0
VERTEX
  8
ST39
 62
    80
 10
        0.90
 20
        0.25
  0
VERTEX
  8
ST39
 62
    80
 10
        0.45
 20
        0.14
  0
VERTEX
  8
ST39
 62
    80
 10
       -0.00
 20
        0.09
  0
SEQEND
  0
POLYLINE
  8
ST48
 62
    80
 66
     1
 10
        0.00
 20
        0.00
  0
VERTEX
  8
ST48
 62
    80
 10
        6.19
 20
        6.85
  0
VERTEX
  8
ST48
 62
    80
 10
        6.12
 20
        6.49
  0
VERTEX
  8
ST48
 62
    80
 10
        6.05
 20
        6.15
  0
VERTEX
  8
ST48
 62
    80
 10
        5.99
 20
        5.83
  0
VERTEX
  8
ST48
 62
    80
 10
        5.93
 20
        5.53
  0
VERTEX
  8
ST48
 62
    80
 10
        5.87
 20
        5.24
  0
VERTEX
  8
ST48
 62
    80
 10
        5.81
 20
        4.98
  0
VERTEX
  8
ST48
 62
    80
 10
        5.74
 20
        4.73
  0
VERTEX
  8
ST48
 62
    80
 10
        5.66
 20
        4.49
  0
VERTEX
  8
ST48
 62
    80
 10
        5.58
 20
        4.27
  0
VERTEX
  8
ST48
 62
    80
 10
        5.49
 20
        4.06
  0
VERTEX
  8
ST48
 62
    80
 10
        5.39
 20
        3.85
  0
VERTEX
  8
ST48
 62
    80
 10
        5.29
 20
        3.66
  0
VERTEX
  8
ST48
 62
    80
 10
        5.19
 20
        3.47
  0
VERTEX
  8
ST48
 62
    80
 10
        5.07
 20
        3.28
  0
VERTEX
  8
ST48
 62
    80
 10
        4.95
 20
        3.10
  0
VERTEX
  8
ST48
 62
    80
 10
        4.82
 20
        2.92
  0
VERTEX
  8
ST48
 62
    80
 10
        4.68
 20
        2.74
  0
VERTEX
  8
ST48
 62
    80
 10
        4.52
 20
        2.56
  0
VERTEX
  8
ST48
 62
    80
 10
        4.35
 20
        2.38
  0
VERTEX
  8
ST48
 62
    80
 10
        4.17
 20
        2.19
  0
VERTEX
  8
ST48
 62
    80
 10
        3.96
 20
        2.01
  0
VERTEX
  8
ST48
 62
    80
 10
        3.74
 20
        1.82
  0
VERTEX
  8
ST48
 62
    80
 10
        3.49
 20
        1.62
  0
VERTEX
  8
ST48
 62
    80
 10
        3.22
 20
        1.42
  0
VERTEX
  8
ST48
 62
    80
 10
        2.92
 20
        1.21
  0
VERTEX
  8
ST48
 62
    80
 10
        2.58
 20
        1.01
  0
VERTEX
  8
ST48
 62
    80
 10
        2.21
 20
        0.79
  0
VERTEX
  8
ST48
 62
    80
 10
        1.81
 20
        0.59
  0
VERTEX
  8
ST48
 62
    80
 10
        1.39
 20
        0.40
  0
VERTEX
  8
ST48
 62
    80
 10
        0.94
 20
        0.25
  0
VERTEX
  8
ST48
 62
    80
 10
        0.47
 20
        0.14
  0
VERTEX
  8
ST48
 62
    80
 10
       -0.00
 20
        0.09
  0
SEQEND
  0
POLYLINE
  8
ST47
 62
    80
 66
     1
 10
        0.00
 20
        0.00
  0
VERTEX
  8
ST47
 62
    80
 10
        6.27
 20
        6.83
  0
VERTEX
  8
ST47
 62
    80
 10
        6.20
 20
        6.48
  0
VERTEX
  8
ST47
 62
    80
 10
        6.15
 20
        6.14
  0
VERTEX
  8
ST47
 62
    80
 10
        6.09
 20
        5.81
  0
VERTEX
  8
ST47
 62
    80
 10
        6.04
 20
        5.51
  0
VERTEX
  8
ST47
 62
    80
 10
        5.98
 20
        5.22
  0
VERTEX
  8
ST47
 62
    80
 10
        5.92
 20
        4.96
  0
VERTEX
  8
ST47
 62
    80
 10
        5.86
 20
        4.70
  0
VERTEX
  8
ST47
 62
    80
 10
        5.79
 20
        4.47
  0
VERTEX
  8
ST47
 62
    80
 10
        5.71
 20
        4.24
  0
VERTEX
  8
ST47
 62
    80
 10
        5.62
 20
        4.03
  0
VERTEX
  8
ST47
 62
    80
 10
        5.53
 20
        3.83
  0
VERTEX
  8
ST47
 62
    80
 10
        5.43
 20
        3.63
  0
VERTEX
  8
ST47
 62
    80
 10
        5.33
 20
        3.44
  0
VERTEX
  8
ST47
 62
    80
 10
        5.22
 20
        3.26
  0
VERTEX
  8
ST47
 62
    80
 10
        5.09
 20
        3.07
  0
VERTEX
  8
ST47
 62
    80
 10
        4.96
 20
        2.89
  0
VERTEX
  8
ST47
 62
    80
 10
        4.82
 20
        2.71
  0
VERTEX
  8
ST47
 62
    80
 10
        4.66
 20
        2.53
  0
VERTEX
  8
ST47
 62
    80
 10
        4.49
 20
        2.35
  0
VERTEX
  8
ST47
 62
    80
 10
        4.30
 20
        2.16
  0
VERTEX
  8
ST47
 62
    80
 10
        4.10
 20
        1.97
  0
VERTEX
  8
ST47
 62
    80
 10
        3.87
 20
        1.78
  0
VERTEX
  8
ST47
 62
    80
 10
        3.62
 20
        1.59
  0
VERTEX
  8
ST47
 62
    80
 10
        3.33
 20
        1.39
  0
VERTEX
  8
ST47
 62
    80
 10
        3.02
 20
        1.19
  0
VERTEX
  8
ST47
 62
    80
 10
        2.68
 20
        0.98
  0
VERTEX
  8
ST47
 62
    80
 10
        2.30
 20
        0.77
  0
VERTEX
  8
ST47
 62
    80
 10
        1.88
 20
        0.57
  0
VERTEX
  8
ST47
 62
    80
 10
        1.44
 20
        0.39
  0
VERTEX
  8
ST47
 62
    80
 10
        0.97
 20
        0.24
  0
VERTEX
  8
ST47
 62
    80
 10
        0.49
 20
        0.13
  0
VERTEX
  8
ST47
 62
    80
 10
       -0.00
 20
        0.09
  0
SEQEND
  0
POLYLINE
  8
ST46
 62
    80
 66
     1
 10
        0.00
 20
        0.00
  0
VERTEX
  8
ST46
 62
    80
 10
        6.33
 20
        6.82
  0
VERTEX
  8
ST46
 62
    80
 10
        6.27
 20
        6.46
  0
VERTEX
  8
ST46
 62
    80
 10
        6.22
 20
        6.12
  0
VERTEX
  8
ST46
 62
    80
 10
        6.17
 20
        5.80
  0
VERTEX
  8
ST46
 62
    80
 10
        6.12
 20
        5.49
  0
VERTEX
  8
ST46
 62
    80
 10
        6.07
 20
        5.21
  0
VERTEX
  8
ST46
 62
    80
 10
        6.02
 20
        4.94
  0
VERTEX
  8
ST46
 62
    80
 10
        5.95
 20
        4.69
  0
VERTEX
  8
ST46
 62
    80
 10
        5.89
 20
        4.45
  0
VERTEX
  8
ST46
 62
    80
 10
        5.81
 20
        4.23
  0
VERTEX
  8
ST46
 62
    80
 10
        5.73
 20
        4.01
  0
VERTEX
  8
ST46
 62
    80
 10
        5.64
 20
        3.81
  0
VERTEX
  8
ST46
 62
    80
 10
        5.55
 20
        3.61
  0
VERTEX
  8
ST46
 62
    80
 10
        5.45
 20
        3.42
  0
VERTEX
  8
ST46
 62
    80
 10
        5.33
 20
        3.23
  0
VERTEX
  8
ST46
 62
    80
 10
        5.21
 20
        3.05
  0
VERTEX
  8
ST46
 62
    80
 10
        5.08
 20
        2.87
  0
VERTEX
  8
ST46
 62
    80
 10
        4.94
 20
        2.68
  0
VERTEX
  8
ST46
 62
    80
 10
        4.79
 20
        2.50
  0
VERTEX
  8
ST46
 62
    80
 10
        4.61
 20
        2.32
  0
VERTEX
  8
ST46
 62
    80
 10
        4.42
 20
        2.13
  0
VERTEX
  8
ST46
 62
    80
 10
        4.22
 20
        1.95
  0
VERTEX
  8
ST46
 62
    80
 10
        3.98
 20
        1.75
  0
VERTEX
  8
ST46
 62
    80
 10
        3.72
 20
        1.56
  0
VERTEX
  8
ST46
 62
    80
 10
        3.44
 20
        1.36
  0
VERTEX
  8
ST46
 62
    80
 10
        3.12
 20
        1.16
  0
VERTEX
  8
ST46
 62
    80
 10
        2.76
 20
        0.96
  0
VERTEX
  8
ST46
 62
    80
 10
        2.37
 20
        0.76
  0
VERTEX
  8
ST46
 62
    80
 10
        1.94
 20
        0.56
  0
VERTEX
  8
ST46
 62
    80
 10
        1.49
 20
        0.38
  0
VERTEX
  8
ST46
 62
    80
 10
        1.01
 20
        0.24
  0
VERTEX
  8
ST46
 62
    80
 10
        0.51
 20
        0.13
  0
VERTEX
  8
ST46
 62
    80
 10
       -0.00
 20
        0.09
  0
SEQEND
  0
POLYLINE
  8
ST51
 62
    80
 66
     1
 10
        0.00
 20
        0.00
  0
VERTEX
  8
ST51
 62
    80
 10
        6.39
 20
        6.81
  0
VERTEX
  8
ST51
 62
    80
 10
        6.34
 20
        6.45
  0
VERTEX
  8
ST51
 62
    80
 10
        6.30
 20
        6.11
  0
VERTEX
  8
ST51
 62
    80
 10
        6.25
 20
        5.78
  0
VERTEX
  8
ST51
 62
    80
 10
        6.21
 20
        5.48
  0
VERTEX
  8
ST51
 62
    80
 10
        6.16
 20
        5.19
  0
VERTEX
  8
ST51
 62
    80
 10
        6.11
 20
        4.92
  0
VERTEX
  8
ST51
 62
    80
 10
        6.05
 20
        4.67
  0
VERTEX
  8
ST51
 62
    80
 10
        5.99
 20
        4.44
  0
VERTEX
  8
ST51
 62
    80
 10
        5.92
 20
        4.21
  0
VERTEX
  8
ST51
 62
    80
 10
        5.84
 20
        4.00
  0
VERTEX
  8
ST51
 62
    80
 10
        5.75
 20
        3.79
  0
VERTEX
  8
ST51
 62
    80
 10
        5.66
 20
        3.59
  0
VERTEX
  8
ST51
 62
    80
 10
        5.56
 20
        3.40
  0
VERTEX
  8
ST51
 62
    80
 10
        5.45
 20
        3.21
  0
VERTEX
  8
ST51
 62
    80
 10
        5.34
 20
        3.03
  0
VERTEX
  8
ST51
 62
    80
 10
        5.21
 20
        2.84
  0
VERTEX
  8
ST51
 62
    80
 10
        5.06
 20
        2.66
  0
VERTEX
  8
ST51
 62
    80
 10
        4.91
 20
        2.48
  0
VERTEX
  8
ST51
 62
    80
 10
        4.74
 20
        2.29
  0
VERTEX
  8
ST51
 62
    80
 10
        4.54
 20
        2.11
  0
VERTEX
  8
ST51
 62
    80
 10
        4.33
 20
        1.92
  0
VERTEX
  8
ST51
 62
    80
 10
        4.10
 20
        1.73
  0
VERTEX
  8
ST51
 62
    80
 10
        3.83
 20
        1.53
  0
VERTEX
  8
ST51
 62
    80
 10
        3.54
 20
        1.34
  0
VERTEX
  8
ST51
 62
    80
 10
        3.21
 20
        1.14
  0
VERTEX
  8
ST51
 62
    80
 10
        2.85
 20
        0.94
  0
VERTEX
  8
ST51
 62
    80
 10
        2.44
 20
        0.74
  0
VERTEX
  8
ST51
 62
    80
 10
        2.01
 20
        0.55
  0
VERTEX
  8
ST51
 62
    80
 10
        1.54
 20
        0.37
  0
VERTEX
  8
ST51
 62
    80
 10
        1.04
 20
        0.23
  0
VERTEX
  8
ST51
 62
    80
 10
        0.52
 20
        0.13
  0
VERTEX
  8
ST51
 62
    80
 10
       -0.00
 20
        0.09
  0
SEQEND
  0
POLYLINE
  8
ST50
 62
    80
 66
     1
 10
        0.00
 20
        0.00
  0
VERTEX
  8
ST50
 62
    80
 10
        6.44
 20
        6.80
  0
VERTEX
  8
ST50
 62
    80
 10
        6.39
 20
        6.43
  0
VERTEX
  8
ST50
 62
    80
 10
        6.35
 20
        6.09
  0
VERTEX
  8
ST50
 62
    80
 10
        6.31
 20
        5.77
  0
VERTEX
  8
ST50
 62
    80
 10
        6.27
 20
        5.47
  0
VERTEX
  8
ST50
 62
    80
 10
        6.23
 20
        5.18
  0
VERTEX
  8
ST50
 62
    80
 10
        6.18
 20
        4.91
  0
VERTEX
  8
ST50
 62
    80
 10
        6.12
 20
        4.66
  0
VERTEX
  8
ST50
 62
    80
 10
        6.06
 20
        4.43
  0
VERTEX
  8
ST50
 62
    80
 10
        6.00
 20
        4.20
  0
VERTEX
  8
ST50
 62
    80
 10
        5.92
 20
        3.99
  0
VERTEX
  8
ST50
 62
    80
 10
        5.84
 20
        3.78
  0
VERTEX
  8
ST50
 62
    80
 10
        5.75
 20
        3.58
  0
VERTEX
  8
ST50
 62
    80
 10
        5.66
 20
        3.39
  0
VERTEX
  8
ST50
 62
    80
 10
        5.55
 20
        3.20
  0
VERTEX
  8
ST50
 62
    80
 10
        5.44
 20
        3.01
  0
VERTEX
  8
ST50
 62
    80
 10
        5.31
 20
        2.83
  0
VERTEX
  8
ST50
 62
    80
 10
        5.17
 20
        2.64
  0
VERTEX
  8
ST50
 62
    80
 10
        5.01
 20
        2.46
  0
VERTEX
  8
ST50
 62
    80
 10
        4.84
 20
        2.27
  0
VERTEX
  8
ST50
 62
    80
 10
        4.65
 20
        2.08
  0
VERTEX
  8
ST50
 62
    80
 10
        4.43
 20
        1.89
  0
VERTEX
  8
ST50
 62
    80
 10
        4.19
 20
        1.70
  0
VERTEX
  8
ST50
 62
    80
 10
        3.93
 20
        1.51
  0
VERTEX
  8
ST50
 62
    80
 10
        3.63
 20
        1.31
  0
VERTEX
  8
ST50
 62
    80
 10
        3.29
 20
        1.12
  0
VERTEX
  8
ST50
 62
    80
 10
        2.92
 20
        0.92
  0
VERTEX
  8
ST50
 62
    80
 10
        2.51
 20
        0.72
  0
VERTEX
  8
ST50
 62
    80
 10
        2.06
 20
        0.54
  0
VERTEX
  8
ST50
 62
    80
 10
        1.58
 20
        0.37
  0
VERTEX
  8
ST50
 62
    80
 10
        1.07
 20
        0.23
  0
VERTEX
  8
ST50
 62
    80
 10
        0.54
 20
        0.13
  0
VERTEX
  8
ST50
 62
    80
 10
       -0.00
 20
        0.09
  0
SEQEND
  0
POLYLINE
  8
ST49
 62
    80
 66
     1
 10
        0.00
 20
        0.00
  0
VERTEX
  8
ST49
 62
    80
 10
        6.48
 20
        6.78
  0
VERTEX
  8
ST49
 62
    80
 10
        6.44
 20
        6.42
  0
VERTEX
  8
ST49
 62
    80
 10
        6.40
 20
        6.08
  0
VERTEX
  8
ST49
 62
    80
 10
        6.37
 20
        5.76
  0
VERTEX
  8
ST49
 62
    80
 10
        6.33
 20
        5.45
  0
VERTEX
  8
ST49
 62
    80
 10
        6.29
 20
        5.17
  0
VERTEX
  8
ST49
 62
    80
 10
        6.24
 20
        4.90
  0
VERTEX
  8
ST49
 62
    80
 10
        6.19
 20
        4.65
  0
VERTEX
  8
ST49
 62
    80
 10
        6.14
 20
        4.42
  0
VERTEX
  8
ST49
 62
    80
 10
        6.07
 20
        4.19
  0
VERTEX
  8
ST49
 62
    80
 10
        6.00
 20
        3.98
  0
VERTEX
  8
ST49
 62
    80
 10
        5.92
 20
        3.77
  0
VERTEX
  8
ST49
 62
    80
 10
        5.84
 20
        3.57
  0
VERTEX
  8
ST49
 62
    80
 10
        5.75
 20
        3.38
  0
VERTEX
  8
ST49
 62
    80
 10
        5.64
 20
        3.19
  0
VERTEX
  8
ST49
 62
    80
 10
        5.53
 20
        3.00
  0
VERTEX
  8
ST49
 62
    80
 10
        5.40
 20
        2.81
  0
VERTEX
  8
ST49
 62
    80
 10
        5.26
 20
        2.63
  0
VERTEX
  8
ST49
 62
    80
 10
        5.11
 20
        2.44
  0
VERTEX
  8
ST49
 62
    80
 10
        4.94
 20
        2.25
  0
VERTEX
  8
ST49
 62
    80
 10
        4.74
 20
        2.06
  0
VERTEX
  8
ST49
 62
    80
 10
        4.53
 20
        1.87
  0
VERTEX
  8
ST49
 62
    80
 10
        4.29
 20
        1.68
  0
VERTEX
  8
ST49
 62
    80
 10
        4.02
 20
        1.49
  0
VERTEX
  8
ST49
 62
    80
 10
        3.71
 20
        1.29
  0
VERTEX
  8
ST49
 62
    80
 10
        3.37
 20
        1.10
  0
VERTEX
  8
ST49
 62
    80
 10
        3.00
 20
        0.90
  0
VERTEX
  8
ST49
 62
    80
 10
        2.57
 20
        0.71
  0
VERTEX
  8
ST49
 62
    80
 10
        2.12
 20
        0.53
  0
VERTEX
  8
ST49
 62
    80
 10
        1.62
 20
        0.36
  0
VERTEX
  8
ST49
 62
    80
 10
        1.10
 20
        0.23
  0
VERTEX
  8
ST49
 62
    80
 10
        0.55
 20
        0.13
  0
VERTEX
  8
ST49
 62
    80
 10
       -0.00
 20
        0.09
  0
SEQEND
  0
POLYLINE
  8
ST42
 62
    80
 66
     1
 10
        0.00
 20
        0.00
  0
VERTEX
  8
ST42
 62
    80
 10
        6.52
 20
        6.77
  0
VERTEX
  8
ST42
 62
    80
 10
        6.48
 20
        6.41
  0
VERTEX
  8
ST42
 62
    80
 10
        6.45
 20
        6.07
  0
VERTEX
  8
ST42
 62
    80
 10
        6.42
 20
        5.74
  0
VERTEX
  8
ST42
 62
    80
 10
        6.38
 20
        5.44
  0
VERTEX
  8
ST42
 62
    80
 10
        6.34
 20
        5.16
  0
VERTEX
  8
ST42
 62
    80
 10
        6.30
 20
        4.90
  0
VERTEX
  8
ST42
 62
    80
 10
        6.25
 20
        4.65
  0
VERTEX
  8
ST42
 62
    80
 10
        6.20
 20
        4.41
  0
VERTEX
  8
ST42
 62
    80
 10
        6.14
 20
        4.19
  0
VERTEX
  8
ST42
 62
    80
 10
        6.07
 20
        3.97
  0
VERTEX
  8
ST42
 62
    80
 10
        6.00
 20
        3.76
  0
VERTEX
  8
ST42
 62
    80
 10
        5.92
 20
        3.56
  0
VERTEX
  8
ST42
 62
    80
 10
        5.83
 20
        3.37
  0
VERTEX
  8
ST42
 62
    80
 10
        5.73
 20
        3.18
  0
VERTEX
  8
ST42
 62
    80
 10
        5.62
 20
        2.99
  0
VERTEX
  8
ST42
 62
    80
 10
        5.49
 20
        2.80
  0
VERTEX
  8
ST42
 62
    80
 10
        5.36
 20
        2.61
  0
VERTEX
  8
ST42
 62
    80
 10
        5.20
 20
        2.42
  0
VERTEX
  8
ST42
 62
    80
 10
        5.03
 20
        2.24
  0
VERTEX
  8
ST42
 62
    80
 10
        4.84
 20
        2.05
  0
VERTEX
  8
ST42
 62
    80
 10
        4.62
 20
        1.85
  0
VERTEX
  8
ST42
 62
    80
 10
        4.38
 20
        1.66
  0
VERTEX
  8
ST42
 62
    80
 10
        4.10
 20
        1.47
  0
VERTEX
  8
ST42
 62
    80
 10
        3.80
 20
        1.27
  0
VERTEX
  8
ST42
 62
    80
 10
        3.45
 20
        1.08
  0
VERTEX
  8
ST42
 62
    80
 10
        3.06
 20
        0.88
  0
VERTEX
  8
ST42
 62
    80
 10
        2.64
 20
        0.70
  0
VERTEX
  8
ST42
 62
    80
 10
        2.17
 20
        0.52
  0
VERTEX
  8
ST42
 62
    80
 10
        1.66
 20
        0.36
  0
VERTEX
  8
ST42
 62
    80
 10
        1.13
 20
        0.22
  0
VERTEX
  8
ST42
 62
    80
 10
        0.57
 20
        0.13
  0
VERTEX
  8
ST42
 62
    80
 10
       -0.00
 20
        0.08
  0
SEQEND
  0
POLYLINE
  8
ST41
 62
    80
 66
     1
 10
        0.00
 20
        0.00
  0
VERTEX
  8
ST41
 62
    80
 10
        6.54
 20
        6.77
  0
VERTEX
  8
ST41
 62
    80
 10
        6.51
 20
        6.40
  0
VERTEX
  8
ST41
 62
    80
 10
        6.48
 20
        6.05
  0
VERTEX
  8
ST41
 62
    80
 10
        6.45
 20
        5.73
  0
VERTEX
  8
ST41
 62
    80
 10
        6.42
 20
        5.43
  0
VERTEX
  8
ST41
 62
    80
 10
        6.38
 20
        5.15
  0
VERTEX
  8
ST41
 62
    80
 10
        6.34
 20
        4.89
  0
VERTEX
  8
ST41
 62
    80
 10
        6.30
 20
        4.64
  0
VERTEX
  8
ST41
 62
    80
 10
        6.25
 20
        4.41
  0
VERTEX
  8
ST41
 62
    80
 10
        6.19
 20
        4.18
  0
VERTEX
  8
ST41
 62
    80
 10
        6.13
 20
        3.97
  0
VERTEX
  8
ST41
 62
    80
 10
        6.06
 20
        3.76
  0
VERTEX
  8
ST41
 62
    80
 10
        5.98
 20
        3.56
  0
VERTEX
  8
ST41
 62
    80
 10
        5.89
 20
        3.36
  0
VERTEX
  8
ST41
 62
    80
 10
        5.79
 20
        3.17
  0
VERTEX
  8
ST41
 62
    80
 10
        5.69
 20
        2.98
  0
VERTEX
  8
ST41
 62
    80
 10
        5.56
 20
        2.79
  0
VERTEX
  8
ST41
 62
    80
 10
        5.43
 20
        2.60
  0
VERTEX
  8
ST41
 62
    80
 10
        5.28
 20
        2.41
  0
VERTEX
  8
ST41
 62
    80
 10
        5.11
 20
        2.22
  0
VERTEX
  8
ST41
 62
    80
 10
        4.91
 20
        2.03
  0
VERTEX
  8
ST41
 62
    80
 10
        4.70
 20
        1.84
  0
VERTEX
  8
ST41
 62
    80
 10
        4.45
 20
        1.65
  0
VERTEX
  8
ST41
 62
    80
 10
        4.18
 20
        1.45
  0
VERTEX
  8
ST41
 62
    80
 10
        3.87
 20
        1.26
  0
VERTEX
  8
ST41
 62
    80
 10
        3.52
 20
        1.06
  0
VERTEX
  8
ST41
 62
    80
 10
        3.12
 20
        0.87
  0
VERTEX
  8
ST41
 62
    80
 10
        2.69
 20
        0.69
  0
VERTEX
  8
ST41
 62
    80
 10
        2.21
 20
        0.51
  0
VERTEX
  8
ST41
 62
    80
 10
        1.70
 20
        0.35
  0
VERTEX
  8
ST41
 62
    80
 10
        1.15
 20
        0.22
  0
VERTEX
  8
ST41
 62
    80
 10
        0.58
 20
        0.13
  0
VERTEX
  8
ST41
 62
    80
 10
       -0.00
 20
        0.08
  0
SEQEND
  0
POLYLINE
  8
ST40
 62
    80
 66
     1
 10
        0.00
 20
        0.00
  0
VERTEX
  8
ST40
 62
    80
 10
        6.57
 20
        6.76
  0
VERTEX
  8
ST40
 62
    80
 10
        6.54
 20
        6.39
  0
VERTEX
  8
ST40
 62
    80
 10
        6.52
 20
        6.04
  0
VERTEX
  8
ST40
 62
    80
 10
        6.49
 20
        5.72
  0
VERTEX
  8
ST40
 62
    80
 10
        6.46
 20
        5.42
  0
VERTEX
  8
ST40
 62
    80
 10
        6.42
 20
        5.14
  0
VERTEX
  8
ST40
 62
    80
 10
        6.39
 20
        4.88
  0
VERTEX
  8
ST40
 62
    80
 10
        6.34
 20
        4.64
  0
VERTEX
  8
ST40
 62
    80
 10
        6.30
 20
        4.40
  0
VERTEX
  8
ST40
 62
    80
 10
        6.24
 20
        4.18
  0
VERTEX
  8
ST40
 62
    80
 10
        6.18
 20
        3.96
  0
VERTEX
  8
ST40
 62
    80
 10
        6.11
 20
        3.76
  0
VERTEX
  8
ST40
 62
    80
 10
        6.04
 20
        3.56
  0
VERTEX
  8
ST40
 62
    80
 10
        5.96
 20
        3.36
  0
VERTEX
  8
ST40
 62
    80
 10
        5.86
 20
        3.17
  0
VERTEX
  8
ST40
 62
    80
 10
        5.76
 20
        2.98
  0
VERTEX
  8
ST40
 62
    80
 10
        5.64
 20
        2.79
  0
VERTEX
  8
ST40
 62
    80
 10
        5.50
 20
        2.60
  0
VERTEX
  8
ST40
 62
    80
 10
        5.35
 20
        2.41
  0
VERTEX
  8
ST40
 62
    80
 10
        5.18
 20
        2.21
  0
VERTEX
  8
ST40
 62
    80
 10
        4.99
 20
        2.02
  0
VERTEX
  8
ST40
 62
    80
 10
        4.77
 20
        1.83
  0
VERTEX
  8
ST40
 62
    80
 10
        4.53
 20
        1.63
  0
VERTEX
  8
ST40
 62
    80
 10
        4.25
 20
        1.44
  0
VERTEX
  8
ST40
 62
    80
 10
        3.94
 20
        1.24
  0
VERTEX
  8
ST40
 62
    80
 10
        3.58
 20
        1.05
  0
VERTEX
  8
ST40
 62
    80
 10
        3.18
 20
        0.86
  0
VERTEX
  8
ST40
 62
    80
 10
        2.74
 20
        0.68
  0
VERTEX
  8
ST40
 62
    80
 10
        2.26
 20
        0.51
  0
VERTEX
  8
ST40
 62
    80
 10
        1.73
 20
        0.35
  0
VERTEX
  8
ST40
 62
    80
 10
        1.18
 20
        0.22
  0
VERTEX
  8
ST40
 62
    80
 10
        0.59
 20
        0.13
  0
VERTEX
  8
ST40
 62
    80
 10
       -0.00
 20
        0.08
  0
SEQEND
  0
POLYLINE
  8
ST45
 62
    80
 66
     1
 10
        0.00
 20
        0.00
  0
VERTEX
  8
ST45
 62
    80
 10
        6.59
 20
        6.75
  0
VERTEX
  8
ST45
 62
    80
 10
        6.56
 20
        6.38
  0
VERTEX
  8
ST45
 62
    80
 10
        6.54
 20
        6.03
  0
VERTEX
  8
ST45
 62
    80
 10
        6.51
 20
        5.71
  0
VERTEX
  8
ST45
 62
    80
 10
        6.48
 20
        5.41
  0
VERTEX
  8
ST45
 62
    80
 10
        6.45
 20
        5.14
  0
VERTEX
  8
ST45
 62
    80
 10
        6.42
 20
        4.88
  0
VERTEX
  8
ST45
 62
    80
 10
        6.37
 20
        4.63
  0
VERTEX
  8
ST45
 62
    80
 10
        6.33
 20
        4.40
  0
VERTEX
  8
ST45
 62
    80
 10
        6.28
 20
        4.18
  0
VERTEX
  8
ST45
 62
    80
 10
        6.22
 20
        3.96
  0
VERTEX
  8
ST45
 62
    80
 10
        6.16
 20
        3.76
  0
VERTEX
  8
ST45
 62
    80
 10
        6.08
 20
        3.56
  0
VERTEX
  8
ST45
 62
    80
 10
        6.00
 20
        3.36
  0
VERTEX
  8
ST45
 62
    80
 10
        5.91
 20
        3.17
  0
VERTEX
  8
ST45
 62
    80
 10
        5.81
 20
        2.98
  0
VERTEX
  8
ST45
 62
    80
 10
        5.69
 20
        2.79
  0
VERTEX
  8
ST45
 62
    80
 10
        5.56
 20
        2.60
  0
VERTEX
  8
ST45
 62
    80
 10
        5.41
 20
        2.40
  0
VERTEX
  8
ST45
 62
    80
 10
        5.24
 20
        2.21
  0
VERTEX
  8
ST45
 62
    80
 10
        5.05
 20
        2.02
  0
VERTEX
  8
ST45
 62
    80
 10
        4.83
 20
        1.82
  0
VERTEX
  8
ST45
 62
    80
 10
        4.59
 20
        1.63
  0
VERTEX
  8
ST45
 62
    80
 10
        4.31
 20
        1.43
  0
VERTEX
  8
ST45
 62
    80
 10
        3.99
 20
        1.24
  0
VERTEX
  8
ST45
 62
    80
 10
        3.64
 20
        1.04
  0
VERTEX
  8
ST45
 62
    80
 10
        3.23
 20
        0.85
  0
VERTEX
  8
ST45
 62
    80
 10
        2.79
 20
        0.67
  0
VERTEX
  8
ST45
 62
    80
 10
        2.30
 20
        0.50
  0
VERTEX
  8
ST45
 62
    80
 10
        1.76
 20
        0.35
  0
VERTEX
  8
ST45
 62
    80
 10
        1.20
 20
        0.23
  0
VERTEX
  8
ST45
 62
    80
 10
        0.61
 20
        0.13
  0
VERTEX
  8
ST45
 62
    80
 10
       -0.00
 20
        0.08
  0
SEQEND
  0
POLYLINE
  8
ST44
 62
    80
 66
     1
 10
        0.00
 20
        0.00
  0
VERTEX
  8
ST44
 62
    80
 10
        6.60
 20
        6.75
  0
VERTEX
  8
ST44
 62
    80
 10
        6.58
 20
        6.37
  0
VERTEX
  8
ST44
 62
    80
 10
        6.56
 20
        6.02
  0
VERTEX
  8
ST44
 62
    80
 10
        6.53
 20
        5.70
  0
VERTEX
  8
ST44
 62
    80
 10
        6.50
 20
        5.40
  0
VERTEX
  8
ST44
 62
    80
 10
        6.47
 20
        5.13
  0
VERTEX
  8
ST44
 62
    80
 10
        6.44
 20
        4.87
  0
VERTEX
  8
ST44
 62
    80
 10
        6.40
 20
        4.63
  0
VERTEX
  8
ST44
 62
    80
 10
        6.36
 20
        4.40
  0
VERTEX
  8
ST44
 62
    80
 10
        6.31
 20
        4.18
  0
VERTEX
  8
ST44
 62
    80
 10
        6.25
 20
        3.97
  0
VERTEX
  8
ST44
 62
    80
 10
        6.19
 20
        3.76
  0
VERTEX
  8
ST44
 62
    80
 10
        6.12
 20
        3.56
  0
VERTEX
  8
ST44
 62
    80
 10
        6.04
 20
        3.37
  0
VERTEX
  8
ST44
 62
    80
 10
        5.95
 20
        3.17
  0
VERTEX
  8
ST44
 62
    80
 10
        5.85
 20
        2.98
  0
VERTEX
  8
ST44
 62
    80
 10
        5.74
 20
        2.79
  0
VERTEX
  8
ST44
 62
    80
 10
        5.61
 20
        2.60
  0
VERTEX
  8
ST44
 62
    80
 10
        5.46
 20
        2.41
  0
VERTEX
  8
ST44
 62
    80
 10
        5.29
 20
        2.21
  0
VERTEX
  8
ST44
 62
    80
 10
        5.10
 20
        2.02
  0
VERTEX
  8
ST44
 62
    80
 10
        4.89
 20
        1.82
  0
VERTEX
  8
ST44
 62
    80
 10
        4.64
 20
        1.62
  0
VERTEX
  8
ST44
 62
    80
 10
        4.36
 20
        1.43
  0
VERTEX
  8
ST44
 62
    80
 10
        4.04
 20
        1.23
  0
VERTEX
  8
ST44
 62
    80
 10
        3.68
 20
        1.04
  0
VERTEX
  8
ST44
 62
    80
 10
        3.28
 20
        0.85
  0
VERTEX
  8
ST44
 62
    80
 10
        2.83
 20
        0.67
  0
VERTEX
  8
ST44
 62
    80
 10
        2.33
 20
        0.50
  0
VERTEX
  8
ST44
 62
    80
 10
        1.79
 20
        0.35
  0
VERTEX
  8
ST44
 62
    80
 10
        1.22
 20
        0.23
  0
VERTEX
  8
ST44
 62
    80
 10
        0.62
 20
        0.13
  0
VERTEX
  8
ST44
 62
    80
 10
       -0.00
 20
        0.08
  0
SEQEND
  0
POLYLINE
  8
ST43
 62
    80
 66
     1
 10
        0.00
 20
        0.00
  0
VERTEX
  8
ST43
 62
    80
 10
        6.61
 20
        6.74
  0
VERTEX
  8
ST43
 62
    80
 10
        6.59
 20
        6.36
  0
VERTEX
  8
ST43
 62
    80
 10
        6.57
 20
        6.01
  0
VERTEX
  8
ST43
 62
    80
 10
        6.55
 20
        5.69
  0
VERTEX
  8
ST43
 62
    80
 10
        6.52
 20
        5.39
  0
VERTEX
  8
ST43
 62
    80
 10
        6.49
 20
        5.12
  0
VERTEX
  8
ST43
 62
    80
 10
        6.47
 20
        4.95
  0
VERTEX
  8
ST43
 62
    80
 10
        6.46
 20
        4.87
  0
VERTEX
  8
ST43
 62
    80
 10
        6.42
 20
        4.62
  0
VERTEX
  8
ST43
 62
    80
 10
        6.38
 20
        4.40
  0
VERTEX
  8
ST43
 62
    80
 10
        6.34
 20
        4.18
  0
VERTEX
  8
ST43
 62
    80
 10
        6.28
 20
        3.97
  0
VERTEX
  8
ST43
 62
    80
 10
        6.22
 20
        3.76
  0
VERTEX
  8
ST43
 62
    80
 10
        6.16
 20
        3.57
  0
VERTEX
  8
ST43
 62
    80
 10
        6.08
 20
        3.37
  0
VERTEX
  8
ST43
 62
    80
 10
        5.99
 20
        3.18
  0
VERTEX
  8
ST43
 62
    80
 10
        5.90
 20
        2.98
  0
VERTEX
  8
ST43
 62
    80
 10
        5.78
 20
        2.79
  0
VERTEX
  8
ST43
 62
    80
 10
        5.66
 20
        2.60
  0
VERTEX
  8
ST43
 62
    80
 10
        5.51
 20
        2.41
  0
VERTEX
  8
ST43
 62
    80
 10
        5.35
 20
        2.21
  0
VERTEX
  8
ST43
 62
    80
 10
        5.16
 20
        2.01
  0
VERTEX
  8
ST43
 62
    80
 10
        4.94
 20
        1.82
  0
VERTEX
  8
ST43
 62
    80
 10
        4.69
 20
        1.62
  0
VERTEX
  8
ST43
 62
    80
 10
        4.41
 20
        1.42
  0
VERTEX
  8
ST43
 62
    80
 10
        4.09
 20
        1.23
  0
VERTEX
  8
ST43
 62
    80
 10
        3.73
 20
        1.03
  0
VERTEX
  8
ST43
 62
    80
 10
        3.32
 20
        0.85
  0
VERTEX
  8
ST43
 62
    80
 10
        2.87
 20
        0.67
  0
VERTEX
  8
ST43
 62
    80
 10
        2.37
 20
        0.50
  0
VERTEX
  8
ST43
 62
    80
 10
        1.82
 20
        0.36
  0
VERTEX
  8
ST43
 62
    80
 10
        1.24
 20
        0.23
  0
VERTEX
  8
ST43
 62
    80
 10
        0.63
 20
        0.13
  0
VERTEX
  8
ST43
 62
    80
 10
       -0.00
 20
        0.07
  0
SEQEND
  0
POLYLINE
  8
ST26
 62
    80
 66
     1
 10
        0.00
 20
        0.00
  0
VERTEX
  8
ST26
 62
    80
 10
        6.61
 20
        6.74
  0
VERTEX
  8
ST26
 62
    80
 10
        6.60
 20
        6.35
  0
VERTEX
  8
ST26
 62
    80
 10
        6.58
 20
        6.00
  0
VERTEX
  8
ST26
 62
    80
 10
        6.55
 20
        5.68
  0
VERTEX
  8
ST26
 62
    80
 10
        6.53
 20
        5.38
  0
VERTEX
  8
ST26
 62
    80
 10
        6.50
 20
        5.11
  0
VERTEX
  8
ST26
 62
    80
 10
        6.47
 20
        4.86
  0
VERTEX
  8
ST26
 62
    80
 10
        6.43
 20
        4.62
  0
VERTEX
  8
ST26
 62
    80
 10
        6.39
 20
        4.40
  0
VERTEX
  8
ST26
 62
    80
 10
        6.35
 20
        4.18
  0
VERTEX
  8
ST26
 62
    80
 10
        6.29
 20
        3.97
  0
VERTEX
  8
ST26
 62
    80
 10
        6.24
 20
        3.77
  0
VERTEX
  8
ST26
 62
    80
 10
        6.17
 20
        3.58
  0
VERTEX
  8
ST26
 62
    80
 10
        6.10
 20
        3.38
  0
VERTEX
  8
ST26
 62
    80
 10
        6.01
 20
        3.19
  0
VERTEX
  8
ST26
 62
    80
 10
        5.92
 20
        3.00
  0
VERTEX
  8
ST26
 62
    80
 10
        5.81
 20
        2.81
  0
VERTEX
  8
ST26
 62
    80
 10
        5.68
 20
        2.61
  0
VERTEX
  8
ST26
 62
    80
 10
        5.54
 20
        2.42
  0
VERTEX
  8
ST26
 62
    80
 10
        5.38
 20
        2.22
  0
VERTEX
  8
ST26
 62
    80
 10
        5.19
 20
        2.03
  0
VERTEX
  8
ST26
 62
    80
 10
        4.97
 20
        1.83
  0
VERTEX
  8
ST26
 62
    80
 10
        4.73
 20
        1.63
  0
VERTEX
  8
ST26
 62
    80
 10
        4.45
 20
        1.43
  0
VERTEX
  8
ST26
 62
    80
 10
        4.13
 20
        1.23
  0
VERTEX
  8
ST26
 62
    80
 10
        3.77
 20
        1.04
  0
VERTEX
  8
ST26
 62
    80
 10
        3.36
 20
        0.85
  0
VERTEX
  8
ST26
 62
    80
 10
        2.90
 20
        0.68
  0
VERTEX
  8
ST26
 62
    80
 10
        2.39
 20
        0.51
  0
VERTEX
  8
ST26
 62
    80
 10
        1.84
 20
        0.36
  0
VERTEX
  8
ST26
 62
    80
 10
        1.25
 20
        0.24
  0
VERTEX
  8
ST26
 62
    80
 10
        0.64
 20
        0.14
  0
VERTEX
  8
ST26
 62
    80
 10
       -0.00
 20
        0.07
  0
SEQEND
  0
POLYLINE
  8
ST9
 62
    80
 66
     1
 10
        0.00
 20
        0.00
  0
VERTEX
  8
ST9
 62
    80
 10
        6.61
 20
        6.74
  0
VERTEX
  8
ST9
 62
    80
 10
        6.60
 20
        6.34
  0
VERTEX
  8
ST9
 62
    80
 10
        6.58
 20
        5.99
  0
VERTEX
  8
ST9
 62
    80
 10
        6.56
 20
        5.67
  0
VERTEX
  8
ST9
 62
    80
 10
        6.53
 20
        5.37
  0
VERTEX
  8
ST9
 62
    80
 10
        6.51
 20
        5.11
  0
VERTEX
  8
ST9
 62
    80
 10
        6.47
 20
        4.86
  0
VERTEX
  8
ST9
 62
    80
 10
        6.44
 20
        4.62
  0
VERTEX
  8
ST9
 62
    80
 10
        6.40
 20
        4.40
  0
VERTEX
  8
ST9
 62
    80
 10
        6.36
 20
        4.18
  0
VERTEX
  8
ST9
 62
    80
 10
        6.31
 20
        3.98
  0
VERTEX
  8
ST9
 62
    80
 10
        6.25
 20
        3.78
  0
VERTEX
  8
ST9
 62
    80
 10
        6.19
 20
        3.59
  0
VERTEX
  8
ST9
 62
    80
 10
        6.12
 20
        3.39
  0
VERTEX
  8
ST9
 62
    80
 10
        6.03
 20
        3.20
  0
VERTEX
  8
ST9
 62
    80
 10
        5.94
 20
        3.01
  0
VERTEX
  8
ST9
 62
    80
 10
        5.83
 20
        2.82
  0
VERTEX
  8
ST9
 62
    80
 10
        5.71
 20
        2.63
  0
VERTEX
  8
ST9
 62
    80
 10
        5.57
 20
        2.43
  0
VERTEX
  8
ST9
 62
    80
 10
        5.40
 20
        2.24
  0
VERTEX
  8
ST9
 62
    80
 10
        5.22
 20
        2.04
  0
VERTEX
  8
ST9
 62
    80
 10
        5.00
 20
        1.84
  0
VERTEX
  8
ST9
 62
    80
 10
        4.76
 20
        1.64
  0
VERTEX
  8
ST9
 62
    80
 10
        4.48
 20
        1.44
  0
VERTEX
  8
ST9
 62
    80
 10
        4.16
 20
        1.24
  0
VERTEX
  8
ST9
 62
    80
 10
        3.80
 20
        1.05
  0
VERTEX
  8
ST9
 62
    80
 10
        3.38
 20
        0.86
  0
VERTEX
  8
ST9
 62
    80
 10
        2.92
 20
        0.68
  0
VERTEX
  8
ST9
 62
    80
 10
        2.42
 20
        0.52
  0
VERTEX
  8
ST9
 62
    80
 10
        1.86
 20
        0.37
  0
VERTEX
  8
ST9
 62
    80
 10
        1.27
 20
        0.25
  0
VERTEX
  8
ST9
 62
    80
 10
        0.65
 20
        0.15
  0
VERTEX
  8
ST9
 62
    80
 10
       -0.00
 20
        0.08
  0
SEQEND
  0
POLYLINE
  8
ST8
 62
    80
 66
     1
 10
        0.00
 20
        0.00
  0
VERTEX
  8
ST8
 62
    80
 10
        6.61
 20
        6.73
  0
VERTEX
  8
ST8
 62
    80
 10
        6.60
 20
        6.33
  0
VERTEX
  8
ST8
 62
    80
 10
        6.58
 20
        5.98
  0
VERTEX
  8
ST8
 62
    80
 10
        6.56
 20
        5.66
  0
VERTEX
  8
ST8
 62
    80
 10
        6.53
 20
        5.37
  0
VERTEX
  8
ST8
 62
    80
 10
        6.51
 20
        5.10
  0
VERTEX
  8
ST8
 62
    80
 10
        6.48
 20
        4.85
  0
VERTEX
  8
ST8
 62
    80
 10
        6.44
 20
        4.62
  0
VERTEX
  8
ST8
 62
    80
 10
        6.40
 20
        4.40
  0
VERTEX
  8
ST8
 62
    80
 10
        6.36
 20
        4.19
  0
VERTEX
  8
ST8
 62
    80
 10
        6.31
 20
        3.99
  0
VERTEX
  8
ST8
 62
    80
 10
        6.26
 20
        3.79
  0
VERTEX
  8
ST8
 62
    80
 10
        6.20
 20
        3.60
  0
VERTEX
  8
ST8
 62
    80
 10
        6.13
 20
        3.41
  0
VERTEX
  8
ST8
 62
    80
 10
        6.05
 20
        3.22
  0
VERTEX
  8
ST8
 62
    80
 10
        5.95
 20
        3.03
  0
VERTEX
  8
ST8
 62
    80
 10
        5.85
 20
        2.84
  0
VERTEX
  8
ST8
 62
    80
 10
        5.73
 20
        2.64
  0
VERTEX
  8
ST8
 62
    80
 10
        5.59
 20
        2.45
  0
VERTEX
  8
ST8
 62
    80
 10
        5.42
 20
        2.25
  0
VERTEX
  8
ST8
 62
    80
 10
        5.24
 20
        2.05
  0
VERTEX
  8
ST8
 62
    80
 10
        5.03
 20
        1.85
  0
VERTEX
  8
ST8
 62
    80
 10
        4.78
 20
        1.65
  0
VERTEX
  8
ST8
 62
    80
 10
        4.50
 20
        1.45
  0
VERTEX
  8
ST8
 62
    80
 10
        4.19
 20
        1.25
  0
VERTEX
  8
ST8
 62
    80
 10
        3.82
 20
        1.06
  0
VERTEX
  8
ST8
 62
    80
 10
        3.41
 20
        0.87
  0
VERTEX
  8
ST8
 62
    80
 10
        2.95
 20
        0.69
  0
VERTEX
  8
ST8
 62
    80
 10
        2.44
 20
        0.53
  0
VERTEX
  8
ST8
 62
    80
 10
        1.88
 20
        0.39
  0
VERTEX
  8
ST8
 62
    80
 10
        1.28
 20
        0.26
  0
VERTEX
  8
ST8
 62
    80
 10
        0.65
 20
        0.15
  0
VERTEX
  8
ST8
 62
    80
 10
       -0.00
 20
        0.08
  0
SEQEND
  0
POLYLINE
  8
ST7
 62
    80
 66
     1
 10
        0.00
 20
        0.00
  0
VERTEX
  8
ST7
 62
    80
 10
        6.60
 20
        6.73
  0
VERTEX
  8
ST7
 62
    80
 10
        6.59
 20
        6.33
  0
VERTEX
  8
ST7
 62
    80
 10
        6.57
 20
        5.97
  0
VERTEX
  8
ST7
 62
    80
 10
        6.55
 20
        5.65
  0
VERTEX
  8
ST7
 62
    80
 10
        6.53
 20
        5.36
  0
VERTEX
  8
ST7
 62
    80
 10
        6.50
 20
        5.09
  0
VERTEX
  8
ST7
 62
    80
 10
        6.47
 20
        4.85
  0
VERTEX
  8
ST7
 62
    80
 10
        6.43
 20
        4.62
  0
VERTEX
  8
ST7
 62
    80
 10
        6.39
 20
        4.40
  0
VERTEX
  8
ST7
 62
    80
 10
        6.35
 20
        4.20
  0
VERTEX
  8
ST7
 62
    80
 10
        6.30
 20
        4.00
  0
VERTEX
  8
ST7
 62
    80
 10
        6.25
 20
        3.80
  0
VERTEX
  8
ST7
 62
    80
 10
        6.19
 20
        3.61
  0
VERTEX
  8
ST7
 62
    80
 10
        6.12
 20
        3.43
  0
VERTEX
  8
ST7
 62
    80
 10
        6.04
 20
        3.24
  0
VERTEX
  8
ST7
 62
    80
 10
        5.95
 20
        3.05
  0
VERTEX
  8
ST7
 62
    80
 10
        5.85
 20
        2.86
  0
VERTEX
  8
ST7
 62
    80
 10
        5.73
 20
        2.67
  0
VERTEX
  8
ST7
 62
    80
 10
        5.59
 20
        2.47
  0
VERTEX
  8
ST7
 62
    80
 10
        5.43
 20
        2.28
  0
VERTEX
  8
ST7
 62
    80
 10
        5.24
 20
        2.08
  0
VERTEX
  8
ST7
 62
    80
 10
        5.03
 20
        1.87
  0
VERTEX
  8
ST7
 62
    80
 10
        4.79
 20
        1.67
  0
VERTEX
  8
ST7
 62
    80
 10
        4.51
 20
        1.47
  0
VERTEX
  8
ST7
 62
    80
 10
        4.20
 20
        1.27
  0
VERTEX
  8
ST7
 62
    80
 10
        3.83
 20
        1.08
  0
VERTEX
  8
ST7
 62
    80
 10
        3.42
 20
        0.89
  0
VERTEX
  8
ST7
 62
    80
 10
        2.96
 20
        0.72
  0
VERTEX
  8
ST7
 62
    80
 10
        2.45
 20
        0.55
  0
VERTEX
  8
ST7
 62
    80
 10
        1.89
 20
        0.41
  0
VERTEX
  8
ST7
 62
    80
 10
        1.29
 20
        0.28
  0
VERTEX
  8
ST7
 62
    80
 10
        0.66
 20
        0.17
  0
VERTEX
  8
ST7
 62
    80
 10
       -0.00
 20
        0.09
  0
SEQEND
  0
POLYLINE
  8
ST12
 62
    80
 66
     1
 10
        0.00
 20
        0.00
  0
VERTEX
  8
ST12
 62
    80
 10
        6.59
 20
        6.73
  0
VERTEX
  8
ST12
 62
    80
 10
        6.58
 20
        6.32
  0
VERTEX
  8
ST12
 62
    80
 10
        6.56
 20
        5.96
  0
VERTEX
  8
ST12
 62
    80
 10
        6.54
 20
        5.64
  0
VERTEX
  8
ST12
 62
    80
 10
        6.52
 20
        5.35
  0
VERTEX
  8
ST12
 62
    80
 10
        6.49
 20
        5.09
  0
VERTEX
  8
ST12
 62
    80
 10
        6.46
 20
        4.85
  0
VERTEX
  8
ST12
 62
    80
 10
        6.42
 20
        4.62
  0
VERTEX
  8
ST12
 62
    80
 10
        6.39
 20
        4.41
  0
VERTEX
  8
ST12
 62
    80
 10
        6.34
 20
        4.20
  0
VERTEX
  8
ST12
 62
    80
 10
        6.30
 20
        4.01
  0
VERTEX
  8
ST12
 62
    80
 10
        6.25
 20
        3.82
  0
VERTEX
  8
ST12
 62
    80
 10
        6.19
 20
        3.63
  0
VERTEX
  8
ST12
 62
    80
 10
        6.12
 20
        3.45
  0
VERTEX
  8
ST12
 62
    80
 10
        6.04
 20
        3.26
  0
VERTEX
  8
ST12
 62
    80
 10
        5.95
 20
        3.07
  0
VERTEX
  8
ST12
 62
    80
 10
        5.85
 20
        2.88
  0
VERTEX
  8
ST12
 62
    80
 10
        5.73
 20
        2.69
  0
VERTEX
  8
ST12
 62
    80
 10
        5.59
 20
        2.50
  0
VERTEX
  8
ST12
 62
    80
 10
        5.43
 20
        2.30
  0
VERTEX
  8
ST12
 62
    80
 10
        5.25
 20
        2.10
  0
VERTEX
  8
ST12
 62
    80
 10
        5.04
 20
        1.90
  0
VERTEX
  8
ST12
 62
    80
 10
        4.80
 20
        1.69
  0
VERTEX
  8
ST12
 62
    80
 10
        4.52
 20
        1.49
  0
VERTEX
  8
ST12
 62
    80
 10
        4.21
 20
        1.29
  0
VERTEX
  8
ST12
 62
    80
 10
        3.85
 20
        1.10
  0
VERTEX
  8
ST12
 62
    80
 10
        3.44
 20
        0.91
  0
VERTEX
  8
ST12
 62
    80
 10
        2.97
 20
        0.74
  0
VERTEX
  8
ST12
 62
    80
 10
        2.46
 20
        0.57
  0
VERTEX
  8
ST12
 62
    80
 10
        1.90
 20
        0.43
  0
VERTEX
  8
ST12
 62
    80
 10
        1.30
 20
        0.30
  0
VERTEX
  8
ST12
 62
    80
 10
        0.67
 20
        0.19
  0
VERTEX
  8
ST12
 62
    80
 10
       -0.00
 20
        0.10
  0
SEQEND
  0
POLYLINE
  8
ST11
 62
    80
 66
     1
 10
        0.00
 20
        0.00
  0
VERTEX
  8
ST11
 62
    80
 10
        6.57
 20
        6.73
  0
VERTEX
  8
ST11
 62
    80
 10
        6.56
 20
        6.32
  0
VERTEX
  8
ST11
 62
    80
 10
        6.55
 20
        5.95
  0
VERTEX
  8
ST11
 62
    80
 10
        6.53
 20
        5.63
  0
VERTEX
  8
ST11
 62
    80
 10
        6.50
 20
        5.34
  0
VERTEX
  8
ST11
 62
    80
 10
        6.47
 20
        5.08
  0
VERTEX
  8
ST11
 62
    80
 10
        6.44
 20
        4.84
  0
VERTEX
  8
ST11
 62
    80
 10
        6.41
 20
        4.62
  0
VERTEX
  8
ST11
 62
    80
 10
        6.37
 20
        4.41
  0
VERTEX
  8
ST11
 62
    80
 10
        6.33
 20
        4.22
  0
VERTEX
  8
ST11
 62
    80
 10
        6.28
 20
        4.02
  0
VERTEX
  8
ST11
 62
    80
 10
        6.23
 20
        3.84
  0
VERTEX
  8
ST11
 62
    80
 10
        6.17
 20
        3.65
  0
VERTEX
  8
ST11
 62
    80
 10
        6.10
 20
        3.47
  0
VERTEX
  8
ST11
 62
    80
 10
        6.02
 20
        3.29
  0
VERTEX
  8
ST11
 62
    80
 10
        5.94
 20
        3.10
  0
VERTEX
  8
ST11
 62
    80
 10
        5.83
 20
        2.92
  0
VERTEX
  8
ST11
 62
    80
 10
        5.71
 20
        2.73
  0
VERTEX
  8
ST11
 62
    80
 10
        5.58
 20
        2.53
  0
VERTEX
  8
ST11
 62
    80
 10
        5.42
 20
        2.33
  0
VERTEX
  8
ST11
 62
    80
 10
        5.24
 20
        2.13
  0
VERTEX
  8
ST11
 62
    80
 10
        5.03
 20
        1.93
  0
VERTEX
  8
ST11
 62
    80
 10
        4.79
 20
        1.73
  0
VERTEX
  8
ST11
 62
    80
 10
        4.52
 20
        1.52
  0
VERTEX
  8
ST11
 62
    80
 10
        4.20
 20
        1.32
  0
VERTEX
  8
ST11
 62
    80
 10
        3.85
 20
        1.13
  0
VERTEX
  8
ST11
 62
    80
 10
        3.44
 20
        0.94
  0
VERTEX
  8
ST11
 62
    80
 10
        2.98
 20
        0.77
  0
VERTEX
  8
ST11
 62
    80
 10
        2.47
 20
        0.61
  0
VERTEX
  8
ST11
 62
    80
 10
        1.91
 20
        0.46
  0
VERTEX
  8
ST11
 62
    80
 10
        1.31
 20
        0.33
  0
VERTEX
  8
ST11
 62
    80
 10
        0.67
 20
        0.22
  0
VERTEX
  8
ST11
 62
    80
 10
       -0.00
 20
        0.12
  0
SEQEND
  0
POLYLINE
  8
ST10
 62
    80
 66
     1
 10
        0.00
 20
        0.00
  0
VERTEX
  8
ST10
 62
    80
 10
        6.55
 20
        6.73
  0
VERTEX
  8
ST10
 62
    80
 10
        6.55
 20
        6.31
  0
VERTEX
  8
ST10
 62
    80
 10
        6.53
 20
        5.94
  0
VERTEX
  8
ST10
 62
    80
 10
        6.51
 20
        5.62
  0
VERTEX
  8
ST10
 62
    80
 10
        6.48
 20
        5.33
  0
VERTEX
  8
ST10
 62
    80
 10
        6.45
 20
        5.08
  0
VERTEX
  8
ST10
 62
    80
 10
        6.42
 20
        4.84
  0
VERTEX
  8
ST10
 62
    80
 10
        6.39
 20
        4.63
  0
VERTEX
  8
ST10
 62
    80
 10
        6.35
 20
        4.42
  0
VERTEX
  8
ST10
 62
    80
 10
        6.31
 20
        4.23
  0
VERTEX
  8
ST10
 62
    80
 10
        6.26
 20
        4.04
  0
VERTEX
  8
ST10
 62
    80
 10
        6.21
 20
        3.86
  0
VERTEX
  8
ST10
 62
    80
 10
        6.15
 20
        3.68
  0
VERTEX
  8
ST10
 62
    80
 10
        6.08
 20
        3.50
  0
VERTEX
  8
ST10
 62
    80
 10
        6.00
 20
        3.32
  0
VERTEX
  8
ST10
 62
    80
 10
        5.91
 20
        3.14
  0
VERTEX
  8
ST10
 62
    80
 10
        5.81
 20
        2.95
  0
VERTEX
  8
ST10
 62
    80
 10
        5.69
 20
        2.76
  0
VERTEX
  8
ST10
 62
    80
 10
        5.56
 20
        2.57
  0
VERTEX
  8
ST10
 62
    80
 10
        5.40
 20
        2.37
  0
VERTEX
  8
ST10
 62
    80
 10
        5.22
 20
        2.17
  0
VERTEX
  8
ST10
 62
    80
 10
        5.02
 20
        1.97
  0
VERTEX
  8
ST10
 62
    80
 10
        4.78
 20
        1.77
  0
VERTEX
  8
ST10
 62
    80
 10
        4.51
 20
        1.56
  0
VERTEX
  8
ST10
 62
    80
 10
        4.19
 20
        1.36
  0
VERTEX
  8
ST10
 62
    80
 10
        3.84
 20
        1.17
  0
VERTEX
  8
ST10
 62
    80
 10
        3.43
 20
        0.98
  0
VERTEX
  8
ST10
 62
    80
 10
        2.98
 20
        0.81
  0
VERTEX
  8
ST10
 62
    80
 10
        2.47
 20
        0.64
  0
VERTEX
  8
ST10
 62
    80
 10
        1.91
 20
        0.50
  0
VERTEX
  8
ST10
 62
    80
 10
        1.31
 20
        0.37
  0
VERTEX
  8
ST10
 62
    80
 10
        0.67
 20
        0.25
  0
VERTEX
  8
ST10
 62
    80
 10
       -0.00
 20
        0.16
  0
SEQEND
  0
POLYLINE
  8
ST3
 62
    80
 66
     1
 10
        0.00
 20
        0.00
  0
VERTEX
  8
ST3
 62
    80
 10
        6.53
 20
        6.73
  0
VERTEX
  8
ST3
 62
    80
 10
        6.53
 20
        6.30
  0
VERTEX
  8
ST3
 62
    80
 10
        6.51
 20
        5.93
  0
VERTEX
  8
ST3
 62
    80
 10
        6.49
 20
        5.61
  0
VERTEX
  8
ST3
 62
    80
 10
        6.46
 20
        5.33
  0
VERTEX
  8
ST3
 62
    80
 10
        6.43
 20
        5.07
  0
VERTEX
  8
ST3
 62
    80
 10
        6.40
 20
        4.84
  0
VERTEX
  8
ST3
 62
    80
 10
        6.36
 20
        4.63
  0
VERTEX
  8
ST3
 62
    80
 10
        6.32
 20
        4.43
  0
VERTEX
  8
ST3
 62
    80
 10
        6.28
 20
        4.24
  0
VERTEX
  8
ST3
 62
    80
 10
        6.23
 20
        4.06
  0
VERTEX
  8
ST3
 62
    80
 10
        6.18
 20
        3.88
  0
VERTEX
  8
ST3
 62
    80
 10
        6.12
 20
        3.70
  0
VERTEX
  8
ST3
 62
    80
 10
        6.05
 20
        3.53
  0
VERTEX
  8
ST3
 62
    80
 10
        5.98
 20
        3.35
  0
VERTEX
  8
ST3
 62
    80
 10
        5.89
 20
        3.17
  0
VERTEX
  8
ST3
 62
    80
 10
        5.79
 20
        2.99
  0
VERTEX
  8
ST3
 62
    80
 10
        5.67
 20
        2.80
  0
VERTEX
  8
ST3
 62
    80
 10
        5.54
 20
        2.61
  0
VERTEX
  8
ST3
 62
    80
 10
        5.38
 20
        2.41
  0
VERTEX
  8
ST3
 62
    80
 10
        5.20
 20
        2.21
  0
VERTEX
  8
ST3
 62
    80
 10
        5.00
 20
        2.01
  0
VERTEX
  8
ST3
 62
    80
 10
        4.76
 20
        1.81
  0
VERTEX
  8
ST3
 62
    80
 10
        4.49
 20
        1.60
  0
VERTEX
  8
ST3
 62
    80
 10
        4.18
 20
        1.40
  0
VERTEX
  8
ST3
 62
    80
 10
        3.83
 20
        1.21
  0
VERTEX
  8
ST3
 62
    80
 10
        3.43
 20
        1.02
  0
VERTEX
  8
ST3
 62
    80
 10
        2.97
 20
        0.85
  0
VERTEX
  8
ST3
 62
    80
 10
        2.47
 20
        0.68
  0
VERTEX
  8
ST3
 62
    80
 10
        1.92
 20
        0.54
  0
VERTEX
  8
ST3
 62
    80
 10
        1.32
 20
        0.41
  0
VERTEX
  8
ST3
 62
    80
 10
        0.68
 20
        0.29
  0
VERTEX
  8
ST3
 62
    80
 10
       -0.00
 20
        0.19
  0
SEQEND
  0
POLYLINE
  8
ST2
 62
    80
 66
     1
 10
        0.00
 20
        0.00
  0
VERTEX
  8
ST2
 62
    80
 10
        6.51
 20
        6.73
  0
VERTEX
  8
ST2
 62
    80
 10
        6.50
 20
        6.30
  0
VERTEX
  8
ST2
 62
    80
 10
        6.48
 20
        5.92
  0
VERTEX
  8
ST2
 62
    80
 10
        6.46
 20
        5.60
  0
VERTEX
  8
ST2
 62
    80
 10
        6.43
 20
        5.32
  0
VERTEX
  8
ST2
 62
    80
 10
        6.40
 20
        5.07
  0
VERTEX
  8
ST2
 62
    80
 10
        6.37
 20
        4.85
  0
VERTEX
  8
ST2
 62
    80
 10
        6.33
 20
        4.64
  0
VERTEX
  8
ST2
 62
    80
 10
        6.29
 20
        4.45
  0
VERTEX
  8
ST2
 62
    80
 10
        6.25
 20
        4.26
  0
VERTEX
  8
ST2
 62
    80
 10
        6.20
 20
        4.08
  0
VERTEX
  8
ST2
 62
    80
 10
        6.14
 20
        3.91
  0
VERTEX
  8
ST2
 62
    80
 10
        6.08
 20
        3.74
  0
VERTEX
  8
ST2
 62
    80
 10
        6.01
 20
        3.56
  0
VERTEX
  8
ST2
 62
    80
 10
        5.94
 20
        3.39
  0
VERTEX
  8
ST2
 62
    80
 10
        5.85
 20
        3.21
  0
VERTEX
  8
ST2
 62
    80
 10
        5.75
 20
        3.03
  0
VERTEX
  8
ST2
 62
    80
 10
        5.63
 20
        2.85
  0
VERTEX
  8
ST2
 62
    80
 10
        5.49
 20
        2.66
  0
VERTEX
  8
ST2
 62
    80
 10
        5.34
 20
        2.47
  0
VERTEX
  8
ST2
 62
    80
 10
        5.16
 20
        2.27
  0
VERTEX
  8
ST2
 62
    80
 10
        4.96
 20
        2.07
  0
VERTEX
  8
ST2
 62
    80
 10
        4.73
 20
        1.86
  0
VERTEX
  8
ST2
 62
    80
 10
        4.46
 20
        1.66
  0
VERTEX
  8
ST2
 62
    80
 10
        4.15
 20
        1.46
  0
VERTEX
  8
ST2
 62
    80
 10
        3.80
 20
        1.27
  0
VERTEX
  8
ST2
 62
    80
 10
        3.40
 20
        1.08
  0
VERTEX
  8
ST2
 62
    80
 10
        2.96
 20
        0.91
  0
VERTEX
  8
ST2
 62
    80
 10
        2.46
 20
        0.74
  0
VERTEX
  8
ST2
 62
    80
 10
        1.91
 20
        0.60
  0
VERTEX
  8
ST2
 62
    80
 10
        1.32
 20
        0.47
  0
VERTEX
  8
ST2
 62
    80
 10
        0.68
 20
        0.35
  0
VERTEX
  8
ST2
 62
    80
 10
       -0.00
 20
        0.25
  0
SEQEND
  0
POLYLINE
  8
ST1
 62
    80
 66
     1
 10
        0.00
 20
        0.00
  0
VERTEX
  8
ST1
 62
    80
 10
        6.48
 20
        6.73
  0
VERTEX
  8
ST1
 62
    80
 10
        6.48
 20
        6.29
  0
VERTEX
  8
ST1
 62
    80
 10
        6.46
 20
        5.92
  0
VERTEX
  8
ST1
 62
    80
 10
        6.43
 20
        5.59
  0
VERTEX
  8
ST1
 62
    80
 10
        6.40
 20
        5.32
  0
VERTEX
  8
ST1
 62
    80
 10
        6.37
 20
        5.07
  0
VERTEX
  8
ST1
 62
    80
 10
        6.33
 20
        4.85
  0
VERTEX
  8
ST1
 62
    80
 10
        6.30
 20
        4.65
  0
VERTEX
  8
ST1
 62
    80
 10
        6.25
 20
        4.46
  0
VERTEX
  8
ST1
 62
    80
 10
        6.21
 20
        4.28
  0
VERTEX
  8
ST1
 62
    80
 10
        6.16
 20
        4.11
  0
VERTEX
  8
ST1
 62
    80
 10
        6.11
 20
        3.94
  0
VERTEX
  8
ST1
 62
    80
 10
        6.04
 20
        3.77
  0
VERTEX
  8
ST1
 62
    80
 10
        5.98
 20
        3.60
  0
VERTEX
  8
ST1
 62
    80
 10
        5.90
 20
        3.43
  0
VERTEX
  8
ST1
 62
    80
 10
        5.81
 20
        3.26
  0
VERTEX
  8
ST1
 62
    80
 10
        5.71
 20
        3.08
  0
VERTEX
  8
ST1
 62
    80
 10
        5.59
 20
        2.90
  0
VERTEX
  8
ST1
 62
    80
 10
        5.45
 20
        2.71
  0
VERTEX
  8
ST1
 62
    80
 10
        5.30
 20
        2.52
  0
VERTEX
  8
ST1
 62
    80
 10
        5.12
 20
        2.32
  0
VERTEX
  8
ST1
 62
    80
 10
        4.92
 20
        2.12
  0
VERTEX
  8
ST1
 62
    80
 10
        4.69
 20
        1.92
  0
VERTEX
  8
ST1
 62
    80
 10
        4.42
 20
        1.72
  0
VERTEX
  8
ST1
 62
    80
 10
        4.12
 20
        1.52
  0
VERTEX
  8
ST1
 62
    80
 10
        3.77
 20
        1.32
  0
VERTEX
  8
ST1
 62
    80
 10
        3.38
 20
        1.14
  0
VERTEX
  8
ST1
 62
    80
 10
        2.94
 20
        0.96
  0
VERTEX
  8
ST1
 62
    80
 10
        2.45
 20
        0.80
  0
VERTEX
  8
ST1
 62
    80
 10
        1.90
 20
        0.66
  0
VERTEX
  8
ST1
 62
    80
 10
        1.31
 20
        0.53
  0
VERTEX
  8
ST1
 62
    80
 10
        0.68
 20
        0.41
  0
VERTEX
  8
ST1
 62
    80
 10
       -0.00
 20
        0.31
  0
SEQEND
  0
POLYLINE
  8
ST6
 62
    80
 66
     1
 10
        0.00
 20
        0.00
  0
VERTEX
  8
ST6
 62
    80
 10
        6.45
 20
        6.73
  0
VERTEX
  8
ST6
 62
    80
 10
        6.44
 20
        6.28
  0
VERTEX
  8
ST6
 62
    80
 10
        6.43
 20
        5.91
  0
VERTEX
  8
ST6
 62
    80
 10
        6.40
 20
        5.59
  0
VERTEX
  8
ST6
 62
    80
 10
        6.37
 20
        5.31
  0
VERTEX
  8
ST6
 62
    80
 10
        6.33
 20
        5.07
  0
VERTEX
  8
ST6
 62
    80
 10
        6.29
 20
        4.86
  0
VERTEX
  8
ST6
 62
    80
 10
        6.25
 20
        4.66
  0
VERTEX
  8
ST6
 62
    80
 10
        6.21
 20
        4.48
  0
VERTEX
  8
ST6
 62
    80
 10
        6.16
 20
        4.30
  0
VERTEX
  8
ST6
 62
    80
 10
        6.11
 20
        4.13
  0
VERTEX
  8
ST6
 62
    80
 10
        6.06
 20
        3.97
  0
VERTEX
  8
ST6
 62
    80
 10
        5.99
 20
        3.80
  0
VERTEX
  8
ST6
 62
    80
 10
        5.92
 20
        3.64
  0
VERTEX
  8
ST6
 62
    80
 10
        5.84
 20
        3.48
  0
VERTEX
  8
ST6
 62
    80
 10
        5.75
 20
        3.31
  0
VERTEX
  8
ST6
 62
    80
 10
        5.65
 20
        3.13
  0
VERTEX
  8
ST6
 62
    80
 10
        5.53
 20
        2.96
  0
VERTEX
  8
ST6
 62
    80
 10
        5.39
 20
        2.77
  0
VERTEX
  8
ST6
 62
    80
 10
        5.24
 20
        2.58
  0
VERTEX
  8
ST6
 62
    80
 10
        5.06
 20
        2.39
  0
VERTEX
  8
ST6
 62
    80
 10
        4.86
 20
        2.19
  0
VERTEX
  8
ST6
 62
    80
 10
        4.63
 20
        1.99
  0
VERTEX
  8
ST6
 62
    80
 10
        4.37
 20
        1.79
  0
VERTEX
  8
ST6
 62
    80
 10
        4.07
 20
        1.59
  0
VERTEX
  8
ST6
 62
    80
 10
        3.73
 20
        1.40
  0
VERTEX
  8
ST6
 62
    80
 10
        3.34
 20
        1.22
  0
VERTEX
  8
ST6
 62
    80
 10
        2.91
 20
        1.05
  0
VERTEX
  8
ST6
 62
    80
 10
        2.42
 20
        0.89
  0
VERTEX
  8
ST6
 62
    80
 10
        1.89
 20
        0.74
  0
VERTEX
  8
ST6
 62
    80
 10
        1.31
 20
        0.61
  0
VERTEX
  8
ST6
 62
    80
 10
        0.67
 20
        0.49
  0
VERTEX
  8
ST6
 62
    80
 10
       -0.00
 20
        0.39
  0
SEQEND
  0
POLYLINE
  8
ST5
 62
    80
 66
     1
 10
        0.00
 20
        0.00
  0
VERTEX
  8
ST5
 62
    80
 10
        6.42
 20
        6.73
  0
VERTEX
  8
ST5
 62
    80
 10
        6.41
 20
        6.28
  0
VERTEX
  8
ST5
 62
    80
 10
        6.39
 20
        5.90
  0
VERTEX
  8
ST5
 62
    80
 10
        6.36
 20
        5.58
  0
VERTEX
  8
ST5
 62
    80
 10
        6.33
 20
        5.31
  0
VERTEX
  8
ST5
 62
    80
 10
        6.29
 20
        5.07
  0
VERTEX
  8
ST5
 62
    80
 10
        6.25
 20
        4.87
  0
VERTEX
  8
ST5
 62
    80
 10
        6.21
 20
        4.67
  0
VERTEX
  8
ST5
 62
    80
 10
        6.16
 20
        4.50
  0
VERTEX
  8
ST5
 62
    80
 10
        6.11
 20
        4.33
  0
VERTEX
  8
ST5
 62
    80
 10
        6.06
 20
        4.16
  0
VERTEX
  8
ST5
 62
    80
 10
        6.00
 20
        4.00
  0
VERTEX
  8
ST5
 62
    80
 10
        5.94
 20
        3.84
  0
VERTEX
  8
ST5
 62
    80
 10
        5.87
 20
        3.68
  0
VERTEX
  8
ST5
 62
    80
 10
        5.79
 20
        3.52
  0
VERTEX
  8
ST5
 62
    80
 10
        5.69
 20
        3.36
  0
VERTEX
  8
ST5
 62
    80
 10
        5.59
 20
        3.19
  0
VERTEX
  8
ST5
 62
    80
 10
        5.47
 20
        3.01
  0
VERTEX
  8
ST5
 62
    80
 10
        5.33
 20
        2.83
  0
VERTEX
  8
ST5
 62
    80
 10
        5.18
 20
        2.65
  0
VERTEX
  8
ST5
 62
    80
 10
        5.00
 20
        2.46
  0
VERTEX
  8
ST5
 62
    80
 10
        4.80
 20
        2.26
  0
VERTEX
  8
ST5
 62
    80
 10
        4.57
 20
        2.07
  0
VERTEX
  8
ST5
 62
    80
 10
        4.31
 20
        1.87
  0
VERTEX
  8
ST5
 62
    80
 10
        4.02
 20
        1.67
  0
VERTEX
  8
ST5
 62
    80
 10
        3.68
 20
        1.48
  0
VERTEX
  8
ST5
 62
    80
 10
        3.30
 20
        1.30
  0
VERTEX
  8
ST5
 62
    80
 10
        2.88
 20
        1.13
  0
VERTEX
  8
ST5
 62
    80
 10
        2.40
 20
        0.97
  0
VERTEX
  8
ST5
 62
    80
 10
        1.87
 20
        0.83
  0
VERTEX
  8
ST5
 62
    80
 10
        1.30
 20
        0.70
  0
VERTEX
  8
ST5
 62
    80
 10
        0.67
 20
        0.58
  0
VERTEX
  8
ST5
 62
    80
 10
       -0.00
 20
        0.48
  0
SEQEND
  0
POLYLINE
  8
ST4
 62
    80
 66
     1
 10
        0.00
 20
        0.00
  0
VERTEX
  8
ST4
 62
    80
 10
        6.39
 20
        6.73
  0
VERTEX
  8
ST4
 62
    80
 10
        6.38
 20
        6.27
  0
VERTEX
  8
ST4
 62
    80
 10
        6.35
 20
        5.89
  0
VERTEX
  8
ST4
 62
    80
 10
        6.32
 20
        5.57
  0
VERTEX
  8
ST4
 62
    80
 10
        6.28
 20
        5.31
  0
VERTEX
  8
ST4
 62
    80
 10
        6.24
 20
        5.08
  0
VERTEX
  8
ST4
 62
    80
 10
        6.20
 20
        4.87
  0
VERTEX
  8
ST4
 62
    80
 10
        6.15
 20
        4.69
  0
VERTEX
  8
ST4
 62
    80
 10
        6.10
 20
        4.52
  0
VERTEX
  8
ST4
 62
    80
 10
        6.05
 20
        4.35
  0
VERTEX
  8
ST4
 62
    80
 10
        6.00
 20
        4.19
  0
VERTEX
  8
ST4
 62
    80
 10
        5.94
 20
        4.04
  0
VERTEX
  8
ST4
 62
    80
 10
        5.87
 20
        3.89
  0
VERTEX
  8
ST4
 62
    80
 10
        5.80
 20
        3.73
  0
VERTEX
  8
ST4
 62
    80
 10
        5.71
 20
        3.58
  0
VERTEX
  8
ST4
 62
    80
 10
        5.62
 20
        3.42
  0
VERTEX
  8
ST4
 62
    80
 10
        5.51
 20
        3.25
  0
VERTEX
  8
ST4
 62
    80
 10
        5.39
 20
        3.08
  0
VERTEX
  8
ST4
 62
    80
 10
        5.25
 20
        2.91
  0
VERTEX
  8
ST4
 62
    80
 10
        5.10
 20
        2.73
  0
VERTEX
  8
ST4
 62
    80
 10
        4.92
 20
        2.54
  0
VERTEX
  8
ST4
 62
    80
 10
        4.72
 20
        2.35
  0
VERTEX
  8
ST4
 62
    80
 10
        4.50
 20
        2.16
  0
VERTEX
  8
ST4
 62
    80
 10
        4.24
 20
        1.97
  0
VERTEX
  8
ST4
 62
    80
 10
        3.95
 20
        1.77
  0
VERTEX
  8
ST4
 62
    80
 10
        3.62
 20
        1.59
  0
VERTEX
  8
ST4
 62
    80
 10
        3.25
 20
        1.41
  0
VERTEX
  8
ST4
 62
    80
 10
        2.83
 20
        1.24
  0
VERTEX
  8
ST4
 62
    80
 10
        2.36
 20
        1.08
  0
VERTEX
  8
ST4
 62
    80
 10
        1.85
 20
        0.94
  0
VERTEX
  8
ST4
 62
    80
 10
        1.28
 20
        0.81
  0
VERTEX
  8
ST4
 62
    80
 10
        0.67
 20
        0.70
  0
VERTEX
  8
ST4
 62
    80
 10
       -0.00
 20
        0.60
  0
SEQEND
  0
POLYLINE
  8
ST13
 62
    80
 66
     1
 10
        0.00
 20
        0.00
  0
VERTEX
  8
ST13
 62
    80
 10
       -0.00
 20
        0.73
  0
VERTEX
  8
ST13
 62
    80
 10
        0.66
 20
        0.82
  0
VERTEX
  8
ST13
 62
    80
 10
        1.26
 20
        0.93
  0
VERTEX
  8
ST13
 62
    80
 10
        1.82
 20
        1.06
  0
VERTEX
  8
ST13
 62
    80
 10
        2.32
 20
        1.20
  0
VERTEX
  8
ST13
 62
    80
 10
        2.78
 20
        1.36
  0
VERTEX
  8
ST13
 62
    80
 10
        3.19
 20
        1.52
  0
VERTEX
  8
ST13
 62
    80
 10
        3.55
 20
        1.70
  0
VERTEX
  8
ST13
 62
    80
 10
        3.88
 20
        1.88
  0
VERTEX
  8
ST13
 62
    80
 10
        4.16
 20
        2.07
  0
VERTEX
  8
ST13
 62
    80
 10
        4.41
 20
        2.26
  0
VERTEX
  8
ST13
 62
    80
 10
        4.64
 20
        2.44
  0
VERTEX
  8
ST13
 62
    80
 10
        4.84
 20
        2.63
  0
VERTEX
  8
ST13
 62
    80
 10
        5.01
 20
        2.81
  0
VERTEX
  8
ST13
 62
    80
 10
        5.17
 20
        2.98
  0
VERTEX
  8
ST13
 62
    80
 10
        5.31
 20
        3.15
  0
VERTEX
  8
ST13
 62
    80
 10
        5.43
 20
        3.32
  0
VERTEX
  8
ST13
 62
    80
 10
        5.54
 20
        3.48
  0
VERTEX
  8
ST13
 62
    80
 10
        5.63
 20
        3.63
  0
VERTEX
  8
ST13
 62
    80
 10
        5.72
 20
        3.78
  0
VERTEX
  8
ST13
 62
    80
 10
        5.80
 20
        3.93
  0
VERTEX
  8
ST13
 62
    80
 10
        5.87
 20
        4.08
  0
VERTEX
  8
ST13
 62
    80
 10
        5.93
 20
        4.23
  0
VERTEX
  8
ST13
 62
    80
 10
        5.99
 20
        4.38
  0
VERTEX
  8
ST13
 62
    80
 10
        6.04
 20
        4.54
  0
VERTEX
  8
ST13
 62
    80
 10
        6.09
 20
        4.70
  0
VERTEX
  8
ST13
 62
    80
 10
        6.14
 20
        4.88
  0
VERTEX
  8
ST13
 62
    80
 10
        6.19
 20
        5.08
  0
VERTEX
  8
ST13
 62
    80
 10
        6.19
 20
        5.09
  0
VERTEX
  8
ST13
 62
    80
 10
        6.23
 20
        5.30
  0
VERTEX
  8
ST13
 62
    80
 10
        6.28
 20
        5.57
  0
VERTEX
  8
ST13
 62
    80
 10
        6.31
 20
        5.88
  0
VERTEX
  8
ST13
 62
    80
 10
        6.34
 20
        6.26
  0
VERTEX
  8
ST13
 62
    80
 10
        6.35
 20
        6.73
  0
SEQEND
  0
POLYLINE
  8
ST22
 62
    80
 66
     1
 10
        0.00
 20
        0.00
  0
VERTEX
  8
ST22
 62
    80
 10
        6.31
 20
        6.73
  0
VERTEX
  8
ST22
 62
    80
 10
        6.29
 20
        6.26
  0
VERTEX
  8
ST22
 62
    80
 10
        6.26
 20
        5.87
  0
VERTEX
  8
ST22
 62
    80
 10
        6.22
 20
        5.56
  0
VERTEX
  8
ST22
 62
    80
 10
        6.17
 20
        5.30
  0
VERTEX
  8
ST22
 62
    80
 10
        6.12
 20
        5.08
  0
VERTEX
  8
ST22
 62
    80
 10
        6.07
 20
        4.89
  0
VERTEX
  8
ST22
 62
    80
 10
        6.02
 20
        4.72
  0
VERTEX
  8
ST22
 62
    80
 10
        5.96
 20
        4.56
  0
VERTEX
  8
ST22
 62
    80
 10
        5.90
 20
        4.41
  0
VERTEX
  8
ST22
 62
    80
 10
        5.84
 20
        4.26
  0
VERTEX
  8
ST22
 62
    80
 10
        5.78
 20
        4.12
  0
VERTEX
  8
ST22
 62
    80
 10
        5.71
 20
        3.97
  0
VERTEX
  8
ST22
 62
    80
 10
        5.63
 20
        3.83
  0
VERTEX
  8
ST22
 62
    80
 10
        5.54
 20
        3.69
  0
VERTEX
  8
ST22
 62
    80
 10
        5.44
 20
        3.54
  0
VERTEX
  8
ST22
 62
    80
 10
        5.33
 20
        3.39
  0
VERTEX
  8
ST22
 62
    80
 10
        5.20
 20
        3.23
  0
VERTEX
  8
ST22
 62
    80
 10
        5.07
 20
        3.07
  0
VERTEX
  8
ST22
 62
    80
 10
        4.91
 20
        2.90
  0
VERTEX
  8
ST22
 62
    80
 10
        4.73
 20
        2.73
  0
VERTEX
  8
ST22
 62
    80
 10
        4.54
 20
        2.55
  0
VERTEX
  8
ST22
 62
    80
 10
        4.31
 20
        2.37
  0
VERTEX
  8
ST22
 62
    80
 10
        4.06
 20
        2.19
  0
VERTEX
  8
ST22
 62
    80
 10
        3.78
 20
        2.01
  0
VERTEX
  8
ST22
 62
    80
 10
        3.47
 20
        1.84
  0
VERTEX
  8
ST22
 62
    80
 10
        3.11
 20
        1.67
  0
VERTEX
  8
ST22
 62
    80
 10
        2.71
 20
        1.50
  0
VERTEX
  8
ST22
 62
    80
 10
        2.27
 20
        1.35
  0
VERTEX
  8
ST22
 62
    80
 10
        1.78
 20
        1.21
  0
VERTEX
  8
ST22
 62
    80
 10
        1.24
 20
        1.09
  0
VERTEX
  8
ST22
 62
    80
 10
        0.65
 20
        0.98
  0
VERTEX
  8
ST22
 62
    80
 10
       -0.00
 20
        0.89
  0
SEQEND
  0
POLYLINE
  8
ST21
 62
    80
 66
     1
 10
        0.00
 20
        0.00
  0
VERTEX
  8
ST21
 62
    80
 10
        6.27
 20
        6.73
  0
VERTEX
  8
ST21
 62
    80
 10
        6.24
 20
        6.25
  0
VERTEX
  8
ST21
 62
    80
 10
        6.21
 20
        5.86
  0
VERTEX
  8
ST21
 62
    80
 10
        6.16
 20
        5.55
  0
VERTEX
  8
ST21
 62
    80
 10
        6.11
 20
        5.30
  0
VERTEX
  8
ST21
 62
    80
 10
        6.05
 20
        5.08
  0
VERTEX
  8
ST21
 62
    80
 10
        5.99
 20
        4.90
  0
VERTEX
  8
ST21
 62
    80
 10
        5.93
 20
        4.73
  0
VERTEX
  8
ST21
 62
    80
 10
        5.87
 20
        4.58
  0
VERTEX
  8
ST21
 62
    80
 10
        5.81
 20
        4.43
  0
VERTEX
  8
ST21
 62
    80
 10
        5.75
 20
        4.29
  0
VERTEX
  8
ST21
 62
    80
 10
        5.68
 20
        4.16
  0
VERTEX
  8
ST21
 62
    80
 10
        5.60
 20
        4.02
  0
VERTEX
  8
ST21
 62
    80
 10
        5.52
 20
        3.88
  0
VERTEX
  8
ST21
 62
    80
 10
        5.43
 20
        3.74
  0
VERTEX
  8
ST21
 62
    80
 10
        5.33
 20
        3.60
  0
VERTEX
  8
ST21
 62
    80
 10
        5.22
 20
        3.46
  0
VERTEX
  8
ST21
 62
    80
 10
        5.09
 20
        3.31
  0
VERTEX
  8
ST21
 62
    80
 10
        4.95
 20
        3.15
  0
VERTEX
  8
ST21
 62
    80
 10
        4.79
 20
        3.00
  0
VERTEX
  8
ST21
 62
    80
 10
        4.62
 20
        2.83
  0
VERTEX
  8
ST21
 62
    80
 10
        4.42
 20
        2.67
  0
VERTEX
  8
ST21
 62
    80
 10
        4.20
 20
        2.50
  0
VERTEX
  8
ST21
 62
    80
 10
        3.95
 20
        2.33
  0
VERTEX
  8
ST21
 62
    80
 10
        3.68
 20
        2.16
  0
VERTEX
  8
ST21
 62
    80
 10
        3.37
 20
        1.99
  0
VERTEX
  8
ST21
 62
    80
 10
        3.02
 20
        1.83
  0
VERTEX
  8
ST21
 62
    80
 10
        2.63
 20
        1.67
  0
VERTEX
  8
ST21
 62
    80
 10
        2.21
 20
        1.53
  0
VERTEX
  8
ST21
 62
    80
 10
        1.73
 20
        1.39
  0
VERTEX
  8
ST21
 62
    80
 10
        1.21
 20
        1.27
  0
VERTEX
  8
ST21
 62
    80
 10
        0.63
 20
        1.16
  0
VERTEX
  8
ST21
 62
    80
 10
       -0.00
 20
        1.07
  0
SEQEND
  0
POLYLINE
  8
ST20
 62
    80
 66
     1
 10
        0.00
 20
        0.00
  0
VERTEX
  8
ST20
 62
    80
 10
        6.22
 20
        6.73
  0
VERTEX
  8
ST20
 62
    80
 10
        6.19
 20
        6.24
  0
VERTEX
  8
ST20
 62
    80
 10
        6.14
 20
        5.85
  0
VERTEX
  8
ST20
 62
    80
 10
        6.09
 20
        5.54
  0
VERTEX
  8
ST20
 62
    80
 10
        6.03
 20
        5.29
  0
VERTEX
  8
ST20
 62
    80
 10
        5.97
 20
        5.08
  0
VERTEX
  8
ST20
 62
    80
 10
        5.90
 20
        4.91
  0
VERTEX
  8
ST20
 62
    80
 10
        5.84
 20
        4.75
  0
VERTEX
  8
ST20
 62
    80
 10
        5.78
 20
        4.60
  0
VERTEX
  8
ST20
 62
    80
 10
        5.71
 20
        4.46
  0
VERTEX
  8
ST20
 62
    80
 10
        5.64
 20
        4.32
  0
VERTEX
  8
ST20
 62
    80
 10
        5.57
 20
        4.19
  0
VERTEX
  8
ST20
 62
    80
 10
        5.49
 20
        4.06
  0
VERTEX
  8
ST20
 62
    80
 10
        5.41
 20
        3.93
  0
VERTEX
  8
ST20
 62
    80
 10
        5.31
 20
        3.80
  0
VERTEX
  8
ST20
 62
    80
 10
        5.21
 20
        3.66
  0
VERTEX
  8
ST20
 62
    80
 10
        5.10
 20
        3.53
  0
VERTEX
  8
ST20
 62
    80
 10
        4.97
 20
        3.39
  0
VERTEX
  8
ST20
 62
    80
 10
        4.83
 20
        3.24
  0
VERTEX
  8
ST20
 62
    80
 10
        4.67
 20
        3.09
  0
VERTEX
  8
ST20
 62
    80
 10
        4.49
 20
        2.94
  0
VERTEX
  8
ST20
 62
    80
 10
        4.30
 20
        2.78
  0
VERTEX
  8
ST20
 62
    80
 10
        4.08
 20
        2.63
  0
VERTEX
  8
ST20
 62
    80
 10
        3.83
 20
        2.47
  0
VERTEX
  8
ST20
 62
    80
 10
        3.56
 20
        2.31
  0
VERTEX
  8
ST20
 62
    80
 10
        3.26
 20
        2.16
  0
VERTEX
  8
ST20
 62
    80
 10
        2.92
 20
        2.00
  0
VERTEX
  8
ST20
 62
    80
 10
        2.55
 20
        1.86
  0
VERTEX
  8
ST20
 62
    80
 10
        2.13
 20
        1.72
  0
VERTEX
  8
ST20
 62
    80
 10
        1.68
 20
        1.59
  0
VERTEX
  8
ST20
 62
    80
 10
        1.17
 20
        1.47
  0
VERTEX
  8
ST20
 62
    80
 10
        0.61
 20
        1.36
  0
VERTEX
  8
ST20
 62
    80
 10
       -0.00
 20
        1.28
  0
SEQEND
  0
POLYLINE
  8
ST25
 62
    80
 66
     1
 10
        0.00
 20
        0.00
  0
VERTEX
  8
ST25
 62
    80
 10
       -0.00
 20
        1.49
  0
VERTEX
  8
ST25
 62
    80
 10
        0.59
 20
        1.58
  0
VERTEX
  8
ST25
 62
    80
 10
        1.13
 20
        1.68
  0
VERTEX
  8
ST25
 62
    80
 10
        1.62
 20
        1.80
  0
VERTEX
  8
ST25
 62
    80
 10
        2.06
 20
        1.92
  0
VERTEX
  8
ST25
 62
    80
 10
        2.46
 20
        2.05
  0
VERTEX
  8
ST25
 62
    80
 10
        2.54
 20
        2.08
  0
VERTEX
  8
ST25
 62
    80
 10
        2.82
 20
        2.19
  0
VERTEX
  8
ST25
 62
    80
 10
        3.15
 20
        2.33
  0
VERTEX
  8
ST25
 62
    80
 10
        3.44
 20
        2.47
  0
VERTEX
  8
ST25
 62
    80
 10
        3.71
 20
        2.61
  0
VERTEX
  8
ST25
 62
    80
 10
        3.95
 20
        2.76
  0
VERTEX
  8
ST25
 62
    80
 10
        4.16
 20
        2.90
  0
VERTEX
  8
ST25
 62
    80
 10
        4.36
 20
        3.04
  0
VERTEX
  8
ST25
 62
    80
 10
        4.54
 20
        3.19
  0
VERTEX
  8
ST25
 62
    80
 10
        4.70
 20
        3.32
  0
VERTEX
  8
ST25
 62
    80
 10
        4.84
 20
        3.46
  0
VERTEX
  8
ST25
 62
    80
 10
        4.97
 20
        3.59
  0
VERTEX
  8
ST25
 62
    80
 10
        5.09
 20
        3.72
  0
VERTEX
  8
ST25
 62
    80
 10
        5.19
 20
        3.85
  0
VERTEX
  8
ST25
 62
    80
 10
        5.29
 20
        3.97
  0
VERTEX
  8
ST25
 62
    80
 10
        5.38
 20
        4.10
  0
VERTEX
  8
ST25
 62
    80
 10
        5.46
 20
        4.22
  0
VERTEX
  8
ST25
 62
    80
 10
        5.53
 20
        4.35
  0
VERTEX
  8
ST25
 62
    80
 10
        5.60
 20
        4.48
  0
VERTEX
  8
ST25
 62
    80
 10
        5.67
 20
        4.61
  0
VERTEX
  8
ST25
 62
    80
 10
        5.74
 20
        4.75
  0
VERTEX
  8
ST25
 62
    80
 10
        5.81
 20
        4.91
  0
VERTEX
  8
ST25
 62
    80
 10
        5.87
 20
        5.08
  0
VERTEX
  8
ST25
 62
    80
 10
        5.94
 20
        5.28
  0
VERTEX
  8
ST25
 62
    80
 10
        6.01
 20
        5.53
  0
VERTEX
  8
ST25
 62
    80
 10
        6.07
 20
        5.84
  0
VERTEX
  8
ST25
 62
    80
 10
        6.12
 20
        6.23
  0
VERTEX
  8
ST25
 62
    80
 10
        6.16
 20
        6.73
  0
SEQEND
  0
POLYLINE
  8
ST24
 62
    80
 66
     1
 10
        0.00
 20
        0.00
  0
VERTEX
  8
ST24
 62
    80
 10
        6.09
 20
        6.73
  0
VERTEX
  8
ST24
 62
    80
 10
        6.04
 20
        6.21
  0
VERTEX
  8
ST24
 62
    80
 10
        5.99
 20
        5.82
  0
VERTEX
  8
ST24
 62
    80
 10
        5.92
 20
        5.51
  0
VERTEX
  8
ST24
 62
    80
 10
        5.85
 20
        5.27
  0
VERTEX
  8
ST24
 62
    80
 10
        5.78
 20
        5.07
  0
VERTEX
  8
ST24
 62
    80
 10
        5.71
 20
        4.90
  0
VERTEX
  8
ST24
 62
    80
 10
        5.64
 20
        4.76
  0
VERTEX
  8
ST24
 62
    80
 10
        5.57
 20
        4.62
  0
VERTEX
  8
ST24
 62
    80
 10
        5.49
 20
        4.49
  0
VERTEX
  8
ST24
 62
    80
 10
        5.42
 20
        4.37
  0
VERTEX
  8
ST24
 62
    80
 10
        5.34
 20
        4.25
  0
VERTEX
  8
ST24
 62
    80
 10
        5.26
 20
        4.13
  0
VERTEX
  8
ST24
 62
    80
 10
        5.17
 20
        4.01
  0
VERTEX
  8
ST24
 62
    80
 10
        5.07
 20
        3.89
  0
VERTEX
  8
ST24
 62
    80
 10
        4.96
 20
        3.77
  0
VERTEX
  8
ST24
 62
    80
 10
        4.84
 20
        3.64
  0
VERTEX
  8
ST24
 62
    80
 10
        4.71
 20
        3.52
  0
VERTEX
  8
ST24
 62
    80
 10
        4.56
 20
        3.40
  0
VERTEX
  8
ST24
 62
    80
 10
        4.40
 20
        3.27
  0
VERTEX
  8
ST24
 62
    80
 10
        4.23
 20
        3.14
  0
VERTEX
  8
ST24
 62
    80
 10
        4.03
 20
        3.01
  0
VERTEX
  8
ST24
 62
    80
 10
        3.82
 20
        2.88
  0
VERTEX
  8
ST24
 62
    80
 10
        3.58
 20
        2.75
  0
VERTEX
  8
ST24
 62
    80
 10
        3.32
 20
        2.62
  0
VERTEX
  8
ST24
 62
    80
 10
        3.03
 20
        2.49
  0
VERTEX
  8
ST24
 62
    80
 10
        2.71
 20
        2.36
  0
VERTEX
  8
ST24
 62
    80
 10
        2.36
 20
        2.24
  0
VERTEX
  8
ST24
 62
    80
 10
        1.98
 20
        2.12
  0
VERTEX
  8
ST24
 62
    80
 10
        1.56
 20
        2.01
  0
VERTEX
  8
ST24
 62
    80
 10
        1.09
 20
        1.90
  0
VERTEX
  8
ST24
 62
    80
 10
        0.57
 20
        1.80
  0
VERTEX
  8
ST24
 62
    80
 10
       -0.00
 20
        1.71
  0
SEQEND
  0
POLYLINE
  8
ST23
 62
    80
 66
     1
 10
        0.00
 20
        0.00
  0
VERTEX
  8
ST23
 62
    80
 10
        6.03
 20
        6.73
  0
VERTEX
  8
ST23
 62
    80
 10
        5.97
 20
        6.20
  0
VERTEX
  8
ST23
 62
    80
 10
        5.90
 20
        5.80
  0
VERTEX
  8
ST23
 62
    80
 10
        5.83
 20
        5.49
  0
VERTEX
  8
ST23
 62
    80
 10
        5.76
 20
        5.25
  0
VERTEX
  8
ST23
 62
    80
 10
        5.68
 20
        5.06
  0
VERTEX
  8
ST23
 62
    80
 10
        5.61
 20
        4.90
  0
VERTEX
  8
ST23
 62
    80
 10
        5.53
 20
        4.76
  0
VERTEX
  8
ST23
 62
    80
 10
        5.46
 20
        4.63
  0
VERTEX
  8
ST23
 62
    80
 10
        5.39
 20
        4.50
  0
VERTEX
  8
ST23
 62
    80
 10
        5.31
 20
        4.38
  0
VERTEX
  8
ST23
 62
    80
 10
        5.23
 20
        4.27
  0
VERTEX
  8
ST23
 62
    80
 10
        5.14
 20
        4.15
  0
VERTEX
  8
ST23
 62
    80
 10
        5.05
 20
        4.04
  0
VERTEX
  8
ST23
 62
    80
 10
        4.95
 20
        3.92
  0
VERTEX
  8
ST23
 62
    80
 10
        4.84
 20
        3.81
  0
VERTEX
  8
ST23
 62
    80
 10
        4.72
 20
        3.69
  0
VERTEX
  8
ST23
 62
    80
 10
        4.58
 20
        3.58
  0
VERTEX
  8
ST23
 62
    80
 10
        4.43
 20
        3.46
  0
VERTEX
  8
ST23
 62
    80
 10
        4.27
 20
        3.35
  0
VERTEX
  8
ST23
 62
    80
 10
        4.09
 20
        3.23
  0
VERTEX
  8
ST23
 62
    80
 10
        3.90
 20
        3.11
  0
VERTEX
  8
ST23
 62
    80
 10
        3.69
 20
        2.99
  0
VERTEX
  8
ST23
 62
    80
 10
        3.45
 20
        2.87
  0
VERTEX
  8
ST23
 62
    80
 10
        3.19
 20
        2.76
  0
VERTEX
  8
ST23
 62
    80
 10
        2.91
 20
        2.64
  0
VERTEX
  8
ST23
 62
    80
 10
        2.60
 20
        2.53
  0
VERTEX
  8
ST23
 62
    80
 10
        2.27
 20
        2.42
  0
VERTEX
  8
ST23
 62
    80
 10
        1.90
 20
        2.32
  0
VERTEX
  8
ST23
 62
    80
 10
        1.49
 20
        2.21
  0
VERTEX
  8
ST23
 62
    80
 10
        1.05
 20
        2.12
  0
VERTEX
  8
ST23
 62
    80
 10
        0.55
 20
        2.02
  0
VERTEX
  8
ST23
 62
    80
 10
       -0.00
 20
        1.94
  0
SEQEND
  0
POLYLINE
  8
ST16
 62
    80
 66
     1
 10
        0.00
 20
        0.00
  0
VERTEX
  8
ST16
 62
    80
 10
        5.96
 20
        6.73
  0
VERTEX
  8
ST16
 62
    80
 10
        5.89
 20
        6.19
  0
VERTEX
  8
ST16
 62
    80
 10
        5.81
 20
        5.78
  0
VERTEX
  8
ST16
 62
    80
 10
        5.73
 20
        5.47
  0
VERTEX
  8
ST16
 62
    80
 10
        5.66
 20
        5.23
  0
VERTEX
  8
ST16
 62
    80
 10
        5.58
 20
        5.05
  0
VERTEX
  8
ST16
 62
    80
 10
        5.51
 20
        4.89
  0
VERTEX
  8
ST16
 62
    80
 10
        5.43
 20
        4.76
  0
VERTEX
  8
ST16
 62
    80
 10
        5.36
 20
        4.63
  0
VERTEX
  8
ST16
 62
    80
 10
        5.28
 20
        4.51
  0
VERTEX
  8
ST16
 62
    80
 10
        5.20
 20
        4.40
  0
VERTEX
  8
ST16
 62
    80
 10
        5.12
 20
        4.28
  0
VERTEX
  8
ST16
 62
    80
 10
        5.03
 20
        4.17
  0
VERTEX
  8
ST16
 62
    80
 10
        4.93
 20
        4.06
  0
VERTEX
  8
ST16
 62
    80
 10
        4.83
 20
        3.96
  0
VERTEX
  8
ST16
 62
    80
 10
        4.72
 20
        3.85
  0
VERTEX
  8
ST16
 62
    80
 10
        4.59
 20
        3.74
  0
VERTEX
  8
ST16
 62
    80
 10
        4.45
 20
        3.63
  0
VERTEX
  8
ST16
 62
    80
 10
        4.30
 20
        3.52
  0
VERTEX
  8
ST16
 62
    80
 10
        4.14
 20
        3.41
  0
VERTEX
  8
ST16
 62
    80
 10
        3.96
 20
        3.31
  0
VERTEX
  8
ST16
 62
    80
 10
        3.77
 20
        3.20
  0
VERTEX
  8
ST16
 62
    80
 10
        3.55
 20
        3.10
  0
VERTEX
  8
ST16
 62
    80
 10
        3.32
 20
        2.99
  0
VERTEX
  8
ST16
 62
    80
 10
        3.07
 20
        2.89
  0
VERTEX
  8
ST16
 62
    80
 10
        2.79
 20
        2.79
  0
VERTEX
  8
ST16
 62
    80
 10
        2.50
 20
        2.69
  0
VERTEX
  8
ST16
 62
    80
 10
        2.17
 20
        2.60
  0
VERTEX
  8
ST16
 62
    80
 10
        1.82
 20
        2.50
  0
VERTEX
  8
ST16
 62
    80
 10
        1.43
 20
        2.41
  0
VERTEX
  8
ST16
 62
    80
 10
        1.00
 20
        2.33
  0
VERTEX
  8
ST16
 62
    80
 10
        0.53
 20
        2.24
  0
VERTEX
  8
ST16
 62
    80
 10
       -0.00
 20
        2.16
  0
SEQEND
  0
POLYLINE
  8
ST15
 62
    80
 66
     1
 10
        0.00
 20
        0.00
  0
VERTEX
  8
ST15
 62
    80
 10
        5.88
 20
        6.73
  0
VERTEX
  8
ST15
 62
    80
 10
        5.80
 20
        6.17
  0
VERTEX
  8
ST15
 62
    80
 10
        5.72
 20
        5.75
  0
VERTEX
  8
ST15
 62
    80
 10
        5.64
 20
        5.44
  0
VERTEX
  8
ST15
 62
    80
 10
        5.56
 20
        5.21
  0
VERTEX
  8
ST15
 62
    80
 10
        5.48
 20
        5.03
  0
VERTEX
  8
ST15
 62
    80
 10
        5.40
 20
        4.88
  0
VERTEX
  8
ST15
 62
    80
 10
        5.33
 20
        4.75
  0
VERTEX
  8
ST15
 62
    80
 10
        5.25
 20
        4.63
  0
VERTEX
  8
ST15
 62
    80
 10
        5.17
 20
        4.52
  0
VERTEX
  8
ST15
 62
    80
 10
        5.09
 20
        4.41
  0
VERTEX
  8
ST15
 62
    80
 10
        5.01
 20
        4.30
  0
VERTEX
  8
ST15
 62
    80
 10
        4.92
 20
        4.19
  0
VERTEX
  8
ST15
 62
    80
 10
        4.82
 20
        4.09
  0
VERTEX
  8
ST15
 62
    80
 10
        4.71
 20
        3.98
  0
VERTEX
  8
ST15
 62
    80
 10
        4.59
 20
        3.88
  0
VERTEX
  8
ST15
 62
    80
 10
        4.46
 20
        3.78
  0
VERTEX
  8
ST15
 62
    80
 10
        4.33
 20
        3.68
  0
VERTEX
  8
ST15
 62
    80
 10
        4.17
 20
        3.57
  0
VERTEX
  8
ST15
 62
    80
 10
        4.01
 20
        3.47
  0
VERTEX
  8
ST15
 62
    80
 10
        3.83
 20
        3.38
  0
VERTEX
  8
ST15
 62
    80
 10
        3.63
 20
        3.28
  0
VERTEX
  8
ST15
 62
    80
 10
        3.42
 20
        3.19
  0
VERTEX
  8
ST15
 62
    80
 10
        3.19
 20
        3.09
  0
VERTEX
  8
ST15
 62
    80
 10
        2.94
 20
        3.00
  0
VERTEX
  8
ST15
 62
    80
 10
        2.67
 20
        2.92
  0
VERTEX
  8
ST15
 62
    80
 10
        2.38
 20
        2.83
  0
VERTEX
  8
ST15
 62
    80
 10
        2.06
 20
        2.75
  0
VERTEX
  8
ST15
 62
    80
 10
        1.72
 20
        2.67
  0
VERTEX
  8
ST15
 62
    80
 10
        1.35
 20
        2.60
  0
VERTEX
  8
ST15
 62
    80
 10
        0.94
 20
        2.52
  0
VERTEX
  8
ST15
 62
    80
 10
        0.49
 20
        2.45
  0
VERTEX
  8
ST15
 62
    80
 10
       -0.00
 20
        2.38
  0
SEQEND
  0
POLYLINE
  8
ST14
 62
    80
 66
     1
 10
        0.00
 20
        0.00
  0
VERTEX
  8
ST14
 62
    80
 10
        5.81
 20
        6.73
  0
VERTEX
  8
ST14
 62
    80
 10
        5.71
 20
        6.15
  0
VERTEX
  8
ST14
 62
    80
 10
        5.62
 20
        5.73
  0
VERTEX
  8
ST14
 62
    80
 10
        5.54
 20
        5.42
  0
VERTEX
  8
ST14
 62
    80
 10
        5.46
 20
        5.19
  0
VERTEX
  8
ST14
 62
    80
 10
        5.38
 20
        5.02
  0
VERTEX
  8
ST14
 62
    80
 10
        5.30
 20
        4.87
  0
VERTEX
  8
ST14
 62
    80
 10
        5.22
 20
        4.75
  0
VERTEX
  8
ST14
 62
    80
 10
        5.15
 20
        4.64
  0
VERTEX
  8
ST14
 62
    80
 10
        5.07
 20
        4.53
  0
VERTEX
  8
ST14
 62
    80
 10
        4.98
 20
        4.42
  0
VERTEX
  8
ST14
 62
    80
 10
        4.89
 20
        4.31
  0
VERTEX
  8
ST14
 62
    80
 10
        4.80
 20
        4.21
  0
VERTEX
  8
ST14
 62
    80
 10
        4.70
 20
        4.11
  0
VERTEX
  8
ST14
 62
    80
 10
        4.59
 20
        4.01
  0
VERTEX
  8
ST14
 62
    80
 10
        4.47
 20
        3.91
  0
VERTEX
  8
ST14
 62
    80
 10
        4.34
 20
        3.81
  0
VERTEX
  8
ST14
 62
    80
 10
        4.20
 20
        3.72
  0
VERTEX
  8
ST14
 62
    80
 10
        4.04
 20
        3.62
  0
VERTEX
  8
ST14
 62
    80
 10
        3.88
 20
        3.53
  0
VERTEX
  8
ST14
 62
    80
 10
        3.70
 20
        3.44
  0
VERTEX
  8
ST14
 62
    80
 10
        3.50
 20
        3.35
  0
VERTEX
  8
ST14
 62
    80
 10
        3.29
 20
        3.27
  0
VERTEX
  8
ST14
 62
    80
 10
        3.06
 20
        3.19
  0
VERTEX
  8
ST14
 62
    80
 10
        2.81
 20
        3.11
  0
VERTEX
  8
ST14
 62
    80
 10
        2.55
 20
        3.03
  0
VERTEX
  8
ST14
 62
    80
 10
        2.26
 20
        2.96
  0
VERTEX
  8
ST14
 62
    80
 10
        1.96
 20
        2.90
  0
VERTEX
  8
ST14
 62
    80
 10
        1.63
 20
        2.83
  0
VERTEX
  8
ST14
 62
    80
 10
        1.27
 20
        2.77
  0
VERTEX
  8
ST14
 62
    80
 10
        0.88
 20
        2.71
  0
VERTEX
  8
ST14
 62
    80
 10
        0.46
 20
        2.65
  0
VERTEX
  8
ST14
 62
    80
 10
       -0.00
 20
        2.59
  0
SEQEND
  0
POLYLINE
  8
ST19
 62
    80
 66
     1
 10
        0.00
 20
        0.00
  0
VERTEX
  8
ST19
 62
    80
 10
        5.73
 20
        6.73
  0
VERTEX
  8
ST19
 62
    80
 10
        5.62
 20
        6.14
  0
VERTEX
  8
ST19
 62
    80
 10
        5.52
 20
        5.71
  0
VERTEX
  8
ST19
 62
    80
 10
        5.43
 20
        5.40
  0
VERTEX
  8
ST19
 62
    80
 10
        5.34
 20
        5.17
  0
VERTEX
  8
ST19
 62
    80
 10
        5.27
 20
        5.00
  0
VERTEX
  8
ST19
 62
    80
 10
        5.19
 20
        4.87
  0
VERTEX
  8
ST19
 62
    80
 10
        5.11
 20
        4.75
  0
VERTEX
  8
ST19
 62
    80
 10
        5.03
 20
        4.64
  0
VERTEX
  8
ST19
 62
    80
 10
        4.95
 20
        4.53
  0
VERTEX
  8
ST19
 62
    80
 10
        4.87
 20
        4.43
  0
VERTEX
  8
ST19
 62
    80
 10
        4.77
 20
        4.33
  0
VERTEX
  8
ST19
 62
    80
 10
        4.68
 20
        4.23
  0
VERTEX
  8
ST19
 62
    80
 10
        4.57
 20
        4.13
  0
VERTEX
  8
ST19
 62
    80
 10
        4.46
 20
        4.03
  0
VERTEX
  8
ST19
 62
    80
 10
        4.34
 20
        3.94
  0
VERTEX
  8
ST19
 62
    80
 10
        4.21
 20
        3.84
  0
VERTEX
  8
ST19
 62
    80
 10
        4.06
 20
        3.75
  0
VERTEX
  8
ST19
 62
    80
 10
        3.91
 20
        3.66
  0
VERTEX
  8
ST19
 62
    80
 10
        3.74
 20
        3.57
  0
VERTEX
  8
ST19
 62
    80
 10
        3.56
 20
        3.49
  0
VERTEX
  8
ST19
 62
    80
 10
        3.36
 20
        3.41
  0
VERTEX
  8
ST19
 62
    80
 10
        3.15
 20
        3.33
  0
VERTEX
  8
ST19
 62
    80
 10
        2.93
 20
        3.26
  0
VERTEX
  8
ST19
 62
    80
 10
        2.68
 20
        3.19
  0
VERTEX
  8
ST19
 62
    80
 10
        2.42
 20
        3.12
  0
VERTEX
  8
ST19
 62
    80
 10
        2.14
 20
        3.06
  0
VERTEX
  8
ST19
 62
    80
 10
        1.84
 20
        3.01
  0
VERTEX
  8
ST19
 62
    80
 10
        1.52
 20
        2.96
  0
VERTEX
  8
ST19
 62
    80
 10
        1.18
 20
        2.91
  0
VERTEX
  8
ST19
 62
    80
 10
        0.81
 20
        2.86
  0
VERTEX
  8
ST19
 62
    80
 10
        0.42
 20
        2.82
  0
VERTEX
  8
ST19
 62
    80
 10
       -0.00
 20
        2.77
  0
SEQEND
  0
POLYLINE
  8
ST18
 62
    80
 66
     1
 10
        0.00
 20
        0.00
  0
VERTEX
  8
ST18
 62
    80
 10
        5.65
 20
        6.72
  0
VERTEX
  8
ST18
 62
    80
 10
        5.52
 20
        6.12
  0
VERTEX
  8
ST18
 62
    80
 10
        5.41
 20
        5.69
  0
VERTEX
  8
ST18
 62
    80
 10
        5.31
 20
        5.38
  0
VERTEX
  8
ST18
 62
    80
 10
        5.23
 20
        5.16
  0
VERTEX
  8
ST18
 62
    80
 10
        5.15
 20
        5.00
  0
VERTEX
  8
ST18
 62
    80
 10
        5.07
 20
        4.87
  0
VERTEX
  8
ST18
 62
    80
 10
        4.99
 20
        4.75
  0
VERTEX
  8
ST18
 62
    80
 10
        4.91
 20
        4.65
  0
VERTEX
  8
ST18
 62
    80
 10
        4.83
 20
        4.55
  0
VERTEX
  8
ST18
 62
    80
 10
        4.74
 20
        4.44
  0
VERTEX
  8
ST18
 62
    80
 10
        4.65
 20
        4.34
  0
VERTEX
  8
ST18
 62
    80
 10
        4.55
 20
        4.25
  0
VERTEX
  8
ST18
 62
    80
 10
        4.44
 20
        4.15
  0
VERTEX
  8
ST18
 62
    80
 10
        4.33
 20
        4.05
  0
VERTEX
  8
ST18
 62
    80
 10
        4.21
 20
        3.96
  0
VERTEX
  8
ST18
 62
    80
 10
        4.07
 20
        3.87
  0
VERTEX
  8
ST18
 62
    80
 10
        3.93
 20
        3.78
  0
VERTEX
  8
ST18
 62
    80
 10
        3.77
 20
        3.69
  0
VERTEX
  8
ST18
 62
    80
 10
        3.60
 20
        3.61
  0
VERTEX
  8
ST18
 62
    80
 10
        3.42
 20
        3.53
  0
VERTEX
  8
ST18
 62
    80
 10
        3.23
 20
        3.46
  0
VERTEX
  8
ST18
 62
    80
 10
        3.02
 20
        3.39
  0
VERTEX
  8
ST18
 62
    80
 10
        2.79
 20
        3.32
  0
VERTEX
  8
ST18
 62
    80
 10
        2.55
 20
        3.26
  0
VERTEX
  8
ST18
 62
    80
 10
        2.29
 20
        3.20
  0
VERTEX
  8
ST18
 62
    80
 10
        2.02
 20
        3.15
  0
VERTEX
  8
ST18
 62
    80
 10
        1.73
 20
        3.10
  0
VERTEX
  8
ST18
 62
    80
 10
        1.42
 20
        3.06
  0
VERTEX
  8
ST18
 62
    80
 10
        1.09
 20
        3.02
  0
VERTEX
  8
ST18
 62
    80
 10
        0.75
 20
        2.99
  0
VERTEX
  8
ST18
 62
    80
 10
        0.38
 20
        2.95
  0
VERTEX
  8
ST18
 62
    80
 10
       -0.00
 20
        2.92
  0
SEQEND
  0
POLYLINE
  8
ST17
 62
    80
 66
     1
 10
        0.00
 20
        0.00
  0
VERTEX
  8
ST17
 62
    80
 10
        5.56
 20
        6.72
  0
VERTEX
  8
ST17
 62
    80
 10
        5.42
 20
        6.11
  0
VERTEX
  8
ST17
 62
    80
 10
        5.30
 20
        5.67
  0
VERTEX
  8
ST17
 62
    80
 10
        5.20
 20
        5.37
  0
VERTEX
  8
ST17
 62
    80
 10
        5.10
 20
        5.15
  0
VERTEX
  8
ST17
 62
    80
 10
        5.02
 20
        5.00
  0
VERTEX
  8
ST17
 62
    80
 10
        4.94
 20
        4.87
  0
VERTEX
  8
ST17
 62
    80
 10
        4.86
 20
        4.77
  0
VERTEX
  8
ST17
 62
    80
 10
        4.78
 20
        4.66
  0
VERTEX
  8
ST17
 62
    80
 10
        4.70
 20
        4.56
  0
VERTEX
  8
ST17
 62
    80
 10
        4.61
 20
        4.46
  0
VERTEX
  8
ST17
 62
    80
 10
        4.51
 20
        4.36
  0
VERTEX
  8
ST17
 62
    80
 10
        4.42
 20
        4.26
  0
VERTEX
  8
ST17
 62
    80
 10
        4.31
 20
        4.17
  0
VERTEX
  8
ST17
 62
    80
 10
        4.19
 20
        4.07
  0
VERTEX
  8
ST17
 62
    80
 10
        4.07
 20
        3.98
  0
VERTEX
  8
ST17
 62
    80
 10
        3.93
 20
        3.89
  0
VERTEX
  8
ST17
 62
    80
 10
        3.79
 20
        3.80
  0
VERTEX
  8
ST17
 62
    80
 10
        3.63
 20
        3.72
  0
VERTEX
  8
ST17
 62
    80
 10
        3.46
 20
        3.64
  0
VERTEX
  8
ST17
 62
    80
 10
        3.28
 20
        3.56
  0
VERTEX
  8
ST17
 62
    80
 10
        3.09
 20
        3.49
  0
VERTEX
  8
ST17
 62
    80
 10
        2.88
 20
        3.43
  0
VERTEX
  8
ST17
 62
    80
 10
        2.66
 20
        3.37
  0
VERTEX
  8
ST17
 62
    80
 10
        2.42
 20
        3.31
  0
VERTEX
  8
ST17
 62
    80
 10
        2.17
 20
        3.26
  0
VERTEX
  8
ST17
 62
    80
 10
        1.90
 20
        3.21
  0
VERTEX
  8
ST17
 62
    80
 10
        1.62
 20
        3.17
  0
VERTEX
  8
ST17
 62
    80
 10
        1.33
 20
        3.13
  0
VERTEX
  8
ST17
 62
    80
 10
        1.02
 20
        3.10
  0
VERTEX
  8
ST17
 62
    80
 10
        0.69
 20
        3.06
  0
VERTEX
  8
ST17
 62
    80
 10
        0.35
 20
        3.03
  0
VERTEX
  8
ST17
 62
    80
 10
       -0.00
 20
        3.00
  0
SEQEND
  0
ENDSEC
  0
EOF
