  0
SECTION
  2
ENTITIES
  0
POLYLINE
  8
GRID
 62
     2
 66
     1
 10
    0.000000
 20
    0.000000
  0
VERTEX
  8
GRID
 62
     2
 10
   -6.686454
 20
    3.000000
  0
VERTEX
  8
GRID
 62
     2
 10
    6.686454
 20
    3.000000
  0
SEQEND
  0
POLYLINE
  8
EDGES
 62
   253
 66
     1
 10
    0.000000
 20
    0.000000
  0
VERTEX
  8
EDGES
 62
   253
 10
   -0.000000
 20
    3.037749
  0
VERTEX
  8
EDGES
 62
   253
 10
   -0.000000
 20
    2.889309
  0
VERTEX
  8
EDGES
 62
   253
 10
   -0.000000
 20
    2.577570
  0
VERTEX
  8
EDGES
 62
   253
 10
   -0.000000
 20
    2.201258
  0
VERTEX
  8
EDGES
 62
   253
 10
   -0.000000
 20
    1.823148
  0
VERTEX
  8
EDGES
 62
   253
 10
   -0.000000
 20
    1.476663
  0
VERTEX
  8
EDGES
 62
   253
 10
   -0.000000
 20
    1.176077
  0
VERTEX
  8
EDGES
 62
   253
 10
   -0.000000
 20
    0.918284
  0
VERTEX
  8
EDGES
 62
   253
 10
   -0.000000
 20
    0.690108
  0
VERTEX
  8
EDGES
 62
   253
 10
   -0.000000
 20
    0.485902
  0
VERTEX
  8
EDGES
 62
   253
 10
   -0.000000
 20
    0.312113
  0
VERTEX
  8
EDGES
 62
   253
 10
   -0.000000
 20
    0.183299
  0
VERTEX
  8
EDGES
 62
   253
 10
   -0.000000
 20
    0.106754
  0
VERTEX
  8
EDGES
 62
   253
 10
   -0.000000
 20
    0.076126
  0
VERTEX
  8
EDGES
 62
   253
 10
   -0.000000
 20
    0.073165
  0
VERTEX
  8
EDGES
 62
   253
 10
   -0.000000
 20
    0.085481
  0
VERTEX
  8
EDGES
 62
   253
 10
   -0.000000
 20
    0.087994
  0
VERTEX
  8
EDGES
 62
   253
 10
   -0.000000
 20
    0.088620
  0
VERTEX
  8
EDGES
 62
   253
 10
   -0.000000
 20
    0.088391
  0
SEQEND
  0
POLYLINE
  8
EDGES
 62
   253
 66
     1
 10
    0.000000
 20
    0.000000
  0
VERTEX
  8
EDGES
 62
   253
 10
   -6.048967
 20
    6.867767
  0
VERTEX
  8
EDGES
 62
   253
 10
   -6.075681
 20
    6.864145
  0
VERTEX
  8
EDGES
 62
   253
 10
   -6.251000
 20
    6.835554
  0
VERTEX
  8
EDGES
 62
   253
 10
   -6.395004
 20
    6.806198
  0
VERTEX
  8
EDGES
 62
   253
 10
   -6.504317
 20
    6.778200
  0
VERTEX
  8
EDGES
 62
   253
 10
   -6.576745
 20
    6.755227
  0
VERTEX
  8
EDGES
 62
   253
 10
   -6.612203
 20
    6.740338
  0
VERTEX
  8
EDGES
 62
   253
 10
   -6.613647
 20
    6.733821
  0
VERTEX
  8
EDGES
 62
   253
 10
   -6.587095
 20
    6.733076
  0
VERTEX
  8
EDGES
 62
   253
 10
   -6.540361
 20
    6.734286
  0
VERTEX
  8
EDGES
 62
   253
 10
   -6.481097
 20
    6.734999
  0
VERTEX
  8
EDGES
 62
   253
 10
   -6.416458
 20
    6.734523
  0
VERTEX
  8
EDGES
 62
   253
 10
   -6.351910
 20
    6.733408
  0
VERTEX
  8
EDGES
 62
   253
 10
   -6.288364
 20
    6.732187
  0
VERTEX
  8
EDGES
 62
   253
 10
   -6.221439
 20
    6.731055
  0
VERTEX
  8
EDGES
 62
   253
 10
   -6.143277
 20
    6.729930
  0
VERTEX
  8
EDGES
 62
   253
 10
   -6.049520
 20
    6.728716
  0
VERTEX
  8
EDGES
 62
   253
 10
   -5.942201
 20
    6.727414
  0
VERTEX
  8
EDGES
 62
   253
 10
   -5.827119
 20
    6.726088
  0
VERTEX
  8
EDGES
 62
   253
 10
   -5.696809
 20
    6.724698
  0
VERTEX
  8
EDGES
 62
   253
 10
   -5.519534
 20
    6.722975
  0
SEQEND
  0
POLYLINE
  8
EDGES
 62
   253
 66
     1
 10
    0.000000
 20
    0.000000
  0
VERTEX
  8
EDGES
 62
   253
 10
   -5.519534
 20
    6.722975
  0
VERTEX
  8
EDGES
 62
   253
 10
   -5.370873
 20
    6.104796
  0
VERTEX
  8
EDGES
 62
   253
 10
   -5.246418
 20
    5.667145
  0
VERTEX
  8
EDGES
 62
   253
 10
   -5.140092
 20
    5.362137
  0
VERTEX
  8
EDGES
 62
   253
 10
   -5.046553
 20
    5.149298
  0
VERTEX
  8
EDGES
 62
   253
 10
   -4.961188
 20
    4.995554
  0
VERTEX
  8
EDGES
 62
   253
 10
   -4.880117
 20
    4.875242
  0
VERTEX
  8
EDGES
 62
   253
 10
   -4.800194
 20
    4.770102
  0
VERTEX
  8
EDGES
 62
   253
 10
   -4.719002
 20
    4.669282
  0
VERTEX
  8
EDGES
 62
   253
 10
   -4.634831
 20
    4.569025
  0
VERTEX
  8
EDGES
 62
   253
 10
   -4.546385
 20
    4.469295
  0
VERTEX
  8
EDGES
 62
   253
 10
   -4.452486
 20
    4.370391
  0
VERTEX
  8
EDGES
 62
   253
 10
   -4.352052
 20
    4.272641
  0
VERTEX
  8
EDGES
 62
   253
 10
   -4.244094
 20
    4.176404
  0
VERTEX
  8
EDGES
 62
   253
 10
   -4.127717
 20
    4.082066
  0
VERTEX
  8
EDGES
 62
   253
 10
   -4.002118
 20
    3.990043
  0
VERTEX
  8
EDGES
 62
   253
 10
   -3.866592
 20
    3.900779
  0
VERTEX
  8
EDGES
 62
   253
 10
   -3.720521
 20
    3.814746
  0
VERTEX
  8
EDGES
 62
   253
 10
   -3.563352
 20
    3.732395
  0
VERTEX
  8
EDGES
 62
   253
 10
   -3.394565
 20
    3.654116
  0
VERTEX
  8
EDGES
 62
   253
 10
   -3.213669
 20
    3.580232
  0
VERTEX
  8
EDGES
 62
   253
 10
   -3.020208
 20
    3.511001
  0
VERTEX
  8
EDGES
 62
   253
 10
   -2.813753
 20
    3.446615
  0
VERTEX
  8
EDGES
 62
   253
 10
   -2.593909
 20
    3.387199
  0
VERTEX
  8
EDGES
 62
   253
 10
   -2.360311
 20
    3.332812
  0
VERTEX
  8
EDGES
 62
   253
 10
   -2.112633
 20
    3.283442
  0
VERTEX
  8
EDGES
 62
   253
 10
   -1.850690
 20
    3.238932
  0
VERTEX
  8
EDGES
 62
   253
 10
   -1.574537
 20
    3.198911
  0
VERTEX
  8
EDGES
 62
   253
 10
   -1.284479
 20
    3.162789
  0
VERTEX
  8
EDGES
 62
   253
 10
   -0.981069
 20
    3.129754
  0
VERTEX
  8
EDGES
 62
   253
 10
   -0.665110
 20
    3.098774
  0
VERTEX
  8
EDGES
 62
   253
 10
   -0.000000
 20
    3.037749
  0
SEQEND
  0
POLYLINE
  8
EDGES
 62
   253
 66
     1
 10
    0.000000
 20
    0.000000
  0
VERTEX
  8
EDGES
 62
   253
 10
   -0.000000
 20
    0.088391
  0
VERTEX
  8
EDGES
 62
   253
 10
   -0.000000
 20
    0.088225
  0
VERTEX
  8
EDGES
 62
   253
 10
   -0.000000
 20
    0.087675
  0
VERTEX
  8
EDGES
 62
   253
 10
   -0.000000
 20
    0.088691
  0
VERTEX
  8
EDGES
 62
   253
 10
   -0.000000
 20
    0.096505
  0
VERTEX
  8
EDGES
 62
   253
 10
   -0.000000
 20
    0.123258
  0
VERTEX
  8
EDGES
 62
   253
 10
   -0.000000
 20
    0.182842
  0
VERTEX
  8
EDGES
 62
   253
 10
   -0.000000
 20
    0.261522
  0
VERTEX
  8
EDGES
 62
   253
 10
   -0.000000
 20
    0.298960
  0
SEQEND
  0
POLYLINE
  8
EDGES
 62
   253
 66
     1
 10
    0.000000
 20
    0.000000
  0
VERTEX
  8
EDGES
 62
   253
 10
   -0.000000
 20
    0.298960
  0
VERTEX
  8
EDGES
 62
   253
 10
   -0.000000
 20
    0.445247
  0
VERTEX
  8
EDGES
 62
   253
 10
   -0.000000
 20
    0.667269
  0
VERTEX
  8
EDGES
 62
   253
 10
   -0.000000
 20
    0.938603
  0
VERTEX
  8
EDGES
 62
   253
 10
   -0.000000
 20
    1.237254
  0
VERTEX
  8
EDGES
 62
   253
 10
   -0.000000
 20
    1.545660
  0
VERTEX
  8
EDGES
 62
   253
 10
   -0.000000
 20
    1.850691
  0
VERTEX
  8
EDGES
 62
   253
 10
   -0.000000
 20
    2.143646
  0
VERTEX
  8
EDGES
 62
   253
 10
   -0.000000
 20
    2.420259
  0
VERTEX
  8
EDGES
 62
   253
 10
   -0.000000
 20
    2.680504
  0
VERTEX
  8
EDGES
 62
   253
 10
   -0.000000
 20
    2.926524
  0
VERTEX
  8
EDGES
 62
   253
 10
   -0.000000
 20
    3.160554
  0
VERTEX
  8
EDGES
 62
   253
 10
   -0.000000
 20
    3.384736
  0
VERTEX
  8
EDGES
 62
   253
 10
   -0.000000
 20
    3.811632
  0
VERTEX
  8
EDGES
 62
   253
 10
   -0.000000
 20
    4.018148
  0
VERTEX
  8
EDGES
 62
   253
 10
   -0.000000
 20
    4.222416
  0
VERTEX
  8
EDGES
 62
   253
 10
   -0.000000
 20
    4.426084
  0
VERTEX
  8
EDGES
 62
   253
 10
   -0.000000
 20
    4.630520
  0
VERTEX
  8
EDGES
 62
   253
 10
   -0.000000
 20
    4.836653
  0
VERTEX
  8
EDGES
 62
   253
 10
   -0.000000
 20
    5.044955
  0
VERTEX
  8
EDGES
 62
   253
 10
   -0.000000
 20
    5.255441
  0
VERTEX
  8
EDGES
 62
   253
 10
   -0.000000
 20
    5.467670
  0
VERTEX
  8
EDGES
 62
   253
 10
   -0.000000
 20
    5.680744
  0
VERTEX
  8
EDGES
 62
   253
 10
   -0.000000
 20
    5.893308
  0
VERTEX
  8
EDGES
 62
   253
 10
   -0.000000
 20
    6.103593
  0
VERTEX
  8
EDGES
 62
   253
 10
   -0.000000
 20
    6.309884
  0
VERTEX
  8
EDGES
 62
   253
 10
   -0.000000
 20
    6.510982
  0
VERTEX
  8
EDGES
 62
   253
 10
   -0.000000
 20
    6.706250
  0
VERTEX
  8
EDGES
 62
   253
 10
   -0.000000
 20
    6.895614
  0
VERTEX
  8
EDGES
 62
   253
 10
   -0.000000
 20
    7.079558
  0
VERTEX
  8
EDGES
 62
   253
 10
   -0.000000
 20
    7.259130
  0
VERTEX
  8
EDGES
 62
   253
 10
   -0.000000
 20
    7.435937
  0
SEQEND
  0
POLYLINE
  8
EDGES
 62
   253
 66
     1
 10
    0.000000
 20
    0.000000
  0
VERTEX
  8
EDGES
 62
   253
 10
   -0.000000
 20
    7.435937
  0
VERTEX
  8
EDGES
 62
   253
 10
    0.680876
 20
    7.385799
  0
VERTEX
  8
EDGES
 62
   253
 10
    1.411377
 20
    7.329297
  0
VERTEX
  8
EDGES
 62
   253
 10
    2.086032
 20
    7.273274
  0
VERTEX
  8
EDGES
 62
   253
 10
    2.687322
 20
    7.219218
  0
VERTEX
  8
EDGES
 62
   253
 10
    3.245512
 20
    7.165858
  0
VERTEX
  8
EDGES
 62
   253
 10
    3.776520
 20
    7.113172
  0
VERTEX
  8
EDGES
 62
   253
 10
    4.272321
 20
    7.062998
  0
VERTEX
  8
EDGES
 62
   253
 10
    4.710968
 20
    7.018083
  0
VERTEX
  8
EDGES
 62
   253
 10
    5.080762
 20
    6.979774
  0
VERTEX
  8
EDGES
 62
   253
 10
    5.386527
 20
    6.947420
  0
VERTEX
  8
EDGES
 62
   253
 10
    5.645722
 20
    6.918779
  0
VERTEX
  8
EDGES
 62
   253
 10
    5.873347
 20
    6.891575
  0
VERTEX
  8
EDGES
 62
   253
 10
    6.048967
 20
    6.867767
  0
SEQEND
  0
POLYLINE
  8
ST35
 62
    80
 66
     1
 10
    0.000000
 20
    0.000000
  0
VERTEX
  8
ST35
 62
    80
 10
    1.607526
 20
    7.313009
  0
VERTEX
  8
ST35
 62
    80
 10
    1.463999
 20
    7.093154
  0
VERTEX
  8
ST35
 62
    80
 10
    1.342370
 20
    6.884458
  0
VERTEX
  8
ST35
 62
    80
 10
    1.236642
 20
    6.682631
  0
VERTEX
  8
ST35
 62
    80
 10
    1.141974
 20
    6.484328
  0
VERTEX
  8
ST35
 62
    80
 10
    1.054638
 20
    6.287104
  0
VERTEX
  8
ST35
 62
    80
 10
    0.971976
 20
    6.089379
  0
VERTEX
  8
ST35
 62
    80
 10
    0.889238
 20
    5.890838
  0
VERTEX
  8
ST35
 62
    80
 10
    0.808587
 20
    5.691334
  0
VERTEX
  8
ST35
 62
    80
 10
    0.730739
 20
    5.491660
  0
VERTEX
  8
ST35
 62
    80
 10
    0.656351
 20
    5.292882
  0
VERTEX
  8
ST35
 62
    80
 10
    0.585938
 20
    5.095788
  0
VERTEX
  8
ST35
 62
    80
 10
    0.519836
 20
    4.900840
  0
VERTEX
  8
ST35
 62
    80
 10
    0.458205
 20
    4.708164
  0
VERTEX
  8
ST35
 62
    80
 10
    0.401035
 20
    4.517540
  0
VERTEX
  8
ST35
 62
    80
 10
    0.348161
 20
    4.328382
  0
VERTEX
  8
ST35
 62
    80
 10
    0.299270
 20
    4.139721
  0
VERTEX
  8
ST35
 62
    80
 10
    0.253924
 20
    3.950188
  0
VERTEX
  8
ST35
 62
    80
 10
    0.203202
 20
    3.717482
  0
VERTEX
  8
ST35
 62
    80
 10
    0.158484
 20
    3.562372
  0
VERTEX
  8
ST35
 62
    80
 10
    0.101868
 20
    3.360601
  0
VERTEX
  8
ST35
 62
    80
 10
    0.043107
 20
    3.150724
  0
VERTEX
  8
ST35
 62
    80
 10
   -0.000000
 20
    3.000000
  0
SEQEND
  0
POLYLINE
  8
ST2
 62
    80
 66
     1
 10
    0.000000
 20
    0.000000
  0
VERTEX
  8
ST2
 62
    80
 10
    2.102382
 20
    7.271804
  0
VERTEX
  8
ST2
 62
    80
 10
    1.944854
 20
    7.029564
  0
VERTEX
  8
ST2
 62
    80
 10
    1.922338
 20
    6.991111
  0
VERTEX
  8
ST2
 62
    80
 10
    1.811196
 20
    6.802367
  0
VERTEX
  8
ST2
 62
    80
 10
    1.695487
 20
    6.585611
  0
VERTEX
  8
ST2
 62
    80
 10
    1.592387
 20
    6.375548
  0
VERTEX
  8
ST2
 62
    80
 10
    1.497595
 20
    6.169310
  0
VERTEX
  8
ST2
 62
    80
 10
    1.407962
 20
    5.964895
  0
VERTEX
  8
ST2
 62
    80
 10
    1.321475
 20
    5.761168
  0
VERTEX
  8
ST2
 62
    80
 10
    1.237233
 20
    5.557855
  0
VERTEX
  8
ST2
 62
    80
 10
    1.155364
 20
    5.355490
  0
VERTEX
  8
ST2
 62
    80
 10
    1.076445
 20
    5.154901
  0
VERTEX
  8
ST2
 62
    80
 10
    1.000938
 20
    4.956691
  0
VERTEX
  8
ST2
 62
    80
 10
    0.929145
 20
    4.761188
  0
VERTEX
  8
ST2
 62
    80
 10
    0.861213
 20
    4.568435
  0
VERTEX
  8
ST2
 62
    80
 10
    0.797134
 20
    4.378179
  0
VERTEX
  8
ST2
 62
    80
 10
    0.736756
 20
    4.189859
  0
VERTEX
  8
ST2
 62
    80
 10
    0.679788
 20
    4.002583
  0
VERTEX
  8
ST2
 62
    80
 10
    0.625813
 20
    3.815123
  0
VERTEX
  8
ST2
 62
    80
 10
    0.574331
 20
    3.625954
  0
VERTEX
  8
ST2
 62
    80
 10
    0.524799
 20
    3.433318
  0
VERTEX
  8
ST2
 62
    80
 10
    0.476656
 20
    3.235233
  0
VERTEX
  8
ST2
 62
    80
 10
    0.429330
 20
    3.029498
  0
VERTEX
  8
ST2
 62
    80
 10
    0.332720
 20
    2.585340
  0
VERTEX
  8
ST2
 62
    80
 10
    0.281842
 20
    2.341425
  0
VERTEX
  8
ST2
 62
    80
 10
    0.229878
 20
    2.079301
  0
VERTEX
  8
ST2
 62
    80
 10
    0.176953
 20
    1.798875
  0
VERTEX
  8
ST2
 62
    80
 10
    0.081379
 20
    1.267252
  0
VERTEX
  8
ST2
 62
    80
 10
    0.057486
 20
    1.214061
  0
VERTEX
  8
ST2
 62
    80
 10
   -0.000000
 20
    1.109216
  0
SEQEND
  0
POLYLINE
  8
ST3
 62
    80
 66
     1
 10
    0.000000
 20
    0.000000
  0
VERTEX
  8
ST3
 62
    80
 10
    2.566627
 20
    7.230069
  0
VERTEX
  8
ST3
 62
    80
 10
    2.400809
 20
    6.966690
  0
VERTEX
  8
ST3
 62
    80
 10
    2.259638
 20
    6.722188
  0
VERTEX
  8
ST3
 62
    80
 10
    2.136637
 20
    6.491673
  0
VERTEX
  8
ST3
 62
    80
 10
    2.026412
 20
    6.271009
  0
VERTEX
  8
ST3
 62
    80
 10
    1.924665
 20
    6.056872
  0
VERTEX
  8
ST3
 62
    80
 10
    1.828194
 20
    5.846792
  0
VERTEX
  8
ST3
 62
    80
 10
    1.734904
 20
    5.639190
  0
VERTEX
  8
ST3
 62
    80
 10
    1.643805
 20
    5.433395
  0
VERTEX
  8
ST3
 62
    80
 10
    1.554963
 20
    5.229605
  0
VERTEX
  8
ST3
 62
    80
 10
    1.468910
 20
    5.028371
  0
VERTEX
  8
ST3
 62
    80
 10
    1.386068
 20
    4.830065
  0
VERTEX
  8
ST3
 62
    80
 10
    1.306691
 20
    4.634832
  0
VERTEX
  8
ST3
 62
    80
 10
    1.230880
 20
    4.442582
  0
VERTEX
  8
ST3
 62
    80
 10
    1.158577
 20
    4.252983
  0
VERTEX
  8
ST3
 62
    80
 10
    1.089579
 20
    4.065454
  0
VERTEX
  8
ST3
 62
    80
 10
    1.023539
 20
    3.879151
  0
VERTEX
  8
ST3
 62
    80
 10
    0.959978
 20
    3.692962
  0
VERTEX
  8
ST3
 62
    80
 10
    0.898328
 20
    3.505506
  0
VERTEX
  8
ST3
 62
    80
 10
    0.837978
 20
    3.315144
  0
VERTEX
  8
ST3
 62
    80
 10
    0.778287
 20
    3.119973
  0
VERTEX
  8
ST3
 62
    80
 10
    0.718590
 20
    2.917831
  0
VERTEX
  8
ST3
 62
    80
 10
    0.658212
 20
    2.706292
  0
VERTEX
  8
ST3
 62
    80
 10
    0.596494
 20
    2.482662
  0
VERTEX
  8
ST3
 62
    80
 10
    0.532814
 20
    2.243972
  0
VERTEX
  8
ST3
 62
    80
 10
    0.466642
 20
    1.987164
  0
VERTEX
  8
ST3
 62
    80
 10
    0.397723
 20
    1.711264
  0
VERTEX
  8
ST3
 62
    80
 10
    0.251549
 20
    1.120766
  0
VERTEX
  8
ST3
 62
    80
 10
    0.177239
 20
    0.827980
  0
VERTEX
  8
ST3
 62
    80
 10
    0.106013
 20
    0.560916
  0
VERTEX
  8
ST3
 62
    80
 10
    0.042717
 20
    0.350396
  0
VERTEX
  8
ST3
 62
    80
 10
   -0.000000
 20
    0.267669
  0
SEQEND
  0
POLYLINE
  8
ST4
 62
    80
 66
     1
 10
    0.000000
 20
    0.000000
  0
VERTEX
  8
ST4
 62
    80
 10
    3.006778
 20
    7.188680
  0
VERTEX
  8
ST4
 62
    80
 10
    2.835968
 20
    6.905944
  0
VERTEX
  8
ST4
 62
    80
 10
    2.689385
 20
    6.645656
  0
VERTEX
  8
ST4
 62
    80
 10
    2.560572
 20
    6.402672
  0
VERTEX
  8
ST4
 62
    80
 10
    2.444185
 20
    6.172515
  0
VERTEX
  8
ST4
 62
    80
 10
    2.335980
 20
    5.951468
  0
VERTEX
  8
ST4
 62
    80
 10
    2.232803
 20
    5.736650
  0
VERTEX
  8
ST4
 62
    80
 10
    2.034378
 20
    5.318697
  0
VERTEX
  8
ST4
 62
    80
 10
    1.844759
 20
    4.913292
  0
VERTEX
  8
ST4
 62
    80
 10
    1.754328
 20
    4.715613
  0
VERTEX
  8
ST4
 62
    80
 10
    1.667207
 20
    4.521244
  0
VERTEX
  8
ST4
 62
    80
 10
    1.583472
 20
    4.329924
  0
VERTEX
  8
ST4
 62
    80
 10
    1.503030
 20
    4.141208
  0
VERTEX
  8
ST4
 62
    80
 10
    1.425622
 20
    3.954459
  0
VERTEX
  8
ST4
 62
    80
 10
    1.350827
 20
    3.768848
  0
VERTEX
  8
ST4
 62
    80
 10
    1.278071
 20
    3.583342
  0
VERTEX
  8
ST4
 62
    80
 10
    1.206677
 20
    3.396682
  0
VERTEX
  8
ST4
 62
    80
 10
    1.135914
 20
    3.207354
  0
VERTEX
  8
ST4
 62
    80
 10
    1.065009
 20
    3.013580
  0
VERTEX
  8
ST4
 62
    80
 10
    0.993146
 20
    2.813323
  0
VERTEX
  8
ST4
 62
    80
 10
    0.919476
 20
    2.604280
  0
VERTEX
  8
ST4
 62
    80
 10
    0.843124
 20
    2.383875
  0
VERTEX
  8
ST4
 62
    80
 10
    0.763202
 20
    2.149258
  0
VERTEX
  8
ST4
 62
    80
 10
    0.495009
 20
    1.342704
  0
VERTEX
  8
ST4
 62
    80
 10
    0.396125
 20
    1.050192
  0
VERTEX
  8
ST4
 62
    80
 10
    0.294223
 20
    0.761617
  0
VERTEX
  8
ST4
 62
    80
 10
    0.191659
 20
    0.492708
  0
VERTEX
  8
ST4
 62
    80
 10
    0.091936
 20
    0.263332
  0
VERTEX
  8
ST4
 62
    80
 10
   -0.000000
 20
    0.101560
  0
SEQEND
  0
POLYLINE
  8
ST5
 62
    80
 66
     1
 10
    0.000000
 20
    0.000000
  0
VERTEX
  8
ST5
 62
    80
 10
    3.420842
 20
    7.148462
  0
VERTEX
  8
ST5
 62
    80
 10
    3.246648
 20
    6.848596
  0
VERTEX
  8
ST5
 62
    80
 10
    3.096264
 20
    6.574328
  0
VERTEX
  8
ST5
 62
    80
 10
    2.963183
 20
    6.320241
  0
VERTEX
  8
ST5
 62
    80
 10
    2.842061
 20
    6.081562
  0
VERTEX
  8
ST5
 62
    80
 10
    2.206715
 20
    4.807784
  0
VERTEX
  8
ST5
 62
    80
 10
    2.109515
 20
    4.610819
  0
VERTEX
  8
ST5
 62
    80
 10
    2.015479
 20
    4.417349
  0
VERTEX
  8
ST5
 62
    80
 10
    1.924667
 20
    4.226949
  0
VERTEX
  8
ST5
 62
    80
 10
    1.836946
 20
    4.039059
  0
VERTEX
  8
ST5
 62
    80
 10
    1.751987
 20
    3.852985
  0
VERTEX
  8
ST5
 62
    80
 10
    1.669272
 20
    3.667900
  0
VERTEX
  8
ST5
 62
    80
 10
    1.588100
 20
    3.482836
  0
VERTEX
  8
ST5
 62
    80
 10
    1.507645
 20
    3.296639
  0
VERTEX
  8
ST5
 62
    80
 10
    1.345289
 20
    2.915030
  0
VERTEX
  8
ST5
 62
    80
 10
    0.772998
 20
    1.550507
  0
VERTEX
  8
ST5
 62
    80
 10
    0.654902
 20
    1.273780
  0
VERTEX
  8
ST5
 62
    80
 10
    0.529750
 20
    0.990988
  0
VERTEX
  8
ST5
 62
    80
 10
    0.398890
 20
    0.713562
  0
VERTEX
  8
ST5
 62
    80
 10
    0.264588
 20
    0.456992
  0
VERTEX
  8
ST5
 62
    80
 10
    0.130139
 20
    0.240786
  0
VERTEX
  8
ST5
 62
    80
 10
   -0.000000
 20
    0.088462
  0
SEQEND
  0
POLYLINE
  8
ST6
 62
    80
 66
     1
 10
    0.000000
 20
    0.000000
  0
VERTEX
  8
ST6
 62
    80
 10
    3.808613
 20
    7.109924
  0
VERTEX
  8
ST6
 62
    80
 10
    3.632105
 20
    6.795253
  0
VERTEX
  8
ST6
 62
    80
 10
    3.479154
 20
    6.508787
  0
VERTEX
  8
ST6
 62
    80
 10
    3.343142
 20
    6.244833
  0
VERTEX
  8
ST6
 62
    80
 10
    3.218665
 20
    5.998406
  0
VERTEX
  8
ST6
 62
    80
 10
    2.988504
 20
    5.542071
  0
VERTEX
  8
ST6
 62
    80
 10
    2.877747
 20
    5.326221
  0
VERTEX
  8
ST6
 62
    80
 10
    2.768355
 20
    5.116090
  0
VERTEX
  8
ST6
 62
    80
 10
    2.554922
 20
    4.710306
  0
VERTEX
  8
ST6
 62
    80
 10
    2.352068
 20
    4.321166
  0
VERTEX
  8
ST6
 62
    80
 10
    2.255120
 20
    4.131556
  0
VERTEX
  8
ST6
 62
    80
 10
    2.160986
 20
    3.944398
  0
VERTEX
  8
ST6
 62
    80
 10
    2.069260
 20
    3.758946
  0
VERTEX
  8
ST6
 62
    80
 10
    1.979315
 20
    3.574371
  0
VERTEX
  8
ST6
 62
    80
 10
    1.801266
 20
    3.204036
  0
VERTEX
  8
ST6
 62
    80
 10
    1.618801
 20
    2.823916
  0
VERTEX
  8
ST6
 62
    80
 10
    1.422806
 20
    2.421081
  0
VERTEX
  8
ST6
 62
    80
 10
    1.316623
 20
    2.206132
  0
VERTEX
  8
ST6
 62
    80
 10
    1.203203
 20
    1.979045
  0
VERTEX
  8
ST6
 62
    80
 10
    1.081166
 20
    1.737376
  0
VERTEX
  8
ST6
 62
    80
 10
    0.949469
 20
    1.480594
  0
VERTEX
  8
ST6
 62
    80
 10
    0.807808
 20
    1.212017
  0
VERTEX
  8
ST6
 62
    80
 10
    0.656690
 20
    0.938975
  0
VERTEX
  8
ST6
 62
    80
 10
    0.497501
 20
    0.672781
  0
VERTEX
  8
ST6
 62
    80
 10
    0.332573
 20
    0.428708
  0
VERTEX
  8
ST6
 62
    80
 10
    0.165255
 20
    0.225963
  0
VERTEX
  8
ST6
 62
    80
 10
   -0.000000
 20
    0.087673
  0
SEQEND
  0
POLYLINE
  8
ST34
 62
    80
 66
     1
 10
    0.000000
 20
    0.000000
  0
VERTEX
  8
ST34
 62
    80
 10
    4.152726
 20
    7.075101
  0
VERTEX
  8
ST34
 62
    80
 10
    3.978621
 20
    6.748697
  0
VERTEX
  8
ST34
 62
    80
 10
    3.826928
 20
    6.451914
  0
VERTEX
  8
ST34
 62
    80
 10
    3.691176
 20
    6.179148
  0
VERTEX
  8
ST34
 62
    80
 10
    3.566088
 20
    5.925453
  0
VERTEX
  8
ST34
 62
    80
 10
    3.447541
 20
    5.686595
  0
VERTEX
  8
ST34
 62
    80
 10
    3.332539
 20
    5.459107
  0
VERTEX
  8
ST34
 62
    80
 10
    3.219199
 20
    5.240319
  0
VERTEX
  8
ST34
 62
    80
 10
    3.106741
 20
    5.028400
  0
VERTEX
  8
ST34
 62
    80
 10
    2.674376
 20
    4.232963
  0
VERTEX
  8
ST34
 62
    80
 10
    2.473034
 20
    3.857274
  0
VERTEX
  8
ST34
 62
    80
 10
    2.085780
 20
    3.118772
  0
VERTEX
  8
ST34
 62
    80
 10
    1.986562
 20
    2.931280
  0
VERTEX
  8
ST34
 62
    80
 10
    1.883969
 20
    2.740148
  0
VERTEX
  8
ST34
 62
    80
 10
    1.776675
 20
    2.543786
  0
VERTEX
  8
ST34
 62
    80
 10
    1.663287
 20
    2.340412
  0
VERTEX
  8
ST34
 62
    80
 10
    1.542344
 20
    2.128042
  0
VERTEX
  8
ST34
 62
    80
 10
    1.412314
 20
    1.904499
  0
VERTEX
  8
ST34
 62
    80
 10
    1.271629
 20
    1.667582
  0
VERTEX
  8
ST34
 62
    80
 10
    1.119100
 20
    1.416951
  0
VERTEX
  8
ST34
 62
    80
 10
    0.954357
 20
    1.156015
  0
VERTEX
  8
ST34
 62
    80
 10
    0.777925
 20
    0.892079
  0
VERTEX
  8
ST34
 62
    80
 10
    0.591274
 20
    0.636326
  0
VERTEX
  8
ST34
 62
    80
 10
    0.396867
 20
    0.403792
  0
VERTEX
  8
ST34
 62
    80
 10
    0.198228
 20
    0.213345
  0
VERTEX
  8
ST34
 62
    80
 10
   -0.000000
 20
    0.087668
  0
SEQEND
  0
POLYLINE
  8
ST33
 62
    80
 66
     1
 10
    0.000000
 20
    0.000000
  0
VERTEX
  8
ST33
 62
    80
 10
    4.459768
 20
    7.043805
  0
VERTEX
  8
ST33
 62
    80
 10
    4.287189
 20
    6.708885
  0
VERTEX
  8
ST33
 62
    80
 10
    4.136698
 20
    6.404224
  0
VERTEX
  8
ST33
 62
    80
 10
    3.877065
 20
    5.864368
  0
VERTEX
  8
ST33
 62
    80
 10
    3.758470
 20
    5.620284
  0
VERTEX
  8
ST33
 62
    80
 10
    3.642978
 20
    5.388680
  0
VERTEX
  8
ST33
 62
    80
 10
    3.528706
 20
    5.166897
  0
VERTEX
  8
ST33
 62
    80
 10
    3.414881
 20
    4.953020
  0
VERTEX
  8
ST33
 62
    80
 10
    3.301769
 20
    4.745849
  0
VERTEX
  8
ST33
 62
    80
 10
    3.190059
 20
    4.544554
  0
VERTEX
  8
ST33
 62
    80
 10
    2.972530
 20
    4.156339
  0
VERTEX
  8
ST33
 62
    80
 10
    2.455442
 20
    3.230454
  0
VERTEX
  8
ST33
 62
    80
 10
    2.350745
 20
    3.045959
  0
VERTEX
  8
ST33
 62
    80
 10
    2.242876
 20
    2.859332
  0
VERTEX
  8
ST33
 62
    80
 10
    2.130457
 20
    2.669263
  0
VERTEX
  8
ST33
 62
    80
 10
    2.012042
 20
    2.474266
  0
VERTEX
  8
ST33
 62
    80
 10
    1.886107
 20
    2.272681
  0
VERTEX
  8
ST33
 62
    80
 10
    1.751055
 20
    2.062675
  0
VERTEX
  8
ST33
 62
    80
 10
    1.605210
 20
    1.842243
  0
VERTEX
  8
ST33
 62
    80
 10
    1.446852
 20
    1.609375
  0
VERTEX
  8
ST33
 62
    80
 10
    1.274687
 20
    1.363893
  0
VERTEX
  8
ST33
 62
    80
 10
    1.088323
 20
    1.109283
  0
VERTEX
  8
ST33
 62
    80
 10
    0.888342
 20
    0.852846
  0
VERTEX
  8
ST33
 62
    80
 10
    0.676335
 20
    0.605689
  0
VERTEX
  8
ST33
 62
    80
 10
    0.454939
 20
    0.382705
  0
VERTEX
  8
ST33
 62
    80
 10
    0.227877
 20
    0.202559
  0
VERTEX
  8
ST33
 62
    80
 10
   -0.000000
 20
    0.087671
  0
SEQEND
  0
POLYLINE
  8
ST38
 62
    80
 66
     1
 10
    0.000000
 20
    0.000000
  0
VERTEX
  8
ST38
 62
    80
 10
    4.739903
 20
    7.015086
  0
VERTEX
  8
ST38
 62
    80
 10
    4.570669
 20
    6.673479
  0
VERTEX
  8
ST38
 62
    80
 10
    4.422844
 20
    6.362110
  0
VERTEX
  8
ST38
 62
    80
 10
    4.166761
 20
    5.809957
  0
VERTEX
  8
ST38
 62
    80
 10
    4.049162
 20
    5.560810
  0
VERTEX
  8
ST38
 62
    80
 10
    3.934197
 20
    5.325107
  0
VERTEX
  8
ST38
 62
    80
 10
    3.820004
 20
    5.100256
  0
VERTEX
  8
ST38
 62
    80
 10
    3.705809
 20
    4.884298
  0
VERTEX
  8
ST38
 62
    80
 10
    3.591859
 20
    4.675887
  0
VERTEX
  8
ST38
 62
    80
 10
    3.478809
 20
    4.474000
  0
VERTEX
  8
ST38
 62
    80
 10
    3.256921
 20
    4.085890
  0
VERTEX
  8
ST38
 62
    80
 10
    3.040519
 20
    3.712316
  0
VERTEX
  8
ST38
 62
    80
 10
    2.825734
 20
    3.345909
  0
VERTEX
  8
ST38
 62
    80
 10
    2.716593
 20
    3.163170
  0
VERTEX
  8
ST38
 62
    80
 10
    2.604605
 20
    2.979500
  0
VERTEX
  8
ST38
 62
    80
 10
    2.488381
 20
    2.793806
  0
VERTEX
  8
ST38
 62
    80
 10
    2.366450
 20
    2.604839
  0
VERTEX
  8
ST38
 62
    80
 10
    2.237261
 20
    2.411197
  0
VERTEX
  8
ST38
 62
    80
 10
    2.099178
 20
    2.211328
  0
VERTEX
  8
ST38
 62
    80
 10
    1.950483
 20
    2.003528
  0
VERTEX
  8
ST38
 62
    80
 10
    1.789367
 20
    1.785943
  0
VERTEX
  8
ST38
 62
    80
 10
    1.613974
 20
    1.556732
  0
VERTEX
  8
ST38
 62
    80
 10
    1.422913
 20
    1.315863
  0
VERTEX
  8
ST38
 62
    80
 10
    1.215781
 20
    1.066899
  0
VERTEX
  8
ST38
 62
    80
 10
    0.993228
 20
    0.817160
  0
VERTEX
  8
ST38
 62
    80
 10
    0.756980
 20
    0.577708
  0
VERTEX
  8
ST38
 62
    80
 10
    0.509864
 20
    0.363343
  0
VERTEX
  8
ST38
 62
    80
 10
    0.255834
 20
    0.192588
  0
VERTEX
  8
ST38
 62
    80
 10
   -0.000000
 20
    0.087680
  0
SEQEND
  0
POLYLINE
  8
ST37
 62
    80
 66
     1
 10
    0.000000
 20
    0.000000
  0
VERTEX
  8
ST37
 62
    80
 10
    4.970210
 20
    6.991227
  0
VERTEX
  8
ST37
 62
    80
 10
    4.808852
 20
    6.645859
  0
VERTEX
  8
ST37
 62
    80
 10
    4.667264
 20
    6.329539
  0
VERTEX
  8
ST37
 62
    80
 10
    4.420200
 20
    5.766529
  0
VERTEX
  8
ST37
 62
    80
 10
    4.305885
 20
    5.512430
  0
VERTEX
  8
ST37
 62
    80
 10
    4.193597
 20
    5.272515
  0
VERTEX
  8
ST37
 62
    80
 10
    4.081548
 20
    5.044349
  0
VERTEX
  8
ST37
 62
    80
 10
    3.968980
 20
    4.825995
  0
VERTEX
  8
ST37
 62
    80
 10
    3.856104
 20
    4.616000
  0
VERTEX
  8
ST37
 62
    80
 10
    3.743507
 20
    4.413178
  0
VERTEX
  8
ST37
 62
    80
 10
    3.631571
 20
    4.216401
  0
VERTEX
  8
ST37
 62
    80
 10
    3.520414
 20
    4.024575
  0
VERTEX
  8
ST37
 62
    80
 10
    3.409895
 20
    3.836648
  0
VERTEX
  8
ST37
 62
    80
 10
    3.299610
 20
    3.651607
  0
VERTEX
  8
ST37
 62
    80
 10
    3.188891
 20
    3.468476
  0
VERTEX
  8
ST37
 62
    80
 10
    3.076814
 20
    3.286326
  0
VERTEX
  8
ST37
 62
    80
 10
    2.962201
 20
    3.104257
  0
VERTEX
  8
ST37
 62
    80
 10
    2.843703
 20
    2.921327
  0
VERTEX
  8
ST37
 62
    80
 10
    2.719869
 20
    2.736464
  0
VERTEX
  8
ST37
 62
    80
 10
    2.589160
 20
    2.548466
  0
VERTEX
  8
ST37
 62
    80
 10
    2.449938
 20
    2.355999
  0
VERTEX
  8
ST37
 62
    80
 10
    2.300476
 20
    2.157597
  0
VERTEX
  8
ST37
 62
    80
 10
    2.138947
 20
    1.951666
  0
VERTEX
  8
ST37
 62
    80
 10
    1.963425
 20
    1.736481
  0
VERTEX
  8
ST37
 62
    80
 10
    1.771931
 20
    1.510351
  0
VERTEX
  8
ST37
 62
    80
 10
    1.562988
 20
    1.273379
  0
VERTEX
  8
ST37
 62
    80
 10
    1.336186
 20
    1.029218
  0
VERTEX
  8
ST37
 62
    80
 10
    1.092246
 20
    0.785231
  0
VERTEX
  8
ST37
 62
    80
 10
    0.833035
 20
    0.552483
  0
VERTEX
  8
ST37
 62
    80
 10
    0.561584
 20
    0.345733
  0
VERTEX
  8
ST37
 62
    80
 10
    0.282103
 20
    0.183428
  0
VERTEX
  8
ST37
 62
    80
 10
   -0.000000
 20
    0.087696
  0
SEQEND
  0
POLYLINE
  8
ST36
 62
    80
 66
     1
 10
    0.000000
 20
    0.000000
  0
VERTEX
  8
ST36
 62
    80
 10
    5.175578
 20
    6.969741
  0
VERTEX
  8
ST36
 62
    80
 10
    5.022071
 20
    6.622114
  0
VERTEX
  8
ST36
 62
    80
 10
    4.886902
 20
    6.301983
  0
VERTEX
  8
ST36
 62
    80
 10
    4.649693
 20
    5.729500
  0
VERTEX
  8
ST36
 62
    80
 10
    4.539251
 20
    5.470814
  0
VERTEX
  8
ST36
 62
    80
 10
    4.430303
 20
    5.226906
  0
VERTEX
  8
ST36
 62
    80
 10
    4.321110
 20
    4.995543
  0
VERTEX
  8
ST36
 62
    80
 10
    4.210903
 20
    4.774850
  0
VERTEX
  8
ST36
 62
    80
 10
    4.099824
 20
    4.563293
  0
VERTEX
  8
ST36
 62
    80
 10
    3.988371
 20
    4.359545
  0
VERTEX
  8
ST36
 62
    80
 10
    3.876842
 20
    4.162343
  0
VERTEX
  8
ST36
 62
    80
 10
    3.765284
 20
    3.970481
  0
VERTEX
  8
ST36
 62
    80
 10
    3.653493
 20
    3.782809
  0
VERTEX
  8
ST36
 62
    80
 10
    3.541016
 20
    3.598235
  0
VERTEX
  8
ST36
 62
    80
 10
    3.427146
 20
    3.415724
  0
VERTEX
  8
ST36
 62
    80
 10
    3.310931
 20
    3.234297
  0
VERTEX
  8
ST36
 62
    80
 10
    3.191177
 20
    3.053029
  0
VERTEX
  8
ST36
 62
    80
 10
    3.066515
 20
    2.870963
  0
VERTEX
  8
ST36
 62
    80
 10
    2.935463
 20
    2.687040
  0
VERTEX
  8
ST36
 62
    80
 10
    2.796430
 20
    2.500082
  0
VERTEX
  8
ST36
 62
    80
 10
    2.647718
 20
    2.308804
  0
VERTEX
  8
ST36
 62
    80
 10
    2.487518
 20
    2.111808
  0
VERTEX
  8
ST36
 62
    80
 10
    2.313910
 20
    1.907583
  0
VERTEX
  8
ST36
 62
    80
 10
    2.124859
 20
    1.694512
  0
VERTEX
  8
ST36
 62
    80
 10
    1.918268
 20
    1.471024
  0
VERTEX
  8
ST36
 62
    80
 10
    1.692582
 20
    1.237338
  0
VERTEX
  8
ST36
 62
    80
 10
    1.447395
 20
    0.997192
  0
VERTEX
  8
ST36
 62
    80
 10
    1.183510
 20
    0.758003
  0
VERTEX
  8
ST36
 62
    80
 10
    0.902954
 20
    0.530864
  0
VERTEX
  8
ST36
 62
    80
 10
    0.608980
 20
    0.330540
  0
VERTEX
  8
ST36
 62
    80
 10
    0.306082
 20
    0.175466
  0
VERTEX
  8
ST36
 62
    80
 10
   -0.000000
 20
    0.087739
  0
SEQEND
  0
POLYLINE
  8
ST29
 62
    80
 66
     1
 10
    0.000000
 20
    0.000000
  0
VERTEX
  8
ST29
 62
    80
 10
   -0.000000
 20
    0.087792
  0
VERTEX
  8
ST29
 62
    80
 10
    0.329491
 20
    0.167835
  0
VERTEX
  8
ST29
 62
    80
 10
    0.655285
 20
    0.315990
  0
VERTEX
  8
ST29
 62
    80
 10
    0.971290
 20
    0.510185
  0
VERTEX
  8
ST29
 62
    80
 10
    1.272723
 20
    0.732000
  0
VERTEX
  8
ST29
 62
    80
 10
    1.556101
 20
    0.966658
  0
VERTEX
  8
ST29
 62
    80
 10
    1.819241
 20
    1.203033
  0
VERTEX
  8
ST29
 62
    80
 10
    2.061254
 20
    1.433647
  0
VERTEX
  8
ST29
 62
    80
 10
    2.282547
 20
    1.654675
  0
VERTEX
  8
ST29
 62
    80
 10
    2.484756
 20
    1.865785
  0
VERTEX
  8
ST29
 62
    80
 10
    2.670093
 20
    2.068430
  0
VERTEX
  8
ST29
 62
    80
 10
    2.840701
 20
    2.264127
  0
VERTEX
  8
ST29
 62
    80
 10
    2.998592
 20
    2.454304
  0
VERTEX
  8
ST29
 62
    80
 10
    3.145649
 20
    2.640294
  0
VERTEX
  8
ST29
 62
    80
 10
    3.230833
 20
    2.753281
  0
VERTEX
  8
ST29
 62
    80
 10
    3.283565
 20
    2.823364
  0
VERTEX
  8
ST29
 62
    80
 10
    3.413916
 20
    3.004681
  0
VERTEX
  8
ST29
 62
    80
 10
    3.538311
 20
    3.185268
  0
VERTEX
  8
ST29
 62
    80
 10
    3.658132
 20
    3.366094
  0
VERTEX
  8
ST29
 62
    80
 10
    3.774583
 20
    3.548116
  0
VERTEX
  8
ST29
 62
    80
 10
    3.888637
 20
    3.732359
  0
VERTEX
  8
ST29
 62
    80
 10
    4.001035
 20
    3.919921
  0
VERTEX
  8
ST29
 62
    80
 10
    4.112276
 20
    4.111972
  0
VERTEX
  8
ST29
 62
    80
 10
    4.222625
 20
    4.309756
  0
VERTEX
  8
ST29
 62
    80
 10
    4.332106
 20
    4.514588
  0
VERTEX
  8
ST29
 62
    80
 10
    4.440505
 20
    4.727855
  0
VERTEX
  8
ST29
 62
    80
 10
    4.547418
 20
    4.951019
  0
VERTEX
  8
ST29
 62
    80
 10
    4.652769
 20
    5.185678
  0
VERTEX
  8
ST29
 62
    80
 10
    4.757326
 20
    5.433626
  0
VERTEX
  8
ST29
 62
    80
 10
    4.862754
 20
    5.696864
  0
VERTEX
  8
ST29
 62
    80
 10
    4.971616
 20
    5.977611
  0
VERTEX
  8
ST29
 62
    80
 10
    5.087372
 20
    6.278306
  0
VERTEX
  8
ST29
 62
    80
 10
    5.214386
 20
    6.601616
  0
VERTEX
  8
ST29
 62
    80
 10
    5.357924
 20
    6.950447
  0
SEQEND
  0
POLYLINE
  8
ST28
 62
    80
 66
     1
 10
    0.000000
 20
    0.000000
  0
VERTEX
  8
ST28
 62
    80
 10
    5.511859
 20
    6.933571
  0
VERTEX
  8
ST28
 62
    80
 10
    5.379062
 20
    6.584312
  0
VERTEX
  8
ST28
 62
    80
 10
    5.261035
 20
    6.258488
  0
VERTEX
  8
ST28
 62
    80
 10
    5.152931
 20
    5.954077
  0
VERTEX
  8
ST28
 62
    80
 10
    5.050698
 20
    5.669115
  0
VERTEX
  8
ST28
 62
    80
 10
    4.951089
 20
    5.401702
  0
VERTEX
  8
ST28
 62
    80
 10
    4.851679
 20
    5.150010
  0
VERTEX
  8
ST28
 62
    80
 10
    4.750868
 20
    4.912277
  0
VERTEX
  8
ST28
 62
    80
 10
    4.647885
 20
    4.686797
  0
VERTEX
  8
ST28
 62
    80
 10
    4.542746
 20
    4.471918
  0
VERTEX
  8
ST28
 62
    80
 10
    4.435773
 20
    4.266055
  0
VERTEX
  8
ST28
 62
    80
 10
    4.327105
 20
    4.067705
  0
VERTEX
  8
ST28
 62
    80
 10
    4.216659
 20
    3.875452
  0
VERTEX
  8
ST28
 62
    80
 10
    4.104124
 20
    3.687966
  0
VERTEX
  8
ST28
 62
    80
 10
    3.988967
 20
    3.504004
  0
VERTEX
  8
ST28
 62
    80
 10
    3.870428
 20
    3.322410
  0
VERTEX
  8
ST28
 62
    80
 10
    3.747526
 20
    3.142115
  0
VERTEX
  8
ST28
 62
    80
 10
    3.619063
 20
    2.962130
  0
VERTEX
  8
ST28
 62
    80
 10
    3.483657
 20
    2.781473
  0
VERTEX
  8
ST28
 62
    80
 10
    3.339782
 20
    2.599091
  0
VERTEX
  8
ST28
 62
    80
 10
    3.185766
 20
    2.413858
  0
VERTEX
  8
ST28
 62
    80
 10
    3.019793
 20
    2.224572
  0
VERTEX
  8
ST28
 62
    80
 10
    2.839905
 20
    2.029957
  0
VERTEX
  8
ST28
 62
    80
 10
    2.643995
 20
    1.828666
  0
VERTEX
  8
ST28
 62
    80
 10
    2.429811
 20
    1.619278
  0
VERTEX
  8
ST28
 62
    80
 10
    2.195016
 20
    1.400451
  0
VERTEX
  8
ST28
 62
    80
 10
    1.937889
 20
    1.172618
  0
VERTEX
  8
ST28
 62
    80
 10
    1.658024
 20
    0.939677
  0
VERTEX
  8
ST28
 62
    80
 10
    1.356396
 20
    0.709141
  0
VERTEX
  8
ST28
 62
    80
 10
    1.035357
 20
    0.492139
  0
VERTEX
  8
ST28
 62
    80
 10
    0.698642
 20
    0.303418
  0
VERTEX
  8
ST28
 62
    80
 10
    0.351360
 20
    0.161341
  0
VERTEX
  8
ST28
 62
    80
 10
   -0.000000
 20
    0.087888
  0
SEQEND
  0
POLYLINE
  8
ST27
 62
    80
 66
     1
 10
    0.000000
 20
    0.000000
  0
VERTEX
  8
ST27
 62
    80
 10
    5.658139
 20
    6.917295
  0
VERTEX
  8
ST27
 62
    80
 10
    5.536700
 20
    6.567686
  0
VERTEX
  8
ST27
 62
    80
 10
    5.428198
 20
    6.239436
  0
VERTEX
  8
ST27
 62
    80
 10
    5.328205
 20
    5.931394
  0
VERTEX
  8
ST27
 62
    80
 10
    5.232985
 20
    5.642289
  0
VERTEX
  8
ST27
 62
    80
 10
    5.139520
 20
    5.370763
  0
VERTEX
  8
ST27
 62
    80
 10
    5.045531
 20
    5.115376
  0
VERTEX
  8
ST27
 62
    80
 10
    4.949492
 20
    4.874601
  0
VERTEX
  8
ST27
 62
    80
 10
    4.850641
 20
    4.646821
  0
VERTEX
  8
ST27
 62
    80
 10
    4.748941
 20
    4.430330
  0
VERTEX
  8
ST27
 62
    80
 10
    4.644638
 20
    4.223419
  0
VERTEX
  8
ST27
 62
    80
 10
    4.537808
 20
    4.024472
  0
VERTEX
  8
ST27
 62
    80
 10
    4.428312
 20
    3.831973
  0
VERTEX
  8
ST27
 62
    80
 10
    4.315800
 20
    3.644507
  0
VERTEX
  8
ST27
 62
    80
 10
    4.199708
 20
    3.460760
  0
VERTEX
  8
ST27
 62
    80
 10
    4.079261
 20
    3.279518
  0
VERTEX
  8
ST27
 62
    80
 10
    3.953473
 20
    3.099669
  0
VERTEX
  8
ST27
 62
    80
 10
    3.821149
 20
    2.920197
  0
VERTEX
  8
ST27
 62
    80
 10
    3.680908
 20
    2.740107
  0
VERTEX
  8
ST27
 62
    80
 10
    3.531204
 20
    2.558356
  0
VERTEX
  8
ST27
 62
    80
 10
    3.370327
 20
    2.373843
  0
VERTEX
  8
ST27
 62
    80
 10
    3.196402
 20
    2.185412
  0
VERTEX
  8
ST27
 62
    80
 10
    3.007391
 20
    1.991852
  0
VERTEX
  8
ST27
 62
    80
 10
    2.801091
 20
    1.791896
  0
VERTEX
  8
ST27
 62
    80
 10
    2.575136
 20
    1.584224
  0
VERTEX
  8
ST27
 62
    80
 10
    2.327060
 20
    1.367612
  0
VERTEX
  8
ST27
 62
    80
 10
    2.055049
 20
    1.142596
  0
VERTEX
  8
ST27
 62
    80
 10
    1.758695
 20
    0.913136
  0
VERTEX
  8
ST27
 62
    80
 10
    1.439053
 20
    0.686767
  0
VERTEX
  8
ST27
 62
    80
 10
    1.098648
 20
    0.474597
  0
VERTEX
  8
ST27
 62
    80
 10
    0.741466
 20
    0.291310
  0
VERTEX
  8
ST27
 62
    80
 10
    0.372950
 20
    0.155165
  0
VERTEX
  8
ST27
 62
    80
 10
   -0.000000
 20
    0.087996
  0
SEQEND
  0
POLYLINE
  8
ST32
 62
    80
 66
     1
 10
    0.000000
 20
    0.000000
  0
VERTEX
  8
ST32
 62
    80
 10
    5.782967
 20
    6.902377
  0
VERTEX
  8
ST32
 62
    80
 10
    5.672723
 20
    6.552190
  0
VERTEX
  8
ST32
 62
    80
 10
    5.573954
 20
    6.221654
  0
VERTEX
  8
ST32
 62
    80
 10
    5.482498
 20
    5.910342
  0
VERTEX
  8
ST32
 62
    80
 10
    5.394818
 20
    5.617568
  0
VERTEX
  8
ST32
 62
    80
 10
    5.308044
 20
    5.342425
  0
VERTEX
  8
ST32
 62
    80
 10
    5.219993
 20
    5.083792
  0
VERTEX
  8
ST32
 62
    80
 10
    5.129192
 20
    4.840337
  0
VERTEX
  8
ST32
 62
    80
 10
    5.034889
 20
    4.610511
  0
VERTEX
  8
ST32
 62
    80
 10
    4.937024
 20
    4.392551
  0
VERTEX
  8
ST32
 62
    80
 10
    4.835797
 20
    4.184640
  0
VERTEX
  8
ST32
 62
    80
 10
    4.731247
 20
    3.985058
  0
VERTEX
  8
ST32
 62
    80
 10
    4.623199
 20
    3.792204
  0
VERTEX
  8
ST32
 62
    80
 10
    4.511278
 20
    3.604588
  0
VERTEX
  8
ST32
 62
    80
 10
    4.394895
 20
    3.420838
  0
VERTEX
  8
ST32
 62
    80
 10
    4.273260
 20
    3.239696
  0
VERTEX
  8
ST32
 62
    80
 10
    4.145376
 20
    3.060021
  0
VERTEX
  8
ST32
 62
    80
 10
    4.010040
 20
    2.880778
  0
VERTEX
  8
ST32
 62
    80
 10
    3.865859
 20
    2.700976
  0
VERTEX
  8
ST32
 62
    80
 10
    3.711256
 20
    2.519587
  0
VERTEX
  8
ST32
 62
    80
 10
    3.544469
 20
    2.335549
  0
VERTEX
  8
ST32
 62
    80
 10
    3.363557
 20
    2.147761
  0
VERTEX
  8
ST32
 62
    80
 10
    3.166393
 20
    1.955084
  0
VERTEX
  8
ST32
 62
    80
 10
    2.950669
 20
    1.756346
  0
VERTEX
  8
ST32
 62
    80
 10
    2.713891
 20
    1.550334
  0
VERTEX
  8
ST32
 62
    80
 10
    2.453457
 20
    1.335949
  0
VERTEX
  8
ST32
 62
    80
 10
    2.167453
 20
    1.113827
  0
VERTEX
  8
ST32
 62
    80
 10
    1.855459
 20
    0.887966
  0
VERTEX
  8
ST32
 62
    80
 10
    1.518616
 20
    0.665872
  0
VERTEX
  8
ST32
 62
    80
 10
    1.159622
 20
    0.458560
  0
VERTEX
  8
ST32
 62
    80
 10
    0.782731
 20
    0.280556
  0
VERTEX
  8
ST32
 62
    80
 10
    0.393742
 20
    0.149898
  0
VERTEX
  8
ST32
 62
    80
 10
   -0.000000
 20
    0.088135
  0
SEQEND
  0
POLYLINE
  8
ST31
 62
    80
 66
     1
 10
    0.000000
 20
    0.000000
  0
VERTEX
  8
ST31
 62
    80
 10
    5.902133
 20
    6.887672
  0
VERTEX
  8
ST31
 62
    80
 10
    5.803259
 20
    6.536736
  0
VERTEX
  8
ST31
 62
    80
 10
    5.714335
 20
    6.203950
  0
VERTEX
  8
ST31
 62
    80
 10
    5.631458
 20
    5.889517
  0
VERTEX
  8
ST31
 62
    80
 10
    5.551304
 20
    5.593278
  0
VERTEX
  8
ST31
 62
    80
 10
    5.471163
 20
    5.314736
  0
VERTEX
  8
ST31
 62
    80
 10
    5.388968
 20
    5.053064
  0
VERTEX
  8
ST31
 62
    80
 10
    5.303312
 20
    4.807103
  0
VERTEX
  8
ST31
 62
    80
 10
    5.213468
 20
    4.575360
  0
VERTEX
  8
ST31
 62
    80
 10
    5.119355
 20
    4.356018
  0
VERTEX
  8
ST31
 62
    80
 10
    5.021139
 20
    4.147153
  0
VERTEX
  8
ST31
 62
    80
 10
    4.918824
 20
    3.946950
  0
VERTEX
  8
ST31
 62
    80
 10
    4.812209
 20
    3.753723
  0
VERTEX
  8
ST31
 62
    80
 10
    4.700892
 20
    3.565916
  0
VERTEX
  8
ST31
 62
    80
 10
    4.584271
 20
    3.382099
  0
VERTEX
  8
ST31
 62
    80
 10
    4.461540
 20
    3.200976
  0
VERTEX
  8
ST31
 62
    80
 10
    4.331693
 20
    3.021377
  0
VERTEX
  8
ST31
 62
    80
 10
    4.193523
 20
    2.842257
  0
VERTEX
  8
ST31
 62
    80
 10
    4.045623
 20
    2.662625
  0
VERTEX
  8
ST31
 62
    80
 10
    3.886380
 20
    2.481481
  0
VERTEX
  8
ST31
 62
    80
 10
    3.713983
 20
    2.297804
  0
VERTEX
  8
ST31
 62
    80
 10
    3.526415
 20
    2.110555
  0
VERTEX
  8
ST31
 62
    80
 10
    3.321458
 20
    1.918677
  0
VERTEX
  8
ST31
 62
    80
 10
    3.096692
 20
    1.721098
  0
VERTEX
  8
ST31
 62
    80
 10
    2.849494
 20
    1.516725
  0
VERTEX
  8
ST31
 62
    80
 10
    2.577115
 20
    1.304590
  0
VERTEX
  8
ST31
 62
    80
 10
    2.277536
 20
    1.085434
  0
VERTEX
  8
ST31
 62
    80
 10
    1.950320
 20
    0.863277
  0
VERTEX
  8
ST31
 62
    80
 10
    1.596683
 20
    0.645571
  0
VERTEX
  8
ST31
 62
    80
 10
    1.219496
 20
    0.443195
  0
VERTEX
  8
ST31
 62
    80
 10
    0.823275
 20
    0.270456
  0
VERTEX
  8
ST31
 62
    80
 10
    0.414178
 20
    0.145093
  0
VERTEX
  8
ST31
 62
    80
 10
   -0.000000
 20
    0.088274
  0
SEQEND
  0
POLYLINE
  8
ST30
 62
    80
 66
     1
 10
    0.000000
 20
    0.000000
  0
VERTEX
  8
ST30
 62
    80
 10
    6.006448
 20
    6.873531
  0
VERTEX
  8
ST30
 62
    80
 10
    5.917804
 20
    6.521404
  0
VERTEX
  8
ST30
 62
    80
 10
    5.837952
 20
    6.186493
  0
VERTEX
  8
ST30
 62
    80
 10
    5.763156
 20
    5.869429
  0
VERTEX
  8
ST30
 62
    80
 10
    5.690222
 20
    5.570401
  0
VERTEX
  8
ST30
 62
    80
 10
    5.616544
 20
    5.289176
  0
VERTEX
  8
ST30
 62
    80
 10
    5.540127
 20
    5.025113
  0
VERTEX
  8
ST30
 62
    80
 10
    5.459611
 20
    4.777158
  0
VERTEX
  8
ST30
 62
    80
 10
    5.374285
 20
    4.543844
  0
VERTEX
  8
ST30
 62
    80
 10
    5.284060
 20
    4.323305
  0
VERTEX
  8
ST30
 62
    80
 10
    5.189081
 20
    4.113535
  0
VERTEX
  8
ST30
 62
    80
 10
    5.089328
 20
    3.912647
  0
VERTEX
  8
ST30
 62
    80
 10
    4.984577
 20
    3.718893
  0
VERTEX
  8
ST30
 62
    80
 10
    4.874406
 20
    3.530668
  0
VERTEX
  8
ST30
 62
    80
 10
    4.758187
 20
    3.346509
  0
VERTEX
  8
ST30
 62
    80
 10
    4.635093
 20
    3.165092
  0
VERTEX
  8
ST30
 62
    80
 10
    4.504096
 20
    2.985236
  0
VERTEX
  8
ST30
 62
    80
 10
    4.363966
 20
    2.805897
  0
VERTEX
  8
ST30
 62
    80
 10
    4.213265
 20
    2.626100
  0
VERTEX
  8
ST30
 62
    80
 10
    4.050334
 20
    2.444879
  0
VERTEX
  8
ST30
 62
    80
 10
    3.873292
 20
    2.261269
  0
VERTEX
  8
ST30
 62
    80
 10
    3.680042
 20
    2.074305
  0
VERTEX
  8
ST30
 62
    80
 10
    3.468263
 20
    1.883026
  0
VERTEX
  8
ST30
 62
    80
 10
    3.235416
 20
    1.686471
  0
VERTEX
  8
ST30
 62
    80
 10
    2.978740
 20
    1.483681
  0
VERTEX
  8
ST30
 62
    80
 10
    2.695338
 20
    1.273835
  0
VERTEX
  8
ST30
 62
    80
 10
    2.383077
 20
    1.057775
  0
VERTEX
  8
ST30
 62
    80
 10
    2.041496
 20
    0.839520
  0
VERTEX
  8
ST30
 62
    80
 10
    1.671885
 20
    0.626410
  0
VERTEX
  8
ST30
 62
    80
 10
    1.277280
 20
    0.429104
  0
VERTEX
  8
ST30
 62
    80
 10
    0.862463
 20
    0.261581
  0
VERTEX
  8
ST30
 62
    80
 10
    0.433952
 20
    0.141144
  0
VERTEX
  8
ST30
 62
    80
 10
   -0.000000
 20
    0.088414
  0
SEQEND
  0
POLYLINE
  8
ST39
 62
    80
 66
     1
 10
    0.000000
 20
    0.000000
  0
VERTEX
  8
ST39
 62
    80
 10
   -6.103632
 20
    6.859587
  0
VERTEX
  8
ST39
 62
    80
 10
   -6.025218
 20
    6.506150
  0
VERTEX
  8
ST39
 62
    80
 10
   -5.954373
 20
    6.169279
  0
VERTEX
  8
ST39
 62
    80
 10
   -5.887533
 20
    5.849894
  0
VERTEX
  8
ST39
 62
    80
 10
   -5.821658
 20
    5.548441
  0
VERTEX
  8
ST39
 62
    80
 10
   -5.754269
 20
    5.264896
  0
VERTEX
  8
ST39
 62
    80
 10
   -5.683468
 20
    4.998761
  0
VERTEX
  8
ST39
 62
    80
 10
   -5.607960
 20
    4.749062
  0
VERTEX
  8
ST39
 62
    80
 10
   -5.527063
 20
    4.514346
  0
VERTEX
  8
ST39
 62
    80
 10
   -5.440683
 20
    4.292705
  0
VERTEX
  8
ST39
 62
    80
 10
   -5.348940
 20
    4.082065
  0
VERTEX
  8
ST39
 62
    80
 10
   -5.251789
 20
    3.880478
  0
VERTEX
  8
ST39
 62
    80
 10
   -5.148983
 20
    3.686147
  0
VERTEX
  8
ST39
 62
    80
 10
   -5.040074
 20
    3.497428
  0
VERTEX
  8
ST39
 62
    80
 10
   -4.924414
 20
    3.312826
  0
VERTEX
  8
ST39
 62
    80
 10
   -4.801154
 20
    3.131000
  0
VERTEX
  8
ST39
 62
    80
 10
   -4.669242
 20
    2.950762
  0
VERTEX
  8
ST39
 62
    80
 10
   -4.527428
 20
    2.771069
  0
VERTEX
  8
ST39
 62
    80
 10
   -4.374240
 20
    2.590965
  0
VERTEX
  8
ST39
 62
    80
 10
   -4.207969
 20
    2.409523
  0
VERTEX
  8
ST39
 62
    80
 10
   -4.026668
 20
    2.225837
  0
VERTEX
  8
ST39
 62
    80
 10
   -3.828152
 20
    2.039025
  0
VERTEX
  8
ST39
 62
    80
 10
   -3.609995
 20
    1.848225
  0
VERTEX
  8
ST39
 62
    80
 10
   -3.369538
 20
    1.652597
  0
VERTEX
  8
ST39
 62
    80
 10
   -3.103879
 20
    1.451324
  0
VERTEX
  8
ST39
 62
    80
 10
   -2.809967
 20
    1.243743
  0
VERTEX
  8
ST39
 62
    80
 10
   -2.485552
 20
    1.030796
  0
VERTEX
  8
ST39
 62
    80
 10
   -2.130146
 20
    0.816490
  0
VERTEX
  8
ST39
 62
    80
 10
   -1.745102
 20
    0.608027
  0
VERTEX
  8
ST39
 62
    80
 10
   -1.333615
 20
    0.415806
  0
VERTEX
  8
ST39
 62
    80
 10
   -0.900718
 20
    0.253421
  0
VERTEX
  8
ST39
 62
    80
 10
   -0.453279
 20
    0.137665
  0
VERTEX
  8
ST39
 62
    80
 10
   -0.000000
 20
    0.088524
  0
SEQEND
  0
POLYLINE
  8
ST48
 62
    80
 66
     1
 10
    0.000000
 20
    0.000000
  0
VERTEX
  8
ST48
 62
    80
 10
   -6.186746
 20
    6.846033
  0
VERTEX
  8
ST48
 62
    80
 10
   -6.116803
 20
    6.491068
  0
VERTEX
  8
ST48
 62
    80
 10
   -6.053465
 20
    6.152654
  0
VERTEX
  8
ST48
 62
    80
 10
   -5.993341
 20
    5.831761
  0
VERTEX
  8
ST48
 62
    80
 10
   -5.933540
 20
    5.528878
  0
VERTEX
  8
ST48
 62
    80
 10
   -5.871697
 20
    5.244008
  0
VERTEX
  8
ST48
 62
    80
 10
   -5.805996
 20
    4.976665
  0
VERTEX
  8
ST48
 62
    80
 10
   -5.735191
 20
    4.725877
  0
VERTEX
  8
ST48
 62
    80
 10
   -5.658613
 20
    4.490179
  0
VERTEX
  8
ST48
 62
    80
 10
   -5.576150
 20
    4.267637
  0
VERTEX
  8
ST48
 62
    80
 10
   -5.487884
 20
    4.056153
  0
VERTEX
  8
ST48
 62
    80
 10
   -5.393731
 20
    3.853757
  0
VERTEX
  8
ST48
 62
    80
 10
   -5.293405
 20
    3.658634
  0
VERTEX
  8
ST48
 62
    80
 10
   -5.186419
 20
    3.469131
  0
VERTEX
  8
ST48
 62
    80
 10
   -5.072084
 20
    3.283748
  0
VERTEX
  8
ST48
 62
    80
 10
   -4.949512
 20
    3.101147
  0
VERTEX
  8
ST48
 62
    80
 10
   -4.817612
 20
    2.920143
  0
VERTEX
  8
ST48
 62
    80
 10
   -4.675093
 20
    2.739707
  0
VERTEX
  8
ST48
 62
    80
 10
   -4.520435
 20
    2.558912
  0
VERTEX
  8
ST48
 62
    80
 10
   -4.351869
 20
    2.376875
  0
VERTEX
  8
ST48
 62
    80
 10
   -4.167370
 20
    2.192763
  0
VERTEX
  8
ST48
 62
    80
 10
   -3.964658
 20
    2.005783
  0
VERTEX
  8
ST48
 62
    80
 10
   -3.741202
 20
    1.815186
  0
VERTEX
  8
ST48
 62
    80
 10
   -3.494217
 20
    1.620268
  0
VERTEX
  8
ST48
 62
    80
 10
   -3.220663
 20
    1.420366
  0
VERTEX
  8
ST48
 62
    80
 10
   -2.917337
 20
    1.214988
  0
VERTEX
  8
ST48
 62
    80
 10
   -2.581872
 20
    1.005182
  0
VERTEX
  8
ST48
 62
    80
 10
   -2.213746
 20
    0.794915
  0
VERTEX
  8
ST48
 62
    80
 10
   -1.814366
 20
    0.591197
  0
VERTEX
  8
ST48
 62
    80
 10
   -1.387070
 20
    0.404083
  0
VERTEX
  8
ST48
 62
    80
 10
   -0.937126
 20
    0.246673
  0
VERTEX
  8
ST48
 62
    80
 10
   -0.471728
 20
    0.135109
  0
VERTEX
  8
ST48
 62
    80
 10
   -0.000000
 20
    0.088576
  0
SEQEND
  0
POLYLINE
  8
ST47
 62
    80
 66
     1
 10
    0.000000
 20
    0.000000
  0
VERTEX
  8
ST47
 62
    80
 10
   -6.265136
 20
    6.832672
  0
VERTEX
  8
ST47
 62
    80
 10
   -6.203826
 20
    6.476132
  0
VERTEX
  8
ST47
 62
    80
 10
   -6.148082
 20
    6.136290
  0
VERTEX
  8
ST47
 62
    80
 10
   -6.094704
 20
    5.814078
  0
VERTEX
  8
ST47
 62
    80
 10
   -6.040964
 20
    5.509972
  0
VERTEX
  8
ST47
 62
    80
 10
   -5.984629
 20
    5.223971
  0
VERTEX
  8
ST47
 62
    80
 10
   -5.923985
 20
    4.955588
  0
VERTEX
  8
ST47
 62
    80
 10
   -5.857849
 20
    4.703839
  0
VERTEX
  8
ST47
 62
    80
 10
   -5.785576
 20
    4.467244
  0
VERTEX
  8
ST47
 62
    80
 10
   -5.707033
 20
    4.243853
  0
VERTEX
  8
ST47
 62
    80
 10
   -5.622264
 20
    4.031548
  0
VERTEX
  8
ST47
 62
    80
 10
   -5.531144
 20
    3.828343
  0
VERTEX
  8
ST47
 62
    80
 10
   -5.433345
 20
    3.632416
  0
VERTEX
  8
ST47
 62
    80
 10
   -5.328343
 20
    3.442104
  0
VERTEX
  8
ST47
 62
    80
 10
   -5.215409
 20
    3.255907
  0
VERTEX
  8
ST47
 62
    80
 10
   -5.093618
 20
    3.072489
  0
VERTEX
  8
ST47
 62
    80
 10
   -4.961841
 20
    2.890673
  0
VERTEX
  8
ST47
 62
    80
 10
   -4.818750
 20
    2.709443
  0
VERTEX
  8
ST47
 62
    80
 10
   -4.662779
 20
    2.527897
  0
VERTEX
  8
ST47
 62
    80
 10
   -4.492097
 20
    2.345203
  0
VERTEX
  8
ST47
 62
    80
 10
   -4.304599
 20
    2.160595
  0
VERTEX
  8
ST47
 62
    80
 10
   -4.097916
 20
    1.973377
  0
VERTEX
  8
ST47
 62
    80
 10
   -3.869404
 20
    1.782914
  0
VERTEX
  8
ST47
 62
    80
 10
   -3.616153
 20
    1.588640
  0
VERTEX
  8
ST47
 62
    80
 10
   -3.334983
 20
    1.390052
  0
VERTEX
  8
ST47
 62
    80
 10
   -3.022536
 20
    1.186831
  0
VERTEX
  8
ST47
 62
    80
 10
   -2.676330
 20
    0.980132
  0
VERTEX
  8
ST47
 62
    80
 10
   -2.295804
 20
    0.773877
  0
VERTEX
  8
ST47
 62
    80
 10
   -1.882415
 20
    0.574874
  0
VERTEX
  8
ST47
 62
    80
 10
   -1.439638
 20
    0.392819
  0
VERTEX
  8
ST47
 62
    80
 10
   -0.972965
 20
    0.240293
  0
VERTEX
  8
ST47
 62
    80
 10
   -0.489908
 20
    0.132762
  0
VERTEX
  8
ST47
 62
    80
 10
   -0.000000
 20
    0.088576
  0
SEQEND
  0
POLYLINE
  8
ST46
 62
    80
 66
     1
 10
    0.000000
 20
    0.000000
  0
VERTEX
  8
ST46
 62
    80
 10
   -6.327436
 20
    6.819972
  0
VERTEX
  8
ST46
 62
    80
 10
   -6.272611
 20
    6.461773
  0
VERTEX
  8
ST46
 62
    80
 10
   -6.222467
 20
    6.121114
  0
VERTEX
  8
ST46
 62
    80
 10
   -6.174061
 20
    5.798623
  0
VERTEX
  8
ST46
 62
    80
 10
   -6.124875
 20
    5.494523
  0
VERTEX
  8
ST46
 62
    80
 10
   -6.072840
 20
    5.208613
  0
VERTEX
  8
ST46
 62
    80
 10
   -6.016353
 20
    4.940257
  0
VERTEX
  8
ST46
 62
    80
 10
   -5.954290
 20
    4.688374
  0
VERTEX
  8
ST46
 62
    80
 10
   -5.886013
 20
    4.451440
  0
VERTEX
  8
ST46
 62
    80
 10
   -5.811347
 20
    4.227509
  0
VERTEX
  8
ST46
 62
    80
 10
   -5.730262
 20
    4.014492
  0
VERTEX
  8
ST46
 62
    80
 10
   -5.642562
 20
    3.810434
  0
VERTEX
  8
ST46
 62
    80
 10
   -5.547854
 20
    3.613540
  0
VERTEX
  8
ST46
 62
    80
 10
   -5.445544
 20
    3.422175
  0
VERTEX
  8
ST46
 62
    80
 10
   -5.334843
 20
    3.234862
  0
VERTEX
  8
ST46
 62
    80
 10
   -5.214763
 20
    3.050288
  0
VERTEX
  8
ST46
 62
    80
 10
   -5.084121
 20
    2.867298
  0
VERTEX
  8
ST46
 62
    80
 10
   -4.941532
 20
    2.684896
  0
VERTEX
  8
ST46
 62
    80
 10
   -4.785371
 20
    2.502209
  0
VERTEX
  8
ST46
 62
    80
 10
   -4.613738
 20
    2.318462
  0
VERTEX
  8
ST46
 62
    80
 10
   -4.424445
 20
    2.132967
  0
VERTEX
  8
ST46
 62
    80
 10
   -4.215027
 20
    1.945128
  0
VERTEX
  8
ST46
 62
    80
 10
   -3.982736
 20
    1.754437
  0
VERTEX
  8
ST46
 62
    80
 10
   -3.724540
 20
    1.560478
  0
VERTEX
  8
ST46
 62
    80
 10
   -3.437126
 20
    1.362920
  0
VERTEX
  8
ST46
 62
    80
 10
   -3.116996
 20
    1.161633
  0
VERTEX
  8
ST46
 62
    80
 10
   -2.761553
 20
    0.957879
  0
VERTEX
  8
ST46
 62
    80
 10
   -2.370194
 20
    0.755510
  0
VERTEX
  8
ST46
 62
    80
 10
   -1.944407
 20
    0.561081
  0
VERTEX
  8
ST46
 62
    80
 10
   -1.487771
 20
    0.383844
  0
VERTEX
  8
ST46
 62
    80
 10
   -1.005960
 20
    0.235753
  0
VERTEX
  8
ST46
 62
    80
 10
   -0.506746
 20
    0.131459
  0
VERTEX
  8
ST46
 62
    80
 10
   -0.000000
 20
    0.088311
  0
SEQEND
  0
POLYLINE
  8
ST51
 62
    80
 66
     1
 10
    0.000000
 20
    0.000000
  0
VERTEX
  8
ST51
 62
    80
 10
   -6.389736
 20
    6.807272
  0
VERTEX
  8
ST51
 62
    80
 10
   -6.341397
 20
    6.447413
  0
VERTEX
  8
ST51
 62
    80
 10
   -6.296853
 20
    6.105937
  0
VERTEX
  8
ST51
 62
    80
 10
   -6.253418
 20
    5.783168
  0
VERTEX
  8
ST51
 62
    80
 10
   -6.208786
 20
    5.479074
  0
VERTEX
  8
ST51
 62
    80
 10
   -6.161051
 20
    5.193256
  0
VERTEX
  8
ST51
 62
    80
 10
   -6.108720
 20
    4.924926
  0
VERTEX
  8
ST51
 62
    80
 10
   -6.050731
 20
    4.672910
  0
VERTEX
  8
ST51
 62
    80
 10
   -5.986451
 20
    4.435636
  0
VERTEX
  8
ST51
 62
    80
 10
   -5.915660
 20
    4.211165
  0
VERTEX
  8
ST51
 62
    80
 10
   -5.838259
 20
    3.997436
  0
VERTEX
  8
ST51
 62
    80
 10
   -5.753980
 20
    3.792525
  0
VERTEX
  8
ST51
 62
    80
 10
   -5.662362
 20
    3.594665
  0
VERTEX
  8
ST51
 62
    80
 10
   -5.562745
 20
    3.402246
  0
VERTEX
  8
ST51
 62
    80
 10
   -5.454277
 20
    3.213817
  0
VERTEX
  8
ST51
 62
    80
 10
   -5.335909
 20
    3.028087
  0
VERTEX
  8
ST51
 62
    80
 10
   -5.206401
 20
    2.843923
  0
VERTEX
  8
ST51
 62
    80
 10
   -5.064313
 20
    2.660348
  0
VERTEX
  8
ST51
 62
    80
 10
   -4.907963
 20
    2.476522
  0
VERTEX
  8
ST51
 62
    80
 10
   -4.735379
 20
    2.291721
  0
VERTEX
  8
ST51
 62
    80
 10
   -4.544291
 20
    2.105339
  0
VERTEX
  8
ST51
 62
    80
 10
   -4.332139
 20
    1.916879
  0
VERTEX
  8
ST51
 62
    80
 10
   -4.096068
 20
    1.725960
  0
VERTEX
  8
ST51
 62
    80
 10
   -3.832926
 20
    1.532315
  0
VERTEX
  8
ST51
 62
    80
 10
   -3.539269
 20
    1.335788
  0
VERTEX
  8
ST51
 62
    80
 10
   -3.211455
 20
    1.136435
  0
VERTEX
  8
ST51
 62
    80
 10
   -2.846776
 20
    0.935626
  0
VERTEX
  8
ST51
 62
    80
 10
   -2.444584
 20
    0.737144
  0
VERTEX
  8
ST51
 62
    80
 10
   -2.006399
 20
    0.547288
  0
VERTEX
  8
ST51
 62
    80
 10
   -1.535905
 20
    0.374869
  0
VERTEX
  8
ST51
 62
    80
 10
   -1.038956
 20
    0.231213
  0
VERTEX
  8
ST51
 62
    80
 10
   -0.523584
 20
    0.130156
  0
VERTEX
  8
ST51
 62
    80
 10
   -0.000000
 20
    0.088046
  0
SEQEND
  0
POLYLINE
  8
ST50
 62
    80
 66
     1
 10
    0.000000
 20
    0.000000
  0
VERTEX
  8
ST50
 62
    80
 10
   -6.435036
 20
    6.795945
  0
VERTEX
  8
ST50
 62
    80
 10
   -6.352092
 20
    6.092118
  0
VERTEX
  8
ST50
 62
    80
 10
   -6.312596
 20
    5.769741
  0
VERTEX
  8
ST50
 62
    80
 10
   -6.271578
 20
    5.466502
  0
VERTEX
  8
ST50
 62
    80
 10
   -6.227329
 20
    5.181658
  0
VERTEX
  8
ST50
 62
    80
 10
   -6.178498
 20
    4.914175
  0
VERTEX
  8
ST50
 62
    80
 10
   -6.124093
 20
    4.662720
  0
VERTEX
  8
ST50
 62
    80
 10
   -6.063494
 20
    4.425654
  0
VERTEX
  8
ST50
 62
    80
 10
   -5.996425
 20
    4.201048
  0
VERTEX
  8
ST50
 62
    80
 10
   -5.922703
 20
    3.986895
  0
VERTEX
  8
ST50
 62
    80
 10
   -5.841977
 20
    3.781321
  0
VERTEX
  8
ST50
 62
    80
 10
   -5.753702
 20
    3.582604
  0
VERTEX
  8
ST50
 62
    80
 10
   -5.657146
 20
    3.389174
  0
VERTEX
  8
ST50
 62
    80
 10
   -5.551384
 20
    3.199615
  0
VERTEX
  8
ST50
 62
    80
 10
   -5.435300
 20
    3.012666
  0
VERTEX
  8
ST50
 62
    80
 10
   -5.307589
 20
    2.827219
  0
VERTEX
  8
ST50
 62
    80
 10
   -5.166754
 20
    2.642319
  0
VERTEX
  8
ST50
 62
    80
 10
   -5.011048
 20
    2.457158
  0
VERTEX
  8
ST50
 62
    80
 10
   -4.838425
 20
    2.271069
  0
VERTEX
  8
ST50
 62
    80
 10
   -4.646534
 20
    2.083526
  0
VERTEX
  8
ST50
 62
    80
 10
   -4.432718
 20
    1.894141
  0
VERTEX
  8
ST50
 62
    80
 10
   -4.194018
 20
    1.702665
  0
VERTEX
  8
ST50
 62
    80
 10
   -3.927168
 20
    1.508986
  0
VERTEX
  8
ST50
 62
    80
 10
   -3.628595
 20
    1.313131
  0
VERTEX
  8
ST50
 62
    80
 10
   -3.294526
 20
    1.115353
  0
VERTEX
  8
ST50
 62
    80
 10
   -2.922144
 20
    0.917131
  0
VERTEX
  8
ST50
 62
    80
 10
   -2.510749
 20
    0.722160
  0
VERTEX
  8
ST50
 62
    80
 10
   -2.061868
 20
    0.536448
  0
VERTEX
  8
ST50
 62
    80
 10
   -1.579251
 20
    0.368315
  0
VERTEX
  8
ST50
 62
    80
 10
   -1.068882
 20
    0.228387
  0
VERTEX
  8
ST50
 62
    80
 10
   -0.538978
 20
    0.129601
  0
VERTEX
  8
ST50
 62
    80
 10
   -0.000000
 20
    0.087201
  0
SEQEND
  0
POLYLINE
  8
ST49
 62
    80
 66
     1
 10
    0.000000
 20
    0.000000
  0
VERTEX
  8
ST49
 62
    80
 10
   -6.478767
 20
    6.784744
  0
VERTEX
  8
ST49
 62
    80
 10
   -6.404475
 20
    6.078501
  0
VERTEX
  8
ST49
 62
    80
 10
   -6.368361
 20
    5.756658
  0
VERTEX
  8
ST49
 62
    80
 10
   -6.330476
 20
    5.454461
  0
VERTEX
  8
ST49
 62
    80
 10
   -6.289315
 20
    5.170796
  0
VERTEX
  8
ST49
 62
    80
 10
   -6.243665
 20
    4.904358
  0
VERTEX
  8
ST49
 62
    80
 10
   -6.192606
 20
    4.653639
  0
VERTEX
  8
ST49
 62
    80
 10
   -6.135521
 20
    4.416919
  0
VERTEX
  8
ST49
 62
    80
 10
   -6.072074
 20
    4.192283
  0
VERTEX
  8
ST49
 62
    80
 10
   -6.001990
 20
    3.977780
  0
VERTEX
  8
ST49
 62
    80
 10
   -5.924825
 20
    3.771591
  0
VERTEX
  8
ST49
 62
    80
 10
   -5.839949
 20
    3.572041
  0
VERTEX
  8
ST49
 62
    80
 10
   -5.746543
 20
    3.377607
  0
VERTEX
  8
ST49
 62
    80
 10
   -5.643604
 20
    3.186911
  0
VERTEX
  8
ST49
 62
    80
 10
   -5.529942
 20
    2.998725
  0
VERTEX
  8
ST49
 62
    80
 10
   -5.404185
 20
    2.811968
  0
VERTEX
  8
ST49
 62
    80
 10
   -5.264768
 20
    2.625708
  0
VERTEX
  8
ST49
 62
    80
 10
   -5.109882
 20
    2.439171
  0
VERTEX
  8
ST49
 62
    80
 10
   -4.937405
 20
    2.251748
  0
VERTEX
  8
ST49
 62
    80
 10
   -4.744903
 20
    2.062993
  0
VERTEX
  8
ST49
 62
    80
 10
   -4.529627
 20
    1.872627
  0
VERTEX
  8
ST49
 62
    80
 10
   -4.288517
 20
    1.680532
  0
VERTEX
  8
ST49
 62
    80
 10
   -4.018195
 20
    1.486755
  0
VERTEX
  8
ST49
 62
    80
 10
   -3.714971
 20
    1.291504
  0
VERTEX
  8
ST49
 62
    80
 10
   -3.374943
 20
    1.095232
  0
VERTEX
  8
ST49
 62
    80
 10
   -2.995189
 20
    0.899522
  0
VERTEX
  8
ST49
 62
    80
 10
   -2.574957
 20
    0.707980
  0
VERTEX
  8
ST49
 62
    80
 10
   -2.115773
 20
    0.526316
  0
VERTEX
  8
ST49
 62
    80
 10
   -1.621444
 20
    0.362343
  0
VERTEX
  8
ST49
 62
    80
 10
   -1.098065
 20
    0.225976
  0
VERTEX
  8
ST49
 62
    80
 10
   -0.554021
 20
    0.129227
  0
VERTEX
  8
ST49
 62
    80
 10
   -0.000000
 20
    0.086213
  0
SEQEND
  0
POLYLINE
  8
ST42
 62
    80
 66
     1
 10
    0.000000
 20
    0.000000
  0
VERTEX
  8
ST42
 62
    80
 10
   -6.515769
 20
    6.774567
  0
VERTEX
  8
ST42
 62
    80
 10
   -6.449906
 20
    6.065400
  0
VERTEX
  8
ST42
 62
    80
 10
   -6.417065
 20
    5.744104
  0
VERTEX
  8
ST42
 62
    80
 10
   -6.382201
 20
    5.443059
  0
VERTEX
  8
ST42
 62
    80
 10
   -6.344014
 20
    5.160744
  0
VERTEX
  8
ST42
 62
    80
 10
   -6.301427
 20
    4.895555
  0
VERTEX
  8
ST42
 62
    80
 10
   -6.253598
 20
    4.645790
  0
VERTEX
  8
ST42
 62
    80
 10
   -6.199917
 20
    4.409638
  0
VERTEX
  8
ST42
 62
    80
 10
   -6.139995
 20
    4.185189
  0
VERTEX
  8
ST42
 62
    80
 10
   -6.073471
 20
    3.970542
  0
VERTEX
  8
ST42
 62
    80
 10
   -5.999816
 20
    3.763928
  0
VERTEX
  8
ST42
 62
    80
 10
   -5.918318
 20
    3.563719
  0
VERTEX
  8
ST42
 62
    80
 10
   -5.828082
 20
    3.368429
  0
VERTEX
  8
ST42
 62
    80
 10
   -5.728029
 20
    3.176717
  0
VERTEX
  8
ST42
 62
    80
 10
   -5.616901
 20
    2.987383
  0
VERTEX
  8
ST42
 62
    80
 10
   -5.493255
 20
    2.799374
  0
VERTEX
  8
ST42
 62
    80
 10
   -5.355464
 20
    2.611780
  0
VERTEX
  8
ST42
 62
    80
 10
   -5.201649
 20
    2.423861
  0
VERTEX
  8
ST42
 62
    80
 10
   -5.029614
 20
    2.235065
  0
VERTEX
  8
ST42
 62
    80
 10
   -4.836839
 20
    2.045030
  0
VERTEX
  8
ST42
 62
    80
 10
   -4.620483
 20
    1.853587
  0
VERTEX
  8
ST42
 62
    80
 10
   -4.377381
 20
    1.660752
  0
VERTEX
  8
ST42
 62
    80
 10
   -4.104043
 20
    1.466732
  0
VERTEX
  8
ST42
 62
    80
 10
   -3.796660
 20
    1.271920
  0
VERTEX
  8
ST42
 62
    80
 10
   -3.451201
 20
    1.076969
  0
VERTEX
  8
ST42
 62
    80
 10
   -3.064641
 20
    0.883570
  0
VERTEX
  8
ST42
 62
    80
 10
   -2.636168
 20
    0.695235
  0
VERTEX
  8
ST42
 62
    80
 10
   -2.167304
 20
    0.517368
  0
VERTEX
  8
ST42
 62
    80
 10
   -1.661897
 20
    0.357268
  0
VERTEX
  8
ST42
 62
    80
 10
   -1.126134
 20
    0.224125
  0
VERTEX
  8
ST42
 62
    80
 10
   -0.568542
 20
    0.129019
  0
VERTEX
  8
ST42
 62
    80
 10
   -0.000000
 20
    0.084923
  0
SEQEND
  0
POLYLINE
  8
ST41
 62
    80
 66
     1
 10
    0.000000
 20
    0.000000
  0
VERTEX
  8
ST41
 62
    80
 10
   -6.543316
 20
    6.765830
  0
VERTEX
  8
ST41
 62
    80
 10
   -6.513253
 20
    6.396905
  0
VERTEX
  8
ST41
 62
    80
 10
   -6.483587
 20
    6.053170
  0
VERTEX
  8
ST41
 62
    80
 10
   -6.452957
 20
    5.732510
  0
VERTEX
  8
ST41
 62
    80
 10
   -6.420132
 20
    5.432889
  0
VERTEX
  8
ST41
 62
    80
 10
   -6.384028
 20
    5.152326
  0
VERTEX
  8
ST41
 62
    80
 10
   -6.343717
 20
    4.888871
  0
VERTEX
  8
ST41
 62
    80
 10
   -6.298435
 20
    4.640588
  0
VERTEX
  8
ST41
 62
    80
 10
   -6.247586
 20
    4.405544
  0
VERTEX
  8
ST41
 62
    80
 10
   -6.190725
 20
    4.181809
  0
VERTEX
  8
ST41
 62
    80
 10
   -6.127405
 20
    3.967521
  0
VERTEX
  8
ST41
 62
    80
 10
   -6.057011
 20
    3.760948
  0
VERTEX
  8
ST41
 62
    80
 10
   -5.978745
 20
    3.560499
  0
VERTEX
  8
ST41
 62
    80
 10
   -5.891632
 20
    3.364719
  0
VERTEX
  8
ST41
 62
    80
 10
   -5.794515
 20
    3.172297
  0
VERTEX
  8
ST41
 62
    80
 10
   -5.686060
 20
    2.982062
  0
VERTEX
  8
ST41
 62
    80
 10
   -5.564754
 20
    2.792984
  0
VERTEX
  8
ST41
 62
    80
 10
   -5.428903
 20
    2.604177
  0
VERTEX
  8
ST41
 62
    80
 10
   -5.276558
 20
    2.414933
  0
VERTEX
  8
ST41
 62
    80
 10
   -5.105450
 20
    2.224760
  0
VERTEX
  8
ST41
 62
    80
 10
   -4.912979
 20
    2.033380
  0
VERTEX
  8
ST41
 62
    80
 10
   -4.696217
 20
    1.840729
  0
VERTEX
  8
ST41
 62
    80
 10
   -4.451908
 20
    1.646960
  0
VERTEX
  8
ST41
 62
    80
 10
   -4.176464
 20
    1.452435
  0
VERTEX
  8
ST41
 62
    80
 10
   -3.865970
 20
    1.257732
  0
VERTEX
  8
ST41
 62
    80
 10
   -3.516288
 20
    1.063702
  0
VERTEX
  8
ST41
 62
    80
 10
   -3.124293
 20
    0.872137
  0
VERTEX
  8
ST41
 62
    80
 10
   -2.689109
 20
    0.686447
  0
VERTEX
  8
ST41
 62
    80
 10
   -2.212218
 20
    0.511716
  0
VERTEX
  8
ST41
 62
    80
 10
   -1.697464
 20
    0.354706
  0
VERTEX
  8
ST41
 62
    80
 10
   -1.151057
 20
    0.223856
  0
VERTEX
  8
ST41
 62
    80
 10
   -0.581581
 20
    0.129280
  0
VERTEX
  8
ST41
 62
    80
 10
   -0.000000
 20
    0.082765
  0
SEQEND
  0
POLYLINE
  8
ST40
 62
    80
 66
     1
 10
    0.000000
 20
    0.000000
  0
VERTEX
  8
ST40
 62
    80
 10
   -6.570863
 20
    6.757092
  0
VERTEX
  8
ST40
 62
    80
 10
   -6.544269
 20
    6.385401
  0
VERTEX
  8
ST40
 62
    80
 10
   -6.517268
 20
    6.040941
  0
VERTEX
  8
ST40
 62
    80
 10
   -6.488849
 20
    5.720915
  0
VERTEX
  8
ST40
 62
    80
 10
   -6.458063
 20
    5.422718
  0
VERTEX
  8
ST40
 62
    80
 10
   -6.424042
 20
    5.143908
  0
VERTEX
  8
ST40
 62
    80
 10
   -6.386007
 20
    4.882187
  0
VERTEX
  8
ST40
 62
    80
 10
   -6.343273
 20
    4.635386
  0
VERTEX
  8
ST40
 62
    80
 10
   -6.295254
 20
    4.401449
  0
VERTEX
  8
ST40
 62
    80
 10
   -6.241455
 20
    4.178429
  0
VERTEX
  8
ST40
 62
    80
 10
   -6.181340
 20
    3.964500
  0
VERTEX
  8
ST40
 62
    80
 10
   -6.114206
 20
    3.757969
  0
VERTEX
  8
ST40
 62
    80
 10
   -6.039172
 20
    3.557279
  0
VERTEX
  8
ST40
 62
    80
 10
   -5.955182
 20
    3.361009
  0
VERTEX
  8
ST40
 62
    80
 10
   -5.861001
 20
    3.167878
  0
VERTEX
  8
ST40
 62
    80
 10
   -5.755219
 20
    2.976742
  0
VERTEX
  8
ST40
 62
    80
 10
   -5.636253
 20
    2.786594
  0
VERTEX
  8
ST40
 62
    80
 10
   -5.502341
 20
    2.596573
  0
VERTEX
  8
ST40
 62
    80
 10
   -5.351467
 20
    2.406005
  0
VERTEX
  8
ST40
 62
    80
 10
   -5.181286
 20
    2.214456
  0
VERTEX
  8
ST40
 62
    80
 10
   -4.989119
 20
    2.021729
  0
VERTEX
  8
ST40
 62
    80
 10
   -4.771951
 20
    1.827872
  0
VERTEX
  8
ST40
 62
    80
 10
   -4.526435
 20
    1.633167
  0
VERTEX
  8
ST40
 62
    80
 10
   -4.248885
 20
    1.438138
  0
VERTEX
  8
ST40
 62
    80
 10
   -3.935280
 20
    1.243544
  0
VERTEX
  8
ST40
 62
    80
 10
   -3.581375
 20
    1.050434
  0
VERTEX
  8
ST40
 62
    80
 10
   -3.183946
 20
    0.860705
  0
VERTEX
  8
ST40
 62
    80
 10
   -2.742050
 20
    0.677659
  0
VERTEX
  8
ST40
 62
    80
 10
   -2.257133
 20
    0.506063
  0
VERTEX
  8
ST40
 62
    80
 10
   -1.733031
 20
    0.352144
  0
VERTEX
  8
ST40
 62
    80
 10
   -1.175981
 20
    0.223588
  0
VERTEX
  8
ST40
 62
    80
 10
   -0.594621
 20
    0.129541
  0
VERTEX
  8
ST40
 62
    80
 10
   -0.000000
 20
    0.080607
  0
SEQEND
  0
POLYLINE
  8
ST45
 62
    80
 66
     1
 10
    0.000000
 20
    0.000000
  0
VERTEX
  8
ST45
 62
    80
 10
   -6.587134
 20
    6.750865
  0
VERTEX
  8
ST45
 62
    80
 10
   -6.563667
 20
    6.375414
  0
VERTEX
  8
ST45
 62
    80
 10
   -6.539036
 20
    6.029575
  0
VERTEX
  8
ST45
 62
    80
 10
   -6.512538
 20
    5.709827
  0
VERTEX
  8
ST45
 62
    80
 10
   -6.483483
 20
    5.412952
  0
VERTEX
  8
ST45
 62
    80
 10
   -6.451202
 20
    5.136010
  0
VERTEX
  8
ST45
 62
    80
 10
   -6.415056
 20
    4.876322
  0
VERTEX
  8
ST45
 62
    80
 10
   -6.374441
 20
    4.631446
  0
VERTEX
  8
ST45
 62
    80
 10
   -6.328797
 20
    4.399169
  0
VERTEX
  8
ST45
 62
    80
 10
   -6.277596
 20
    4.177488
  0
VERTEX
  8
ST45
 62
    80
 10
   -6.220239
 20
    3.964577
  0
VERTEX
  8
ST45
 62
    80
 10
   -6.155963
 20
    3.758747
  0
VERTEX
  8
ST45
 62
    80
 10
   -6.083825
 20
    3.558450
  0
VERTEX
  8
ST45
 62
    80
 10
   -6.002704
 20
    3.362275
  0
VERTEX
  8
ST45
 62
    80
 10
   -5.911302
 20
    3.168951
  0
VERTEX
  8
ST45
 62
    80
 10
   -5.808148
 20
    2.977348
  0
VERTEX
  8
ST45
 62
    80
 10
   -5.691592
 20
    2.786477
  0
VERTEX
  8
ST45
 62
    80
 10
   -5.559807
 20
    2.595497
  0
VERTEX
  8
ST45
 62
    80
 10
   -5.410707
 20
    2.403770
  0
VERTEX
  8
ST45
 62
    80
 10
   -5.241875
 20
    2.210920
  0
VERTEX
  8
ST45
 62
    80
 10
   -5.050550
 20
    2.016836
  0
VERTEX
  8
ST45
 62
    80
 10
   -4.833635
 20
    1.821674
  0
VERTEX
  8
ST45
 62
    80
 10
   -4.587690
 20
    1.625851
  0
VERTEX
  8
ST45
 62
    80
 10
   -4.308935
 20
    1.430049
  0
VERTEX
  8
ST45
 62
    80
 10
   -3.993250
 20
    1.235209
  0
VERTEX
  8
ST45
 62
    80
 10
   -3.636283
 20
    1.042577
  0
VERTEX
  8
ST45
 62
    80
 10
   -3.234719
 20
    0.854151
  0
VERTEX
  8
ST45
 62
    80
 10
   -2.787532
 20
    0.673130
  0
VERTEX
  8
ST45
 62
    80
 10
   -2.296104
 20
    0.503958
  0
VERTEX
  8
ST45
 62
    80
 10
   -1.764226
 20
    0.352327
  0
VERTEX
  8
ST45
 62
    80
 10
   -1.198101
 20
    0.225177
  0
VERTEX
  8
ST45
 62
    80
 10
   -0.606346
 20
    0.130692
  0
VERTEX
  8
ST45
 62
    80
 10
   -0.000000
 20
    0.078301
  0
SEQEND
  0
POLYLINE
  8
ST44
 62
    80
 66
     1
 10
    0.000000
 20
    0.000000
  0
VERTEX
  8
ST44
 62
    80
 10
   -6.600344
 20
    6.745318
  0
VERTEX
  8
ST44
 62
    80
 10
   -6.579463
 20
    6.365897
  0
VERTEX
  8
ST44
 62
    80
 10
   -6.556674
 20
    6.018509
  0
VERTEX
  8
ST44
 62
    80
 10
   -6.531591
 20
    5.698932
  0
VERTEX
  8
ST44
 62
    80
 10
   -6.503782
 20
    5.403351
  0
VERTEX
  8
ST44
 62
    80
 10
   -6.472775
 20
    5.128338
  0
VERTEX
  8
ST44
 62
    80
 10
   -6.438074
 20
    4.870829
  0
VERTEX
  8
ST44
 62
    80
 10
   -6.399162
 20
    4.628102
  0
VERTEX
  8
ST44
 62
    80
 10
   -6.355502
 20
    4.397768
  0
VERTEX
  8
ST44
 62
    80
 10
   -6.306538
 20
    4.177751
  0
VERTEX
  8
ST44
 62
    80
 10
   -6.251614
 20
    3.966204
  0
VERTEX
  8
ST44
 62
    80
 10
   -6.189906
 20
    3.761429
  0
VERTEX
  8
ST44
 62
    80
 10
   -6.120409
 20
    3.561869
  0
VERTEX
  8
ST44
 62
    80
 10
   -6.041940
 20
    3.366114
  0
VERTEX
  8
ST44
 62
    80
 10
   -5.953142
 20
    3.172896
  0
VERTEX
  8
ST44
 62
    80
 10
   -5.852477
 20
    2.981094
  0
VERTEX
  8
ST44
 62
    80
 10
   -5.738236
 20
    2.789734
  0
VERTEX
  8
ST44
 62
    80
 10
   -5.608528
 20
    2.597993
  0
VERTEX
  8
ST44
 62
    80
 10
   -5.461203
 20
    2.405269
  0
VERTEX
  8
ST44
 62
    80
 10
   -5.293773
 20
    2.211241
  0
VERTEX
  8
ST44
 62
    80
 10
   -5.103410
 20
    2.015882
  0
VERTEX
  8
ST44
 62
    80
 10
   -4.886938
 20
    1.819449
  0
VERTEX
  8
ST44
 62
    80
 10
   -4.640841
 20
    1.622491
  0
VERTEX
  8
ST44
 62
    80
 10
   -4.361255
 20
    1.425839
  0
VERTEX
  8
ST44
 62
    80
 10
   -4.043975
 20
    1.230612
  0
VERTEX
  8
ST44
 62
    80
 10
   -3.684560
 20
    1.038246
  0
VERTEX
  8
ST44
 62
    80
 10
   -3.279605
 20
    0.850833
  0
VERTEX
  8
ST44
 62
    80
 10
   -2.827997
 20
    0.671464
  0
VERTEX
  8
ST44
 62
    80
 10
   -2.331033
 20
    0.504263
  0
VERTEX
  8
ST44
 62
    80
 10
   -1.792423
 20
    0.354393
  0
VERTEX
  8
ST44
 62
    80
 10
   -1.218286
 20
    0.228049
  0
VERTEX
  8
ST44
 62
    80
 10
   -0.617159
 20
    0.132461
  0
VERTEX
  8
ST44
 62
    80
 10
   -0.000000
 20
    0.075891
  0
SEQEND
  0
POLYLINE
  8
ST43
 62
    80
 66
     1
 10
    0.000000
 20
    0.000000
  0
VERTEX
  8
ST43
 62
    80
 10
   -6.612258
 20
    6.740090
  0
VERTEX
  8
ST43
 62
    80
 10
   -6.594210
 20
    6.356528
  0
VERTEX
  8
ST43
 62
    80
 10
   -6.573517
 20
    6.007499
  0
VERTEX
  8
ST43
 62
    80
 10
   -6.550094
 20
    5.688052
  0
VERTEX
  8
ST43
 62
    80
 10
   -6.523756
 20
    5.393755
  0
VERTEX
  8
ST43
 62
    80
 10
   -6.494230
 20
    5.120669
  0
VERTEX
  8
ST43
 62
    80
 10
   -6.472383
 20
    4.951997
  0
VERTEX
  8
ST43
 62
    80
 10
   -6.461093
 20
    4.865336
  0
VERTEX
  8
ST43
 62
    80
 10
   -6.423882
 20
    4.624757
  0
VERTEX
  8
ST43
 62
    80
 10
   -6.382207
 20
    4.396366
  0
VERTEX
  8
ST43
 62
    80
 10
   -6.335480
 20
    4.178013
  0
VERTEX
  8
ST43
 62
    80
 10
   -6.282989
 20
    3.967831
  0
VERTEX
  8
ST43
 62
    80
 10
   -6.223848
 20
    3.764110
  0
VERTEX
  8
ST43
 62
    80
 10
   -6.156992
 20
    3.565288
  0
VERTEX
  8
ST43
 62
    80
 10
   -6.081177
 20
    3.369952
  0
VERTEX
  8
ST43
 62
    80
 10
   -5.994981
 20
    3.176840
  0
VERTEX
  8
ST43
 62
    80
 10
   -5.896807
 20
    2.984840
  0
VERTEX
  8
ST43
 62
    80
 10
   -5.784881
 20
    2.792991
  0
VERTEX
  8
ST43
 62
    80
 10
   -5.657250
 20
    2.600490
  0
VERTEX
  8
ST43
 62
    80
 10
   -5.511698
 20
    2.406768
  0
VERTEX
  8
ST43
 62
    80
 10
   -5.345672
 20
    2.211563
  0
VERTEX
  8
ST43
 62
    80
 10
   -5.156270
 20
    2.014927
  0
VERTEX
  8
ST43
 62
    80
 10
   -4.940242
 20
    1.817225
  0
VERTEX
  8
ST43
 62
    80
 10
   -4.693992
 20
    1.619130
  0
VERTEX
  8
ST43
 62
    80
 10
   -4.413575
 20
    1.421629
  0
VERTEX
  8
ST43
 62
    80
 10
   -4.094700
 20
    1.226015
  0
VERTEX
  8
ST43
 62
    80
 10
   -3.732837
 20
    1.033915
  0
VERTEX
  8
ST43
 62
    80
 10
   -3.324491
 20
    0.847515
  0
VERTEX
  8
ST43
 62
    80
 10
   -2.868462
 20
    0.669797
  0
VERTEX
  8
ST43
 62
    80
 10
   -2.365963
 20
    0.504569
  0
VERTEX
  8
ST43
 62
    80
 10
   -1.820619
 20
    0.356459
  0
VERTEX
  8
ST43
 62
    80
 10
   -1.238470
 20
    0.230922
  0
VERTEX
  8
ST43
 62
    80
 10
   -0.627972
 20
    0.134231
  0
VERTEX
  8
ST43
 62
    80
 10
   -0.000000
 20
    0.073481
  0
SEQEND
  0
POLYLINE
  8
ST26
 62
    80
 66
     1
 10
    0.000000
 20
    0.000000
  0
VERTEX
  8
ST26
 62
    80
 10
   -6.612798
 20
    6.737655
  0
VERTEX
  8
ST26
 62
    80
 10
   -6.596667
 20
    6.348883
  0
VERTEX
  8
ST26
 62
    80
 10
   -6.577201
 20
    5.997404
  0
VERTEX
  8
ST26
 62
    80
 10
   -6.554581
 20
    5.677572
  0
VERTEX
  8
ST26
 62
    80
 10
   -6.528843
 20
    5.384352
  0
VERTEX
  8
ST26
 62
    80
 10
   -6.499886
 20
    5.113301
  0
VERTEX
  8
ST26
 62
    80
 10
   -6.467484
 20
    4.860544
  0
VERTEX
  8
ST26
 62
    80
 10
   -6.431289
 20
    4.622755
  0
VERTEX
  8
ST26
 62
    80
 10
   -6.390835
 20
    4.397143
  0
VERTEX
  8
ST26
 62
    80
 10
   -6.345537
 20
    4.181424
  0
VERTEX
  8
ST26
 62
    80
 10
   -6.294664
 20
    3.973654
  0
VERTEX
  8
ST26
 62
    80
 10
   -6.237304
 20
    3.772059
  0
VERTEX
  8
ST26
 62
    80
 10
   -6.172363
 20
    3.575029
  0
VERTEX
  8
ST26
 62
    80
 10
   -6.098567
 20
    3.381112
  0
VERTEX
  8
ST26
 62
    80
 10
   -6.014459
 20
    3.189020
  0
VERTEX
  8
ST26
 62
    80
 10
   -5.918400
 20
    2.997630
  0
VERTEX
  8
ST26
 62
    80
 10
   -5.808573
 20
    2.805980
  0
VERTEX
  8
ST26
 62
    80
 10
   -5.682973
 20
    2.613284
  0
VERTEX
  8
ST26
 62
    80
 10
   -5.539332
 20
    2.419004
  0
VERTEX
  8
ST26
 62
    80
 10
   -5.375036
 20
    2.222935
  0
VERTEX
  8
ST26
 62
    80
 10
   -5.187122
 20
    2.025205
  0
VERTEX
  8
ST26
 62
    80
 10
   -4.972276
 20
    1.826281
  0
VERTEX
  8
ST26
 62
    80
 10
   -4.726833
 20
    1.626960
  0
VERTEX
  8
ST26
 62
    80
 10
   -4.446780
 20
    1.428374
  0
VERTEX
  8
ST26
 62
    80
 10
   -4.127750
 20
    1.231986
  0
VERTEX
  8
ST26
 62
    80
 10
   -3.765139
 20
    1.039602
  0
VERTEX
  8
ST26
 62
    80
 10
   -3.355363
 20
    0.853502
  0
VERTEX
  8
ST26
 62
    80
 10
   -2.897110
 20
    0.676571
  0
VERTEX
  8
ST26
 62
    80
 10
   -2.391460
 20
    0.512317
  0
VERTEX
  8
ST26
 62
    80
 10
   -1.841876
 20
    0.364876
  0
VERTEX
  8
ST26
 62
    80
 10
   -1.254214
 20
    0.239004
  0
VERTEX
  8
ST26
 62
    80
 10
   -0.636712
 20
    0.140085
  0
VERTEX
  8
ST26
 62
    80
 10
   -0.000000
 20
    0.074119
  0
SEQEND
  0
POLYLINE
  8
ST9
 62
    80
 66
     1
 10
    0.000000
 20
    0.000000
  0
VERTEX
  8
ST9
 62
    80
 10
   -6.613337
 20
    6.735221
  0
VERTEX
  8
ST9
 62
    80
 10
   -6.599124
 20
    6.341238
  0
VERTEX
  8
ST9
 62
    80
 10
   -6.580886
 20
    5.987310
  0
VERTEX
  8
ST9
 62
    80
 10
   -6.559069
 20
    5.667092
  0
VERTEX
  8
ST9
 62
    80
 10
   -6.533929
 20
    5.374949
  0
VERTEX
  8
ST9
 62
    80
 10
   -6.505542
 20
    5.105933
  0
VERTEX
  8
ST9
 62
    80
 10
   -6.473811
 20
    4.855754
  0
VERTEX
  8
ST9
 62
    80
 10
   -6.438474
 20
    4.620770
  0
VERTEX
  8
ST9
 62
    80
 10
   -6.399104
 20
    4.397963
  0
VERTEX
  8
ST9
 62
    80
 10
   -6.355117
 20
    4.184915
  0
VERTEX
  8
ST9
 62
    80
 10
   -6.305753
 20
    3.979602
  0
VERTEX
  8
ST9
 62
    80
 10
   -6.250070
 20
    3.780186
  0
VERTEX
  8
ST9
 62
    80
 10
   -6.186942
 20
    3.585006
  0
VERTEX
  8
ST9
 62
    80
 10
   -6.115057
 20
    3.392574
  0
VERTEX
  8
ST9
 62
    80
 10
   -6.032920
 20
    3.201575
  0
VERTEX
  8
ST9
 62
    80
 10
   -5.938851
 20
    3.010874
  0
VERTEX
  8
ST9
 62
    80
 10
   -5.830987
 20
    2.819511
  0
VERTEX
  8
ST9
 62
    80
 10
   -5.707276
 20
    2.626714
  0
VERTEX
  8
ST9
 62
    80
 10
   -5.565400
 20
    2.431975
  0
VERTEX
  8
ST9
 62
    80
 10
   -5.402693
 20
    2.235143
  0
VERTEX
  8
ST9
 62
    80
 10
   -5.216138
 20
    2.036420
  0
VERTEX
  8
ST9
 62
    80
 10
   -5.002365
 20
    1.836368
  0
VERTEX
  8
ST9
 62
    80
 10
   -4.757652
 20
    1.635905
  0
VERTEX
  8
ST9
 62
    80
 10
   -4.477924
 20
    1.436300
  0
VERTEX
  8
ST9
 62
    80
 10
   -4.158753
 20
    1.239179
  0
VERTEX
  8
ST9
 62
    80
 10
   -3.795472
 20
    1.046523
  0
VERTEX
  8
ST9
 62
    80
 10
   -3.384413
 20
    0.860698
  0
VERTEX
  8
ST9
 62
    80
 10
   -2.924154
 20
    0.684490
  0
VERTEX
  8
ST9
 62
    80
 10
   -2.415630
 20
    0.521113
  0
VERTEX
  8
ST9
 62
    80
 10
   -1.862131
 20
    0.374210
  0
VERTEX
  8
ST9
 62
    80
 10
   -1.269302
 20
    0.247855
  0
VERTEX
  8
ST9
 62
    80
 10
   -0.645141
 20
    0.146550
  0
VERTEX
  8
ST9
 62
    80
 10
   -0.000000
 20
    0.075217
  0
SEQEND
  0
POLYLINE
  8
ST8
 62
    80
 66
     1
 10
    0.000000
 20
    0.000000
  0
VERTEX
  8
ST8
 62
    80
 10
   -6.609347
 20
    6.733701
  0
VERTEX
  8
ST8
 62
    80
 10
   -6.597069
 20
    6.334104
  0
VERTEX
  8
ST8
 62
    80
 10
   -6.580085
 20
    5.977507
  0
VERTEX
  8
ST8
 62
    80
 10
   -6.559089
 20
    5.656826
  0
VERTEX
  8
ST8
 62
    80
 10
   -6.534542
 20
    5.365789
  0
VERTEX
  8
ST8
 62
    80
 10
   -6.506689
 20
    5.098911
  0
VERTEX
  8
ST8
 62
    80
 10
   -6.475557
 20
    4.851471
  0
VERTEX
  8
ST8
 62
    80
 10
   -6.440970
 20
    4.619492
  0
VERTEX
  8
ST8
 62
    80
 10
   -6.402548
 20
    4.399719
  0
VERTEX
  8
ST8
 62
    80
 10
   -6.359708
 20
    4.189591
  0
VERTEX
  8
ST8
 62
    80
 10
   -6.311676
 20
    3.986993
  0
VERTEX
  8
ST8
 62
    80
 10
   -6.257491
 20
    3.790017
  0
VERTEX
  8
ST8
 62
    80
 10
   -6.196002
 20
    3.596941
  0
VERTEX
  8
ST8
 62
    80
 10
   -6.125873
 20
    3.406233
  0
VERTEX
  8
ST8
 62
    80
 10
   -6.045580
 20
    3.216549
  0
VERTEX
  8
ST8
 62
    80
 10
   -5.953411
 20
    3.026733
  0
VERTEX
  8
ST8
 62
    80
 10
   -5.847467
 20
    2.835825
  0
VERTEX
  8
ST8
 62
    80
 10
   -5.725655
 20
    2.643062
  0
VERTEX
  8
ST8
 62
    80
 10
   -5.585611
 20
    2.447968
  0
VERTEX
  8
ST8
 62
    80
 10
   -5.424622
 20
    2.250440
  0
VERTEX
  8
ST8
 62
    80
 10
   -5.239616
 20
    2.050758
  0
VERTEX
  8
ST8
 62
    80
 10
   -5.027169
 20
    1.849578
  0
VERTEX
  8
ST8
 62
    80
 10
   -4.783498
 20
    1.647935
  0
VERTEX
  8
ST8
 62
    80
 10
   -4.504467
 20
    1.447241
  0
VERTEX
  8
ST8
 62
    80
 10
   -4.185581
 20
    1.249283
  0
VERTEX
  8
ST8
 62
    80
 10
   -3.822105
 20
    1.056219
  0
VERTEX
  8
ST8
 62
    80
 10
   -3.410284
 20
    0.870507
  0
VERTEX
  8
ST8
 62
    80
 10
   -2.948572
 20
    0.694842
  0
VERTEX
  8
ST8
 62
    80
 10
   -2.437745
 20
    0.532157
  0
VERTEX
  8
ST8
 62
    80
 10
   -1.880901
 20
    0.385620
  0
VERTEX
  8
ST8
 62
    80
 10
   -1.283455
 20
    0.258642
  0
VERTEX
  8
ST8
 62
    80
 10
   -0.653140
 20
    0.154866
  0
VERTEX
  8
ST8
 62
    80
 10
   -0.000000
 20
    0.078166
  0
SEQEND
  0
POLYLINE
  8
ST7
 62
    80
 66
     1
 10
    0.000000
 20
    0.000000
  0
VERTEX
  8
ST7
 62
    80
 10
   -6.599226
 20
    6.733417
  0
VERTEX
  8
ST7
 62
    80
 10
   -6.588252
 20
    6.327733
  0
VERTEX
  8
ST7
 62
    80
 10
   -6.571908
 20
    5.968186
  0
VERTEX
  8
ST7
 62
    80
 10
   -6.551120
 20
    5.646945
  0
VERTEX
  8
ST7
 62
    80
 10
   -6.526547
 20
    5.357093
  0
VERTEX
  8
ST7
 62
    80
 10
   -6.498592
 20
    5.092597
  0
VERTEX
  8
ST7
 62
    80
 10
   -6.467404
 20
    4.848282
  0
VERTEX
  8
ST7
 62
    80
 10
   -6.432890
 20
    4.619810
  0
VERTEX
  8
ST7
 62
    80
 10
   -6.394713
 20
    4.403665
  0
VERTEX
  8
ST7
 62
    80
 10
   -6.352302
 20
    4.197118
  0
VERTEX
  8
ST7
 62
    80
 10
   -6.304870
 20
    3.997942
  0
VERTEX
  8
ST7
 62
    80
 10
   -6.251443
 20
    3.804139
  0
VERTEX
  8
ST7
 62
    80
 10
   -6.190857
 20
    3.613914
  0
VERTEX
  8
ST7
 62
    80
 10
   -6.121761
 20
    3.425676
  0
VERTEX
  8
ST7
 62
    80
 10
   -6.042616
 20
    3.238038
  0
VERTEX
  8
ST7
 62
    80
 10
   -5.951692
 20
    3.049820
  0
VERTEX
  8
ST7
 62
    80
 10
   -5.847074
 20
    2.860051
  0
VERTEX
  8
ST7
 62
    80
 10
   -5.726651
 20
    2.667972
  0
VERTEX
  8
ST7
 62
    80
 10
   -5.588038
 20
    2.473132
  0
VERTEX
  8
ST7
 62
    80
 10
   -5.428502
 20
    2.275472
  0
VERTEX
  8
ST7
 62
    80
 10
   -5.244948
 20
    2.075330
  0
VERTEX
  8
ST7
 62
    80
 10
   -5.033926
 20
    1.873447
  0
VERTEX
  8
ST7
 62
    80
 10
   -4.791629
 20
    1.670958
  0
VERTEX
  8
ST7
 62
    80
 10
   -4.513891
 20
    1.469397
  0
VERTEX
  8
ST7
 62
    80
 10
   -4.196189
 20
    1.270694
  0
VERTEX
  8
ST7
 62
    80
 10
   -3.833754
 20
    1.077157
  0
VERTEX
  8
ST7
 62
    80
 10
   -3.422759
 20
    0.891326
  0
VERTEX
  8
ST7
 62
    80
 10
   -2.961519
 20
    0.715820
  0
VERTEX
  8
ST7
 62
    80
 10
   -2.450597
 20
    0.553331
  0
VERTEX
  8
ST7
 62
    80
 10
   -1.892806
 20
    0.406625
  0
VERTEX
  8
ST7
 62
    80
 10
   -1.293203
 20
    0.278541
  0
VERTEX
  8
ST7
 62
    80
 10
   -0.659089
 20
    0.171990
  0
VERTEX
  8
ST7
 62
    80
 10
   -0.000000
 20
    0.089942
  0
SEQEND
  0
POLYLINE
  8
ST12
 62
    80
 66
     1
 10
    0.000000
 20
    0.000000
  0
VERTEX
  8
ST12
 62
    80
 10
   -6.589105
 20
    6.733133
  0
VERTEX
  8
ST12
 62
    80
 10
   -6.579435
 20
    6.321362
  0
VERTEX
  8
ST12
 62
    80
 10
   -6.563730
 20
    5.958865
  0
VERTEX
  8
ST12
 62
    80
 10
   -6.543151
 20
    5.637064
  0
VERTEX
  8
ST12
 62
    80
 10
   -6.518552
 20
    5.348398
  0
VERTEX
  8
ST12
 62
    80
 10
   -6.490495
 20
    5.086284
  0
VERTEX
  8
ST12
 62
    80
 10
   -6.459251
 20
    4.845093
  0
VERTEX
  8
ST12
 62
    80
 10
   -6.424809
 20
    4.620128
  0
VERTEX
  8
ST12
 62
    80
 10
   -6.386878
 20
    4.407611
  0
VERTEX
  8
ST12
 62
    80
 10
   -6.344895
 20
    4.204644
  0
VERTEX
  8
ST12
 62
    80
 10
   -6.298064
 20
    4.008891
  0
VERTEX
  8
ST12
 62
    80
 10
   -6.245395
 20
    3.818262
  0
VERTEX
  8
ST12
 62
    80
 10
   -6.185713
 20
    3.630887
  0
VERTEX
  8
ST12
 62
    80
 10
   -6.117650
 20
    3.445118
  0
VERTEX
  8
ST12
 62
    80
 10
   -6.039652
 20
    3.259527
  0
VERTEX
  8
ST12
 62
    80
 10
   -5.949973
 20
    3.072907
  0
VERTEX
  8
ST12
 62
    80
 10
   -5.846681
 20
    2.884276
  0
VERTEX
  8
ST12
 62
    80
 10
   -5.727647
 20
    2.692882
  0
VERTEX
  8
ST12
 62
    80
 10
   -5.590466
 20
    2.498297
  0
VERTEX
  8
ST12
 62
    80
 10
   -5.432382
 20
    2.300503
  0
VERTEX
  8
ST12
 62
    80
 10
   -5.250280
 20
    2.099902
  0
VERTEX
  8
ST12
 62
    80
 10
   -5.040684
 20
    1.897315
  0
VERTEX
  8
ST12
 62
    80
 10
   -4.799760
 20
    1.693981
  0
VERTEX
  8
ST12
 62
    80
 10
   -4.523315
 20
    1.491554
  0
VERTEX
  8
ST12
 62
    80
 10
   -4.206797
 20
    1.292104
  0
VERTEX
  8
ST12
 62
    80
 10
   -3.845402
 20
    1.098094
  0
VERTEX
  8
ST12
 62
    80
 10
   -3.435234
 20
    0.912144
  0
VERTEX
  8
ST12
 62
    80
 10
   -2.974466
 20
    0.736798
  0
VERTEX
  8
ST12
 62
    80
 10
   -2.463449
 20
    0.574506
  0
VERTEX
  8
ST12
 62
    80
 10
   -1.904711
 20
    0.427630
  0
VERTEX
  8
ST12
 62
    80
 10
   -1.302951
 20
    0.298441
  0
VERTEX
  8
ST12
 62
    80
 10
   -0.665039
 20
    0.189114
  0
VERTEX
  8
ST12
 62
    80
 10
   -0.000000
 20
    0.101718
  0
SEQEND
  0
POLYLINE
  8
ST11
 62
    80
 66
     1
 10
    0.000000
 20
    0.000000
  0
VERTEX
  8
ST11
 62
    80
 10
   -6.572264
 20
    6.733460
  0
VERTEX
  8
ST11
 62
    80
 10
   -6.563580
 20
    6.315339
  0
VERTEX
  8
ST11
 62
    80
 10
   -6.548189
 20
    5.949967
  0
VERTEX
  8
ST11
 62
    80
 10
   -6.527484
 20
    5.627904
  0
VERTEX
  8
ST11
 62
    80
 10
   -6.502516
 20
    5.340852
  0
VERTEX
  8
ST11
 62
    80
 10
   -6.474001
 20
    5.081612
  0
VERTEX
  8
ST11
 62
    80
 10
   -6.442329
 20
    4.844055
  0
VERTEX
  8
ST11
 62
    80
 10
   -6.407569
 20
    4.623098
  0
VERTEX
  8
ST11
 62
    80
 10
   -6.369471
 20
    4.414691
  0
VERTEX
  8
ST11
 62
    80
 10
   -6.327474
 20
    4.215771
  0
VERTEX
  8
ST11
 62
    80
 10
   -6.280768
 20
    4.023903
  0
VERTEX
  8
ST11
 62
    80
 10
   -6.228353
 20
    3.836916
  0
VERTEX
  8
ST11
 62
    80
 10
   -6.169043
 20
    3.652871
  0
VERTEX
  8
ST11
 62
    80
 10
   -6.101470
 20
    3.470064
  0
VERTEX
  8
ST11
 62
    80
 10
   -6.024079
 20
    3.287024
  0
VERTEX
  8
ST11
 62
    80
 10
   -5.935130
 20
    3.102515
  0
VERTEX
  8
ST11
 62
    80
 10
   -5.832696
 20
    2.915540
  0
VERTEX
  8
ST11
 62
    80
 10
   -5.714659
 20
    2.725344
  0
VERTEX
  8
ST11
 62
    80
 10
   -5.578624
 20
    2.531512
  0
VERTEX
  8
ST11
 62
    80
 10
   -5.421841
 20
    2.334058
  0
VERTEX
  8
ST11
 62
    80
 10
   -5.241195
 20
    2.133435
  0
VERTEX
  8
ST11
 62
    80
 10
   -5.033208
 20
    1.930532
  0
VERTEX
  8
ST11
 62
    80
 10
   -4.794040
 20
    1.726676
  0
VERTEX
  8
ST11
 62
    80
 10
   -4.519487
 20
    1.523632
  0
VERTEX
  8
ST11
 62
    80
 10
   -4.204982
 20
    1.323595
  0
VERTEX
  8
ST11
 62
    80
 10
   -3.845700
 20
    1.129172
  0
VERTEX
  8
ST11
 62
    80
 10
   -3.437673
 20
    0.943063
  0
VERTEX
  8
ST11
 62
    80
 10
   -2.978909
 20
    0.767767
  0
VERTEX
  8
ST11
 62
    80
 10
   -2.469498
 20
    0.605547
  0
VERTEX
  8
ST11
 62
    80
 10
   -1.911613
 20
    0.458441
  0
VERTEX
  8
ST11
 62
    80
 10
   -1.309508
 20
    0.328255
  0
VERTEX
  8
ST11
 62
    80
 10
   -0.669509
 20
    0.216562
  0
VERTEX
  8
ST11
 62
    80
 10
   -0.000000
 20
    0.124688
  0
SEQEND
  0
POLYLINE
  8
ST10
 62
    80
 66
     1
 10
    0.000000
 20
    0.000000
  0
VERTEX
  8
ST10
 62
    80
 10
   -6.553757
 20
    6.733939
  0
VERTEX
  8
ST10
 62
    80
 10
   -6.545707
 20
    6.309416
  0
VERTEX
  8
ST10
 62
    80
 10
   -6.530274
 20
    5.941206
  0
VERTEX
  8
ST10
 62
    80
 10
   -6.509092
 20
    5.618999
  0
VERTEX
  8
ST10
 62
    80
 10
   -6.483407
 20
    5.333744
  0
VERTEX
  8
ST10
 62
    80
 10
   -6.454097
 20
    5.077606
  0
VERTEX
  8
ST10
 62
    80
 10
   -6.421668
 20
    4.843934
  0
VERTEX
  8
ST10
 62
    80
 10
   -6.386267
 20
    4.627245
  0
VERTEX
  8
ST10
 62
    80
 10
   -6.347682
 20
    4.423205
  0
VERTEX
  8
ST10
 62
    80
 10
   -6.305348
 20
    4.228590
  0
VERTEX
  8
ST10
 62
    80
 10
   -6.258434
 20
    4.040868
  0
VERTEX
  8
ST10
 62
    80
 10
   -6.205924
 20
    3.857791
  0
VERTEX
  8
ST10
 62
    80
 10
   -6.146624
 20
    3.677355
  0
VERTEX
  8
ST10
 62
    80
 10
   -6.079162
 20
    3.497804
  0
VERTEX
  8
ST10
 62
    80
 10
   -6.001986
 20
    3.317627
  0
VERTEX
  8
ST10
 62
    80
 10
   -5.913366
 20
    3.135562
  0
VERTEX
  8
ST10
 62
    80
 10
   -5.811395
 20
    2.950593
  0
VERTEX
  8
ST10
 62
    80
 10
   -5.693976
 20
    2.761962
  0
VERTEX
  8
ST10
 62
    80
 10
   -5.558741
 20
    2.569265
  0
VERTEX
  8
ST10
 62
    80
 10
   -5.402963
 20
    2.372541
  0
VERTEX
  8
ST10
 62
    80
 10
   -5.223551
 20
    2.172288
  0
VERTEX
  8
ST10
 62
    80
 10
   -5.017044
 20
    1.969455
  0
VERTEX
  8
ST10
 62
    80
 10
   -4.779622
 20
    1.765447
  0
VERTEX
  8
ST10
 62
    80
 10
   -4.507093
 20
    1.562122
  0
VERTEX
  8
ST10
 62
    80
 10
   -4.194907
 20
    1.361789
  0
VERTEX
  8
ST10
 62
    80
 10
   -3.838242
 20
    1.167178
  0
VERTEX
  8
ST10
 62
    80
 10
   -3.433076
 20
    0.981062
  0
VERTEX
  8
ST10
 62
    80
 10
   -2.977251
 20
    0.805901
  0
VERTEX
  8
ST10
 62
    80
 10
   -2.470571
 20
    0.643804
  0
VERTEX
  8
ST10
 62
    80
 10
   -1.914802
 20
    0.496533
  0
VERTEX
  8
ST10
 62
    80
 10
   -1.313675
 20
    0.365500
  0
VERTEX
  8
ST10
 62
    80
 10
   -0.672868
 20
    0.251767
  0
VERTEX
  8
ST10
 62
    80
 10
   -0.000000
 20
    0.156025
  0
SEQEND
  0
POLYLINE
  8
ST3
 62
    80
 66
     1
 10
    0.000000
 20
    0.000000
  0
VERTEX
  8
ST3
 62
    80
 10
   -6.533445
 20
    6.734369
  0
VERTEX
  8
ST3
 62
    80
 10
   -6.525965
 20
    6.303460
  0
VERTEX
  8
ST3
 62
    80
 10
   -6.510419
 20
    5.932531
  0
VERTEX
  8
ST3
 62
    80
 10
   -6.488681
 20
    5.610347
  0
VERTEX
  8
ST3
 62
    80
 10
   -6.462203
 20
    5.327069
  0
VERTEX
  8
ST3
 62
    80
 10
   -6.432018
 20
    5.074204
  0
VERTEX
  8
ST3
 62
    80
 10
   -6.398753
 20
    4.844569
  0
VERTEX
  8
ST3
 62
    80
 10
   -6.362633
 20
    4.632273
  0
VERTEX
  8
ST3
 62
    80
 10
   -6.323477
 20
    4.432706
  0
VERTEX
  8
ST3
 62
    80
 10
   -6.280716
 20
    4.242485
  0
VERTEX
  8
ST3
 62
    80
 10
   -6.233493
 20
    4.058995
  0
VERTEX
  8
ST3
 62
    80
 10
   -6.180775
 20
    3.879915
  0
VERTEX
  8
ST3
 62
    80
 10
   -6.121358
 20
    3.703183
  0
VERTEX
  8
ST3
 62
    80
 10
   -6.053870
 20
    3.526994
  0
VERTEX
  8
ST3
 62
    80
 10
   -5.976768
 20
    3.349799
  0
VERTEX
  8
ST3
 62
    80
 10
   -5.888339
 20
    3.170307
  0
VERTEX
  8
ST3
 62
    80
 10
   -5.786701
 20
    2.987485
  0
VERTEX
  8
ST3
 62
    80
 10
   -5.669792
 20
    2.800568
  0
VERTEX
  8
ST3
 62
    80
 10
   -5.535280
 20
    2.609156
  0
VERTEX
  8
ST3
 62
    80
 10
   -5.380473
 20
    2.413309
  0
VERTEX
  8
ST3
 62
    80
 10
   -5.202308
 20
    2.213562
  0
VERTEX
  8
ST3
 62
    80
 10
   -4.997351
 20
    2.010918
  0
VERTEX
  8
ST3
 62
    80
 10
   -4.761801
 20
    1.806856
  0
VERTEX
  8
ST3
 62
    80
 10
   -4.491483
 20
    1.603321
  0
VERTEX
  8
ST3
 62
    80
 10
   -4.181858
 20
    1.402734
  0
VERTEX
  8
ST3
 62
    80
 10
   -3.828107
 20
    1.207944
  0
VERTEX
  8
ST3
 62
    80
 10
   -3.426146
 20
    1.021805
  0
VERTEX
  8
ST3
 62
    80
 10
   -2.973638
 20
    0.846752
  0
VERTEX
  8
ST3
 62
    80
 10
   -2.470088
 20
    0.684758
  0
VERTEX
  8
ST3
 62
    80
 10
   -1.916843
 20
    0.537339
  0
VERTEX
  8
ST3
 62
    80
 10
   -1.317096
 20
    0.405553
  0
VERTEX
  8
ST3
 62
    80
 10
   -0.675870
 20
    0.289996
  0
VERTEX
  8
ST3
 62
    80
 10
   -0.000000
 20
    0.190793
  0
SEQEND
  0
POLYLINE
  8
ST2
 62
    80
 66
     1
 10
    0.000000
 20
    0.000000
  0
VERTEX
  8
ST2
 62
    80
 10
   -6.508401
 20
    6.734671
  0
VERTEX
  8
ST2
 62
    80
 10
   -6.500782
 20
    6.297411
  0
VERTEX
  8
ST2
 62
    80
 10
   -6.484384
 20
    5.924132
  0
VERTEX
  8
ST2
 62
    80
 10
   -6.461350
 20
    5.602563
  0
VERTEX
  8
ST2
 62
    80
 10
   -6.433350
 20
    5.321972
  0
VERTEX
  8
ST2
 62
    80
 10
   -6.401591
 20
    5.073118
  0
VERTEX
  8
ST2
 62
    80
 10
   -6.366826
 20
    4.848222
  0
VERTEX
  8
ST2
 62
    80
 10
   -6.329349
 20
    4.640949
  0
VERTEX
  8
ST2
 62
    80
 10
   -6.289004
 20
    4.446401
  0
VERTEX
  8
ST2
 62
    80
 10
   -6.245194
 20
    4.261062
  0
VERTEX
  8
ST2
 62
    80
 10
   -6.197019
 20
    4.082263
  0
VERTEX
  8
ST2
 62
    80
 10
   -6.143411
 20
    3.907648
  0
VERTEX
  8
ST2
 62
    80
 10
   -6.083152
 20
    3.735120
  0
VERTEX
  8
ST2
 62
    80
 10
   -6.014870
 20
    3.562846
  0
VERTEX
  8
ST2
 62
    80
 10
   -5.937038
 20
    3.389254
  0
VERTEX
  8
ST2
 62
    80
 10
   -5.847978
 20
    3.213032
  0
VERTEX
  8
ST2
 62
    80
 10
   -5.745858
 20
    3.033135
  0
VERTEX
  8
ST2
 62
    80
 10
   -5.628682
 20
    2.848787
  0
VERTEX
  8
ST2
 62
    80
 10
   -5.494193
 20
    2.659583
  0
VERTEX
  8
ST2
 62
    80
 10
   -5.339774
 20
    2.465593
  0
VERTEX
  8
ST2
 62
    80
 10
   -5.162433
 20
    2.267371
  0
VERTEX
  8
ST2
 62
    80
 10
   -4.958808
 20
    2.065952
  0
VERTEX
  8
ST2
 62
    80
 10
   -4.725164
 20
    1.862857
  0
VERTEX
  8
ST2
 62
    80
 10
   -4.457395
 20
    1.660087
  0
VERTEX
  8
ST2
 62
    80
 10
   -4.151024
 20
    1.460130
  0
VERTEX
  8
ST2
 62
    80
 10
   -3.801290
 20
    1.265912
  0
VERTEX
  8
ST2
 62
    80
 10
   -3.404083
 20
    1.080341
  0
VERTEX
  8
ST2
 62
    80
 10
   -2.956882
 20
    0.905852
  0
VERTEX
  8
ST2
 62
    80
 10
   -2.458843
 20
    0.744361
  0
VERTEX
  8
ST2
 62
    80
 10
   -1.910798
 20
    0.597269
  0
VERTEX
  8
ST2
 62
    80
 10
   -1.315257
 20
    0.465458
  0
VERTEX
  8
ST2
 62
    80
 10
   -0.676388
 20
    0.349290
  0
VERTEX
  8
ST2
 62
    80
 10
   -0.000000
 20
    0.248599
  0
SEQEND
  0
POLYLINE
  8
ST1
 62
    80
 66
     1
 10
    0.000000
 20
    0.000000
  0
VERTEX
  8
ST1
 62
    80
 10
   -6.483357
 20
    6.734972
  0
VERTEX
  8
ST1
 62
    80
 10
   -6.475600
 20
    6.291361
  0
VERTEX
  8
ST1
 62
    80
 10
   -6.458350
 20
    5.915732
  0
VERTEX
  8
ST1
 62
    80
 10
   -6.434018
 20
    5.594779
  0
VERTEX
  8
ST1
 62
    80
 10
   -6.404496
 20
    5.316874
  0
VERTEX
  8
ST1
 62
    80
 10
   -6.371165
 20
    5.072032
  0
VERTEX
  8
ST1
 62
    80
 10
   -6.334898
 20
    4.851875
  0
VERTEX
  8
ST1
 62
    80
 10
   -6.296065
 20
    4.649626
  0
VERTEX
  8
ST1
 62
    80
 10
   -6.254531
 20
    4.460096
  0
VERTEX
  8
ST1
 62
    80
 10
   -6.209673
 20
    4.279638
  0
VERTEX
  8
ST1
 62
    80
 10
   -6.160544
 20
    4.105532
  0
VERTEX
  8
ST1
 62
    80
 10
   -6.106047
 20
    3.935381
  0
VERTEX
  8
ST1
 62
    80
 10
   -6.044946
 20
    3.767057
  0
VERTEX
  8
ST1
 62
    80
 10
   -5.975869
 20
    3.598698
  0
VERTEX
  8
ST1
 62
    80
 10
   -5.897308
 20
    3.428708
  0
VERTEX
  8
ST1
 62
    80
 10
   -5.807617
 20
    3.255758
  0
VERTEX
  8
ST1
 62
    80
 10
   -5.705014
 20
    3.078786
  0
VERTEX
  8
ST1
 62
    80
 10
   -5.587571
 20
    2.897005
  0
VERTEX
  8
ST1
 62
    80
 10
   -5.453106
 20
    2.710010
  0
VERTEX
  8
ST1
 62
    80
 10
   -5.299075
 20
    2.517878
  0
VERTEX
  8
ST1
 62
    80
 10
   -5.122558
 20
    2.321181
  0
VERTEX
  8
ST1
 62
    80
 10
   -4.920265
 20
    2.120986
  0
VERTEX
  8
ST1
 62
    80
 10
   -4.688528
 20
    1.918857
  0
VERTEX
  8
ST1
 62
    80
 10
   -4.423307
 20
    1.716853
  0
VERTEX
  8
ST1
 62
    80
 10
   -4.120191
 20
    1.517525
  0
VERTEX
  8
ST1
 62
    80
 10
   -3.774474
 20
    1.323879
  0
VERTEX
  8
ST1
 62
    80
 10
   -3.382021
 20
    1.138877
  0
VERTEX
  8
ST1
 62
    80
 10
   -2.940126
 20
    0.964953
  0
VERTEX
  8
ST1
 62
    80
 10
   -2.447597
 20
    0.803965
  0
VERTEX
  8
ST1
 62
    80
 10
   -1.904753
 20
    0.657198
  0
VERTEX
  8
ST1
 62
    80
 10
   -1.313417
 20
    0.525362
  0
VERTEX
  8
ST1
 62
    80
 10
   -0.676906
 20
    0.408584
  0
VERTEX
  8
ST1
 62
    80
 10
   -0.000000
 20
    0.306405
  0
SEQEND
  0
POLYLINE
  8
ST6
 62
    80
 66
     1
 10
    0.000000
 20
    0.000000
  0
VERTEX
  8
ST6
 62
    80
 10
   -6.453467
 20
    6.734796
  0
VERTEX
  8
ST6
 62
    80
 10
   -6.444805
 20
    6.284979
  0
VERTEX
  8
ST6
 62
    80
 10
   -6.425874
 20
    5.907480
  0
VERTEX
  8
ST6
 62
    80
 10
   -6.399395
 20
    5.587813
  0
VERTEX
  8
ST6
 62
    80
 10
   -6.367510
 20
    5.313345
  0
VERTEX
  8
ST6
 62
    80
 10
   -6.331795
 20
    5.073254
  0
VERTEX
  8
ST6
 62
    80
 10
   -6.293261
 20
    4.858509
  0
VERTEX
  8
ST6
 62
    80
 10
   -6.252354
 20
    4.661860
  0
VERTEX
  8
ST6
 62
    80
 10
   -6.208951
 20
    4.477834
  0
VERTEX
  8
ST6
 62
    80
 10
   -6.162384
 20
    4.302680
  0
VERTEX
  8
ST6
 62
    80
 10
   -6.111640
 20
    4.133672
  0
VERTEX
  8
ST6
 62
    80
 10
   -6.055572
 20
    3.968416
  0
VERTEX
  8
ST6
 62
    80
 10
   -5.992920
 20
    3.804784
  0
VERTEX
  8
ST6
 62
    80
 10
   -5.922311
 20
    3.640913
  0
VERTEX
  8
ST6
 62
    80
 10
   -5.842257
 20
    3.475207
  0
VERTEX
  8
ST6
 62
    80
 10
   -5.751161
 20
    3.306333
  0
VERTEX
  8
ST6
 62
    80
 10
   -5.647312
 20
    3.133223
  0
VERTEX
  8
ST6
 62
    80
 10
   -5.528879
 20
    2.955081
  0
VERTEX
  8
ST6
 62
    80
 10
   -5.393791
 20
    2.771491
  0
VERTEX
  8
ST6
 62
    80
 10
   -5.239614
 20
    2.582520
  0
VERTEX
  8
ST6
 62
    80
 10
   -5.063545
 20
    2.388732
  0
VERTEX
  8
ST6
 62
    80
 10
   -4.862404
 20
    2.191188
  0
VERTEX
  8
ST6
 62
    80
 10
   -4.632637
 20
    1.991447
  0
VERTEX
  8
ST6
 62
    80
 10
   -4.370317
 20
    1.791567
  0
VERTEX
  8
ST6
 62
    80
 10
   -4.071143
 20
    1.594109
  0
VERTEX
  8
ST6
 62
    80
 10
   -3.730514
 20
    1.402086
  0
VERTEX
  8
ST6
 62
    80
 10
   -3.344300
 20
    1.218482
  0
VERTEX
  8
ST6
 62
    80
 10
   -2.909617
 20
    1.045757
  0
VERTEX
  8
ST6
 62
    80
 10
   -2.424896
 20
    0.885804
  0
VERTEX
  8
ST6
 62
    80
 10
   -1.889881
 20
    0.739950
  0
VERTEX
  8
ST6
 62
    80
 10
   -1.305624
 20
    0.608955
  0
VERTEX
  8
ST6
 62
    80
 10
   -0.674465
 20
    0.493010
  0
VERTEX
  8
ST6
 62
    80
 10
   -0.000000
 20
    0.391744
  0
SEQEND
  0
POLYLINE
  8
ST5
 62
    80
 66
     1
 10
    0.000000
 20
    0.000000
  0
VERTEX
  8
ST5
 62
    80
 10
   -6.423097
 20
    6.734572
  0
VERTEX
  8
ST5
 62
    80
 10
   -6.413364
 20
    6.278559
  0
VERTEX
  8
ST5
 62
    80
 10
   -6.392584
 20
    5.899247
  0
VERTEX
  8
ST5
 62
    80
 10
   -6.363789
 20
    5.580958
  0
VERTEX
  8
ST5
 62
    80
 10
   -6.329382
 20
    5.310036
  0
VERTEX
  8
ST5
 62
    80
 10
   -6.291140
 20
    5.074808
  0
VERTEX
  8
ST5
 62
    80
 10
   -6.250210
 20
    4.865578
  0
VERTEX
  8
ST5
 62
    80
 10
   -6.207114
 20
    4.674615
  0
VERTEX
  8
ST5
 62
    80
 10
   -6.161744
 20
    4.496164
  0
VERTEX
  8
ST5
 62
    80
 10
   -6.113381
 20
    4.326372
  0
VERTEX
  8
ST5
 62
    80
 10
   -6.060945
 20
    4.162515
  0
VERTEX
  8
ST5
 62
    80
 10
   -6.003237
 20
    4.002203
  0
VERTEX
  8
ST5
 62
    80
 10
   -5.938973
 20
    3.843315
  0
VERTEX
  8
ST5
 62
    80
 10
   -5.866775
 20
    3.683992
  0
VERTEX
  8
ST5
 62
    80
 10
   -5.785178
 20
    3.522638
  0
VERTEX
  8
ST5
 62
    80
 10
   -5.692630
 20
    3.357920
  0
VERTEX
  8
ST5
 62
    80
 10
   -5.587491
 20
    3.188764
  0
VERTEX
  8
ST5
 62
    80
 10
   -5.468025
 20
    3.014369
  0
VERTEX
  8
ST5
 62
    80
 10
   -5.332271
 20
    2.834309
  0
VERTEX
  8
ST5
 62
    80
 10
   -5.177908
 20
    2.648642
  0
VERTEX
  8
ST5
 62
    80
 10
   -5.002246
 20
    2.457925
  0
VERTEX
  8
ST5
 62
    80
 10
   -4.802225
 20
    2.263210
  0
VERTEX
  8
ST5
 62
    80
 10
   -4.574409
 20
    2.066050
  0
VERTEX
  8
ST5
 62
    80
 10
   -4.314994
 20
    1.868498
  0
VERTEX
  8
ST5
 62
    80
 10
   -4.019803
 20
    1.673107
  0
VERTEX
  8
ST5
 62
    80
 10
   -3.684354
 20
    1.482890
  0
VERTEX
  8
ST5
 62
    80
 10
   -3.304539
 20
    1.300833
  0
VERTEX
  8
ST5
 62
    80
 10
   -2.877299
 20
    1.129417
  0
VERTEX
  8
ST5
 62
    80
 10
   -2.400687
 20
    0.970569
  0
VERTEX
  8
ST5
 62
    80
 10
   -1.873864
 20
    0.825665
  0
VERTEX
  8
ST5
 62
    80
 10
   -1.297082
 20
    0.695528
  0
VERTEX
  8
ST5
 62
    80
 10
   -0.671671
 20
    0.580432
  0
VERTEX
  8
ST5
 62
    80
 10
   -0.000000
 20
    0.480100
  0
SEQEND
  0
POLYLINE
  8
ST4
 62
    80
 66
     1
 10
    0.000000
 20
    0.000000
  0
VERTEX
  8
ST4
 62
    80
 10
   -6.388768
 20
    6.734045
  0
VERTEX
  8
ST4
 62
    80
 10
   -6.377013
 20
    6.271810
  0
VERTEX
  8
ST4
 62
    80
 10
   -6.353367
 20
    5.890900
  0
VERTEX
  8
ST4
 62
    80
 10
   -6.321217
 20
    5.574356
  0
VERTEX
  8
ST4
 62
    80
 10
   -6.283255
 20
    5.307419
  0
VERTEX
  8
ST4
 62
    80
 10
   -6.241481
 20
    5.077515
  0
VERTEX
  8
ST4
 62
    80
 10
   -6.197202
 20
    4.874238
  0
VERTEX
  8
ST4
 62
    80
 10
   -6.151026
 20
    4.689364
  0
VERTEX
  8
ST4
 62
    80
 10
   -6.102862
 20
    4.516852
  0
VERTEX
  8
ST4
 62
    80
 10
   -6.051936
 20
    4.352774
  0
VERTEX
  8
ST4
 62
    80
 10
   -5.997088
 20
    4.194436
  0
VERTEX
  8
ST4
 62
    80
 10
   -5.937065
 20
    4.039489
  0
VERTEX
  8
ST4
 62
    80
 10
   -5.870546
 20
    3.885845
  0
VERTEX
  8
ST4
 62
    80
 10
   -5.796148
 20
    3.731679
  0
VERTEX
  8
ST4
 62
    80
 10
   -5.712424
 20
    3.575421
  0
VERTEX
  8
ST4
 62
    80
 10
   -5.617868
 20
    3.415762
  0
VERTEX
  8
ST4
 62
    80
 10
   -5.510912
 20
    3.251648
  0
VERTEX
  8
ST4
 62
    80
 10
   -5.389920
 20
    3.082288
  0
VERTEX
  8
ST4
 62
    80
 10
   -5.253046
 20
    2.907256
  0
VERTEX
  8
ST4
 62
    80
 10
   -5.098101
 20
    2.726592
  0
VERTEX
  8
ST4
 62
    80
 10
   -4.922534
 20
    2.540816
  0
VERTEX
  8
ST4
 62
    80
 10
   -4.723433
 20
    2.350924
  0
VERTEX
  8
ST4
 62
    80
 10
   -4.497525
 20
    2.158399
  0
VERTEX
  8
ST4
 62
    80
 10
   -4.241174
 20
    1.965203
  0
VERTEX
  8
ST4
 62
    80
 10
   -3.950387
 20
    1.773787
  0
VERTEX
  8
ST4
 62
    80
 10
   -3.620866
 20
    1.587050
  0
VERTEX
  8
ST4
 62
    80
 10
   -3.248585
 20
    1.407900
  0
VERTEX
  8
ST4
 62
    80
 10
   -2.830356
 20
    1.238823
  0
VERTEX
  8
ST4
 62
    80
 10
   -2.363881
 20
    1.081841
  0
VERTEX
  8
ST4
 62
    80
 10
   -1.847742
 20
    0.938512
  0
VERTEX
  8
ST4
 62
    80
 10
   -1.281389
 20
    0.809933
  0
VERTEX
  8
ST4
 62
    80
 10
   -0.665110
 20
    0.696753
  0
VERTEX
  8
ST4
 62
    80
 10
   -0.000000
 20
    0.599182
  0
SEQEND
  0
POLYLINE
  8
ST13
 62
    80
 66
     1
 10
    0.000000
 20
    0.000000
  0
VERTEX
  8
ST13
 62
    80
 10
   -0.000000
 20
    0.729509
  0
VERTEX
  8
ST13
 62
    80
 10
   -0.657087
 20
    0.823952
  0
VERTEX
  8
ST13
 62
    80
 10
   -1.263012
 20
    0.934901
  0
VERTEX
  8
ST13
 62
    80
 10
   -1.817943
 20
    1.061596
  0
VERTEX
  8
ST13
 62
    80
 10
   -2.322615
 20
    1.202963
  0
VERTEX
  8
ST13
 62
    80
 10
   -2.778368
 20
    1.357595
  0
VERTEX
  8
ST13
 62
    80
 10
   -3.187176
 20
    1.523737
  0
VERTEX
  8
ST13
 62
    80
 10
   -3.551665
 20
    1.699277
  0
VERTEX
  8
ST13
 62
    80
 10
   -3.875124
 20
    1.881747
  0
VERTEX
  8
ST13
 62
    80
 10
   -4.161469
 20
    2.068352
  0
VERTEX
  8
ST13
 62
    80
 10
   -4.414785
 20
    2.256353
  0
VERTEX
  8
ST13
 62
    80
 10
   -4.638862
 20
    2.443439
  0
VERTEX
  8
ST13
 62
    80
 10
   -4.837146
 20
    2.627760
  0
VERTEX
  8
ST13
 62
    80
 10
   -5.012740
 20
    2.807927
  0
VERTEX
  8
ST13
 62
    80
 10
   -5.168399
 20
    2.983009
  0
VERTEX
  8
ST13
 62
    80
 10
   -5.306533
 20
    3.152526
  0
VERTEX
  8
ST13
 62
    80
 10
   -5.429202
 20
    3.316452
  0
VERTEX
  8
ST13
 62
    80
 10
   -5.538136
 20
    3.475205
  0
VERTEX
  8
ST13
 62
    80
 10
   -5.634878
 20
    3.629550
  0
VERTEX
  8
ST13
 62
    80
 10
   -5.720921
 20
    3.780512
  0
VERTEX
  8
ST13
 62
    80
 10
   -5.797729
 20
    3.929367
  0
VERTEX
  8
ST13
 62
    80
 10
   -5.866728
 20
    4.077643
  0
VERTEX
  8
ST13
 62
    80
 10
   -5.929311
 20
    4.227127
  0
VERTEX
  8
ST13
 62
    80
 10
   -5.986828
 20
    4.379859
  0
VERTEX
  8
ST13
 62
    80
 10
   -6.040594
 20
    4.538143
  0
VERTEX
  8
ST13
 62
    80
 10
   -6.091847
 20
    4.704631
  0
VERTEX
  8
ST13
 62
    80
 10
   -6.141413
 20
    4.883321
  0
VERTEX
  8
ST13
 62
    80
 10
   -6.191306
 20
    5.090050
  0
VERTEX
  8
ST13
 62
    80
 10
   -6.234903
 20
    5.304996
  0
VERTEX
  8
ST13
 62
    80
 10
   -6.276676
 20
    5.567824
  0
VERTEX
  8
ST13
 62
    80
 10
   -6.312460
 20
    5.882522
  0
VERTEX
  8
ST13
 62
    80
 10
   -6.339263
 20
    6.264968
  0
VERTEX
  8
ST13
 62
    80
 10
   -6.353331
 20
    6.733432
  0
SEQEND
  0
POLYLINE
  8
ST22
 62
    80
 66
     1
 10
    0.000000
 20
    0.000000
  0
VERTEX
  8
ST22
 62
    80
 10
   -6.311943
 20
    6.732640
  0
VERTEX
  8
ST22
 62
    80
 10
   -6.293775
 20
    6.257398
  0
VERTEX
  8
ST22
 62
    80
 10
   -6.262112
 20
    5.873232
  0
VERTEX
  8
ST22
 62
    80
 10
   -6.221075
 20
    5.560445
  0
VERTEX
  8
ST22
 62
    80
 10
   -6.173959
 20
    5.301935
  0
VERTEX
  8
ST22
 62
    80
 10
   -6.123231
 20
    5.083199
  0
VERTEX
  8
ST22
 62
    80
 10
   -6.070522
 20
    4.892352
  0
VERTEX
  8
ST22
 62
    80
 10
   -6.016621
 20
    4.720137
  0
VERTEX
  8
ST22
 62
    80
 10
   -5.961470
 20
    4.559948
  0
VERTEX
  8
ST22
 62
    80
 10
   -5.904193
 20
    4.407738
  0
VERTEX
  8
ST22
 62
    80
 10
   -5.843477
 20
    4.260929
  0
VERTEX
  8
ST22
 62
    80
 10
   -5.777950
 20
    4.117295
  0
VERTEX
  8
ST22
 62
    80
 10
   -5.706219
 20
    3.974870
  0
VERTEX
  8
ST22
 62
    80
 10
   -5.626875
 20
    3.831939
  0
VERTEX
  8
ST22
 62
    80
 10
   -5.538491
 20
    3.687038
  0
VERTEX
  8
ST22
 62
    80
 10
   -5.439627
 20
    3.538953
  0
VERTEX
  8
ST22
 62
    80
 10
   -5.328827
 20
    3.386720
  0
VERTEX
  8
ST22
 62
    80
 10
   -5.204612
 20
    3.229624
  0
VERTEX
  8
ST22
 62
    80
 10
   -5.065340
 20
    3.067277
  0
VERTEX
  8
ST22
 62
    80
 10
   -4.909066
 20
    2.899687
  0
VERTEX
  8
ST22
 62
    80
 10
   -4.733529
 20
    2.727267
  0
VERTEX
  8
ST22
 62
    80
 10
   -4.536153
 20
    2.550837
  0
VERTEX
  8
ST22
 62
    80
 10
   -4.314047
 20
    2.371624
  0
VERTEX
  8
ST22
 62
    80
 10
   -4.064007
 20
    2.191265
  0
VERTEX
  8
ST22
 62
    80
 10
   -3.782520
 20
    2.011807
  0
VERTEX
  8
ST22
 62
    80
 10
   -3.465801
 20
    1.835683
  0
VERTEX
  8
ST22
 62
    80
 10
   -3.110129
 20
    1.665436
  0
VERTEX
  8
ST22
 62
    80
 10
   -2.712180
 20
    1.503437
  0
VERTEX
  8
ST22
 62
    80
 10
   -2.269046
 20
    1.351864
  0
VERTEX
  8
ST22
 62
    80
 10
   -1.778220
 20
    1.212708
  0
VERTEX
  8
ST22
 62
    80
 10
   -1.237574
 20
    1.087782
  0
VERTEX
  8
ST22
 62
    80
 10
   -0.645326
 20
    0.978737
  0
VERTEX
  8
ST22
 62
    80
 10
   -0.000000
 20
    0.887081
  0
SEQEND
  0
POLYLINE
  8
ST21
 62
    80
 66
     1
 10
    0.000000
 20
    0.000000
  0
VERTEX
  8
ST21
 62
    80
 10
   -6.266713
 20
    6.731821
  0
VERTEX
  8
ST21
 62
    80
 10
   -6.243265
 20
    6.249098
  0
VERTEX
  8
ST21
 62
    80
 10
   -6.205832
 20
    5.862810
  0
VERTEX
  8
ST21
 62
    80
 10
   -6.158849
 20
    5.551732
  0
VERTEX
  8
ST21
 62
    80
 10
   -6.105861
 20
    5.297460
  0
VERTEX
  8
ST21
 62
    80
 10
   -6.049522
 20
    5.084430
  0
VERTEX
  8
ST21
 62
    80
 10
   -5.991586
 20
    4.899943
  0
VERTEX
  8
ST21
 62
    80
 10
   -5.932906
 20
    4.734192
  0
VERTEX
  8
ST21
 62
    80
 10
   -5.873427
 20
    4.580277
  0
VERTEX
  8
ST21
 62
    80
 10
   -5.812227
 20
    4.434116
  0
VERTEX
  8
ST21
 62
    80
 10
   -5.747922
 20
    4.293220
  0
VERTEX
  8
ST21
 62
    80
 10
   -5.679089
 20
    4.155469
  0
VERTEX
  8
ST21
 62
    80
 10
   -5.604302
 20
    4.018996
  0
VERTEX
  8
ST21
 62
    80
 10
   -5.522130
 20
    3.882184
  0
VERTEX
  8
ST21
 62
    80
 10
   -5.431148
 20
    3.743670
  0
VERTEX
  8
ST21
 62
    80
 10
   -5.329928
 20
    3.602335
  0
VERTEX
  8
ST21
 62
    80
 10
   -5.217046
 20
    3.457311
  0
VERTEX
  8
ST21
 62
    80
 10
   -5.091071
 20
    3.307977
  0
VERTEX
  8
ST21
 62
    80
 10
   -4.950435
 20
    3.154006
  0
VERTEX
  8
ST21
 62
    80
 10
   -4.793304
 20
    2.995406
  0
VERTEX
  8
ST21
 62
    80
 10
   -4.617570
 20
    2.832529
  0
VERTEX
  8
ST21
 62
    80
 10
   -4.420854
 20
    2.666064
  0
VERTEX
  8
ST21
 62
    80
 10
   -4.200504
 20
    2.497041
  0
VERTEX
  8
ST21
 62
    80
 10
   -3.953599
 20
    2.326832
  0
VERTEX
  8
ST21
 62
    80
 10
   -3.676957
 20
    2.157150
  0
VERTEX
  8
ST21
 62
    80
 10
   -3.367159
 20
    1.990034
  0
VERTEX
  8
ST21
 62
    80
 10
   -3.020753
 20
    1.827676
  0
VERTEX
  8
ST21
 62
    80
 10
   -2.634452
 20
    1.672245
  0
VERTEX
  8
ST21
 62
    80
 10
   -2.205136
 20
    1.525881
  0
VERTEX
  8
ST21
 62
    80
 10
   -1.729839
 20
    1.390687
  0
VERTEX
  8
ST21
 62
    80
 10
   -1.205714
 20
    1.268751
  0
VERTEX
  8
ST21
 62
    80
 10
   -0.630004
 20
    1.162148
  0
VERTEX
  8
ST21
 62
    80
 10
   -0.000000
 20
    1.072966
  0
SEQEND
  0
POLYLINE
  8
ST20
 62
    80
 66
     1
 10
    0.000000
 20
    0.000000
  0
VERTEX
  8
ST20
 62
    80
 10
   -6.215970
 20
    6.730976
  0
VERTEX
  8
ST20
 62
    80
 10
   -6.185683
 20
    6.239670
  0
VERTEX
  8
ST20
 62
    80
 10
   -6.141424
 20
    5.850635
  0
VERTEX
  8
ST20
 62
    80
 10
   -6.087825
 20
    5.540957
  0
VERTEX
  8
ST20
 62
    80
 10
   -6.028575
 20
    5.290799
  0
VERTEX
  8
ST20
 62
    80
 10
   -5.966416
 20
    5.083438
  0
VERTEX
  8
ST20
 62
    80
 10
   -5.903149
 20
    4.905294
  0
VERTEX
  8
ST20
 62
    80
 10
   -5.839633
 20
    4.745966
  0
VERTEX
  8
ST20
 62
    80
 10
   -5.775787
 20
    4.598249
  0
VERTEX
  8
ST20
 62
    80
 10
   -5.710635
 20
    4.458034
  0
VERTEX
  8
ST20
 62
    80
 10
   -5.642733
 20
    4.322951
  0
VERTEX
  8
ST20
 62
    80
 10
   -5.570608
 20
    4.191009
  0
VERTEX
  8
ST20
 62
    80
 10
   -5.492799
 20
    4.060467
  0
VERTEX
  8
ST20
 62
    80
 10
   -5.407857
 20
    3.929834
  0
VERTEX
  8
ST20
 62
    80
 10
   -5.314348
 20
    3.797866
  0
VERTEX
  8
ST20
 62
    80
 10
   -5.210849
 20
    3.663569
  0
VERTEX
  8
ST20
 62
    80
 10
   -5.095957
 20
    3.526193
  0
VERTEX
  8
ST20
 62
    80
 10
   -4.968271
 20
    3.385236
  0
VERTEX
  8
ST20
 62
    80
 10
   -4.826287
 20
    3.240451
  0
VERTEX
  8
ST20
 62
    80
 10
   -4.668285
 20
    3.091860
  0
VERTEX
  8
ST20
 62
    80
 10
   -4.492319
 20
    2.939750
  0
VERTEX
  8
ST20
 62
    80
 10
   -4.296222
 20
    2.784677
  0
VERTEX
  8
ST20
 62
    80
 10
   -4.077610
 20
    2.627458
  0
VERTEX
  8
ST20
 62
    80
 10
   -3.833880
 20
    2.469180
  0
VERTEX
  8
ST20
 62
    80
 10
   -3.562224
 20
    2.311188
  0
VERTEX
  8
ST20
 62
    80
 10
   -3.259635
 20
    2.155086
  0
VERTEX
  8
ST20
 62
    80
 10
   -2.922978
 20
    2.002655
  0
VERTEX
  8
ST20
 62
    80
 10
   -2.549040
 20
    1.855774
  0
VERTEX
  8
ST20
 62
    80
 10
   -2.134523
 20
    1.716405
  0
VERTEX
  8
ST20
 62
    80
 10
   -1.676014
 20
    1.586595
  0
VERTEX
  8
ST20
 62
    80
 10
   -1.169954
 20
    1.468468
  0
VERTEX
  8
ST20
 62
    80
 10
   -0.612604
 20
    1.364235
  0
VERTEX
  8
ST20
 62
    80
 10
   -0.000000
 20
    1.276202
  0
SEQEND
  0
POLYLINE
  8
ST25
 62
    80
 66
     1
 10
    0.000000
 20
    0.000000
  0
VERTEX
  8
ST25
 62
    80
 10
   -0.000000
 20
    1.491826
  0
VERTEX
  8
ST25
 62
    80
 10
   -0.593742
 20
    1.579997
  0
VERTEX
  8
ST25
 62
    80
 10
   -1.131490
 20
    1.681898
  0
VERTEX
  8
ST25
 62
    80
 10
   -1.618438
 20
    1.795356
  0
VERTEX
  8
ST25
 62
    80
 10
   -2.059295
 20
    1.918338
  0
VERTEX
  8
ST25
 62
    80
 10
   -2.458321
 20
    2.048939
  0
VERTEX
  8
ST25
 62
    80
 10
   -2.536162
 20
    2.078337
  0
VERTEX
  8
ST25
 62
    80
 10
   -2.819336
 20
    2.185321
  0
VERTEX
  8
ST25
 62
    80
 10
   -3.145840
 20
    2.325839
  0
VERTEX
  8
ST25
 62
    80
 10
   -3.440964
 20
    2.469030
  0
VERTEX
  8
ST25
 62
    80
 10
   -3.707502
 20
    2.613582
  0
VERTEX
  8
ST25
 62
    80
 10
   -3.948021
 20
    2.758348
  0
VERTEX
  8
ST25
 62
    80
 10
   -4.164931
 20
    2.902359
  0
VERTEX
  8
ST25
 62
    80
 10
   -4.360492
 20
    3.044828
  0
VERTEX
  8
ST25
 62
    80
 10
   -4.536802
 20
    3.185150
  0
VERTEX
  8
ST25
 62
    80
 10
   -4.695796
 20
    3.322906
  0
VERTEX
  8
ST25
 62
    80
 10
   -4.839241
 20
    3.457866
  0
VERTEX
  8
ST25
 62
    80
 10
   -4.968735
 20
    3.589991
  0
VERTEX
  8
ST25
 62
    80
 10
   -5.085711
 20
    3.719433
  0
VERTEX
  8
ST25
 62
    80
 10
   -5.191530
 20
    3.846560
  0
VERTEX
  8
ST25
 62
    80
 10
   -5.287570
 20
    3.971984
  0
VERTEX
  8
ST25
 62
    80
 10
   -5.375236
 20
    4.096554
  0
VERTEX
  8
ST25
 62
    80
 10
   -5.455957
 20
    4.221364
  0
VERTEX
  8
ST25
 62
    80
 10
   -5.531187
 20
    4.347751
  0
VERTEX
  8
ST25
 62
    80
 10
   -5.602403
 20
    4.477295
  0
VERTEX
  8
ST25
 62
    80
 10
   -5.671105
 20
    4.611822
  0
VERTEX
  8
ST25
 62
    80
 10
   -5.738774
 20
    4.753539
  0
VERTEX
  8
ST25
 62
    80
 10
   -5.806446
 20
    4.906562
  0
VERTEX
  8
ST25
 62
    80
 10
   -5.874278
 20
    5.078419
  0
VERTEX
  8
ST25
 62
    80
 10
   -5.941513
 20
    5.280179
  0
VERTEX
  8
ST25
 62
    80
 10
   -6.006475
 20
    5.526425
  0
VERTEX
  8
ST25
 62
    80
 10
   -6.066573
 20
    5.835229
  0
VERTEX
  8
ST25
 62
    80
 10
   -6.118296
 20
    6.228136
  0
VERTEX
  8
ST25
 62
    80
 10
   -6.157218
 20
    6.730130
  0
SEQEND
  0
POLYLINE
  8
ST24
 62
    80
 66
     1
 10
    0.000000
 20
    0.000000
  0
VERTEX
  8
ST24
 62
    80
 10
   -6.093435
 20
    6.729285
  0
VERTEX
  8
ST24
 62
    80
 10
   -6.044589
 20
    6.214880
  0
VERTEX
  8
ST24
 62
    80
 10
   -5.985223
 20
    5.817112
  0
VERTEX
  8
ST24
 62
    80
 10
   -5.919195
 20
    5.508648
  0
VERTEX
  8
ST24
 62
    80
 10
   -5.849535
 20
    5.266037
  0
VERTEX
  8
ST24
 62
    80
 10
   -5.778437
 20
    5.069701
  0
VERTEX
  8
ST24
 62
    80
 10
   -5.707257
 20
    4.903941
  0
VERTEX
  8
ST24
 62
    80
 10
   -5.636517
 20
    4.756957
  0
VERTEX
  8
ST24
 62
    80
 10
   -5.565905
 20
    4.620862
  0
VERTEX
  8
ST24
 62
    80
 10
   -5.494313
 20
    4.491546
  0
VERTEX
  8
ST24
 62
    80
 10
   -5.420237
 20
    4.366989
  0
VERTEX
  8
ST24
 62
    80
 10
   -5.342170
 20
    4.245560
  0
VERTEX
  8
ST24
 62
    80
 10
   -5.258641
 20
    4.125864
  0
VERTEX
  8
ST24
 62
    80
 10
   -5.168216
 20
    4.006741
  0
VERTEX
  8
ST24
 62
    80
 10
   -5.069494
 20
    3.887263
  0
VERTEX
  8
ST24
 62
    80
 10
   -4.961113
 20
    3.766739
  0
VERTEX
  8
ST24
 62
    80
 10
   -4.841746
 20
    3.644709
  0
VERTEX
  8
ST24
 62
    80
 10
   -4.710098
 20
    3.520944
  0
VERTEX
  8
ST24
 62
    80
 10
   -4.564830
 20
    3.395396
  0
VERTEX
  8
ST24
 62
    80
 10
   -4.404486
 20
    3.268145
  0
VERTEX
  8
ST24
 62
    80
 10
   -4.227491
 20
    3.139395
  0
VERTEX
  8
ST24
 62
    80
 10
   -4.032147
 20
    3.009477
  0
VERTEX
  8
ST24
 62
    80
 10
   -3.816644
 20
    2.878840
  0
VERTEX
  8
ST24
 62
    80
 10
   -3.579058
 20
    2.748058
  0
VERTEX
  8
ST24
 62
    80
 10
   -3.317360
 20
    2.617819
  0
VERTEX
  8
ST24
 62
    80
 10
   -3.029404
 20
    2.488927
  0
VERTEX
  8
ST24
 62
    80
 10
   -2.712724
 20
    2.362304
  0
VERTEX
  8
ST24
 62
    80
 10
   -2.364330
 20
    2.238981
  0
VERTEX
  8
ST24
 62
    80
 10
   -1.980660
 20
    2.120084
  0
VERTEX
  8
ST24
 62
    80
 10
   -1.557549
 20
    2.006821
  0
VERTEX
  8
ST24
 62
    80
 10
   -1.090185
 20
    1.900476
  0
VERTEX
  8
ST24
 62
    80
 10
   -0.573073
 20
    1.802415
  0
VERTEX
  8
ST24
 62
    80
 10
   -0.000000
 20
    1.714122
  0
SEQEND
  0
POLYLINE
  8
ST23
 62
    80
 66
     1
 10
    0.000000
 20
    0.000000
  0
VERTEX
  8
ST23
 62
    80
 10
   -6.026674
 20
    6.728439
  0
VERTEX
  8
ST23
 62
    80
 10
   -5.967125
 20
    6.200572
  0
VERTEX
  8
ST23
 62
    80
 10
   -5.900152
 20
    5.797388
  0
VERTEX
  8
ST23
 62
    80
 10
   -5.828723
 20
    5.489004
  0
VERTEX
  8
ST23
 62
    80
 10
   -5.755147
 20
    5.249921
  0
VERTEX
  8
ST23
 62
    80
 10
   -5.681043
 20
    5.058962
  0
VERTEX
  8
ST23
 62
    80
 10
   -5.607324
 20
    4.899250
  0
VERTEX
  8
ST23
 62
    80
 10
   -5.534195
 20
    4.758213
  0
VERTEX
  8
ST23
 62
    80
 10
   -5.461155
 20
    4.627593
  0
VERTEX
  8
ST23
 62
    80
 10
   -5.387029
 20
    4.503290
  0
VERTEX
  8
ST23
 62
    80
 10
   -5.310315
 20
    4.383482
  0
VERTEX
  8
ST23
 62
    80
 10
   -5.229526
 20
    4.266745
  0
VERTEX
  8
ST23
 62
    80
 10
   -5.143220
 20
    4.151876
  0
VERTEX
  8
ST23
 62
    80
 10
   -5.050001
 20
    4.037894
  0
VERTEX
  8
ST23
 62
    80
 10
   -4.948518
 20
    3.924042
  0
VERTEX
  8
ST23
 62
    80
 10
   -4.837465
 20
    3.809783
  0
VERTEX
  8
ST23
 62
    80
 10
   -4.715583
 20
    3.694804
  0
VERTEX
  8
ST23
 62
    80
 10
   -4.581654
 20
    3.579009
  0
VERTEX
  8
ST23
 62
    80
 10
   -4.434441
 20
    3.462446
  0
VERTEX
  8
ST23
 62
    80
 10
   -4.272633
 20
    3.345239
  0
VERTEX
  8
ST23
 62
    80
 10
   -4.094839
 20
    3.227583
  0
VERTEX
  8
ST23
 62
    80
 10
   -3.899591
 20
    3.109737
  0
VERTEX
  8
ST23
 62
    80
 10
   -3.685348
 20
    2.992031
  0
VERTEX
  8
ST23
 62
    80
 10
   -3.450496
 20
    2.874863
  0
VERTEX
  8
ST23
 62
    80
 10
   -3.193357
 20
    2.758696
  0
VERTEX
  8
ST23
 62
    80
 10
   -2.912161
 20
    2.644058
  0
VERTEX
  8
ST23
 62
    80
 10
   -2.604765
 20
    2.531537
  0
VERTEX
  8
ST23
 62
    80
 10
   -2.268349
 20
    2.421760
  0
VERTEX
  8
ST23
 62
    80
 10
   -1.899375
 20
    2.315376
  0
VERTEX
  8
ST23
 62
    80
 10
   -1.493556
 20
    2.213026
  0
VERTEX
  8
ST23
 62
    80
 10
   -1.045815
 20
    2.115339
  0
VERTEX
  8
ST23
 62
    80
 10
   -0.550234
 20
    2.022932
  0
VERTEX
  8
ST23
 62
    80
 10
   -0.000000
 20
    1.936446
  0
SEQEND
  0
POLYLINE
  8
ST16
 62
    80
 66
     1
 10
    0.000000
 20
    0.000000
  0
VERTEX
  8
ST16
 62
    80
 10
   -5.957018
 20
    6.727593
  0
VERTEX
  8
ST16
 62
    80
 10
   -5.885770
 20
    6.185145
  0
VERTEX
  8
ST16
 62
    80
 10
   -5.811189
 20
    5.775931
  0
VERTEX
  8
ST16
 62
    80
 10
   -5.734970
 20
    5.467327
  0
VERTEX
  8
ST16
 62
    80
 10
   -5.658405
 20
    5.231643
  0
VERTEX
  8
ST16
 62
    80
 10
   -5.582310
 20
    5.046002
  0
VERTEX
  8
ST16
 62
    80
 10
   -5.506998
 20
    4.892278
  0
VERTEX
  8
ST16
 62
    80
 10
   -5.432262
 20
    4.757082
  0
VERTEX
  8
ST16
 62
    80
 10
   -5.357371
 20
    4.631767
  0
VERTEX
  8
ST16
 62
    80
 10
   -5.281099
 20
    4.512242
  0
VERTEX
  8
ST16
 62
    80
 10
   -5.201979
 20
    4.396896
  0
VERTEX
  8
ST16
 62
    80
 10
   -5.118575
 20
    4.284520
  0
VERTEX
  8
ST16
 62
    80
 10
   -5.029504
 20
    4.174107
  0
VERTEX
  8
ST16
 62
    80
 10
   -4.933433
 20
    4.064862
  0
VERTEX
  8
ST16
 62
    80
 10
   -4.829081
 20
    3.956195
  0
VERTEX
  8
ST16
 62
    80
 10
   -4.715219
 20
    3.847727
  0
VERTEX
  8
ST16
 62
    80
 10
   -4.590669
 20
    3.739285
  0
VERTEX
  8
ST16
 62
    80
 10
   -4.454302
 20
    3.630899
  0
VERTEX
  8
ST16
 62
    80
 10
   -4.304991
 20
    3.522716
  0
VERTEX
  8
ST16
 62
    80
 10
   -4.141567
 20
    3.414918
  0
VERTEX
  8
ST16
 62
    80
 10
   -3.962819
 20
    3.307709
  0
VERTEX
  8
ST16
 62
    80
 10
   -3.767494
 20
    3.201323
  0
VERTEX
  8
ST16
 62
    80
 10
   -3.554298
 20
    3.096018
  0
VERTEX
  8
ST16
 62
    80
 10
   -3.321901
 20
    2.992082
  0
VERTEX
  8
ST16
 62
    80
 10
   -3.068941
 20
    2.889824
  0
VERTEX
  8
ST16
 62
    80
 10
   -2.793996
 20
    2.789577
  0
VERTEX
  8
ST16
 62
    80
 10
   -2.495244
 20
    2.691656
  0
VERTEX
  8
ST16
 62
    80
 10
   -2.170109
 20
    2.596303
  0
VERTEX
  8
ST16
 62
    80
 10
   -1.815213
 20
    2.503662
  0
VERTEX
  8
ST16
 62
    80
 10
   -1.426336
 20
    2.413757
  0
VERTEX
  8
ST16
 62
    80
 10
   -0.998373
 20
    2.326479
  0
VERTEX
  8
ST16
 62
    80
 10
   -0.525279
 20
    2.241596
  0
VERTEX
  8
ST16
 62
    80
 10
   -0.000000
 20
    2.158796
  0
SEQEND
  0
POLYLINE
  8
ST15
 62
    80
 66
     1
 10
    0.000000
 20
    0.000000
  0
VERTEX
  8
ST15
 62
    80
 10
   -5.884400
 20
    6.726748
  0
VERTEX
  8
ST15
 62
    80
 10
   -5.799949
 20
    6.168855
  0
VERTEX
  8
ST15
 62
    80
 10
   -5.717432
 20
    5.753155
  0
VERTEX
  8
ST15
 62
    80
 10
   -5.636808
 20
    5.444127
  0
VERTEX
  8
ST15
 62
    80
 10
   -5.558005
 20
    5.211779
  0
VERTEX
  8
ST15
 62
    80
 10
   -5.480783
 20
    5.031446
  0
VERTEX
  8
ST15
 62
    80
 10
   -5.404676
 20
    4.883693
  0
VERTEX
  8
ST15
 62
    80
 10
   -5.328957
 20
    4.754276
  0
VERTEX
  8
ST15
 62
    80
 10
   -5.252626
 20
    4.634133
  0
VERTEX
  8
ST15
 62
    80
 10
   -5.174428
 20
    4.519178
  0
VERTEX
  8
ST15
 62
    80
 10
   -5.092990
 20
    4.408014
  0
VERTEX
  8
ST15
 62
    80
 10
   -5.006977
 20
    4.299638
  0
VERTEX
  8
ST15
 62
    80
 10
   -4.915103
 20
    4.193242
  0
VERTEX
  8
ST15
 62
    80
 10
   -4.816131
 20
    4.088201
  0
VERTEX
  8
ST15
 62
    80
 10
   -4.708871
 20
    3.984086
  0
VERTEX
  8
ST15
 62
    80
 10
   -4.592183
 20
    3.880653
  0
VERTEX
  8
ST15
 62
    80
 10
   -4.464976
 20
    3.777854
  0
VERTEX
  8
ST15
 62
    80
 10
   -4.326202
 20
    3.675820
  0
VERTEX
  8
ST15
 62
    80
 10
   -4.174832
 20
    3.574783
  0
VERTEX
  8
ST15
 62
    80
 10
   -4.009814
 20
    3.474980
  0
VERTEX
  8
ST15
 62
    80
 10
   -3.830081
 20
    3.376655
  0
VERTEX
  8
ST15
 62
    80
 10
   -3.634545
 20
    3.280052
  0
VERTEX
  8
ST15
 62
    80
 10
   -3.422101
 20
    3.185421
  0
VERTEX
  8
ST15
 62
    80
 10
   -3.191630
 20
    3.093020
  0
VERTEX
  8
ST15
 62
    80
 10
   -2.942000
 20
    3.003113
  0
VERTEX
  8
ST15
 62
    80
 10
   -2.672041
 20
    2.915970
  0
VERTEX
  8
ST15
 62
    80
 10
   -2.380243
 20
    2.831788
  0
VERTEX
  8
ST15
 62
    80
 10
   -2.064446
 20
    2.750616
  0
VERTEX
  8
ST15
 62
    80
 10
   -1.721804
 20
    2.672319
  0
VERTEX
  8
ST15
 62
    80
 10
   -1.348764
 20
    2.596554
  0
VERTEX
  8
ST15
 62
    80
 10
   -0.941026
 20
    2.522745
  0
VERTEX
  8
ST15
 62
    80
 10
   -0.493463
 20
    2.450075
  0
VERTEX
  8
ST15
 62
    80
 10
   -0.000000
 20
    2.377481
  0
SEQEND
  0
POLYLINE
  8
ST14
 62
    80
 66
     1
 10
    0.000000
 20
    0.000000
  0
VERTEX
  8
ST14
 62
    80
 10
   -5.809711
 20
    6.725902
  0
VERTEX
  8
ST14
 62
    80
 10
   -5.711430
 20
    6.152443
  0
VERTEX
  8
ST14
 62
    80
 10
   -5.620784
 20
    5.730199
  0
VERTEX
  8
ST14
 62
    80
 10
   -5.535858
 20
    5.420749
  0
VERTEX
  8
ST14
 62
    80
 10
   -5.455083
 20
    5.191765
  0
VERTEX
  8
ST14
 62
    80
 10
   -5.377063
 20
    5.016765
  0
VERTEX
  8
ST14
 62
    80
 10
   -5.300480
 20
    4.874977
  0
VERTEX
  8
ST14
 62
    80
 10
   -5.224044
 20
    4.751285
  0
VERTEX
  8
ST14
 62
    80
 10
   -5.146473
 20
    4.636206
  0
VERTEX
  8
ST14
 62
    80
 10
   -5.066491
 20
    4.525663
  0
VERTEX
  8
ST14
 62
    80
 10
   -4.982836
 20
    4.418478
  0
VERTEX
  8
ST14
 62
    80
 10
   -4.894289
 20
    4.313867
  0
VERTEX
  8
ST14
 62
    80
 10
   -4.799675
 20
    4.211214
  0
VERTEX
  8
ST14
 62
    80
 10
   -4.697860
 20
    4.110073
  0
VERTEX
  8
ST14
 62
    80
 10
   -4.587753
 20
    4.010167
  0
VERTEX
  8
ST14
 62
    80
 10
   -4.468305
 20
    3.911390
  0
VERTEX
  8
ST14
 62
    80
 10
   -4.338512
 20
    3.813807
  0
VERTEX
  8
ST14
 62
    80
 10
   -4.197409
 20
    3.717648
  0
VERTEX
  8
ST14
 62
    80
 10
   -4.044053
 20
    3.623223
  0
VERTEX
  8
ST14
 62
    80
 10
   -3.877504
 20
    3.530834
  0
VERTEX
  8
ST14
 62
    80
 10
   -3.696821
 20
    3.440769
  0
VERTEX
  8
ST14
 62
    80
 10
   -3.501068
 20
    3.353305
  0
VERTEX
  8
ST14
 62
    80
 10
   -3.289307
 20
    3.268708
  0
VERTEX
  8
ST14
 62
    80
 10
   -3.060606
 20
    3.187235
  0
VERTEX
  8
ST14
 62
    80
 10
   -2.814041
 20
    3.109136
  0
VERTEX
  8
ST14
 62
    80
 10
   -2.548671
 20
    3.034648
  0
VERTEX
  8
ST14
 62
    80
 10
   -2.263307
 20
    2.963889
  0
VERTEX
  8
ST14
 62
    80
 10
   -1.956273
 20
    2.896749
  0
VERTEX
  8
ST14
 62
    80
 10
   -1.625377
 20
    2.832861
  0
VERTEX
  8
ST14
 62
    80
 10
   -1.267908
 20
    2.771585
  0
VERTEX
  8
ST14
 62
    80
 10
   -0.880594
 20
    2.711982
  0
VERTEX
  8
ST14
 62
    80
 10
   -0.459526
 20
    2.652788
  0
VERTEX
  8
ST14
 62
    80
 10
   -0.000000
 20
    2.592389
  0
SEQEND
  0
POLYLINE
  8
ST19
 62
    80
 66
     1
 10
    0.000000
 20
    0.000000
  0
VERTEX
  8
ST19
 62
    80
 10
   -5.730514
 20
    6.725057
  0
VERTEX
  8
ST19
 62
    80
 10
   -5.617035
 20
    6.136576
  0
VERTEX
  8
ST19
 62
    80
 10
   -5.517254
 20
    5.708313
  0
VERTEX
  8
ST19
 62
    80
 10
   -5.427386
 20
    5.398950
  0
VERTEX
  8
ST19
 62
    80
 10
   -5.344309
 20
    5.173769
  0
VERTEX
  8
ST19
 62
    80
 10
   -5.265389
 20
    5.004401
  0
VERTEX
  8
ST19
 62
    80
 10
   -5.188376
 20
    4.868679
  0
VERTEX
  8
ST19
 62
    80
 10
   -5.111356
 20
    4.750579
  0
VERTEX
  8
ST19
 62
    80
 10
   -5.032726
 20
    4.640194
  0
VERTEX
  8
ST19
 62
    80
 10
   -4.951171
 20
    4.533477
  0
VERTEX
  8
ST19
 62
    80
 10
   -4.865541
 20
    4.429502
  0
VERTEX
  8
ST19
 62
    80
 10
   -4.774733
 20
    4.327728
  0
VERTEX
  8
ST19
 62
    80
 10
   -4.677681
 20
    4.227755
  0
VERTEX
  8
ST19
 62
    80
 10
   -4.573351
 20
    4.129320
  0
VERTEX
  8
ST19
 62
    80
 10
   -4.460751
 20
    4.032300
  0
VERTEX
  8
ST19
 62
    80
 10
   -4.338921
 20
    3.936717
  0
VERTEX
  8
ST19
 62
    80
 10
   -4.206940
 20
    3.842733
  0
VERTEX
  8
ST19
 62
    80
 10
   -4.063920
 20
    3.750647
  0
VERTEX
  8
ST19
 62
    80
 10
   -3.908997
 20
    3.660823
  0
VERTEX
  8
ST19
 62
    80
 10
   -3.741318
 20
    3.573614
  0
VERTEX
  8
ST19
 62
    80
 10
   -3.560040
 20
    3.489362
  0
VERTEX
  8
ST19
 62
    80
 10
   -3.364327
 20
    3.408393
  0
VERTEX
  8
ST19
 62
    80
 10
   -3.153357
 20
    3.331023
  0
VERTEX
  8
ST19
 62
    80
 10
   -2.926320
 20
    3.257560
  0
VERTEX
  8
ST19
 62
    80
 10
   -2.682417
 20
    3.188304
  0
VERTEX
  8
ST19
 62
    80
 10
   -2.420862
 20
    3.123541
  0
VERTEX
  8
ST19
 62
    80
 10
   -2.140785
 20
    3.063427
  0
VERTEX
  8
ST19
 62
    80
 10
   -1.841148
 20
    3.007860
  0
VERTEX
  8
ST19
 62
    80
 10
   -1.520733
 20
    2.956462
  0
VERTEX
  8
ST19
 62
    80
 10
   -1.178139
 20
    2.908564
  0
VERTEX
  8
ST19
 62
    80
 10
   -0.811769
 20
    2.863187
  0
VERTEX
  8
ST19
 62
    80
 10
   -0.419780
 20
    2.819026
  0
VERTEX
  8
ST19
 62
    80
 10
   -0.000000
 20
    2.774429
  0
SEQEND
  0
POLYLINE
  8
ST18
 62
    80
 66
     1
 10
    0.000000
 20
    0.000000
  0
VERTEX
  8
ST18
 62
    80
 10
   -5.646923
 20
    6.724213
  0
VERTEX
  8
ST18
 62
    80
 10
   -5.519046
 20
    6.122697
  0
VERTEX
  8
ST18
 62
    80
 10
   -5.409686
 20
    5.689779
  0
VERTEX
  8
ST18
 62
    80
 10
   -5.313889
 20
    5.381474
  0
VERTEX
  8
ST18
 62
    80
 10
   -5.227413
 20
    5.160753
  0
VERTEX
  8
ST18
 62
    80
 10
   -5.146646
 20
    4.997367
  0
VERTEX
  8
ST18
 62
    80
 10
   -5.068564
 20
    4.867751
  0
VERTEX
  8
ST18
 62
    80
 10
   -4.990694
 20
    4.754983
  0
VERTEX
  8
ST18
 62
    80
 10
   -4.911100
 20
    4.648759
  0
VERTEX
  8
ST18
 62
    80
 10
   -4.828350
 20
    4.545121
  0
VERTEX
  8
ST18
 62
    80
 10
   -4.741300
 20
    4.443461
  0
VERTEX
  8
ST18
 62
    80
 10
   -4.648874
 20
    4.343544
  0
VERTEX
  8
ST18
 62
    80
 10
   -4.550048
 20
    4.245228
  0
VERTEX
  8
ST18
 62
    80
 10
   -4.443845
 20
    4.148477
  0
VERTEX
  8
ST18
 62
    80
 10
   -4.329336
 20
    4.053353
  0
VERTEX
  8
ST18
 62
    80
 10
   -4.205639
 20
    3.960021
  0
VERTEX
  8
ST18
 62
    80
 10
   -4.071919
 20
    3.868751
  0
VERTEX
  8
ST18
 62
    80
 10
   -3.927386
 20
    3.779909
  0
VERTEX
  8
ST18
 62
    80
 10
   -3.771278
 20
    3.693904
  0
VERTEX
  8
ST18
 62
    80
 10
   -3.602856
 20
    3.611121
  0
VERTEX
  8
ST18
 62
    80
 10
   -3.421395
 20
    3.531920
  0
VERTEX
  8
ST18
 62
    80
 10
   -3.226188
 20
    3.456639
  0
VERTEX
  8
ST18
 62
    80
 10
   -3.016546
 20
    3.385590
  0
VERTEX
  8
ST18
 62
    80
 10
   -2.791802
 20
    3.319069
  0
VERTEX
  8
ST18
 62
    80
 10
   -2.551309
 20
    3.257348
  0
VERTEX
  8
ST18
 62
    80
 10
   -2.294450
 20
    3.200674
  0
VERTEX
  8
ST18
 62
    80
 10
   -2.020660
 20
    3.149145
  0
VERTEX
  8
ST18
 62
    80
 10
   -1.729451
 20
    3.102598
  0
VERTEX
  8
ST18
 62
    80
 10
   -1.420413
 20
    3.060589
  0
VERTEX
  8
ST18
 62
    80
 10
   -1.093205
 20
    3.022391
  0
VERTEX
  8
ST18
 62
    80
 10
   -0.747553
 20
    2.986996
  0
VERTEX
  8
ST18
 62
    80
 10
   -0.383224
 20
    2.953105
  0
VERTEX
  8
ST18
 62
    80
 10
   -0.000000
 20
    2.919141
  0
SEQEND
  0
POLYLINE
  8
ST17
 62
    80
 66
     1
 10
    0.000000
 20
    0.000000
  0
VERTEX
  8
ST17
 62
    80
 10
   -5.560078
 20
    6.723369
  0
VERTEX
  8
ST17
 62
    80
 10
   -5.418032
 20
    6.110493
  0
VERTEX
  8
ST17
 62
    80
 10
   -5.298381
 20
    5.674348
  0
VERTEX
  8
ST17
 62
    80
 10
   -5.195406
 20
    5.368292
  0
VERTEX
  8
ST17
 62
    80
 10
   -5.104114
 20
    5.152943
  0
VERTEX
  8
ST17
 62
    80
 10
   -5.020213
 20
    4.996131
  0
VERTEX
  8
ST17
 62
    80
 10
   -4.940093
 20
    4.872858
  0
VERTEX
  8
ST17
 62
    80
 10
   -4.860824
 20
    4.765290
  0
VERTEX
  8
ST17
 62
    80
 10
   -4.780140
 20
    4.662750
  0
VERTEX
  8
ST17
 62
    80
 10
   -4.696421
 20
    4.561417
  0
VERTEX
  8
ST17
 62
    80
 10
   -4.608419
 20
    4.461073
  0
VERTEX
  8
ST17
 62
    80
 10
   -4.514990
 20
    4.361846
  0
VERTEX
  8
ST17
 62
    80
 10
   -4.415067
 20
    4.263917
  0
VERTEX
  8
ST17
 62
    80
 10
   -4.307668
 20
    4.167516
  0
VERTEX
  8
ST17
 62
    80
 10
   -4.191885
 20
    4.072928
  0
VERTEX
  8
ST17
 62
    80
 10
   -4.066892
 20
    3.980488
  0
VERTEX
  8
ST17
 62
    80
 10
   -3.931941
 20
    3.890586
  0
VERTEX
  8
ST17
 62
    80
 10
   -3.786359
 20
    3.803659
  0
VERTEX
  8
ST17
 62
    80
 10
   -3.629528
 20
    3.720145
  0
VERTEX
  8
ST17
 62
    80
 10
   -3.460857
 20
    3.640432
  0
VERTEX
  8
ST17
 62
    80
 10
   -3.279781
 20
    3.564856
  0
VERTEX
  8
ST17
 62
    80
 10
   -3.085764
 20
    3.493699
  0
VERTEX
  8
ST17
 62
    80
 10
   -2.878295
 20
    3.427193
  0
VERTEX
  8
ST17
 62
    80
 10
   -2.656892
 20
    3.365516
  0
VERTEX
  8
ST17
 62
    80
 10
   -2.421099
 20
    3.308795
  0
VERTEX
  8
ST17
 62
    80
 10
   -2.170499
 20
    3.257100
  0
VERTEX
  8
ST17
 62
    80
 10
   -1.904785
 20
    3.210356
  0
VERTEX
  8
ST17
 62
    80
 10
   -1.623841
 20
    3.168258
  0
VERTEX
  8
ST17
 62
    80
 10
   -1.327742
 20
    3.130262
  0
VERTEX
  8
ST17
 62
    80
 10
   -1.016758
 20
    3.095584
  0
VERTEX
  8
ST17
 62
    80
 10
   -0.691349
 20
    3.063198
  0
VERTEX
  8
ST17
 62
    80
 10
   -0.000000
 20
    3.000000
  0
SEQEND
  0
ENDSEC
  0
EOF
