  0
SECTION
  2
ENTITIES
  0
POLYLINE
  8
GRID
 62
     2
 66
     1
 10
        0.00
 20
        0.00
  0
VERTEX
  8
GRID
 62
     2
 10
       -6.75
 20
        4.57
  0
VERTEX
  8
GRID
 62
     2
 10
        6.75
 20
        4.57
  0
SEQEND
  0
POLYLINE
  8
EDGES
 62
   253
 66
     1
 10
        0.00
 20
        0.00
  0
VERTEX
  8
EDGES
 62
   253
 10
       -0.00
 20
        2.94
  0
VERTEX
  8
EDGES
 62
   253
 10
       -1.23
 20
        2.75
  0
VERTEX
  8
EDGES
 62
   253
 10
       -2.35
 20
        2.31
  0
VERTEX
  8
EDGES
 62
   253
 10
       -3.32
 20
        1.81
  0
VERTEX
  8
EDGES
 62
   253
 10
       -4.11
 20
        1.34
  0
VERTEX
  8
EDGES
 62
   253
 10
       -4.72
 20
        0.96
  0
VERTEX
  8
EDGES
 62
   253
 10
       -5.15
 20
        0.69
  0
VERTEX
  8
EDGES
 62
   253
 10
       -5.43
 20
        0.52
  0
VERTEX
  8
EDGES
 62
   253
 10
       -5.59
 20
        0.42
  0
VERTEX
  8
EDGES
 62
   253
 10
       -5.68
 20
        0.37
  0
VERTEX
  8
EDGES
 62
   253
 10
       -5.74
 20
        0.33
  0
VERTEX
  8
EDGES
 62
   253
 10
       -5.79
 20
        0.30
  0
VERTEX
  8
EDGES
 62
   253
 10
       -5.82
 20
        0.28
  0
VERTEX
  8
EDGES
 62
   253
 10
       -5.85
 20
        0.25
  0
VERTEX
  8
EDGES
 62
   253
 10
       -5.87
 20
        0.24
  0
VERTEX
  8
EDGES
 62
   253
 10
       -5.88
 20
        0.23
  0
VERTEX
  8
EDGES
 62
   253
 10
       -5.88
 20
        0.23
  0
VERTEX
  8
EDGES
 62
   253
 10
       -5.87
 20
        0.24
  0
VERTEX
  8
EDGES
 62
   253
 10
       -5.86
 20
        0.27
  0
VERTEX
  8
EDGES
 62
   253
 10
       -5.82
 20
        0.33
  0
VERTEX
  8
EDGES
 62
   253
 10
       -5.77
 20
        0.43
  0
VERTEX
  8
EDGES
 62
   253
 10
       -5.70
 20
        0.57
  0
VERTEX
  8
EDGES
 62
   253
 10
       -5.59
 20
        0.73
  0
VERTEX
  8
EDGES
 62
   253
 10
       -5.43
 20
        0.92
  0
VERTEX
  8
EDGES
 62
   253
 10
       -5.21
 20
        1.12
  0
VERTEX
  8
EDGES
 62
   253
 10
       -4.90
 20
        1.35
  0
VERTEX
  8
EDGES
 62
   253
 10
       -4.46
 20
        1.62
  0
VERTEX
  8
EDGES
 62
   253
 10
       -3.89
 20
        1.94
  0
VERTEX
  8
EDGES
 62
   253
 10
       -3.21
 20
        2.31
  0
VERTEX
  8
EDGES
 62
   253
 10
       -2.48
 20
        2.70
  0
VERTEX
  8
EDGES
 62
   253
 10
       -1.76
 20
        3.08
  0
VERTEX
  8
EDGES
 62
   253
 10
       -0.99
 20
        3.48
  0
VERTEX
  8
EDGES
 62
   253
 10
       -0.00
 20
        3.96
  0
SEQEND
  0
POLYLINE
  8
EDGES
 62
   253
 66
     1
 10
        0.00
 20
        0.00
  0
VERTEX
  8
EDGES
 62
   253
 10
       -0.00
 20
        3.96
  0
VERTEX
  8
EDGES
 62
   253
 10
       -0.00
 20
        4.30
  0
VERTEX
  8
EDGES
 62
   253
 10
       -0.02
 20
        4.58
  0
VERTEX
  8
EDGES
 62
   253
 10
       -0.04
 20
        4.83
  0
VERTEX
  8
EDGES
 62
   253
 10
       -0.06
 20
        5.04
  0
VERTEX
  8
EDGES
 62
   253
 10
       -0.09
 20
        5.22
  0
VERTEX
  8
EDGES
 62
   253
 10
       -0.13
 20
        5.37
  0
VERTEX
  8
EDGES
 62
   253
 10
       -0.16
 20
        5.49
  0
VERTEX
  8
EDGES
 62
   253
 10
       -0.20
 20
        5.60
  0
VERTEX
  8
EDGES
 62
   253
 10
       -0.24
 20
        5.69
  0
VERTEX
  8
EDGES
 62
   253
 10
       -0.27
 20
        5.76
  0
VERTEX
  8
EDGES
 62
   253
 10
       -0.31
 20
        5.83
  0
VERTEX
  8
EDGES
 62
   253
 10
       -0.34
 20
        5.90
  0
VERTEX
  8
EDGES
 62
   253
 10
       -0.37
 20
        5.96
  0
VERTEX
  8
EDGES
 62
   253
 10
       -0.40
 20
        6.01
  0
VERTEX
  8
EDGES
 62
   253
 10
       -0.42
 20
        6.06
  0
VERTEX
  8
EDGES
 62
   253
 10
       -0.45
 20
        6.11
  0
VERTEX
  8
EDGES
 62
   253
 10
       -0.47
 20
        6.16
  0
VERTEX
  8
EDGES
 62
   253
 10
       -0.49
 20
        6.20
  0
VERTEX
  8
EDGES
 62
   253
 10
       -0.51
 20
        6.24
  0
VERTEX
  8
EDGES
 62
   253
 10
       -0.53
 20
        6.28
  0
VERTEX
  8
EDGES
 62
   253
 10
       -0.54
 20
        6.31
  0
VERTEX
  8
EDGES
 62
   253
 10
       -0.56
 20
        6.35
  0
VERTEX
  8
EDGES
 62
   253
 10
       -0.58
 20
        6.38
  0
VERTEX
  8
EDGES
 62
   253
 10
       -0.59
 20
        6.41
  0
VERTEX
  8
EDGES
 62
   253
 10
       -0.61
 20
        6.44
  0
VERTEX
  8
EDGES
 62
   253
 10
       -0.63
 20
        6.47
  0
VERTEX
  8
EDGES
 62
   253
 10
       -0.64
 20
        6.51
  0
VERTEX
  8
EDGES
 62
   253
 10
       -0.66
 20
        6.54
  0
VERTEX
  8
EDGES
 62
   253
 10
       -0.68
 20
        6.58
  0
VERTEX
  8
EDGES
 62
   253
 10
       -0.70
 20
        6.61
  0
VERTEX
  8
EDGES
 62
   253
 10
       -0.73
 20
        6.66
  0
VERTEX
  8
EDGES
 62
   253
 10
       -0.75
 20
        6.70
  0
SEQEND
  0
POLYLINE
  8
EDGES
 62
   253
 66
     1
 10
        0.00
 20
        0.00
  0
VERTEX
  8
EDGES
 62
   253
 10
       -0.75
 20
        6.70
  0
VERTEX
  8
EDGES
 62
   253
 10
       -1.76
 20
        6.68
  0
VERTEX
  8
EDGES
 62
   253
 10
       -2.54
 20
        6.66
  0
VERTEX
  8
EDGES
 62
   253
 10
       -3.28
 20
        6.65
  0
VERTEX
  8
EDGES
 62
   253
 10
       -4.03
 20
        6.64
  0
VERTEX
  8
EDGES
 62
   253
 10
       -4.72
 20
        6.63
  0
VERTEX
  8
EDGES
 62
   253
 10
       -5.29
 20
        6.63
  0
VERTEX
  8
EDGES
 62
   253
 10
       -5.73
 20
        6.63
  0
VERTEX
  8
EDGES
 62
   253
 10
       -6.05
 20
        6.63
  0
VERTEX
  8
EDGES
 62
   253
 10
       -6.28
 20
        6.64
  0
VERTEX
  8
EDGES
 62
   253
 10
       -6.44
 20
        6.64
  0
VERTEX
  8
EDGES
 62
   253
 10
       -6.56
 20
        6.64
  0
VERTEX
  8
EDGES
 62
   253
 10
       -6.65
 20
        6.65
  0
VERTEX
  8
EDGES
 62
   253
 10
       -6.70
 20
        6.65
  0
VERTEX
  8
EDGES
 62
   253
 10
       -6.73
 20
        6.65
  0
VERTEX
  8
EDGES
 62
   253
 10
       -6.74
 20
        6.65
  0
VERTEX
  8
EDGES
 62
   253
 10
       -6.75
 20
        6.65
  0
VERTEX
  8
EDGES
 62
   253
 10
       -6.75
 20
        6.65
  0
VERTEX
  8
EDGES
 62
   253
 10
       -6.75
 20
        6.65
  0
VERTEX
  8
EDGES
 62
   253
 10
       -6.75
 20
        6.65
  0
VERTEX
  8
EDGES
 62
   253
 10
       -6.75
 20
        6.65
  0
VERTEX
  8
EDGES
 62
   253
 10
       -6.75
 20
        6.65
  0
VERTEX
  8
EDGES
 62
   253
 10
       -6.75
 20
        6.65
  0
VERTEX
  8
EDGES
 62
   253
 10
       -6.75
 20
        6.65
  0
VERTEX
  8
EDGES
 62
   253
 10
       -6.75
 20
        6.65
  0
VERTEX
  8
EDGES
 62
   253
 10
       -6.75
 20
        6.65
  0
VERTEX
  8
EDGES
 62
   253
 10
       -6.75
 20
        6.65
  0
VERTEX
  8
EDGES
 62
   253
 10
       -6.74
 20
        6.65
  0
VERTEX
  8
EDGES
 62
   253
 10
       -6.68
 20
        6.64
  0
VERTEX
  8
EDGES
 62
   253
 10
       -6.54
 20
        6.64
  0
VERTEX
  8
EDGES
 62
   253
 10
       -6.26
 20
        6.64
  0
VERTEX
  8
EDGES
 62
   253
 10
       -5.81
 20
        6.64
  0
VERTEX
  8
EDGES
 62
   253
 10
       -5.21
 20
        6.64
  0
SEQEND
  0
POLYLINE
  8
EDGES
 62
   253
 66
     1
 10
        0.00
 20
        0.00
  0
VERTEX
  8
EDGES
 62
   253
 10
       -5.21
 20
        6.64
  0
VERTEX
  8
EDGES
 62
   253
 10
       -4.89
 20
        6.41
  0
VERTEX
  8
EDGES
 62
   253
 10
       -4.59
 20
        6.21
  0
VERTEX
  8
EDGES
 62
   253
 10
       -4.32
 20
        6.03
  0
VERTEX
  8
EDGES
 62
   253
 10
       -4.08
 20
        5.88
  0
VERTEX
  8
EDGES
 62
   253
 10
       -3.86
 20
        5.75
  0
VERTEX
  8
EDGES
 62
   253
 10
       -3.66
 20
        5.63
  0
VERTEX
  8
EDGES
 62
   253
 10
       -3.47
 20
        5.53
  0
VERTEX
  8
EDGES
 62
   253
 10
       -3.31
 20
        5.45
  0
VERTEX
  8
EDGES
 62
   253
 10
       -3.15
 20
        5.37
  0
VERTEX
  8
EDGES
 62
   253
 10
       -3.01
 20
        5.30
  0
VERTEX
  8
EDGES
 62
   253
 10
       -2.87
 20
        5.24
  0
VERTEX
  8
EDGES
 62
   253
 10
       -2.74
 20
        5.18
  0
VERTEX
  8
EDGES
 62
   253
 10
       -2.62
 20
        5.12
  0
VERTEX
  8
EDGES
 62
   253
 10
       -2.50
 20
        5.07
  0
VERTEX
  8
EDGES
 62
   253
 10
       -2.38
 20
        5.01
  0
VERTEX
  8
EDGES
 62
   253
 10
       -2.26
 20
        4.95
  0
VERTEX
  8
EDGES
 62
   253
 10
       -2.14
 20
        4.90
  0
VERTEX
  8
EDGES
 62
   253
 10
       -2.01
 20
        4.84
  0
VERTEX
  8
EDGES
 62
   253
 10
       -1.88
 20
        4.78
  0
VERTEX
  8
EDGES
 62
   253
 10
       -1.74
 20
        4.71
  0
VERTEX
  8
EDGES
 62
   253
 10
       -1.59
 20
        4.65
  0
VERTEX
  8
EDGES
 62
   253
 10
       -1.43
 20
        4.57
  0
VERTEX
  8
EDGES
 62
   253
 10
       -1.26
 20
        4.49
  0
VERTEX
  8
EDGES
 62
   253
 10
       -1.09
 20
        4.40
  0
VERTEX
  8
EDGES
 62
   253
 10
       -0.92
 20
        4.29
  0
VERTEX
  8
EDGES
 62
   253
 10
       -0.75
 20
        4.17
  0
VERTEX
  8
EDGES
 62
   253
 10
       -0.58
 20
        4.03
  0
VERTEX
  8
EDGES
 62
   253
 10
       -0.43
 20
        3.87
  0
VERTEX
  8
EDGES
 62
   253
 10
       -0.29
 20
        3.68
  0
VERTEX
  8
EDGES
 62
   253
 10
       -0.17
 20
        3.47
  0
VERTEX
  8
EDGES
 62
   253
 10
       -0.07
 20
        3.22
  0
VERTEX
  8
EDGES
 62
   253
 10
       -0.00
 20
        2.94
  0
SEQEND
  0
POLYLINE
  8
EDGES
 62
   253
 66
     1
 10
        0.00
 20
        0.00
  0
VERTEX
  8
EDGES
 62
   253
 10
       -0.00
 20
        2.94
  0
VERTEX
  8
EDGES
 62
   253
 10
        1.23
 20
        2.75
  0
VERTEX
  8
EDGES
 62
   253
 10
        2.35
 20
        2.31
  0
VERTEX
  8
EDGES
 62
   253
 10
        3.32
 20
        1.81
  0
VERTEX
  8
EDGES
 62
   253
 10
        4.11
 20
        1.34
  0
VERTEX
  8
EDGES
 62
   253
 10
        4.72
 20
        0.96
  0
VERTEX
  8
EDGES
 62
   253
 10
        5.15
 20
        0.69
  0
VERTEX
  8
EDGES
 62
   253
 10
        5.43
 20
        0.52
  0
VERTEX
  8
EDGES
 62
   253
 10
        5.59
 20
        0.42
  0
VERTEX
  8
EDGES
 62
   253
 10
        5.68
 20
        0.37
  0
VERTEX
  8
EDGES
 62
   253
 10
        5.74
 20
        0.33
  0
VERTEX
  8
EDGES
 62
   253
 10
        5.79
 20
        0.30
  0
VERTEX
  8
EDGES
 62
   253
 10
        5.82
 20
        0.28
  0
VERTEX
  8
EDGES
 62
   253
 10
        5.85
 20
        0.25
  0
VERTEX
  8
EDGES
 62
   253
 10
        5.87
 20
        0.24
  0
VERTEX
  8
EDGES
 62
   253
 10
        5.88
 20
        0.23
  0
VERTEX
  8
EDGES
 62
   253
 10
        5.88
 20
        0.23
  0
VERTEX
  8
EDGES
 62
   253
 10
        5.87
 20
        0.24
  0
VERTEX
  8
EDGES
 62
   253
 10
        5.86
 20
        0.27
  0
VERTEX
  8
EDGES
 62
   253
 10
        5.82
 20
        0.33
  0
VERTEX
  8
EDGES
 62
   253
 10
        5.77
 20
        0.43
  0
VERTEX
  8
EDGES
 62
   253
 10
        5.70
 20
        0.57
  0
VERTEX
  8
EDGES
 62
   253
 10
        5.59
 20
        0.73
  0
VERTEX
  8
EDGES
 62
   253
 10
        5.43
 20
        0.92
  0
VERTEX
  8
EDGES
 62
   253
 10
        5.21
 20
        1.12
  0
VERTEX
  8
EDGES
 62
   253
 10
        4.90
 20
        1.35
  0
VERTEX
  8
EDGES
 62
   253
 10
        4.46
 20
        1.62
  0
VERTEX
  8
EDGES
 62
   253
 10
        3.89
 20
        1.94
  0
VERTEX
  8
EDGES
 62
   253
 10
        3.21
 20
        2.31
  0
VERTEX
  8
EDGES
 62
   253
 10
        2.48
 20
        2.70
  0
VERTEX
  8
EDGES
 62
   253
 10
        1.76
 20
        3.08
  0
VERTEX
  8
EDGES
 62
   253
 10
        0.99
 20
        3.48
  0
VERTEX
  8
EDGES
 62
   253
 10
       -0.00
 20
        3.96
  0
SEQEND
  0
POLYLINE
  8
EDGES
 62
   253
 66
     1
 10
        0.00
 20
        0.00
  0
VERTEX
  8
EDGES
 62
   253
 10
       -0.00
 20
        3.96
  0
VERTEX
  8
EDGES
 62
   253
 10
        0.00
 20
        4.30
  0
VERTEX
  8
EDGES
 62
   253
 10
        0.02
 20
        4.58
  0
VERTEX
  8
EDGES
 62
   253
 10
        0.04
 20
        4.83
  0
VERTEX
  8
EDGES
 62
   253
 10
        0.06
 20
        5.04
  0
VERTEX
  8
EDGES
 62
   253
 10
        0.09
 20
        5.22
  0
VERTEX
  8
EDGES
 62
   253
 10
        0.13
 20
        5.37
  0
VERTEX
  8
EDGES
 62
   253
 10
        0.16
 20
        5.49
  0
VERTEX
  8
EDGES
 62
   253
 10
        0.20
 20
        5.60
  0
VERTEX
  8
EDGES
 62
   253
 10
        0.24
 20
        5.69
  0
VERTEX
  8
EDGES
 62
   253
 10
        0.27
 20
        5.76
  0
VERTEX
  8
EDGES
 62
   253
 10
        0.31
 20
        5.83
  0
VERTEX
  8
EDGES
 62
   253
 10
        0.34
 20
        5.90
  0
VERTEX
  8
EDGES
 62
   253
 10
        0.37
 20
        5.96
  0
VERTEX
  8
EDGES
 62
   253
 10
        0.40
 20
        6.01
  0
VERTEX
  8
EDGES
 62
   253
 10
        0.42
 20
        6.06
  0
VERTEX
  8
EDGES
 62
   253
 10
        0.45
 20
        6.11
  0
VERTEX
  8
EDGES
 62
   253
 10
        0.47
 20
        6.16
  0
VERTEX
  8
EDGES
 62
   253
 10
        0.49
 20
        6.20
  0
VERTEX
  8
EDGES
 62
   253
 10
        0.51
 20
        6.24
  0
VERTEX
  8
EDGES
 62
   253
 10
        0.53
 20
        6.28
  0
VERTEX
  8
EDGES
 62
   253
 10
        0.54
 20
        6.31
  0
VERTEX
  8
EDGES
 62
   253
 10
        0.56
 20
        6.35
  0
VERTEX
  8
EDGES
 62
   253
 10
        0.58
 20
        6.38
  0
VERTEX
  8
EDGES
 62
   253
 10
        0.59
 20
        6.41
  0
VERTEX
  8
EDGES
 62
   253
 10
        0.61
 20
        6.44
  0
VERTEX
  8
EDGES
 62
   253
 10
        0.63
 20
        6.47
  0
VERTEX
  8
EDGES
 62
   253
 10
        0.64
 20
        6.51
  0
VERTEX
  8
EDGES
 62
   253
 10
        0.66
 20
        6.54
  0
VERTEX
  8
EDGES
 62
   253
 10
        0.68
 20
        6.58
  0
VERTEX
  8
EDGES
 62
   253
 10
        0.70
 20
        6.61
  0
VERTEX
  8
EDGES
 62
   253
 10
        0.73
 20
        6.66
  0
VERTEX
  8
EDGES
 62
   253
 10
        0.75
 20
        6.70
  0
SEQEND
  0
POLYLINE
  8
EDGES
 62
   253
 66
     1
 10
        0.00
 20
        0.00
  0
VERTEX
  8
EDGES
 62
   253
 10
        0.75
 20
        6.70
  0
VERTEX
  8
EDGES
 62
   253
 10
        1.76
 20
        6.68
  0
VERTEX
  8
EDGES
 62
   253
 10
        2.54
 20
        6.66
  0
VERTEX
  8
EDGES
 62
   253
 10
        3.28
 20
        6.65
  0
VERTEX
  8
EDGES
 62
   253
 10
        4.03
 20
        6.64
  0
VERTEX
  8
EDGES
 62
   253
 10
        4.72
 20
        6.63
  0
VERTEX
  8
EDGES
 62
   253
 10
        5.29
 20
        6.63
  0
VERTEX
  8
EDGES
 62
   253
 10
        5.73
 20
        6.63
  0
VERTEX
  8
EDGES
 62
   253
 10
        6.05
 20
        6.63
  0
VERTEX
  8
EDGES
 62
   253
 10
        6.28
 20
        6.64
  0
VERTEX
  8
EDGES
 62
   253
 10
        6.44
 20
        6.64
  0
VERTEX
  8
EDGES
 62
   253
 10
        6.56
 20
        6.64
  0
VERTEX
  8
EDGES
 62
   253
 10
        6.65
 20
        6.65
  0
VERTEX
  8
EDGES
 62
   253
 10
        6.70
 20
        6.65
  0
VERTEX
  8
EDGES
 62
   253
 10
        6.73
 20
        6.65
  0
VERTEX
  8
EDGES
 62
   253
 10
        6.74
 20
        6.65
  0
VERTEX
  8
EDGES
 62
   253
 10
        6.75
 20
        6.65
  0
VERTEX
  8
EDGES
 62
   253
 10
        6.75
 20
        6.65
  0
VERTEX
  8
EDGES
 62
   253
 10
        6.75
 20
        6.65
  0
VERTEX
  8
EDGES
 62
   253
 10
        6.75
 20
        6.65
  0
VERTEX
  8
EDGES
 62
   253
 10
        6.75
 20
        6.65
  0
VERTEX
  8
EDGES
 62
   253
 10
        6.75
 20
        6.65
  0
VERTEX
  8
EDGES
 62
   253
 10
        6.75
 20
        6.65
  0
VERTEX
  8
EDGES
 62
   253
 10
        6.75
 20
        6.65
  0
VERTEX
  8
EDGES
 62
   253
 10
        6.75
 20
        6.65
  0
VERTEX
  8
EDGES
 62
   253
 10
        6.75
 20
        6.65
  0
VERTEX
  8
EDGES
 62
   253
 10
        6.75
 20
        6.65
  0
VERTEX
  8
EDGES
 62
   253
 10
        6.74
 20
        6.65
  0
VERTEX
  8
EDGES
 62
   253
 10
        6.68
 20
        6.64
  0
VERTEX
  8
EDGES
 62
   253
 10
        6.54
 20
        6.64
  0
VERTEX
  8
EDGES
 62
   253
 10
        6.26
 20
        6.64
  0
VERTEX
  8
EDGES
 62
   253
 10
        5.81
 20
        6.64
  0
VERTEX
  8
EDGES
 62
   253
 10
        5.21
 20
        6.64
  0
SEQEND
  0
POLYLINE
  8
EDGES
 62
   253
 66
     1
 10
        0.00
 20
        0.00
  0
VERTEX
  8
EDGES
 62
   253
 10
        5.21
 20
        6.64
  0
VERTEX
  8
EDGES
 62
   253
 10
        4.89
 20
        6.41
  0
VERTEX
  8
EDGES
 62
   253
 10
        4.59
 20
        6.21
  0
VERTEX
  8
EDGES
 62
   253
 10
        4.32
 20
        6.03
  0
VERTEX
  8
EDGES
 62
   253
 10
        4.08
 20
        5.88
  0
VERTEX
  8
EDGES
 62
   253
 10
        3.86
 20
        5.75
  0
VERTEX
  8
EDGES
 62
   253
 10
        3.66
 20
        5.63
  0
VERTEX
  8
EDGES
 62
   253
 10
        3.47
 20
        5.53
  0
VERTEX
  8
EDGES
 62
   253
 10
        3.31
 20
        5.45
  0
VERTEX
  8
EDGES
 62
   253
 10
        3.15
 20
        5.37
  0
VERTEX
  8
EDGES
 62
   253
 10
        3.01
 20
        5.30
  0
VERTEX
  8
EDGES
 62
   253
 10
        2.87
 20
        5.24
  0
VERTEX
  8
EDGES
 62
   253
 10
        2.74
 20
        5.18
  0
VERTEX
  8
EDGES
 62
   253
 10
        2.62
 20
        5.12
  0
VERTEX
  8
EDGES
 62
   253
 10
        2.50
 20
        5.07
  0
VERTEX
  8
EDGES
 62
   253
 10
        2.38
 20
        5.01
  0
VERTEX
  8
EDGES
 62
   253
 10
        2.26
 20
        4.95
  0
VERTEX
  8
EDGES
 62
   253
 10
        2.14
 20
        4.90
  0
VERTEX
  8
EDGES
 62
   253
 10
        2.01
 20
        4.84
  0
VERTEX
  8
EDGES
 62
   253
 10
        1.88
 20
        4.78
  0
VERTEX
  8
EDGES
 62
   253
 10
        1.74
 20
        4.71
  0
VERTEX
  8
EDGES
 62
   253
 10
        1.59
 20
        4.65
  0
VERTEX
  8
EDGES
 62
   253
 10
        1.43
 20
        4.57
  0
VERTEX
  8
EDGES
 62
   253
 10
        1.26
 20
        4.49
  0
VERTEX
  8
EDGES
 62
   253
 10
        1.09
 20
        4.40
  0
VERTEX
  8
EDGES
 62
   253
 10
        0.92
 20
        4.29
  0
VERTEX
  8
EDGES
 62
   253
 10
        0.75
 20
        4.17
  0
VERTEX
  8
EDGES
 62
   253
 10
        0.58
 20
        4.03
  0
VERTEX
  8
EDGES
 62
   253
 10
        0.43
 20
        3.87
  0
VERTEX
  8
EDGES
 62
   253
 10
        0.29
 20
        3.68
  0
VERTEX
  8
EDGES
 62
   253
 10
        0.17
 20
        3.47
  0
VERTEX
  8
EDGES
 62
   253
 10
        0.07
 20
        3.22
  0
VERTEX
  8
EDGES
 62
   253
 10
       -0.00
 20
        2.94
  0
SEQEND
  0
POLYLINE
  8
0
 62
    80
 66
     1
 10
        0.00
 20
        0.00
  0
VERTEX
  8
0
 62
    80
 10
       -0.80
 20
        6.70
  0
VERTEX
  8
0
 62
    80
 10
       -0.77
 20
        6.65
  0
VERTEX
  8
0
 62
    80
 10
       -0.74
 20
        6.61
  0
VERTEX
  8
0
 62
    80
 10
       -0.72
 20
        6.57
  0
VERTEX
  8
0
 62
    80
 10
       -0.69
 20
        6.53
  0
VERTEX
  8
0
 62
    80
 10
       -0.67
 20
        6.50
  0
VERTEX
  8
0
 62
    80
 10
       -0.65
 20
        6.47
  0
VERTEX
  8
0
 62
    80
 10
       -0.63
 20
        6.43
  0
VERTEX
  8
0
 62
    80
 10
       -0.61
 20
        6.40
  0
VERTEX
  8
0
 62
    80
 10
       -0.59
 20
        6.37
  0
VERTEX
  8
0
 62
    80
 10
       -0.58
 20
        6.34
  0
VERTEX
  8
0
 62
    80
 10
       -0.56
 20
        6.31
  0
VERTEX
  8
0
 62
    80
 10
       -0.54
 20
        6.27
  0
VERTEX
  8
0
 62
    80
 10
       -0.52
 20
        6.23
  0
VERTEX
  8
0
 62
    80
 10
       -0.50
 20
        6.19
  0
VERTEX
  8
0
 62
    80
 10
       -0.48
 20
        6.15
  0
VERTEX
  8
0
 62
    80
 10
       -0.45
 20
        6.11
  0
VERTEX
  8
0
 62
    80
 10
       -0.43
 20
        6.06
  0
VERTEX
  8
0
 62
    80
 10
       -0.40
 20
        6.01
  0
VERTEX
  8
0
 62
    80
 10
       -0.37
 20
        5.95
  0
VERTEX
  8
0
 62
    80
 10
       -0.34
 20
        5.89
  0
VERTEX
  8
0
 62
    80
 10
       -0.31
 20
        5.83
  0
VERTEX
  8
0
 62
    80
 10
       -0.28
 20
        5.76
  0
VERTEX
  8
0
 62
    80
 10
       -0.24
 20
        5.68
  0
VERTEX
  8
0
 62
    80
 10
       -0.20
 20
        5.60
  0
VERTEX
  8
0
 62
    80
 10
       -0.16
 20
        5.49
  0
VERTEX
  8
0
 62
    80
 10
       -0.13
 20
        5.37
  0
VERTEX
  8
0
 62
    80
 10
       -0.09
 20
        5.22
  0
VERTEX
  8
0
 62
    80
 10
       -0.06
 20
        5.04
  0
VERTEX
  8
0
 62
    80
 10
       -0.04
 20
        4.83
  0
VERTEX
  8
0
 62
    80
 10
       -0.02
 20
        4.58
  0
VERTEX
  8
0
 62
    80
 10
       -0.00
 20
        4.30
  0
VERTEX
  8
0
 62
    80
 10
       -0.00
 20
        3.96
  0
SEQEND
  0
POLYLINE
  8
0
 62
    80
 66
     1
 10
        0.00
 20
        0.00
  0
VERTEX
  8
0
 62
    80
 10
        0.80
 20
        6.70
  0
VERTEX
  8
0
 62
    80
 10
        0.77
 20
        6.65
  0
VERTEX
  8
0
 62
    80
 10
        0.74
 20
        6.61
  0
VERTEX
  8
0
 62
    80
 10
        0.72
 20
        6.57
  0
VERTEX
  8
0
 62
    80
 10
        0.69
 20
        6.53
  0
VERTEX
  8
0
 62
    80
 10
        0.67
 20
        6.50
  0
VERTEX
  8
0
 62
    80
 10
        0.65
 20
        6.47
  0
VERTEX
  8
0
 62
    80
 10
        0.63
 20
        6.43
  0
VERTEX
  8
0
 62
    80
 10
        0.61
 20
        6.40
  0
VERTEX
  8
0
 62
    80
 10
        0.59
 20
        6.37
  0
VERTEX
  8
0
 62
    80
 10
        0.58
 20
        6.34
  0
VERTEX
  8
0
 62
    80
 10
        0.56
 20
        6.31
  0
VERTEX
  8
0
 62
    80
 10
        0.54
 20
        6.27
  0
VERTEX
  8
0
 62
    80
 10
        0.52
 20
        6.23
  0
VERTEX
  8
0
 62
    80
 10
        0.50
 20
        6.19
  0
VERTEX
  8
0
 62
    80
 10
        0.48
 20
        6.15
  0
VERTEX
  8
0
 62
    80
 10
        0.45
 20
        6.11
  0
VERTEX
  8
0
 62
    80
 10
        0.43
 20
        6.06
  0
VERTEX
  8
0
 62
    80
 10
        0.40
 20
        6.01
  0
VERTEX
  8
0
 62
    80
 10
        0.37
 20
        5.95
  0
VERTEX
  8
0
 62
    80
 10
        0.34
 20
        5.89
  0
VERTEX
  8
0
 62
    80
 10
        0.31
 20
        5.83
  0
VERTEX
  8
0
 62
    80
 10
        0.28
 20
        5.76
  0
VERTEX
  8
0
 62
    80
 10
        0.24
 20
        5.68
  0
VERTEX
  8
0
 62
    80
 10
        0.20
 20
        5.60
  0
VERTEX
  8
0
 62
    80
 10
        0.16
 20
        5.49
  0
VERTEX
  8
0
 62
    80
 10
        0.13
 20
        5.37
  0
VERTEX
  8
0
 62
    80
 10
        0.09
 20
        5.22
  0
VERTEX
  8
0
 62
    80
 10
        0.06
 20
        5.04
  0
VERTEX
  8
0
 62
    80
 10
        0.04
 20
        4.83
  0
VERTEX
  8
0
 62
    80
 10
        0.02
 20
        4.58
  0
VERTEX
  8
0
 62
    80
 10
        0.00
 20
        4.30
  0
VERTEX
  8
0
 62
    80
 10
        0.00
 20
        3.96
  0
SEQEND
  0
POLYLINE
  8
5
 62
    80
 66
     1
 10
        0.00
 20
        0.00
  0
VERTEX
  8
5
 62
    80
 10
       -2.77
 20
        6.66
  0
VERTEX
  8
5
 62
    80
 10
       -2.70
 20
        6.53
  0
VERTEX
  8
5
 62
    80
 10
       -2.64
 20
        6.41
  0
VERTEX
  8
5
 62
    80
 10
       -2.58
 20
        6.30
  0
VERTEX
  8
5
 62
    80
 10
       -2.53
 20
        6.19
  0
VERTEX
  8
5
 62
    80
 10
       -2.49
 20
        6.09
  0
VERTEX
  8
5
 62
    80
 10
       -2.45
 20
        6.00
  0
VERTEX
  8
5
 62
    80
 10
       -2.42
 20
        5.91
  0
VERTEX
  8
5
 62
    80
 10
       -2.39
 20
        5.82
  0
VERTEX
  8
5
 62
    80
 10
       -2.36
 20
        5.73
  0
VERTEX
  8
5
 62
    80
 10
       -2.34
 20
        5.65
  0
VERTEX
  8
5
 62
    80
 10
       -2.32
 20
        5.57
  0
VERTEX
  8
5
 62
    80
 10
       -2.30
 20
        5.50
  0
VERTEX
  8
5
 62
    80
 10
       -2.28
 20
        5.42
  0
VERTEX
  8
5
 62
    80
 10
       -2.27
 20
        5.35
  0
VERTEX
  8
5
 62
    80
 10
       -2.25
 20
        5.27
  0
VERTEX
  8
5
 62
    80
 10
       -2.24
 20
        5.20
  0
VERTEX
  8
5
 62
    80
 10
       -2.22
 20
        5.12
  0
VERTEX
  8
5
 62
    80
 10
       -2.21
 20
        5.04
  0
VERTEX
  8
5
 62
    80
 10
       -2.20
 20
        4.96
  0
VERTEX
  8
5
 62
    80
 10
       -2.18
 20
        4.87
  0
VERTEX
  8
5
 62
    80
 10
       -2.17
 20
        4.79
  0
VERTEX
  8
5
 62
    80
 10
       -2.15
 20
        4.70
  0
VERTEX
  8
5
 62
    80
 10
       -2.14
 20
        4.60
  0
VERTEX
  8
5
 62
    80
 10
       -2.12
 20
        4.49
  0
VERTEX
  8
5
 62
    80
 10
       -2.11
 20
        4.37
  0
VERTEX
  8
5
 62
    80
 10
       -2.09
 20
        4.24
  0
VERTEX
  8
5
 62
    80
 10
       -2.07
 20
        4.09
  0
VERTEX
  8
5
 62
    80
 10
       -2.05
 20
        3.92
  0
VERTEX
  8
5
 62
    80
 10
       -2.03
 20
        3.73
  0
VERTEX
  8
5
 62
    80
 10
       -2.01
 20
        3.51
  0
VERTEX
  8
5
 62
    80
 10
       -1.99
 20
        3.26
  0
VERTEX
  8
5
 62
    80
 10
       -1.96
 20
        2.97
  0
SEQEND
  0
POLYLINE
  8
5
 62
    80
 66
     1
 10
        0.00
 20
        0.00
  0
VERTEX
  8
5
 62
    80
 10
        2.77
 20
        6.66
  0
VERTEX
  8
5
 62
    80
 10
        2.70
 20
        6.53
  0
VERTEX
  8
5
 62
    80
 10
        2.64
 20
        6.41
  0
VERTEX
  8
5
 62
    80
 10
        2.58
 20
        6.30
  0
VERTEX
  8
5
 62
    80
 10
        2.53
 20
        6.19
  0
VERTEX
  8
5
 62
    80
 10
        2.49
 20
        6.09
  0
VERTEX
  8
5
 62
    80
 10
        2.45
 20
        6.00
  0
VERTEX
  8
5
 62
    80
 10
        2.42
 20
        5.91
  0
VERTEX
  8
5
 62
    80
 10
        2.39
 20
        5.82
  0
VERTEX
  8
5
 62
    80
 10
        2.36
 20
        5.73
  0
VERTEX
  8
5
 62
    80
 10
        2.34
 20
        5.65
  0
VERTEX
  8
5
 62
    80
 10
        2.32
 20
        5.57
  0
VERTEX
  8
5
 62
    80
 10
        2.30
 20
        5.50
  0
VERTEX
  8
5
 62
    80
 10
        2.28
 20
        5.42
  0
VERTEX
  8
5
 62
    80
 10
        2.27
 20
        5.35
  0
VERTEX
  8
5
 62
    80
 10
        2.25
 20
        5.27
  0
VERTEX
  8
5
 62
    80
 10
        2.24
 20
        5.20
  0
VERTEX
  8
5
 62
    80
 10
        2.22
 20
        5.12
  0
VERTEX
  8
5
 62
    80
 10
        2.21
 20
        5.04
  0
VERTEX
  8
5
 62
    80
 10
        2.20
 20
        4.96
  0
VERTEX
  8
5
 62
    80
 10
        2.18
 20
        4.87
  0
VERTEX
  8
5
 62
    80
 10
        2.17
 20
        4.79
  0
VERTEX
  8
5
 62
    80
 10
        2.15
 20
        4.70
  0
VERTEX
  8
5
 62
    80
 10
        2.14
 20
        4.60
  0
VERTEX
  8
5
 62
    80
 10
        2.12
 20
        4.49
  0
VERTEX
  8
5
 62
    80
 10
        2.11
 20
        4.37
  0
VERTEX
  8
5
 62
    80
 10
        2.09
 20
        4.24
  0
VERTEX
  8
5
 62
    80
 10
        2.07
 20
        4.09
  0
VERTEX
  8
5
 62
    80
 10
        2.05
 20
        3.92
  0
VERTEX
  8
5
 62
    80
 10
        2.03
 20
        3.73
  0
VERTEX
  8
5
 62
    80
 10
        2.01
 20
        3.51
  0
VERTEX
  8
5
 62
    80
 10
        1.99
 20
        3.26
  0
VERTEX
  8
5
 62
    80
 10
        1.96
 20
        2.97
  0
SEQEND
  0
POLYLINE
  8
1
 62
    80
 66
     1
 10
        0.00
 20
        0.00
  0
VERTEX
  8
1
 62
    80
 10
       -4.32
 20
        6.63
  0
VERTEX
  8
1
 62
    80
 10
       -4.24
 20
        6.44
  0
VERTEX
  8
1
 62
    80
 10
       -4.17
 20
        6.25
  0
VERTEX
  8
1
 62
    80
 10
       -4.11
 20
        6.07
  0
VERTEX
  8
1
 62
    80
 10
       -4.06
 20
        5.91
  0
VERTEX
  8
1
 62
    80
 10
       -4.01
 20
        5.75
  0
VERTEX
  8
1
 62
    80
 10
       -3.98
 20
        5.59
  0
VERTEX
  8
1
 62
    80
 10
       -3.94
 20
        5.45
  0
VERTEX
  8
1
 62
    80
 10
       -3.91
 20
        5.31
  0
VERTEX
  8
1
 62
    80
 10
       -3.89
 20
        5.17
  0
VERTEX
  8
1
 62
    80
 10
       -3.87
 20
        5.04
  0
VERTEX
  8
1
 62
    80
 10
       -3.85
 20
        4.92
  0
VERTEX
  8
1
 62
    80
 10
       -3.84
 20
        4.80
  0
VERTEX
  8
1
 62
    80
 10
       -3.82
 20
        4.68
  0
VERTEX
  8
1
 62
    80
 10
       -3.81
 20
        4.56
  0
VERTEX
  8
1
 62
    80
 10
       -3.80
 20
        4.45
  0
VERTEX
  8
1
 62
    80
 10
       -3.79
 20
        4.34
  0
VERTEX
  8
1
 62
    80
 10
       -3.78
 20
        4.23
  0
VERTEX
  8
1
 62
    80
 10
       -3.77
 20
        4.12
  0
VERTEX
  8
1
 62
    80
 10
       -3.76
 20
        4.01
  0
VERTEX
  8
1
 62
    80
 10
       -3.75
 20
        3.90
  0
VERTEX
  8
1
 62
    80
 10
       -3.74
 20
        3.78
  0
VERTEX
  8
1
 62
    80
 10
       -3.73
 20
        3.67
  0
VERTEX
  8
1
 62
    80
 10
       -3.72
 20
        3.55
  0
VERTEX
  8
1
 62
    80
 10
       -3.70
 20
        3.43
  0
VERTEX
  8
1
 62
    80
 10
       -3.69
 20
        3.31
  0
VERTEX
  8
1
 62
    80
 10
       -3.67
 20
        3.17
  0
VERTEX
  8
1
 62
    80
 10
       -3.65
 20
        3.03
  0
VERTEX
  8
1
 62
    80
 10
       -3.63
 20
        2.88
  0
VERTEX
  8
1
 62
    80
 10
       -3.60
 20
        2.72
  0
VERTEX
  8
1
 62
    80
 10
       -3.57
 20
        2.55
  0
VERTEX
  8
1
 62
    80
 10
       -3.53
 20
        2.36
  0
VERTEX
  8
1
 62
    80
 10
       -3.49
 20
        2.16
  0
SEQEND
  0
POLYLINE
  8
1
 62
    80
 66
     1
 10
        0.00
 20
        0.00
  0
VERTEX
  8
1
 62
    80
 10
        4.32
 20
        6.63
  0
VERTEX
  8
1
 62
    80
 10
        4.24
 20
        6.44
  0
VERTEX
  8
1
 62
    80
 10
        4.17
 20
        6.25
  0
VERTEX
  8
1
 62
    80
 10
        4.11
 20
        6.07
  0
VERTEX
  8
1
 62
    80
 10
        4.06
 20
        5.91
  0
VERTEX
  8
1
 62
    80
 10
        4.01
 20
        5.75
  0
VERTEX
  8
1
 62
    80
 10
        3.98
 20
        5.59
  0
VERTEX
  8
1
 62
    80
 10
        3.94
 20
        5.45
  0
VERTEX
  8
1
 62
    80
 10
        3.91
 20
        5.31
  0
VERTEX
  8
1
 62
    80
 10
        3.89
 20
        5.17
  0
VERTEX
  8
1
 62
    80
 10
        3.87
 20
        5.04
  0
VERTEX
  8
1
 62
    80
 10
        3.85
 20
        4.92
  0
VERTEX
  8
1
 62
    80
 10
        3.84
 20
        4.80
  0
VERTEX
  8
1
 62
    80
 10
        3.82
 20
        4.68
  0
VERTEX
  8
1
 62
    80
 10
        3.81
 20
        4.56
  0
VERTEX
  8
1
 62
    80
 10
        3.80
 20
        4.45
  0
VERTEX
  8
1
 62
    80
 10
        3.79
 20
        4.34
  0
VERTEX
  8
1
 62
    80
 10
        3.78
 20
        4.23
  0
VERTEX
  8
1
 62
    80
 10
        3.77
 20
        4.12
  0
VERTEX
  8
1
 62
    80
 10
        3.76
 20
        4.01
  0
VERTEX
  8
1
 62
    80
 10
        3.75
 20
        3.90
  0
VERTEX
  8
1
 62
    80
 10
        3.74
 20
        3.78
  0
VERTEX
  8
1
 62
    80
 10
        3.73
 20
        3.67
  0
VERTEX
  8
1
 62
    80
 10
        3.72
 20
        3.55
  0
VERTEX
  8
1
 62
    80
 10
        3.70
 20
        3.43
  0
VERTEX
  8
1
 62
    80
 10
        3.69
 20
        3.31
  0
VERTEX
  8
1
 62
    80
 10
        3.67
 20
        3.17
  0
VERTEX
  8
1
 62
    80
 10
        3.65
 20
        3.03
  0
VERTEX
  8
1
 62
    80
 10
        3.63
 20
        2.88
  0
VERTEX
  8
1
 62
    80
 10
        3.60
 20
        2.72
  0
VERTEX
  8
1
 62
    80
 10
        3.57
 20
        2.55
  0
VERTEX
  8
1
 62
    80
 10
        3.53
 20
        2.36
  0
VERTEX
  8
1
 62
    80
 10
        3.49
 20
        2.16
  0
SEQEND
  0
POLYLINE
  8
15
 62
    80
 66
     1
 10
        0.00
 20
        0.00
  0
VERTEX
  8
15
 62
    80
 10
       -5.50
 20
        6.63
  0
VERTEX
  8
15
 62
    80
 10
       -5.43
 20
        6.36
  0
VERTEX
  8
15
 62
    80
 10
       -5.36
 20
        6.11
  0
VERTEX
  8
15
 62
    80
 10
       -5.31
 20
        5.87
  0
VERTEX
  8
15
 62
    80
 10
       -5.26
 20
        5.64
  0
VERTEX
  8
15
 62
    80
 10
       -5.22
 20
        5.42
  0
VERTEX
  8
15
 62
    80
 10
       -5.19
 20
        5.22
  0
VERTEX
  8
15
 62
    80
 10
       -5.16
 20
        5.02
  0
VERTEX
  8
15
 62
    80
 10
       -5.13
 20
        4.83
  0
VERTEX
  8
15
 62
    80
 10
       -5.11
 20
        4.65
  0
VERTEX
  8
15
 62
    80
 10
       -5.09
 20
        4.48
  0
VERTEX
  8
15
 62
    80
 10
       -5.08
 20
        4.32
  0
VERTEX
  8
15
 62
    80
 10
       -5.06
 20
        4.16
  0
VERTEX
  8
15
 62
    80
 10
       -5.05
 20
        4.01
  0
VERTEX
  8
15
 62
    80
 10
       -5.04
 20
        3.87
  0
VERTEX
  8
15
 62
    80
 10
       -5.02
 20
        3.73
  0
VERTEX
  8
15
 62
    80
 10
       -5.01
 20
        3.59
  0
VERTEX
  8
15
 62
    80
 10
       -5.00
 20
        3.46
  0
VERTEX
  8
15
 62
    80
 10
       -4.99
 20
        3.33
  0
VERTEX
  8
15
 62
    80
 10
       -4.98
 20
        3.20
  0
VERTEX
  8
15
 62
    80
 10
       -4.97
 20
        3.08
  0
VERTEX
  8
15
 62
    80
 10
       -4.96
 20
        2.95
  0
VERTEX
  8
15
 62
    80
 10
       -4.94
 20
        2.83
  0
VERTEX
  8
15
 62
    80
 10
       -4.93
 20
        2.70
  0
VERTEX
  8
15
 62
    80
 10
       -4.91
 20
        2.58
  0
VERTEX
  8
15
 62
    80
 10
       -4.89
 20
        2.45
  0
VERTEX
  8
15
 62
    80
 10
       -4.87
 20
        2.33
  0
VERTEX
  8
15
 62
    80
 10
       -4.85
 20
        2.20
  0
VERTEX
  8
15
 62
    80
 10
       -4.81
 20
        2.07
  0
VERTEX
  8
15
 62
    80
 10
       -4.78
 20
        1.93
  0
VERTEX
  8
15
 62
    80
 10
       -4.74
 20
        1.79
  0
VERTEX
  8
15
 62
    80
 10
       -4.69
 20
        1.65
  0
VERTEX
  8
15
 62
    80
 10
       -4.64
 20
        1.51
  0
SEQEND
  0
POLYLINE
  8
15
 62
    80
 66
     1
 10
        0.00
 20
        0.00
  0
VERTEX
  8
15
 62
    80
 10
        5.50
 20
        6.63
  0
VERTEX
  8
15
 62
    80
 10
        5.43
 20
        6.36
  0
VERTEX
  8
15
 62
    80
 10
        5.36
 20
        6.11
  0
VERTEX
  8
15
 62
    80
 10
        5.31
 20
        5.87
  0
VERTEX
  8
15
 62
    80
 10
        5.26
 20
        5.64
  0
VERTEX
  8
15
 62
    80
 10
        5.22
 20
        5.42
  0
VERTEX
  8
15
 62
    80
 10
        5.19
 20
        5.22
  0
VERTEX
  8
15
 62
    80
 10
        5.16
 20
        5.02
  0
VERTEX
  8
15
 62
    80
 10
        5.13
 20
        4.83
  0
VERTEX
  8
15
 62
    80
 10
        5.11
 20
        4.65
  0
VERTEX
  8
15
 62
    80
 10
        5.09
 20
        4.48
  0
VERTEX
  8
15
 62
    80
 10
        5.08
 20
        4.32
  0
VERTEX
  8
15
 62
    80
 10
        5.06
 20
        4.16
  0
VERTEX
  8
15
 62
    80
 10
        5.05
 20
        4.01
  0
VERTEX
  8
15
 62
    80
 10
        5.04
 20
        3.87
  0
VERTEX
  8
15
 62
    80
 10
        5.02
 20
        3.73
  0
VERTEX
  8
15
 62
    80
 10
        5.01
 20
        3.59
  0
VERTEX
  8
15
 62
    80
 10
        5.00
 20
        3.46
  0
VERTEX
  8
15
 62
    80
 10
        4.99
 20
        3.33
  0
VERTEX
  8
15
 62
    80
 10
        4.98
 20
        3.20
  0
VERTEX
  8
15
 62
    80
 10
        4.97
 20
        3.08
  0
VERTEX
  8
15
 62
    80
 10
        4.96
 20
        2.95
  0
VERTEX
  8
15
 62
    80
 10
        4.94
 20
        2.83
  0
VERTEX
  8
15
 62
    80
 10
        4.93
 20
        2.70
  0
VERTEX
  8
15
 62
    80
 10
        4.91
 20
        2.58
  0
VERTEX
  8
15
 62
    80
 10
        4.89
 20
        2.45
  0
VERTEX
  8
15
 62
    80
 10
        4.87
 20
        2.33
  0
VERTEX
  8
15
 62
    80
 10
        4.85
 20
        2.20
  0
VERTEX
  8
15
 62
    80
 10
        4.81
 20
        2.07
  0
VERTEX
  8
15
 62
    80
 10
        4.78
 20
        1.93
  0
VERTEX
  8
15
 62
    80
 10
        4.74
 20
        1.79
  0
VERTEX
  8
15
 62
    80
 10
        4.69
 20
        1.65
  0
VERTEX
  8
15
 62
    80
 10
        4.64
 20
        1.51
  0
SEQEND
  0
POLYLINE
  8
2
 62
    80
 66
     1
 10
        0.00
 20
        0.00
  0
VERTEX
  8
2
 62
    80
 10
       -6.18
 20
        6.63
  0
VERTEX
  8
2
 62
    80
 10
       -6.13
 20
        6.30
  0
VERTEX
  8
2
 62
    80
 10
       -6.09
 20
        5.99
  0
VERTEX
  8
2
 62
    80
 10
       -6.05
 20
        5.69
  0
VERTEX
  8
2
 62
    80
 10
       -6.02
 20
        5.41
  0
VERTEX
  8
2
 62
    80
 10
       -5.99
 20
        5.14
  0
VERTEX
  8
2
 62
    80
 10
       -5.96
 20
        4.89
  0
VERTEX
  8
2
 62
    80
 10
       -5.94
 20
        4.65
  0
VERTEX
  8
2
 62
    80
 10
       -5.92
 20
        4.42
  0
VERTEX
  8
2
 62
    80
 10
       -5.91
 20
        4.20
  0
VERTEX
  8
2
 62
    80
 10
       -5.89
 20
        4.00
  0
VERTEX
  8
2
 62
    80
 10
       -5.88
 20
        3.81
  0
VERTEX
  8
2
 62
    80
 10
       -5.86
 20
        3.62
  0
VERTEX
  8
2
 62
    80
 10
       -5.85
 20
        3.45
  0
VERTEX
  8
2
 62
    80
 10
       -5.84
 20
        3.29
  0
VERTEX
  8
2
 62
    80
 10
       -5.82
 20
        3.13
  0
VERTEX
  8
2
 62
    80
 10
       -5.81
 20
        2.98
  0
VERTEX
  8
2
 62
    80
 10
       -5.80
 20
        2.84
  0
VERTEX
  8
2
 62
    80
 10
       -5.78
 20
        2.70
  0
VERTEX
  8
2
 62
    80
 10
       -5.77
 20
        2.57
  0
VERTEX
  8
2
 62
    80
 10
       -5.75
 20
        2.44
  0
VERTEX
  8
2
 62
    80
 10
       -5.74
 20
        2.31
  0
VERTEX
  8
2
 62
    80
 10
       -5.72
 20
        2.19
  0
VERTEX
  8
2
 62
    80
 10
       -5.70
 20
        2.06
  0
VERTEX
  8
2
 62
    80
 10
       -5.67
 20
        1.94
  0
VERTEX
  8
2
 62
    80
 10
       -5.65
 20
        1.82
  0
VERTEX
  8
2
 62
    80
 10
       -5.62
 20
        1.71
  0
VERTEX
  8
2
 62
    80
 10
       -5.58
 20
        1.59
  0
VERTEX
  8
2
 62
    80
 10
       -5.54
 20
        1.48
  0
VERTEX
  8
2
 62
    80
 10
       -5.49
 20
        1.36
  0
VERTEX
  8
2
 62
    80
 10
       -5.44
 20
        1.25
  0
VERTEX
  8
2
 62
    80
 10
       -5.38
 20
        1.14
  0
VERTEX
  8
2
 62
    80
 10
       -5.31
 20
        1.03
  0
SEQEND
  0
POLYLINE
  8
2
 62
    80
 66
     1
 10
        0.00
 20
        0.00
  0
VERTEX
  8
2
 62
    80
 10
        6.18
 20
        6.63
  0
VERTEX
  8
2
 62
    80
 10
        6.13
 20
        6.30
  0
VERTEX
  8
2
 62
    80
 10
        6.09
 20
        5.99
  0
VERTEX
  8
2
 62
    80
 10
        6.05
 20
        5.69
  0
VERTEX
  8
2
 62
    80
 10
        6.02
 20
        5.41
  0
VERTEX
  8
2
 62
    80
 10
        5.99
 20
        5.14
  0
VERTEX
  8
2
 62
    80
 10
        5.96
 20
        4.89
  0
VERTEX
  8
2
 62
    80
 10
        5.94
 20
        4.65
  0
VERTEX
  8
2
 62
    80
 10
        5.92
 20
        4.42
  0
VERTEX
  8
2
 62
    80
 10
        5.91
 20
        4.20
  0
VERTEX
  8
2
 62
    80
 10
        5.89
 20
        4.00
  0
VERTEX
  8
2
 62
    80
 10
        5.88
 20
        3.81
  0
VERTEX
  8
2
 62
    80
 10
        5.86
 20
        3.62
  0
VERTEX
  8
2
 62
    80
 10
        5.85
 20
        3.45
  0
VERTEX
  8
2
 62
    80
 10
        5.84
 20
        3.29
  0
VERTEX
  8
2
 62
    80
 10
        5.82
 20
        3.13
  0
VERTEX
  8
2
 62
    80
 10
        5.81
 20
        2.98
  0
VERTEX
  8
2
 62
    80
 10
        5.80
 20
        2.84
  0
VERTEX
  8
2
 62
    80
 10
        5.78
 20
        2.70
  0
VERTEX
  8
2
 62
    80
 10
        5.77
 20
        2.57
  0
VERTEX
  8
2
 62
    80
 10
        5.75
 20
        2.44
  0
VERTEX
  8
2
 62
    80
 10
        5.74
 20
        2.31
  0
VERTEX
  8
2
 62
    80
 10
        5.72
 20
        2.19
  0
VERTEX
  8
2
 62
    80
 10
        5.70
 20
        2.06
  0
VERTEX
  8
2
 62
    80
 10
        5.67
 20
        1.94
  0
VERTEX
  8
2
 62
    80
 10
        5.65
 20
        1.82
  0
VERTEX
  8
2
 62
    80
 10
        5.62
 20
        1.71
  0
VERTEX
  8
2
 62
    80
 10
        5.58
 20
        1.59
  0
VERTEX
  8
2
 62
    80
 10
        5.54
 20
        1.48
  0
VERTEX
  8
2
 62
    80
 10
        5.49
 20
        1.36
  0
VERTEX
  8
2
 62
    80
 10
        5.44
 20
        1.25
  0
VERTEX
  8
2
 62
    80
 10
        5.38
 20
        1.14
  0
VERTEX
  8
2
 62
    80
 10
        5.31
 20
        1.03
  0
SEQEND
  0
POLYLINE
  8
3
 62
    80
 66
     1
 10
        0.00
 20
        0.00
  0
VERTEX
  8
3
 62
    80
 10
       -6.67
 20
        6.65
  0
VERTEX
  8
3
 62
    80
 10
       -6.66
 20
        6.22
  0
VERTEX
  8
3
 62
    80
 10
       -6.65
 20
        5.82
  0
VERTEX
  8
3
 62
    80
 10
       -6.64
 20
        5.43
  0
VERTEX
  8
3
 62
    80
 10
       -6.63
 20
        5.07
  0
VERTEX
  8
3
 62
    80
 10
       -6.62
 20
        4.73
  0
VERTEX
  8
3
 62
    80
 10
       -6.62
 20
        4.41
  0
VERTEX
  8
3
 62
    80
 10
       -6.61
 20
        4.10
  0
VERTEX
  8
3
 62
    80
 10
       -6.60
 20
        3.82
  0
VERTEX
  8
3
 62
    80
 10
       -6.60
 20
        3.55
  0
VERTEX
  8
3
 62
    80
 10
       -6.59
 20
        3.30
  0
VERTEX
  8
3
 62
    80
 10
       -6.59
 20
        3.06
  0
VERTEX
  8
3
 62
    80
 10
       -6.58
 20
        2.85
  0
VERTEX
  8
3
 62
    80
 10
       -6.57
 20
        2.64
  0
VERTEX
  8
3
 62
    80
 10
       -6.57
 20
        2.46
  0
VERTEX
  8
3
 62
    80
 10
       -6.56
 20
        2.28
  0
VERTEX
  8
3
 62
    80
 10
       -6.55
 20
        2.12
  0
VERTEX
  8
3
 62
    80
 10
       -6.53
 20
        1.96
  0
VERTEX
  8
3
 62
    80
 10
       -6.52
 20
        1.82
  0
VERTEX
  8
3
 62
    80
 10
       -6.50
 20
        1.69
  0
VERTEX
  8
3
 62
    80
 10
       -6.48
 20
        1.56
  0
VERTEX
  8
3
 62
    80
 10
       -6.45
 20
        1.44
  0
VERTEX
  8
3
 62
    80
 10
       -6.42
 20
        1.33
  0
VERTEX
  8
3
 62
    80
 10
       -6.39
 20
        1.22
  0
VERTEX
  8
3
 62
    80
 10
       -6.35
 20
        1.11
  0
VERTEX
  8
3
 62
    80
 10
       -6.30
 20
        1.01
  0
VERTEX
  8
3
 62
    80
 10
       -6.25
 20
        0.92
  0
VERTEX
  8
3
 62
    80
 10
       -6.20
 20
        0.82
  0
VERTEX
  8
3
 62
    80
 10
       -6.13
 20
        0.74
  0
VERTEX
  8
3
 62
    80
 10
       -6.06
 20
        0.65
  0
VERTEX
  8
3
 62
    80
 10
       -5.97
 20
        0.57
  0
VERTEX
  8
3
 62
    80
 10
       -5.88
 20
        0.49
  0
VERTEX
  8
3
 62
    80
 10
       -5.78
 20
        0.41
  0
SEQEND
  0
POLYLINE
  8
3
 62
    80
 66
     1
 10
        0.00
 20
        0.00
  0
VERTEX
  8
3
 62
    80
 10
        6.67
 20
        6.65
  0
VERTEX
  8
3
 62
    80
 10
        6.66
 20
        6.22
  0
VERTEX
  8
3
 62
    80
 10
        6.65
 20
        5.82
  0
VERTEX
  8
3
 62
    80
 10
        6.64
 20
        5.43
  0
VERTEX
  8
3
 62
    80
 10
        6.63
 20
        5.07
  0
VERTEX
  8
3
 62
    80
 10
        6.62
 20
        4.73
  0
VERTEX
  8
3
 62
    80
 10
        6.62
 20
        4.41
  0
VERTEX
  8
3
 62
    80
 10
        6.61
 20
        4.10
  0
VERTEX
  8
3
 62
    80
 10
        6.60
 20
        3.82
  0
VERTEX
  8
3
 62
    80
 10
        6.60
 20
        3.55
  0
VERTEX
  8
3
 62
    80
 10
        6.59
 20
        3.30
  0
VERTEX
  8
3
 62
    80
 10
        6.59
 20
        3.06
  0
VERTEX
  8
3
 62
    80
 10
        6.58
 20
        2.85
  0
VERTEX
  8
3
 62
    80
 10
        6.57
 20
        2.64
  0
VERTEX
  8
3
 62
    80
 10
        6.57
 20
        2.46
  0
VERTEX
  8
3
 62
    80
 10
        6.56
 20
        2.28
  0
VERTEX
  8
3
 62
    80
 10
        6.55
 20
        2.12
  0
VERTEX
  8
3
 62
    80
 10
        6.53
 20
        1.96
  0
VERTEX
  8
3
 62
    80
 10
        6.52
 20
        1.82
  0
VERTEX
  8
3
 62
    80
 10
        6.50
 20
        1.69
  0
VERTEX
  8
3
 62
    80
 10
        6.48
 20
        1.56
  0
VERTEX
  8
3
 62
    80
 10
        6.45
 20
        1.44
  0
VERTEX
  8
3
 62
    80
 10
        6.42
 20
        1.33
  0
VERTEX
  8
3
 62
    80
 10
        6.39
 20
        1.22
  0
VERTEX
  8
3
 62
    80
 10
        6.35
 20
        1.11
  0
VERTEX
  8
3
 62
    80
 10
        6.30
 20
        1.01
  0
VERTEX
  8
3
 62
    80
 10
        6.25
 20
        0.92
  0
VERTEX
  8
3
 62
    80
 10
        6.20
 20
        0.82
  0
VERTEX
  8
3
 62
    80
 10
        6.13
 20
        0.74
  0
VERTEX
  8
3
 62
    80
 10
        6.06
 20
        0.65
  0
VERTEX
  8
3
 62
    80
 10
        5.97
 20
        0.57
  0
VERTEX
  8
3
 62
    80
 10
        5.88
 20
        0.49
  0
VERTEX
  8
3
 62
    80
 10
        5.78
 20
        0.41
  0
SEQEND
  0
POLYLINE
  8
4
 62
    80
 66
     1
 10
        0.00
 20
        0.00
  0
VERTEX
  8
4
 62
    80
 10
       -6.75
 20
        6.65
  0
VERTEX
  8
4
 62
    80
 10
       -6.75
 20
        6.19
  0
VERTEX
  8
4
 62
    80
 10
       -6.75
 20
        5.76
  0
VERTEX
  8
4
 62
    80
 10
       -6.75
 20
        5.34
  0
VERTEX
  8
4
 62
    80
 10
       -6.75
 20
        4.94
  0
VERTEX
  8
4
 62
    80
 10
       -6.75
 20
        4.55
  0
VERTEX
  8
4
 62
    80
 10
       -6.75
 20
        4.19
  0
VERTEX
  8
4
 62
    80
 10
       -6.74
 20
        3.85
  0
VERTEX
  8
4
 62
    80
 10
       -6.74
 20
        3.52
  0
VERTEX
  8
4
 62
    80
 10
       -6.74
 20
        3.22
  0
VERTEX
  8
4
 62
    80
 10
       -6.74
 20
        2.94
  0
VERTEX
  8
4
 62
    80
 10
       -6.74
 20
        2.68
  0
VERTEX
  8
4
 62
    80
 10
       -6.74
 20
        2.44
  0
VERTEX
  8
4
 62
    80
 10
       -6.74
 20
        2.23
  0
VERTEX
  8
4
 62
    80
 10
       -6.73
 20
        2.03
  0
VERTEX
  8
4
 62
    80
 10
       -6.72
 20
        1.85
  0
VERTEX
  8
4
 62
    80
 10
       -6.72
 20
        1.68
  0
VERTEX
  8
4
 62
    80
 10
       -6.70
 20
        1.53
  0
VERTEX
  8
4
 62
    80
 10
       -6.69
 20
        1.39
  0
VERTEX
  8
4
 62
    80
 10
       -6.67
 20
        1.27
  0
VERTEX
  8
4
 62
    80
 10
       -6.64
 20
        1.15
  0
VERTEX
  8
4
 62
    80
 10
       -6.61
 20
        1.05
  0
VERTEX
  8
4
 62
    80
 10
       -6.58
 20
        0.95
  0
VERTEX
  8
4
 62
    80
 10
       -6.54
 20
        0.86
  0
VERTEX
  8
4
 62
    80
 10
       -6.49
 20
        0.77
  0
VERTEX
  8
4
 62
    80
 10
       -6.43
 20
        0.69
  0
VERTEX
  8
4
 62
    80
 10
       -6.37
 20
        0.62
  0
VERTEX
  8
4
 62
    80
 10
       -6.31
 20
        0.55
  0
VERTEX
  8
4
 62
    80
 10
       -6.24
 20
        0.48
  0
VERTEX
  8
4
 62
    80
 10
       -6.16
 20
        0.41
  0
VERTEX
  8
4
 62
    80
 10
       -6.07
 20
        0.35
  0
VERTEX
  8
4
 62
    80
 10
       -5.98
 20
        0.29
  0
VERTEX
  8
4
 62
    80
 10
       -5.88
 20
        0.23
  0
SEQEND
  0
POLYLINE
  8
4
 62
    80
 66
     1
 10
        0.00
 20
        0.00
  0
VERTEX
  8
4
 62
    80
 10
        6.75
 20
        6.65
  0
VERTEX
  8
4
 62
    80
 10
        6.75
 20
        6.19
  0
VERTEX
  8
4
 62
    80
 10
        6.75
 20
        5.76
  0
VERTEX
  8
4
 62
    80
 10
        6.75
 20
        5.34
  0
VERTEX
  8
4
 62
    80
 10
        6.75
 20
        4.94
  0
VERTEX
  8
4
 62
    80
 10
        6.75
 20
        4.55
  0
VERTEX
  8
4
 62
    80
 10
        6.75
 20
        4.19
  0
VERTEX
  8
4
 62
    80
 10
        6.74
 20
        3.85
  0
VERTEX
  8
4
 62
    80
 10
        6.74
 20
        3.52
  0
VERTEX
  8
4
 62
    80
 10
        6.74
 20
        3.22
  0
VERTEX
  8
4
 62
    80
 10
        6.74
 20
        2.94
  0
VERTEX
  8
4
 62
    80
 10
        6.74
 20
        2.68
  0
VERTEX
  8
4
 62
    80
 10
        6.74
 20
        2.44
  0
VERTEX
  8
4
 62
    80
 10
        6.74
 20
        2.23
  0
VERTEX
  8
4
 62
    80
 10
        6.73
 20
        2.03
  0
VERTEX
  8
4
 62
    80
 10
        6.72
 20
        1.85
  0
VERTEX
  8
4
 62
    80
 10
        6.72
 20
        1.68
  0
VERTEX
  8
4
 62
    80
 10
        6.70
 20
        1.53
  0
VERTEX
  8
4
 62
    80
 10
        6.69
 20
        1.39
  0
VERTEX
  8
4
 62
    80
 10
        6.67
 20
        1.27
  0
VERTEX
  8
4
 62
    80
 10
        6.64
 20
        1.15
  0
VERTEX
  8
4
 62
    80
 10
        6.61
 20
        1.05
  0
VERTEX
  8
4
 62
    80
 10
        6.58
 20
        0.95
  0
VERTEX
  8
4
 62
    80
 10
        6.54
 20
        0.86
  0
VERTEX
  8
4
 62
    80
 10
        6.49
 20
        0.77
  0
VERTEX
  8
4
 62
    80
 10
        6.43
 20
        0.69
  0
VERTEX
  8
4
 62
    80
 10
        6.37
 20
        0.62
  0
VERTEX
  8
4
 62
    80
 10
        6.31
 20
        0.55
  0
VERTEX
  8
4
 62
    80
 10
        6.24
 20
        0.48
  0
VERTEX
  8
4
 62
    80
 10
        6.16
 20
        0.41
  0
VERTEX
  8
4
 62
    80
 10
        6.07
 20
        0.35
  0
VERTEX
  8
4
 62
    80
 10
        5.98
 20
        0.29
  0
VERTEX
  8
4
 62
    80
 10
        5.88
 20
        0.23
  0
SEQEND
  0
POLYLINE
  8
5
 62
    80
 66
     1
 10
        0.00
 20
        0.00
  0
VERTEX
  8
5
 62
    80
 10
       -6.75
 20
        6.65
  0
VERTEX
  8
5
 62
    80
 10
       -6.75
 20
        6.19
  0
VERTEX
  8
5
 62
    80
 10
       -6.75
 20
        5.75
  0
VERTEX
  8
5
 62
    80
 10
       -6.75
 20
        5.33
  0
VERTEX
  8
5
 62
    80
 10
       -6.75
 20
        4.93
  0
VERTEX
  8
5
 62
    80
 10
       -6.75
 20
        4.54
  0
VERTEX
  8
5
 62
    80
 10
       -6.75
 20
        4.18
  0
VERTEX
  8
5
 62
    80
 10
       -6.75
 20
        3.83
  0
VERTEX
  8
5
 62
    80
 10
       -6.74
 20
        3.51
  0
VERTEX
  8
5
 62
    80
 10
       -6.74
 20
        3.20
  0
VERTEX
  8
5
 62
    80
 10
       -6.74
 20
        2.92
  0
VERTEX
  8
5
 62
    80
 10
       -6.73
 20
        2.67
  0
VERTEX
  8
5
 62
    80
 10
       -6.73
 20
        2.43
  0
VERTEX
  8
5
 62
    80
 10
       -6.72
 20
        2.21
  0
VERTEX
  8
5
 62
    80
 10
       -6.71
 20
        2.02
  0
VERTEX
  8
5
 62
    80
 10
       -6.70
 20
        1.84
  0
VERTEX
  8
5
 62
    80
 10
       -6.69
 20
        1.68
  0
VERTEX
  8
5
 62
    80
 10
       -6.67
 20
        1.53
  0
VERTEX
  8
5
 62
    80
 10
       -6.65
 20
        1.40
  0
VERTEX
  8
5
 62
    80
 10
       -6.63
 20
        1.28
  0
VERTEX
  8
5
 62
    80
 10
       -6.60
 20
        1.17
  0
VERTEX
  8
5
 62
    80
 10
       -6.57
 20
        1.06
  0
VERTEX
  8
5
 62
    80
 10
       -6.53
 20
        0.97
  0
VERTEX
  8
5
 62
    80
 10
       -6.48
 20
        0.88
  0
VERTEX
  8
5
 62
    80
 10
       -6.43
 20
        0.79
  0
VERTEX
  8
5
 62
    80
 10
       -6.38
 20
        0.71
  0
VERTEX
  8
5
 62
    80
 10
       -6.32
 20
        0.64
  0
VERTEX
  8
5
 62
    80
 10
       -6.25
 20
        0.57
  0
VERTEX
  8
5
 62
    80
 10
       -6.18
 20
        0.50
  0
VERTEX
  8
5
 62
    80
 10
       -6.10
 20
        0.44
  0
VERTEX
  8
5
 62
    80
 10
       -6.02
 20
        0.38
  0
VERTEX
  8
5
 62
    80
 10
       -5.93
 20
        0.32
  0
VERTEX
  8
5
 62
    80
 10
       -5.84
 20
        0.26
  0
SEQEND
  0
POLYLINE
  8
5
 62
    80
 66
     1
 10
        0.00
 20
        0.00
  0
VERTEX
  8
5
 62
    80
 10
        6.75
 20
        6.65
  0
VERTEX
  8
5
 62
    80
 10
        6.75
 20
        6.19
  0
VERTEX
  8
5
 62
    80
 10
        6.75
 20
        5.75
  0
VERTEX
  8
5
 62
    80
 10
        6.75
 20
        5.33
  0
VERTEX
  8
5
 62
    80
 10
        6.75
 20
        4.93
  0
VERTEX
  8
5
 62
    80
 10
        6.75
 20
        4.54
  0
VERTEX
  8
5
 62
    80
 10
        6.75
 20
        4.18
  0
VERTEX
  8
5
 62
    80
 10
        6.75
 20
        3.83
  0
VERTEX
  8
5
 62
    80
 10
        6.74
 20
        3.51
  0
VERTEX
  8
5
 62
    80
 10
        6.74
 20
        3.20
  0
VERTEX
  8
5
 62
    80
 10
        6.74
 20
        2.92
  0
VERTEX
  8
5
 62
    80
 10
        6.73
 20
        2.67
  0
VERTEX
  8
5
 62
    80
 10
        6.73
 20
        2.43
  0
VERTEX
  8
5
 62
    80
 10
        6.72
 20
        2.21
  0
VERTEX
  8
5
 62
    80
 10
        6.71
 20
        2.02
  0
VERTEX
  8
5
 62
    80
 10
        6.70
 20
        1.84
  0
VERTEX
  8
5
 62
    80
 10
        6.69
 20
        1.68
  0
VERTEX
  8
5
 62
    80
 10
        6.67
 20
        1.53
  0
VERTEX
  8
5
 62
    80
 10
        6.65
 20
        1.40
  0
VERTEX
  8
5
 62
    80
 10
        6.63
 20
        1.28
  0
VERTEX
  8
5
 62
    80
 10
        6.60
 20
        1.17
  0
VERTEX
  8
5
 62
    80
 10
        6.57
 20
        1.06
  0
VERTEX
  8
5
 62
    80
 10
        6.53
 20
        0.97
  0
VERTEX
  8
5
 62
    80
 10
        6.48
 20
        0.88
  0
VERTEX
  8
5
 62
    80
 10
        6.43
 20
        0.79
  0
VERTEX
  8
5
 62
    80
 10
        6.38
 20
        0.71
  0
VERTEX
  8
5
 62
    80
 10
        6.32
 20
        0.64
  0
VERTEX
  8
5
 62
    80
 10
        6.25
 20
        0.57
  0
VERTEX
  8
5
 62
    80
 10
        6.18
 20
        0.50
  0
VERTEX
  8
5
 62
    80
 10
        6.10
 20
        0.44
  0
VERTEX
  8
5
 62
    80
 10
        6.02
 20
        0.38
  0
VERTEX
  8
5
 62
    80
 10
        5.93
 20
        0.32
  0
VERTEX
  8
5
 62
    80
 10
        5.84
 20
        0.26
  0
SEQEND
  0
POLYLINE
  8
6
 62
    80
 66
     1
 10
        0.00
 20
        0.00
  0
VERTEX
  8
6
 62
    80
 10
       -6.75
 20
        6.65
  0
VERTEX
  8
6
 62
    80
 10
       -6.75
 20
        6.20
  0
VERTEX
  8
6
 62
    80
 10
       -6.75
 20
        5.77
  0
VERTEX
  8
6
 62
    80
 10
       -6.74
 20
        5.36
  0
VERTEX
  8
6
 62
    80
 10
       -6.74
 20
        4.98
  0
VERTEX
  8
6
 62
    80
 10
       -6.73
 20
        4.62
  0
VERTEX
  8
6
 62
    80
 10
       -6.73
 20
        4.28
  0
VERTEX
  8
6
 62
    80
 10
       -6.72
 20
        3.96
  0
VERTEX
  8
6
 62
    80
 10
       -6.71
 20
        3.66
  0
VERTEX
  8
6
 62
    80
 10
       -6.70
 20
        3.39
  0
VERTEX
  8
6
 62
    80
 10
       -6.69
 20
        3.13
  0
VERTEX
  8
6
 62
    80
 10
       -6.68
 20
        2.89
  0
VERTEX
  8
6
 62
    80
 10
       -6.66
 20
        2.68
  0
VERTEX
  8
6
 62
    80
 10
       -6.64
 20
        2.48
  0
VERTEX
  8
6
 62
    80
 10
       -6.62
 20
        2.29
  0
VERTEX
  8
6
 62
    80
 10
       -6.60
 20
        2.13
  0
VERTEX
  8
6
 62
    80
 10
       -6.58
 20
        1.97
  0
VERTEX
  8
6
 62
    80
 10
       -6.55
 20
        1.83
  0
VERTEX
  8
6
 62
    80
 10
       -6.52
 20
        1.69
  0
VERTEX
  8
6
 62
    80
 10
       -6.48
 20
        1.57
  0
VERTEX
  8
6
 62
    80
 10
       -6.45
 20
        1.45
  0
VERTEX
  8
6
 62
    80
 10
       -6.40
 20
        1.34
  0
VERTEX
  8
6
 62
    80
 10
       -6.36
 20
        1.23
  0
VERTEX
  8
6
 62
    80
 10
       -6.31
 20
        1.13
  0
VERTEX
  8
6
 62
    80
 10
       -6.26
 20
        1.03
  0
VERTEX
  8
6
 62
    80
 10
       -6.20
 20
        0.94
  0
VERTEX
  8
6
 62
    80
 10
       -6.14
 20
        0.85
  0
VERTEX
  8
6
 62
    80
 10
       -6.07
 20
        0.76
  0
VERTEX
  8
6
 62
    80
 10
       -6.00
 20
        0.68
  0
VERTEX
  8
6
 62
    80
 10
       -5.92
 20
        0.60
  0
VERTEX
  8
6
 62
    80
 10
       -5.84
 20
        0.52
  0
VERTEX
  8
6
 62
    80
 10
       -5.75
 20
        0.45
  0
VERTEX
  8
6
 62
    80
 10
       -5.65
 20
        0.38
  0
SEQEND
  0
POLYLINE
  8
6
 62
    80
 66
     1
 10
        0.00
 20
        0.00
  0
VERTEX
  8
6
 62
    80
 10
        6.75
 20
        6.65
  0
VERTEX
  8
6
 62
    80
 10
        6.75
 20
        6.20
  0
VERTEX
  8
6
 62
    80
 10
        6.75
 20
        5.77
  0
VERTEX
  8
6
 62
    80
 10
        6.74
 20
        5.36
  0
VERTEX
  8
6
 62
    80
 10
        6.74
 20
        4.98
  0
VERTEX
  8
6
 62
    80
 10
        6.73
 20
        4.62
  0
VERTEX
  8
6
 62
    80
 10
        6.73
 20
        4.28
  0
VERTEX
  8
6
 62
    80
 10
        6.72
 20
        3.96
  0
VERTEX
  8
6
 62
    80
 10
        6.71
 20
        3.66
  0
VERTEX
  8
6
 62
    80
 10
        6.70
 20
        3.39
  0
VERTEX
  8
6
 62
    80
 10
        6.69
 20
        3.13
  0
VERTEX
  8
6
 62
    80
 10
        6.68
 20
        2.89
  0
VERTEX
  8
6
 62
    80
 10
        6.66
 20
        2.68
  0
VERTEX
  8
6
 62
    80
 10
        6.64
 20
        2.48
  0
VERTEX
  8
6
 62
    80
 10
        6.62
 20
        2.29
  0
VERTEX
  8
6
 62
    80
 10
        6.60
 20
        2.13
  0
VERTEX
  8
6
 62
    80
 10
        6.58
 20
        1.97
  0
VERTEX
  8
6
 62
    80
 10
        6.55
 20
        1.83
  0
VERTEX
  8
6
 62
    80
 10
        6.52
 20
        1.69
  0
VERTEX
  8
6
 62
    80
 10
        6.48
 20
        1.57
  0
VERTEX
  8
6
 62
    80
 10
        6.45
 20
        1.45
  0
VERTEX
  8
6
 62
    80
 10
        6.40
 20
        1.34
  0
VERTEX
  8
6
 62
    80
 10
        6.36
 20
        1.23
  0
VERTEX
  8
6
 62
    80
 10
        6.31
 20
        1.13
  0
VERTEX
  8
6
 62
    80
 10
        6.26
 20
        1.03
  0
VERTEX
  8
6
 62
    80
 10
        6.20
 20
        0.94
  0
VERTEX
  8
6
 62
    80
 10
        6.14
 20
        0.85
  0
VERTEX
  8
6
 62
    80
 10
        6.07
 20
        0.76
  0
VERTEX
  8
6
 62
    80
 10
        6.00
 20
        0.68
  0
VERTEX
  8
6
 62
    80
 10
        5.92
 20
        0.60
  0
VERTEX
  8
6
 62
    80
 10
        5.84
 20
        0.52
  0
VERTEX
  8
6
 62
    80
 10
        5.75
 20
        0.45
  0
VERTEX
  8
6
 62
    80
 10
        5.65
 20
        0.38
  0
SEQEND
  0
POLYLINE
  8
7
 62
    80
 66
     1
 10
        0.00
 20
        0.00
  0
VERTEX
  8
7
 62
    80
 10
       -5.06
 20
        0.75
  0
VERTEX
  8
7
 62
    80
 10
       -5.14
 20
        0.85
  0
VERTEX
  8
7
 62
    80
 10
       -5.21
 20
        0.96
  0
VERTEX
  8
7
 62
    80
 10
       -5.27
 20
        1.06
  0
VERTEX
  8
7
 62
    80
 10
       -5.34
 20
        1.17
  0
VERTEX
  8
7
 62
    80
 10
       -5.41
 20
        1.29
  0
VERTEX
  8
7
 62
    80
 10
       -5.47
 20
        1.40
  0
VERTEX
  8
7
 62
    80
 10
       -5.53
 20
        1.51
  0
VERTEX
  8
7
 62
    80
 10
       -5.59
 20
        1.62
  0
VERTEX
  8
7
 62
    80
 10
       -5.65
 20
        1.74
  0
VERTEX
  8
7
 62
    80
 10
       -5.70
 20
        1.85
  0
VERTEX
  8
7
 62
    80
 10
       -5.75
 20
        1.97
  0
VERTEX
  8
7
 62
    80
 10
       -5.80
 20
        2.08
  0
VERTEX
  8
7
 62
    80
 10
       -5.85
 20
        2.20
  0
VERTEX
  8
7
 62
    80
 10
       -5.89
 20
        2.32
  0
VERTEX
  8
7
 62
    80
 10
       -5.94
 20
        2.44
  0
VERTEX
  8
7
 62
    80
 10
       -5.98
 20
        2.57
  0
VERTEX
  8
7
 62
    80
 10
       -6.02
 20
        2.71
  0
VERTEX
  8
7
 62
    80
 10
       -6.06
 20
        2.85
  0
VERTEX
  8
7
 62
    80
 10
       -6.10
 20
        3.01
  0
VERTEX
  8
7
 62
    80
 10
       -6.14
 20
        3.17
  0
VERTEX
  8
7
 62
    80
 10
       -6.18
 20
        3.35
  0
VERTEX
  8
7
 62
    80
 10
       -6.22
 20
        3.54
  0
VERTEX
  8
7
 62
    80
 10
       -6.26
 20
        3.75
  0
VERTEX
  8
7
 62
    80
 10
       -6.30
 20
        3.98
  0
VERTEX
  8
7
 62
    80
 10
       -6.35
 20
        4.23
  0
VERTEX
  8
7
 62
    80
 10
       -6.39
 20
        4.50
  0
VERTEX
  8
7
 62
    80
 10
       -6.45
 20
        4.79
  0
VERTEX
  8
7
 62
    80
 10
       -6.50
 20
        5.10
  0
VERTEX
  8
7
 62
    80
 10
       -6.56
 20
        5.45
  0
VERTEX
  8
7
 62
    80
 10
       -6.61
 20
        5.77
  0
VERTEX
  8
7
 62
    80
 10
       -6.62
 20
        5.82
  0
VERTEX
  8
7
 62
    80
 10
       -6.68
 20
        6.22
  0
VERTEX
  8
7
 62
    80
 10
       -6.75
 20
        6.65
  0
SEQEND
  0
POLYLINE
  8
7
 62
    80
 66
     1
 10
        0.00
 20
        0.00
  0
VERTEX
  8
7
 62
    80
 10
        5.06
 20
        0.75
  0
VERTEX
  8
7
 62
    80
 10
        5.14
 20
        0.85
  0
VERTEX
  8
7
 62
    80
 10
        5.21
 20
        0.96
  0
VERTEX
  8
7
 62
    80
 10
        5.27
 20
        1.06
  0
VERTEX
  8
7
 62
    80
 10
        5.34
 20
        1.17
  0
VERTEX
  8
7
 62
    80
 10
        5.41
 20
        1.29
  0
VERTEX
  8
7
 62
    80
 10
        5.47
 20
        1.40
  0
VERTEX
  8
7
 62
    80
 10
        5.53
 20
        1.51
  0
VERTEX
  8
7
 62
    80
 10
        5.59
 20
        1.62
  0
VERTEX
  8
7
 62
    80
 10
        5.65
 20
        1.74
  0
VERTEX
  8
7
 62
    80
 10
        5.70
 20
        1.85
  0
VERTEX
  8
7
 62
    80
 10
        5.75
 20
        1.97
  0
VERTEX
  8
7
 62
    80
 10
        5.80
 20
        2.08
  0
VERTEX
  8
7
 62
    80
 10
        5.85
 20
        2.20
  0
VERTEX
  8
7
 62
    80
 10
        5.89
 20
        2.32
  0
VERTEX
  8
7
 62
    80
 10
        5.94
 20
        2.44
  0
VERTEX
  8
7
 62
    80
 10
        5.98
 20
        2.57
  0
VERTEX
  8
7
 62
    80
 10
        6.02
 20
        2.71
  0
VERTEX
  8
7
 62
    80
 10
        6.06
 20
        2.85
  0
VERTEX
  8
7
 62
    80
 10
        6.10
 20
        3.01
  0
VERTEX
  8
7
 62
    80
 10
        6.14
 20
        3.17
  0
VERTEX
  8
7
 62
    80
 10
        6.18
 20
        3.35
  0
VERTEX
  8
7
 62
    80
 10
        6.22
 20
        3.54
  0
VERTEX
  8
7
 62
    80
 10
        6.26
 20
        3.75
  0
VERTEX
  8
7
 62
    80
 10
        6.30
 20
        3.98
  0
VERTEX
  8
7
 62
    80
 10
        6.35
 20
        4.23
  0
VERTEX
  8
7
 62
    80
 10
        6.39
 20
        4.50
  0
VERTEX
  8
7
 62
    80
 10
        6.45
 20
        4.79
  0
VERTEX
  8
7
 62
    80
 10
        6.50
 20
        5.10
  0
VERTEX
  8
7
 62
    80
 10
        6.56
 20
        5.45
  0
VERTEX
  8
7
 62
    80
 10
        6.61
 20
        5.77
  0
VERTEX
  8
7
 62
    80
 10
        6.62
 20
        5.82
  0
VERTEX
  8
7
 62
    80
 10
        6.68
 20
        6.22
  0
VERTEX
  8
7
 62
    80
 10
        6.75
 20
        6.65
  0
SEQEND
  0
POLYLINE
  8
75
 62
    80
 66
     1
 10
        0.00
 20
        0.00
  0
VERTEX
  8
75
 62
    80
 10
       -6.73
 20
        6.65
  0
VERTEX
  8
75
 62
    80
 10
       -6.58
 20
        6.24
  0
VERTEX
  8
75
 62
    80
 10
       -6.44
 20
        5.87
  0
VERTEX
  8
75
 62
    80
 10
       -6.31
 20
        5.53
  0
VERTEX
  8
75
 62
    80
 10
       -6.20
 20
        5.22
  0
VERTEX
  8
75
 62
    80
 10
       -6.09
 20
        4.94
  0
VERTEX
  8
75
 62
    80
 10
       -6.00
 20
        4.68
  0
VERTEX
  8
75
 62
    80
 10
       -5.92
 20
        4.44
  0
VERTEX
  8
75
 62
    80
 10
       -5.84
 20
        4.23
  0
VERTEX
  8
75
 62
    80
 10
       -5.77
 20
        4.03
  0
VERTEX
  8
75
 62
    80
 10
       -5.71
 20
        3.84
  0
VERTEX
  8
75
 62
    80
 10
       -5.65
 20
        3.67
  0
VERTEX
  8
75
 62
    80
 10
       -5.60
 20
        3.52
  0
VERTEX
  8
75
 62
    80
 10
       -5.54
 20
        3.37
  0
VERTEX
  8
75
 62
    80
 10
       -5.49
 20
        3.23
  0
VERTEX
  8
75
 62
    80
 10
       -5.44
 20
        3.10
  0
VERTEX
  8
75
 62
    80
 10
       -5.39
 20
        2.98
  0
VERTEX
  8
75
 62
    80
 10
       -5.34
 20
        2.86
  0
VERTEX
  8
75
 62
    80
 10
       -5.29
 20
        2.74
  0
VERTEX
  8
75
 62
    80
 10
       -5.24
 20
        2.63
  0
VERTEX
  8
75
 62
    80
 10
       -5.19
 20
        2.52
  0
VERTEX
  8
75
 62
    80
 10
       -5.14
 20
        2.41
  0
VERTEX
  8
75
 62
    80
 10
       -5.09
 20
        2.30
  0
VERTEX
  8
75
 62
    80
 10
       -5.04
 20
        2.18
  0
VERTEX
  8
75
 62
    80
 10
       -4.98
 20
        2.07
  0
VERTEX
  8
75
 62
    80
 10
       -4.93
 20
        1.95
  0
VERTEX
  8
75
 62
    80
 10
       -4.87
 20
        1.83
  0
VERTEX
  8
75
 62
    80
 10
       -4.81
 20
        1.71
  0
VERTEX
  8
75
 62
    80
 10
       -4.75
 20
        1.59
  0
VERTEX
  8
75
 62
    80
 10
       -4.69
 20
        1.47
  0
VERTEX
  8
75
 62
    80
 10
       -4.63
 20
        1.35
  0
VERTEX
  8
75
 62
    80
 10
       -4.57
 20
        1.22
  0
VERTEX
  8
75
 62
    80
 10
       -4.51
 20
        1.10
  0
SEQEND
  0
POLYLINE
  8
75
 62
    80
 66
     1
 10
        0.00
 20
        0.00
  0
VERTEX
  8
75
 62
    80
 10
        6.73
 20
        6.65
  0
VERTEX
  8
75
 62
    80
 10
        6.58
 20
        6.24
  0
VERTEX
  8
75
 62
    80
 10
        6.44
 20
        5.87
  0
VERTEX
  8
75
 62
    80
 10
        6.31
 20
        5.53
  0
VERTEX
  8
75
 62
    80
 10
        6.20
 20
        5.22
  0
VERTEX
  8
75
 62
    80
 10
        6.09
 20
        4.94
  0
VERTEX
  8
75
 62
    80
 10
        6.00
 20
        4.68
  0
VERTEX
  8
75
 62
    80
 10
        5.92
 20
        4.44
  0
VERTEX
  8
75
 62
    80
 10
        5.84
 20
        4.23
  0
VERTEX
  8
75
 62
    80
 10
        5.77
 20
        4.03
  0
VERTEX
  8
75
 62
    80
 10
        5.71
 20
        3.84
  0
VERTEX
  8
75
 62
    80
 10
        5.65
 20
        3.67
  0
VERTEX
  8
75
 62
    80
 10
        5.60
 20
        3.52
  0
VERTEX
  8
75
 62
    80
 10
        5.54
 20
        3.37
  0
VERTEX
  8
75
 62
    80
 10
        5.49
 20
        3.23
  0
VERTEX
  8
75
 62
    80
 10
        5.44
 20
        3.10
  0
VERTEX
  8
75
 62
    80
 10
        5.39
 20
        2.98
  0
VERTEX
  8
75
 62
    80
 10
        5.34
 20
        2.86
  0
VERTEX
  8
75
 62
    80
 10
        5.29
 20
        2.74
  0
VERTEX
  8
75
 62
    80
 10
        5.24
 20
        2.63
  0
VERTEX
  8
75
 62
    80
 10
        5.19
 20
        2.52
  0
VERTEX
  8
75
 62
    80
 10
        5.14
 20
        2.41
  0
VERTEX
  8
75
 62
    80
 10
        5.09
 20
        2.30
  0
VERTEX
  8
75
 62
    80
 10
        5.04
 20
        2.18
  0
VERTEX
  8
75
 62
    80
 10
        4.98
 20
        2.07
  0
VERTEX
  8
75
 62
    80
 10
        4.93
 20
        1.95
  0
VERTEX
  8
75
 62
    80
 10
        4.87
 20
        1.83
  0
VERTEX
  8
75
 62
    80
 10
        4.81
 20
        1.71
  0
VERTEX
  8
75
 62
    80
 10
        4.75
 20
        1.59
  0
VERTEX
  8
75
 62
    80
 10
        4.69
 20
        1.47
  0
VERTEX
  8
75
 62
    80
 10
        4.63
 20
        1.35
  0
VERTEX
  8
75
 62
    80
 10
        4.57
 20
        1.22
  0
VERTEX
  8
75
 62
    80
 10
        4.51
 20
        1.10
  0
SEQEND
  0
POLYLINE
  8
8
 62
    80
 66
     1
 10
        0.00
 20
        0.00
  0
VERTEX
  8
8
 62
    80
 10
       -6.65
 20
        6.64
  0
VERTEX
  8
8
 62
    80
 10
       -6.40
 20
        6.27
  0
VERTEX
  8
8
 62
    80
 10
       -6.18
 20
        5.94
  0
VERTEX
  8
8
 62
    80
 10
       -5.98
 20
        5.63
  0
VERTEX
  8
8
 62
    80
 10
       -5.80
 20
        5.36
  0
VERTEX
  8
8
 62
    80
 10
       -5.64
 20
        5.11
  0
VERTEX
  8
8
 62
    80
 10
       -5.50
 20
        4.88
  0
VERTEX
  8
8
 62
    80
 10
       -5.38
 20
        4.68
  0
VERTEX
  8
8
 62
    80
 10
       -5.27
 20
        4.49
  0
VERTEX
  8
8
 62
    80
 10
       -5.18
 20
        4.32
  0
VERTEX
  8
8
 62
    80
 10
       -5.09
 20
        4.17
  0
VERTEX
  8
8
 62
    80
 10
       -5.01
 20
        4.02
  0
VERTEX
  8
8
 62
    80
 10
       -4.94
 20
        3.89
  0
VERTEX
  8
8
 62
    80
 10
       -4.87
 20
        3.76
  0
VERTEX
  8
8
 62
    80
 10
       -4.80
 20
        3.64
  0
VERTEX
  8
8
 62
    80
 10
       -4.74
 20
        3.52
  0
VERTEX
  8
8
 62
    80
 10
       -4.68
 20
        3.41
  0
VERTEX
  8
8
 62
    80
 10
       -4.62
 20
        3.30
  0
VERTEX
  8
8
 62
    80
 10
       -4.56
 20
        3.19
  0
VERTEX
  8
8
 62
    80
 10
       -4.51
 20
        3.09
  0
VERTEX
  8
8
 62
    80
 10
       -4.45
 20
        2.98
  0
VERTEX
  8
8
 62
    80
 10
       -4.40
 20
        2.88
  0
VERTEX
  8
8
 62
    80
 10
       -4.35
 20
        2.77
  0
VERTEX
  8
8
 62
    80
 10
       -4.29
 20
        2.66
  0
VERTEX
  8
8
 62
    80
 10
       -4.24
 20
        2.55
  0
VERTEX
  8
8
 62
    80
 10
       -4.18
 20
        2.43
  0
VERTEX
  8
8
 62
    80
 10
       -4.13
 20
        2.31
  0
VERTEX
  8
8
 62
    80
 10
       -4.07
 20
        2.19
  0
VERTEX
  8
8
 62
    80
 10
       -4.02
 20
        2.07
  0
VERTEX
  8
8
 62
    80
 10
       -3.96
 20
        1.94
  0
VERTEX
  8
8
 62
    80
 10
       -3.91
 20
        1.80
  0
VERTEX
  8
8
 62
    80
 10
       -3.85
 20
        1.67
  0
VERTEX
  8
8
 62
    80
 10
       -3.80
 20
        1.53
  0
SEQEND
  0
POLYLINE
  8
8
 62
    80
 66
     1
 10
        0.00
 20
        0.00
  0
VERTEX
  8
8
 62
    80
 10
        6.65
 20
        6.64
  0
VERTEX
  8
8
 62
    80
 10
        6.40
 20
        6.27
  0
VERTEX
  8
8
 62
    80
 10
        6.18
 20
        5.94
  0
VERTEX
  8
8
 62
    80
 10
        5.98
 20
        5.63
  0
VERTEX
  8
8
 62
    80
 10
        5.80
 20
        5.36
  0
VERTEX
  8
8
 62
    80
 10
        5.64
 20
        5.11
  0
VERTEX
  8
8
 62
    80
 10
        5.50
 20
        4.88
  0
VERTEX
  8
8
 62
    80
 10
        5.38
 20
        4.68
  0
VERTEX
  8
8
 62
    80
 10
        5.27
 20
        4.49
  0
VERTEX
  8
8
 62
    80
 10
        5.18
 20
        4.32
  0
VERTEX
  8
8
 62
    80
 10
        5.09
 20
        4.17
  0
VERTEX
  8
8
 62
    80
 10
        5.01
 20
        4.02
  0
VERTEX
  8
8
 62
    80
 10
        4.94
 20
        3.89
  0
VERTEX
  8
8
 62
    80
 10
        4.87
 20
        3.76
  0
VERTEX
  8
8
 62
    80
 10
        4.80
 20
        3.64
  0
VERTEX
  8
8
 62
    80
 10
        4.74
 20
        3.52
  0
VERTEX
  8
8
 62
    80
 10
        4.68
 20
        3.41
  0
VERTEX
  8
8
 62
    80
 10
        4.62
 20
        3.30
  0
VERTEX
  8
8
 62
    80
 10
        4.56
 20
        3.19
  0
VERTEX
  8
8
 62
    80
 10
        4.51
 20
        3.09
  0
VERTEX
  8
8
 62
    80
 10
        4.45
 20
        2.98
  0
VERTEX
  8
8
 62
    80
 10
        4.40
 20
        2.88
  0
VERTEX
  8
8
 62
    80
 10
        4.35
 20
        2.77
  0
VERTEX
  8
8
 62
    80
 10
        4.29
 20
        2.66
  0
VERTEX
  8
8
 62
    80
 10
        4.24
 20
        2.55
  0
VERTEX
  8
8
 62
    80
 10
        4.18
 20
        2.43
  0
VERTEX
  8
8
 62
    80
 10
        4.13
 20
        2.31
  0
VERTEX
  8
8
 62
    80
 10
        4.07
 20
        2.19
  0
VERTEX
  8
8
 62
    80
 10
        4.02
 20
        2.07
  0
VERTEX
  8
8
 62
    80
 10
        3.96
 20
        1.94
  0
VERTEX
  8
8
 62
    80
 10
        3.91
 20
        1.80
  0
VERTEX
  8
8
 62
    80
 10
        3.85
 20
        1.67
  0
VERTEX
  8
8
 62
    80
 10
        3.80
 20
        1.53
  0
SEQEND
  0
POLYLINE
  8
85
 62
    80
 66
     1
 10
        0.00
 20
        0.00
  0
VERTEX
  8
85
 62
    80
 10
       -6.45
 20
        6.64
  0
VERTEX
  8
85
 62
    80
 10
       -6.11
 20
        6.31
  0
VERTEX
  8
85
 62
    80
 10
       -5.81
 20
        6.01
  0
VERTEX
  8
85
 62
    80
 10
       -5.55
 20
        5.74
  0
VERTEX
  8
85
 62
    80
 10
       -5.32
 20
        5.50
  0
VERTEX
  8
85
 62
    80
 10
       -5.11
 20
        5.29
  0
VERTEX
  8
85
 62
    80
 10
       -4.93
 20
        5.10
  0
VERTEX
  8
85
 62
    80
 10
       -4.77
 20
        4.93
  0
VERTEX
  8
85
 62
    80
 10
       -4.63
 20
        4.77
  0
VERTEX
  8
85
 62
    80
 10
       -4.51
 20
        4.63
  0
VERTEX
  8
85
 62
    80
 10
       -4.40
 20
        4.50
  0
VERTEX
  8
85
 62
    80
 10
       -4.30
 20
        4.38
  0
VERTEX
  8
85
 62
    80
 10
       -4.20
 20
        4.26
  0
VERTEX
  8
85
 62
    80
 10
       -4.11
 20
        4.15
  0
VERTEX
  8
85
 62
    80
 10
       -4.03
 20
        4.04
  0
VERTEX
  8
85
 62
    80
 10
       -3.95
 20
        3.94
  0
VERTEX
  8
85
 62
    80
 10
       -3.88
 20
        3.84
  0
VERTEX
  8
85
 62
    80
 10
       -3.81
 20
        3.74
  0
VERTEX
  8
85
 62
    80
 10
       -3.74
 20
        3.64
  0
VERTEX
  8
85
 62
    80
 10
       -3.67
 20
        3.55
  0
VERTEX
  8
85
 62
    80
 10
       -3.61
 20
        3.45
  0
VERTEX
  8
85
 62
    80
 10
       -3.55
 20
        3.35
  0
VERTEX
  8
85
 62
    80
 10
       -3.48
 20
        3.25
  0
VERTEX
  8
85
 62
    80
 10
       -3.42
 20
        3.15
  0
VERTEX
  8
85
 62
    80
 10
       -3.36
 20
        3.04
  0
VERTEX
  8
85
 62
    80
 10
       -3.30
 20
        2.93
  0
VERTEX
  8
85
 62
    80
 10
       -3.24
 20
        2.81
  0
VERTEX
  8
85
 62
    80
 10
       -3.18
 20
        2.70
  0
VERTEX
  8
85
 62
    80
 10
       -3.12
 20
        2.57
  0
VERTEX
  8
85
 62
    80
 10
       -3.06
 20
        2.44
  0
VERTEX
  8
85
 62
    80
 10
       -3.01
 20
        2.31
  0
VERTEX
  8
85
 62
    80
 10
       -2.96
 20
        2.17
  0
VERTEX
  8
85
 62
    80
 10
       -2.91
 20
        2.02
  0
SEQEND
  0
POLYLINE
  8
85
 62
    80
 66
     1
 10
        0.00
 20
        0.00
  0
VERTEX
  8
85
 62
    80
 10
        6.45
 20
        6.64
  0
VERTEX
  8
85
 62
    80
 10
        6.11
 20
        6.31
  0
VERTEX
  8
85
 62
    80
 10
        5.81
 20
        6.01
  0
VERTEX
  8
85
 62
    80
 10
        5.55
 20
        5.74
  0
VERTEX
  8
85
 62
    80
 10
        5.32
 20
        5.50
  0
VERTEX
  8
85
 62
    80
 10
        5.11
 20
        5.29
  0
VERTEX
  8
85
 62
    80
 10
        4.93
 20
        5.10
  0
VERTEX
  8
85
 62
    80
 10
        4.77
 20
        4.93
  0
VERTEX
  8
85
 62
    80
 10
        4.63
 20
        4.77
  0
VERTEX
  8
85
 62
    80
 10
        4.51
 20
        4.63
  0
VERTEX
  8
85
 62
    80
 10
        4.40
 20
        4.50
  0
VERTEX
  8
85
 62
    80
 10
        4.30
 20
        4.38
  0
VERTEX
  8
85
 62
    80
 10
        4.20
 20
        4.26
  0
VERTEX
  8
85
 62
    80
 10
        4.11
 20
        4.15
  0
VERTEX
  8
85
 62
    80
 10
        4.03
 20
        4.04
  0
VERTEX
  8
85
 62
    80
 10
        3.95
 20
        3.94
  0
VERTEX
  8
85
 62
    80
 10
        3.88
 20
        3.84
  0
VERTEX
  8
85
 62
    80
 10
        3.81
 20
        3.74
  0
VERTEX
  8
85
 62
    80
 10
        3.74
 20
        3.64
  0
VERTEX
  8
85
 62
    80
 10
        3.67
 20
        3.55
  0
VERTEX
  8
85
 62
    80
 10
        3.61
 20
        3.45
  0
VERTEX
  8
85
 62
    80
 10
        3.55
 20
        3.35
  0
VERTEX
  8
85
 62
    80
 10
        3.48
 20
        3.25
  0
VERTEX
  8
85
 62
    80
 10
        3.42
 20
        3.15
  0
VERTEX
  8
85
 62
    80
 10
        3.36
 20
        3.04
  0
VERTEX
  8
85
 62
    80
 10
        3.30
 20
        2.93
  0
VERTEX
  8
85
 62
    80
 10
        3.24
 20
        2.81
  0
VERTEX
  8
85
 62
    80
 10
        3.18
 20
        2.70
  0
VERTEX
  8
85
 62
    80
 10
        3.12
 20
        2.57
  0
VERTEX
  8
85
 62
    80
 10
        3.06
 20
        2.44
  0
VERTEX
  8
85
 62
    80
 10
        3.01
 20
        2.31
  0
VERTEX
  8
85
 62
    80
 10
        2.96
 20
        2.17
  0
VERTEX
  8
85
 62
    80
 10
        2.91
 20
        2.02
  0
SEQEND
  0
POLYLINE
  8
9
 62
    80
 66
     1
 10
        0.00
 20
        0.00
  0
VERTEX
  8
9
 62
    80
 10
       -6.05
 20
        6.64
  0
VERTEX
  8
9
 62
    80
 10
       -5.67
 20
        6.35
  0
VERTEX
  8
9
 62
    80
 10
       -5.33
 20
        6.09
  0
VERTEX
  8
9
 62
    80
 10
       -5.03
 20
        5.86
  0
VERTEX
  8
9
 62
    80
 10
       -4.76
 20
        5.66
  0
VERTEX
  8
9
 62
    80
 10
       -4.52
 20
        5.48
  0
VERTEX
  8
9
 62
    80
 10
       -4.31
 20
        5.32
  0
VERTEX
  8
9
 62
    80
 10
       -4.13
 20
        5.18
  0
VERTEX
  8
9
 62
    80
 10
       -3.96
 20
        5.06
  0
VERTEX
  8
9
 62
    80
 10
       -3.82
 20
        4.94
  0
VERTEX
  8
9
 62
    80
 10
       -3.68
 20
        4.83
  0
VERTEX
  8
9
 62
    80
 10
       -3.56
 20
        4.73
  0
VERTEX
  8
9
 62
    80
 10
       -3.44
 20
        4.64
  0
VERTEX
  8
9
 62
    80
 10
       -3.33
 20
        4.54
  0
VERTEX
  8
9
 62
    80
 10
       -3.23
 20
        4.45
  0
VERTEX
  8
9
 62
    80
 10
       -3.14
 20
        4.37
  0
VERTEX
  8
9
 62
    80
 10
       -3.04
 20
        4.28
  0
VERTEX
  8
9
 62
    80
 10
       -2.95
 20
        4.19
  0
VERTEX
  8
9
 62
    80
 10
       -2.87
 20
        4.11
  0
VERTEX
  8
9
 62
    80
 10
       -2.78
 20
        4.02
  0
VERTEX
  8
9
 62
    80
 10
       -2.69
 20
        3.93
  0
VERTEX
  8
9
 62
    80
 10
       -2.61
 20
        3.84
  0
VERTEX
  8
9
 62
    80
 10
       -2.52
 20
        3.75
  0
VERTEX
  8
9
 62
    80
 10
       -2.44
 20
        3.66
  0
VERTEX
  8
9
 62
    80
 10
       -2.35
 20
        3.56
  0
VERTEX
  8
9
 62
    80
 10
       -2.26
 20
        3.45
  0
VERTEX
  8
9
 62
    80
 10
       -2.18
 20
        3.35
  0
VERTEX
  8
9
 62
    80
 10
       -2.10
 20
        3.23
  0
VERTEX
  8
9
 62
    80
 10
       -2.03
 20
        3.11
  0
VERTEX
  8
9
 62
    80
 10
       -1.96
 20
        2.98
  0
VERTEX
  8
9
 62
    80
 10
       -1.90
 20
        2.84
  0
VERTEX
  8
9
 62
    80
 10
       -1.84
 20
        2.69
  0
VERTEX
  8
9
 62
    80
 10
       -1.80
 20
        2.53
  0
SEQEND
  0
POLYLINE
  8
9
 62
    80
 66
     1
 10
        0.00
 20
        0.00
  0
VERTEX
  8
9
 62
    80
 10
        6.05
 20
        6.64
  0
VERTEX
  8
9
 62
    80
 10
        5.67
 20
        6.35
  0
VERTEX
  8
9
 62
    80
 10
        5.33
 20
        6.09
  0
VERTEX
  8
9
 62
    80
 10
        5.03
 20
        5.86
  0
VERTEX
  8
9
 62
    80
 10
        4.76
 20
        5.66
  0
VERTEX
  8
9
 62
    80
 10
        4.52
 20
        5.48
  0
VERTEX
  8
9
 62
    80
 10
        4.31
 20
        5.32
  0
VERTEX
  8
9
 62
    80
 10
        4.13
 20
        5.18
  0
VERTEX
  8
9
 62
    80
 10
        3.96
 20
        5.06
  0
VERTEX
  8
9
 62
    80
 10
        3.82
 20
        4.94
  0
VERTEX
  8
9
 62
    80
 10
        3.68
 20
        4.83
  0
VERTEX
  8
9
 62
    80
 10
        3.56
 20
        4.73
  0
VERTEX
  8
9
 62
    80
 10
        3.44
 20
        4.64
  0
VERTEX
  8
9
 62
    80
 10
        3.33
 20
        4.54
  0
VERTEX
  8
9
 62
    80
 10
        3.23
 20
        4.45
  0
VERTEX
  8
9
 62
    80
 10
        3.14
 20
        4.37
  0
VERTEX
  8
9
 62
    80
 10
        3.04
 20
        4.28
  0
VERTEX
  8
9
 62
    80
 10
        2.95
 20
        4.19
  0
VERTEX
  8
9
 62
    80
 10
        2.87
 20
        4.11
  0
VERTEX
  8
9
 62
    80
 10
        2.78
 20
        4.02
  0
VERTEX
  8
9
 62
    80
 10
        2.69
 20
        3.93
  0
VERTEX
  8
9
 62
    80
 10
        2.61
 20
        3.84
  0
VERTEX
  8
9
 62
    80
 10
        2.52
 20
        3.75
  0
VERTEX
  8
9
 62
    80
 10
        2.44
 20
        3.66
  0
VERTEX
  8
9
 62
    80
 10
        2.35
 20
        3.56
  0
VERTEX
  8
9
 62
    80
 10
        2.26
 20
        3.45
  0
VERTEX
  8
9
 62
    80
 10
        2.18
 20
        3.35
  0
VERTEX
  8
9
 62
    80
 10
        2.10
 20
        3.23
  0
VERTEX
  8
9
 62
    80
 10
        2.03
 20
        3.11
  0
VERTEX
  8
9
 62
    80
 10
        1.96
 20
        2.98
  0
VERTEX
  8
9
 62
    80
 10
        1.90
 20
        2.84
  0
VERTEX
  8
9
 62
    80
 10
        1.84
 20
        2.69
  0
VERTEX
  8
9
 62
    80
 10
        1.80
 20
        2.53
  0
SEQEND
  0
POLYLINE
  8
95
 62
    80
 66
     1
 10
        0.00
 20
        0.00
  0
VERTEX
  8
95
 62
    80
 10
       -5.35
 20
        6.64
  0
VERTEX
  8
95
 62
    80
 10
       -5.01
 20
        6.40
  0
VERTEX
  8
95
 62
    80
 10
       -4.71
 20
        6.19
  0
VERTEX
  8
95
 62
    80
 10
       -4.43
 20
        6.01
  0
VERTEX
  8
95
 62
    80
 10
       -4.18
 20
        5.85
  0
VERTEX
  8
95
 62
    80
 10
       -3.95
 20
        5.71
  0
VERTEX
  8
95
 62
    80
 10
       -3.75
 20
        5.59
  0
VERTEX
  8
95
 62
    80
 10
       -3.56
 20
        5.48
  0
VERTEX
  8
95
 62
    80
 10
       -3.39
 20
        5.39
  0
VERTEX
  8
95
 62
    80
 10
       -3.23
 20
        5.30
  0
VERTEX
  8
95
 62
    80
 10
       -3.09
 20
        5.23
  0
VERTEX
  8
95
 62
    80
 10
       -2.96
 20
        5.16
  0
VERTEX
  8
95
 62
    80
 10
       -2.83
 20
        5.09
  0
VERTEX
  8
95
 62
    80
 10
       -2.71
 20
        5.03
  0
VERTEX
  8
95
 62
    80
 10
       -2.59
 20
        4.97
  0
VERTEX
  8
95
 62
    80
 10
       -2.47
 20
        4.91
  0
VERTEX
  8
95
 62
    80
 10
       -2.36
 20
        4.85
  0
VERTEX
  8
95
 62
    80
 10
       -2.24
 20
        4.78
  0
VERTEX
  8
95
 62
    80
 10
       -2.12
 20
        4.72
  0
VERTEX
  8
95
 62
    80
 10
       -1.99
 20
        4.66
  0
VERTEX
  8
95
 62
    80
 10
       -1.86
 20
        4.59
  0
VERTEX
  8
95
 62
    80
 10
       -1.73
 20
        4.51
  0
VERTEX
  8
95
 62
    80
 10
       -1.58
 20
        4.44
  0
VERTEX
  8
95
 62
    80
 10
       -1.43
 20
        4.35
  0
VERTEX
  8
95
 62
    80
 10
       -1.27
 20
        4.26
  0
VERTEX
  8
95
 62
    80
 10
       -1.12
 20
        4.16
  0
VERTEX
  8
95
 62
    80
 10
       -0.96
 20
        4.04
  0
VERTEX
  8
95
 62
    80
 10
       -0.81
 20
        3.90
  0
VERTEX
  8
95
 62
    80
 10
       -0.67
 20
        3.75
  0
VERTEX
  8
95
 62
    80
 10
       -0.55
 20
        3.58
  0
VERTEX
  8
95
 62
    80
 10
       -0.44
 20
        3.38
  0
VERTEX
  8
95
 62
    80
 10
       -0.34
 20
        3.15
  0
VERTEX
  8
95
 62
    80
 10
       -0.27
 20
        2.90
  0
SEQEND
  0
POLYLINE
  8
95
 62
    80
 66
     1
 10
        0.00
 20
        0.00
  0
VERTEX
  8
95
 62
    80
 10
        5.35
 20
        6.64
  0
VERTEX
  8
95
 62
    80
 10
        5.01
 20
        6.40
  0
VERTEX
  8
95
 62
    80
 10
        4.71
 20
        6.19
  0
VERTEX
  8
95
 62
    80
 10
        4.43
 20
        6.01
  0
VERTEX
  8
95
 62
    80
 10
        4.18
 20
        5.85
  0
VERTEX
  8
95
 62
    80
 10
        3.95
 20
        5.71
  0
VERTEX
  8
95
 62
    80
 10
        3.75
 20
        5.59
  0
VERTEX
  8
95
 62
    80
 10
        3.56
 20
        5.48
  0
VERTEX
  8
95
 62
    80
 10
        3.39
 20
        5.39
  0
VERTEX
  8
95
 62
    80
 10
        3.23
 20
        5.30
  0
VERTEX
  8
95
 62
    80
 10
        3.09
 20
        5.23
  0
VERTEX
  8
95
 62
    80
 10
        2.96
 20
        5.16
  0
VERTEX
  8
95
 62
    80
 10
        2.83
 20
        5.09
  0
VERTEX
  8
95
 62
    80
 10
        2.71
 20
        5.03
  0
VERTEX
  8
95
 62
    80
 10
        2.59
 20
        4.97
  0
VERTEX
  8
95
 62
    80
 10
        2.47
 20
        4.91
  0
VERTEX
  8
95
 62
    80
 10
        2.36
 20
        4.85
  0
VERTEX
  8
95
 62
    80
 10
        2.24
 20
        4.78
  0
VERTEX
  8
95
 62
    80
 10
        2.12
 20
        4.72
  0
VERTEX
  8
95
 62
    80
 10
        1.99
 20
        4.66
  0
VERTEX
  8
95
 62
    80
 10
        1.86
 20
        4.59
  0
VERTEX
  8
95
 62
    80
 10
        1.73
 20
        4.51
  0
VERTEX
  8
95
 62
    80
 10
        1.58
 20
        4.44
  0
VERTEX
  8
95
 62
    80
 10
        1.43
 20
        4.35
  0
VERTEX
  8
95
 62
    80
 10
        1.27
 20
        4.26
  0
VERTEX
  8
95
 62
    80
 10
        1.12
 20
        4.16
  0
VERTEX
  8
95
 62
    80
 10
        0.96
 20
        4.04
  0
VERTEX
  8
95
 62
    80
 10
        0.81
 20
        3.90
  0
VERTEX
  8
95
 62
    80
 10
        0.67
 20
        3.75
  0
VERTEX
  8
95
 62
    80
 10
        0.55
 20
        3.58
  0
VERTEX
  8
95
 62
    80
 10
        0.44
 20
        3.38
  0
VERTEX
  8
95
 62
    80
 10
        0.34
 20
        3.15
  0
VERTEX
  8
95
 62
    80
 10
        0.27
 20
        2.90
  0
SEQEND
  0
ENDSEC
  0
EOF
